<svg id="Group_1182" data-name="Group 1182" xmlns="http://www.w3.org/2000/svg" width="24.617" height="29.154" viewBox="0 0 24.617 29.154">
  <path id="Path_1008" data-name="Path 1008" d="M48.761,12.165V10.327a.981.981,0,0,0-1.961,0v1.839a.987.987,0,0,0,.981.981A.95.95,0,0,0,48.761,12.165Z" transform="translate(-35.481 -9.346)" fill="#00244a"/>
  <path id="Path_1009" data-name="Path 1009" d="M34.257,16.041a1.016,1.016,0,0,0,.858.49,1.285,1.285,0,0,0,.49-.123.952.952,0,0,0,.46-.613,1.121,1.121,0,0,0-.092-.766l-.919-1.594a.863.863,0,0,0-.613-.46,1.121,1.121,0,0,0-.766.092,1,1,0,0,0-.368,1.348Z" transform="translate(-26.032 -11.843)" fill="#00244a"/>
  <path id="Path_1010" data-name="Path 1010" d="M57.674,16.278a1.01,1.01,0,0,0,1.348-.368l.919-1.593a1.1,1.1,0,0,0,.092-.766,1.034,1.034,0,0,0-.46-.613.974.974,0,0,0-1.348.368L57.307,14.9A1.03,1.03,0,0,0,57.674,16.278Z" transform="translate(-42.678 -11.743)" fill="#00244a"/>
  <path id="Path_1011" data-name="Path 1011" d="M20.569,34.956l.919-3.984a2.244,2.244,0,0,0-1.624-2.7,2.213,2.213,0,0,0-2.421.919l-4.137,6.037a6.421,6.421,0,0,0-1.073,4.229l.4,4.2-2.513,2.39a.823.823,0,0,0-.031,1.164l3.892,4.106a.823.823,0,0,0,1.164.031l2.942-2.789,2.666-3.432a4.02,4.02,0,0,0,.827-2.543l-.245-6.16A2.1,2.1,0,0,0,20.569,34.956ZM14.562,49.574,11.8,46.663l1.624-1.532,2.758,2.911Zm4.872-5.485L17.32,46.816,14.256,43.6l-.429-4.29a4.986,4.986,0,0,1,.8-3.156l4.106-6.037a.645.645,0,0,1,.674-.245.624.624,0,0,1,.46.735l-.889,3.861a1.954,1.954,0,0,0-1.685,1.5l-.4,1.5a10.815,10.815,0,0,0-.245,2.206l.031,1.747a.812.812,0,0,0,1.624-.031l-.031-1.747a6.816,6.816,0,0,1,.215-1.747l.4-1.5a.433.433,0,0,1,.429-.306.423.423,0,0,1,.368.368l.245,6.159A2.244,2.244,0,0,1,19.435,44.088Z" transform="translate(-9.862 -22.424)" fill="#00244a"/>
  <path id="Path_1012" data-name="Path 1012" d="M63.425,46.019l-2.513-2.39.4-4.2A6.467,6.467,0,0,0,60.238,35.2L56.132,29.2a2.213,2.213,0,0,0-2.421-.919,2.244,2.244,0,0,0-1.624,2.7l.919,3.984a2.078,2.078,0,0,0-.735,1.471l-.276,6.129a3.848,3.848,0,0,0,.827,2.543l2.666,3.432,2.942,2.789a.824.824,0,0,0,1.164-.031l3.892-4.106A.826.826,0,0,0,63.425,46.019Zm-9.316-1.931a2.163,2.163,0,0,1-.46-1.471l.245-6.159a.354.354,0,0,1,.368-.368.392.392,0,0,1,.429.306l.368,1.5a6.816,6.816,0,0,1,.215,1.747l-.031,1.747a.812.812,0,0,0,1.624.031l.031-1.747a7.418,7.418,0,0,0-.245-2.176l-.4-1.5a1.989,1.989,0,0,0-1.685-1.5l-.889-3.861a.587.587,0,0,1,.46-.735.645.645,0,0,1,.674.245l4.106,6.037a4.8,4.8,0,0,1,.8,3.156l-.429,4.29-3.064,3.218Zm4.872,5.485-1.624-1.532,2.758-2.911,1.624,1.532Z" transform="translate(-39.082 -22.424)" fill="#00244a"/>
</svg>
