<svg xmlns="http://www.w3.org/2000/svg" width="26.875" height="26.873" viewBox="0 0 26.875 26.873">
  <g id="Group_1178" data-name="Group 1178" transform="translate(0.375 0.375)">
    <path id="Path_1248" data-name="Path 1248" d="M-101.842,182.575a27.16,27.16,0,0,1-5.961.643c-4.483,0-8.882-1.081-8.882-2.184v-3.485a3.948,3.948,0,0,1,1.536-3.145,12.122,12.122,0,0,1,7.346-2.68,10.713,10.713,0,0,1,3.657.648v-.324a1.539,1.539,0,0,1,.178-.726,11.2,11.2,0,0,0-2.022-.5c2.388-1.029,3.934-3.986,3.934-6.687a5.882,5.882,0,0,0-5.747-6,5.885,5.885,0,0,0-5.747,6c0,2.7,1.546,5.658,3.934,6.687a13.745,13.745,0,0,0-6.165,2.743,5,5,0,0,0-1.949,3.981v3.485c0,3.14,9.828,3.229,9.927,3.229a31.515,31.515,0,0,0,6.865-.846A8.947,8.947,0,0,1-101.842,182.575Zm-10.664-18.438a4.838,4.838,0,0,1,4.7-4.953,4.838,4.838,0,0,1,4.7,4.953c0,2.847-1.928,6.019-4.7,6.019S-112.505,166.985-112.505,164.138Z" transform="translate(117.73 -158.14)" fill="#00244a" stroke="#00244a" stroke-width="0.75"/>
    <g id="Group_1028" data-name="Group 1028" transform="translate(14.631 11.495)">
      <path id="Path_1002" data-name="Path 1002" d="M-78.236,184.446v2.884c0,5.387-5.517,7.393-5.575,7.408a.48.48,0,0,1-.172.031.5.5,0,0,1-.172-.031,9.808,9.808,0,0,1-2.21-1.223,8.388,8.388,0,0,1-.925-.763s0,.005-.005,0a7.256,7.256,0,0,1-2.435-5.423v-4.775a.484.484,0,0,1,.125-.334.5.5,0,0,1,.329-.188c.031,0,3.307-.455,4.969-1.776a.526.526,0,0,1,.653,0A9.978,9.978,0,0,0-80,181.782l-.862.862a10.791,10.791,0,0,1-3.119-1.332,12.46,12.46,0,0,1-4.242,1.6c-.178.037-.329.068-.46.089v4.331a6.362,6.362,0,0,0,2.45,4.974,8.7,8.7,0,0,0,.888.653,9.409,9.409,0,0,0,1.369.731c.883-.366,4.7-2.173,4.7-6.358v-1.839Z" transform="translate(89.73 -180.143)" fill="#00244a" stroke="#00244a" stroke-width="0.75"/>
      <path id="Path_1003" data-name="Path 1003" d="M-75.371,184.661a.5.5,0,0,1-.152.371l-5.225,5.225a.535.535,0,0,1-.371.152.545.545,0,0,1-.371-.152l-2.09-2.09a.524.524,0,0,1-.005-.731c0-.005,0-.005.005-.01a.527.527,0,0,1,.742,0l.935.935v.005l.784.784,4.31-4.316.543-.543a.527.527,0,0,1,.742,0A.5.5,0,0,1-75.371,184.661Z" transform="translate(86.865 -182.05)" fill="#00244a" stroke="#00244a" stroke-width="0.75"/>
    </g>
  </g>
</svg>
