<svg xmlns="http://www.w3.org/2000/svg" width="37.14" height="28.859" viewBox="0 0 37.14 28.859">
  <path id="Path_1568" data-name="Path 1568" d="M392.89,144.766a6.653,6.653,0,0,0,6.653-6.653.733.733,0,0,0-.732-.732h-.791l-4.1-11.583h10.15v22.271h-3.369a.732.732,0,1,0,0,1.464h8.2a.732.732,0,1,0,0-1.464h-3.369V125.8h10.149l-4.1,11.583h-.79a.732.732,0,0,0-.732.732,6.653,6.653,0,0,0,13.306,0,.732.732,0,0,0-.732-.732h-.791l-4.44-12.559a.722.722,0,0,0-.869-.464.722.722,0,0,0-.178-.024h-9.525a2.2,2.2,0,0,0,.237-.989v-.434a2.217,2.217,0,0,0-.672-1.588,2.3,2.3,0,0,0-3.2,0,2.218,2.218,0,0,0-.672,1.588v.434a2.2,2.2,0,0,0,.237.989h-9.525a.726.726,0,0,0-.178.024.721.721,0,0,0-.869.464l-4.44,12.559h-.79a.732.732,0,0,0-.732.732,6.653,6.653,0,0,0,6.653,6.653Zm0-17.5,3.578,10.119h-7.155Zm-4.613,11.583h9.744a5.182,5.182,0,0,1-10.263,0ZM404,122.912a.751.751,0,0,1,.231-.541.833.833,0,0,1,1.155,0,.751.751,0,0,1,.231.541v.434a.753.753,0,0,1-.231.541.834.834,0,0,1-1.155,0,.75.75,0,0,1-.231-.541ZM416.724,143.3a5.177,5.177,0,0,1-5.132-4.457h10.263a5.177,5.177,0,0,1-5.132,4.457Zm3.578-5.921h-7.155l3.577-10.119Z" transform="translate(-386.237 -120.674)" fill="#00244a"/>
</svg>
