<svg xmlns="http://www.w3.org/2000/svg" width="27.842" height="32.759" viewBox="0 0 27.842 32.759">
  <g id="Group_1179" data-name="Group 1179" transform="translate(0.75 0.75)">
    <path id="path5159-0" d="M54,144.039l3.546,3.546L64.132,141" transform="translate(-45.895 -130.869)" fill="none" stroke="#00244a" stroke-linecap="round" stroke-linejoin="round" stroke-width="1.5"/>
    <path id="path5190-8" d="M53.5,146.784a8.106,8.106,0,1,1,5.166.013" transform="translate(-42.935 -125.935)" fill="none" stroke="#00244a" stroke-linecap="round" stroke-linejoin="round" stroke-width="1.5"/>
    <g id="g5352" transform="translate(0.382 18.934)">
      <path id="path5341" d="M58.369,161l1.787,3.62,3.995.581-2.891,2.818L61.942,172l-3.573-1.878L54.8,172l.682-3.979L52.587,165.2l3.995-.581Z" transform="translate(-45.579 -159.672)" fill="none" stroke="#00244a" stroke-linecap="round" stroke-linejoin="round" stroke-width="1.5"/>
      <path id="path5343" d="M46.231,167.16l-2.856-1.5-2.857,1.5.546-3.177-2.311-2.25,3.193-.464,1.429-2.891,1.428,2.891,3.193.464" transform="translate(-38.753 -158.378)" fill="none" stroke="#00244a" stroke-linecap="round" stroke-linejoin="round" stroke-width="1.5"/>
      <path id="path5347" d="M72.765,167.16l2.856-1.5,2.857,1.5-.546-3.177,2.311-2.25-3.193-.464-1.429-2.891-1.428,2.891L71,161.733" transform="translate(-54.664 -158.378)" fill="none" stroke="#00244a" stroke-linecap="round" stroke-linejoin="round" stroke-width="1.5"/>
    </g>
    <path id="path5354" d="M39.757,140.748a13.171,13.171,0,1,1,22.807.037" transform="translate(-38 -121)" fill="none" stroke="#00244a" stroke-linecap="round" stroke-linejoin="round" stroke-width="1.5"/>
  </g>
</svg>
