<svg xmlns="http://www.w3.org/2000/svg" width="28.721" height="32.55" viewBox="0 0 28.721 32.55">
  <g id="Group_1181" data-name="Group 1181" transform="translate(0 0)">
    <path id="Path_1004" data-name="Path 1004" d="M19.308,44.953a.407.407,0,0,1-.1-.011.474.474,0,0,1-.318-.24l-3.829-6.98a.511.511,0,0,1,.15-.662l5.733-3.98A6.03,6.03,0,0,1,24.4,31.991h7.834a2,2,0,0,1,0,3.988H26.967a.5.5,0,0,0,0,1h5.28a4.2,4.2,0,0,0,3.046-1.314l5.976-6.225a1.4,1.4,0,0,1,2.032,0,1.542,1.542,0,0,1,0,2.116l-6.348,7.682a5.167,5.167,0,0,1-3.579,1.887l-9.09.746a3.272,3.272,0,0,0-1.748.688l-2.94,2.3A.463.463,0,0,1,19.308,44.953Zm-3.192-7.322,3.338,6.085,2.506-1.958a4.206,4.206,0,0,1,2.248-.882l9.09-.746a4.223,4.223,0,0,0,2.928-1.545L42.6,30.875a.525.525,0,0,0,.025-.733.467.467,0,0,0-.678,0L35.97,36.367a5.127,5.127,0,0,1-3.723,1.606h-5.28a1.5,1.5,0,0,1,0-2.991h5.265a1,1,0,0,0,0-1.994H24.4a5.1,5.1,0,0,0-2.921.921Z" transform="translate(-15 -12.403)" fill="#00244a"/>
    <g id="Group_780" data-name="Group 780" transform="translate(5.131 0)">
      <g id="path5406">
        <path id="Path_1005" data-name="Path 1005" d="M29.838,29.216a9.108,9.108,0,1,1,9.108-9.107A9.118,9.118,0,0,1,29.838,29.216Zm0-17.144a8.036,8.036,0,1,0,8.036,8.036A8.045,8.045,0,0,0,29.838,12.072Z" transform="translate(-20.73 -11)" fill="#00244a"/>
      </g>
      <g id="circle5516" transform="translate(5.18 5.894)">
        <path id="Path_1006" data-name="Path 1006" d="M27,16.911a1.071,1.071,0,1,1-1.071,1.071A1.071,1.071,0,0,1,27,16.911Z" transform="translate(-25.925 -16.911)" fill="#00244a"/>
      </g>
      <g id="circle5518" transform="translate(10.894 5.893)">
        <ellipse id="Ellipse_787" data-name="Ellipse 787" cx="1.071" cy="1.071" rx="1.071" ry="1.071" fill="#00244a"/>
      </g>
      <g id="path5537" transform="translate(5.382 11.432)">
        <path id="Path_1007" data-name="Path 1007" d="M29.854,24.964a4.822,4.822,0,0,1-3.589-1.6.536.536,0,1,1,.8-.715,3.749,3.749,0,0,0,5.586,0,.536.536,0,1,1,.8.716A4.826,4.826,0,0,1,29.854,24.964Z" transform="translate(-26.128 -22.465)" fill="#00244a"/>
      </g>
    </g>
  </g>
</svg>
