<?xml version="1.0" encoding="utf-8"?>
<!-- Generator: Adobe Illustrator 22.1.0, SVG Export Plug-In . SVG Version: 6.00 Build 0)  -->
<svg version="1.1" id="Logo_Copy" xmlns="http://www.w3.org/2000/svg" xmlns:xlink="http://www.w3.org/1999/xlink" x="0px" y="0px"
	 viewBox="0 0 1078 137" style="enable-background:new 0 0 1078 137;" xml:space="preserve">
<style type="text/css">
	.st0{enable-background:new    ;}
	.st1{fill:#00244A;}
	.st2{fill:#00254A;}
	.st3{fill:#3A84B6;}
	.st4{fill:none;stroke:#3A84B6;stroke-width:1.500000e-03;stroke-miterlimit:10;}
</style>
<g>
	<g class="st0">
		<path class="st1" d="M464.9,68.6h-5.3V30.4h-10.8v-4.7h27.1v4.7h-10.9V68.6z"/>
		<path class="st1" d="M483.2,25.7h14c6.8,0,11.1,4,11.1,10.7c0,4.7-1.6,9.6-6.7,10.8v0.1c3.8,0.4,5.9,3.5,6.1,7.1l0.4,7.3
			c0.2,4.7,1,5.9,2.3,6.7H504c-0.9-0.9-1.3-4.1-1.5-6.2l-0.4-6.7c-0.4-5.9-3.7-6.2-6.4-6.2h-7.2v19.1h-5.3V25.7z M488.6,45.2h5.3
			c3.1,0,8.9,0,8.9-8.3c0-4.2-2.8-6.8-7.8-6.8h-6.4V45.2z"/>
		<path class="st1" d="M526.6,25.7h7.1l11.6,42.8h-5.6l-3.1-11.8h-13.8l-3.2,11.8h-5.6L526.6,25.7z M524,52.5h11.6l-5.5-20.7H530
			L524,52.5z"/>
		<path class="st1" d="M551.8,25.7h6.9L573,61.5h0.1V25.7h5.3v42.8h-7.3l-13.9-34.7h-0.1v34.7h-5.3V25.7z"/>
		<path class="st1" d="M607.3,36.8c0-4.5-1.6-7.6-6.7-7.6c-4.5,0-7.1,2.4-7.1,7c0,12.1,20.4,4.9,20.4,20.5c0,9.9-7.3,12.7-13.4,12.7
			c-10.1,0-13.1-5.2-13.1-14.3h5.3c0,4.8,0.3,10,8.1,10c4.2,0,7.5-3,7.5-7.6c0-12.1-20.4-5.1-20.4-20.8c0-4,1.7-11.8,12.7-11.8
			c8.2,0,12,4.1,12.1,11.9H607.3z"/>
		<path class="st1" d="M631.1,25.7h7.1l11.6,42.8h-5.6l-3.1-11.8h-13.8l-3.2,11.8h-5.6L631.1,25.7z M628.5,52.5h11.6l-5.5-20.7h-0.1
			L628.5,52.5z"/>
		<path class="st1" d="M682.8,53.9c-0.5,8.1-3.7,15.5-13.1,15.5c-12.3,0-13.9-11.5-13.9-22.3c0-10.8,2-22.3,13.9-22.3
			c8.8,0,12.5,4.9,12.8,13.3h-5.6c-0.1-4.9-1.7-9-7.2-9c-7.4,0-8.4,8-8.4,17.9c0,9.9,1,17.9,8.4,17.9c6.5,0,7.4-6,7.6-11.2H682.8z"
			/>
		<path class="st1" d="M704.4,68.6H699V30.4h-10.8v-4.7h27.1v4.7h-10.9V68.6z"/>
		<path class="st1" d="M722.7,25.7h5.3v42.8h-5.3V25.7z"/>
		<path class="st1" d="M765.8,47.2c0,10.8-2,22.3-13.9,22.3S737.9,58,737.9,47.2c0-10.8,2-22.3,13.9-22.3S765.8,36.4,765.8,47.2z
			 M743.5,47.2c0,9.9,1,17.9,8.4,17.9s8.4-8,8.4-17.9c0-9.9-1-17.9-8.4-17.9S743.5,37.3,743.5,47.2z"/>
		<path class="st1" d="M775.6,25.7h6.9l14.3,35.8h0.1V25.7h5.3v42.8h-7.3l-13.9-34.7h-0.1v34.7h-5.3V25.7z"/>
		<path class="st1" d="M836.9,25.7h7.1l11.6,42.8h-5.6L847,56.8h-13.8L830,68.6h-5.6L836.9,25.7z M834.3,52.5H846l-5.5-20.7h-0.1
			L834.3,52.5z"/>
		<path class="st1" d="M862.7,25.7h11.6c13.4,0,15.1,9.6,15.1,21.4c0,10.8-2.7,21.4-14.6,21.4h-12.1V25.7z M868.1,64.3h5.6
			c9.2,0,10.2-9.4,10.2-17c0-8.3-0.5-17.2-10.2-17.2h-5.6V64.3z"/>
		<path class="st1" d="M895.7,25.7h5.6l8.5,36.8h0.1l8.5-36.8h5.6L913,68.6h-6.8L895.7,25.7z"/>
		<path class="st1" d="M930.7,25.7h5.3v42.8h-5.3V25.7z"/>
		<path class="st1" d="M964.8,36.8c0-4.5-1.6-7.6-6.7-7.6c-4.5,0-7.1,2.4-7.1,7c0,12.1,20.4,4.9,20.4,20.5c0,9.9-7.3,12.7-13.4,12.7
			c-10.1,0-13.1-5.2-13.1-14.3h5.3c0,4.8,0.3,10,8.1,10c4.2,0,7.5-3,7.5-7.6c0-12.1-20.4-5.1-20.4-20.8c0-4,1.7-11.8,12.7-11.8
			c8.2,0,12,4.1,12.1,11.9H964.8z"/>
		<path class="st1" d="M1007.5,47.2c0,10.8-2,22.3-13.9,22.3S979.6,58,979.6,47.2c0-10.8,2-22.3,13.9-22.3S1007.5,36.4,1007.5,47.2z
			 M985.2,47.2c0,9.9,1,17.9,8.4,17.9s8.4-8,8.4-17.9c0-9.9-1-17.9-8.4-17.9S985.2,37.3,985.2,47.2z"/>
		<path class="st1" d="M1017.3,25.7h14c6.8,0,11.1,4,11.1,10.7c0,4.7-1.6,9.6-6.7,10.8v0.1c3.8,0.4,5.9,3.5,6.1,7.1l0.4,7.3
			c0.2,4.7,1,5.9,2.3,6.7h-6.4c-0.9-0.9-1.3-4.1-1.5-6.2l-0.4-6.7c-0.4-5.9-3.7-6.2-6.4-6.2h-7.2v19.1h-5.3V25.7z M1022.7,45.2h5.3
			c3.1,0,8.9,0,8.9-8.3c0-4.2-2.8-6.8-7.8-6.8h-6.4V45.2z"/>
		<path class="st1" d="M1047.5,25.7h5.9l8.2,20l8.5-20h5.6l-11.4,26v16.8h-5.3V51.8L1047.5,25.7z"/>
	</g>
	<g class="st0">
		<path class="st1" d="M457.1,108.9v-2.2h9.2v14.6h-2v-4.7h-0.1c-0.9,3.2-3.5,5.2-6.3,5.2c-5.9,0-9.2-4.5-9.2-14.8
			c0-10.2,3.3-14.8,9.2-14.8c5.5,0,8,3.6,8.3,8.5h-2.6c0-3.4-1.9-6.3-5.7-6.3c-4.1,0-6.6,3.4-6.6,12.6c0,9.2,2.5,12.6,6.6,12.6
			c3.9,0,6-3.4,6-10.1v-0.6H457.1z"/>
		<path class="st1" d="M474.1,92.8h2.6v26.4h11.9v2.2h-14.5V92.8z"/>
		<path class="st1" d="M503.8,92.3c5.9,0,9.2,4.5,9.2,14.8c0,10.2-3.3,14.8-9.2,14.8s-9.2-4.5-9.2-14.8
			C494.5,96.8,497.9,92.3,503.8,92.3z M503.8,119.6c4.1,0,6.6-3.4,6.6-12.6c0-9.2-2.5-12.6-6.6-12.6c-4.1,0-6.6,3.4-6.6,12.6
			C497.1,116.3,499.6,119.6,503.8,119.6z"/>
		<path class="st1" d="M520.7,92.8h8c5.6,0,7.7,2.9,7.7,7.2c0,2.8-1.5,5.5-4.4,6.2v0.1c3.6,0.7,5.4,3.4,5.4,7.1c0,5-3.3,8-8.7,8
			h-7.9V92.8z M523.3,105.3h4.1c4.4,0,6.5-1.9,6.5-5.2c0-3.8-2-5.2-6-5.2h-4.5V105.3z M523.3,119.1h4.8c4.5,0,6.7-2,6.7-5.8
			c0-3.8-2.2-5.8-6.7-5.8h-4.8V119.1z"/>
		<path class="st1" d="M550.6,92.8h3.2l8.5,28.6h-2.7l-2.3-8.3h-10.1l-2.3,8.3h-2.7L550.6,92.8z M556.7,110.8l-4.4-16.1h-0.1
			l-4.4,16.1H556.7z"/>
		<path class="st1" d="M568,92.8h2.6v26.4h11.9v2.2H568V92.8z"/>
		<path class="st1" d="M601.8,92.8h8.6c4.8,0,7.5,2.7,7.5,7.2c0,3.4-1.4,6.5-5.2,7.2v0.1c3.6,0.3,4.8,2.4,4.9,6.8l0.1,3.1
			c0,1.6,0.2,3.1,1.2,4.2h-3c-0.6-1-0.7-2.5-0.8-4l-0.1-2.4c-0.2-5-1.1-6.6-5.7-6.6h-4.9v13h-2.6V92.8z M604.4,106.1h4.4
			c4.1,0,6.5-1.8,6.5-5.6c0-3.5-1.5-5.6-6.2-5.6h-4.7V106.1z"/>
		<path class="st1" d="M625.5,92.8h14.3v2.2h-11.7v10.4H639v2.2h-10.9v11.7h12.1v2.2h-14.7V92.8z"/>
		<path class="st1" d="M653.1,92.8h3.2l8.5,28.6h-2.7l-2.3-8.3h-10.1l-2.3,8.3h-2.7L653.1,92.8z M659.2,110.8l-4.4-16.1h-0.1
			l-4.4,16.1H659.2z"/>
		<path class="st1" d="M688,111.6c-0.4,6.5-3.4,10.2-8.6,10.2c-5.9,0-9.2-4.5-9.2-14.8c0-10.2,3.3-14.8,9.2-14.8
			c5.9,0,8.3,4.1,8.3,8.8h-2.6c0-3.9-2-6.6-5.7-6.6c-4.1,0-6.6,3.4-6.6,12.6c0,9.2,2.5,12.6,6.6,12.6c3.6,0,5.7-3.1,6-8H688z"/>
		<path class="st1" d="M708.8,107.1h-11.3v14.2h-2.6V92.8h2.6v12.2h11.3V92.8h2.6v28.6h-2.6V107.1z"/>
		<path class="st1" d="M741.3,108.9v2.2h-8.8v-2.2H741.3z"/>
		<path class="st1" d="M762.6,92.8h2.6v26.4h11.9v2.2h-14.5V92.8z"/>
		<path class="st1" d="M792.2,92.3c5.9,0,9.2,4.5,9.2,14.8c0,10.2-3.3,14.8-9.2,14.8s-9.2-4.5-9.2-14.8
			C783,96.8,786.3,92.3,792.2,92.3z M792.2,119.6c4.1,0,6.6-3.4,6.6-12.6c0-9.2-2.5-12.6-6.6-12.6c-4.1,0-6.6,3.4-6.6,12.6
			C785.6,116.3,788.1,119.6,792.2,119.6z"/>
		<path class="st1" d="M826.7,111.6c-0.4,6.5-3.4,10.2-8.6,10.2c-5.9,0-9.2-4.5-9.2-14.8c0-10.2,3.3-14.8,9.2-14.8
			c5.9,0,8.3,4.1,8.3,8.8h-2.6c0-3.9-2-6.6-5.7-6.6c-4.1,0-6.6,3.4-6.6,12.6c0,9.2,2.5,12.6,6.6,12.6c3.6,0,5.7-3.1,6-8H826.7z"/>
		<path class="st1" d="M839.8,92.8h3.2l8.5,28.6h-2.7l-2.3-8.3h-10.1l-2.3,8.3h-2.7L839.8,92.8z M845.9,110.8l-4.4-16.1h-0.1
			l-4.4,16.1H845.9z"/>
		<path class="st1" d="M857.2,92.8h2.6v26.4h11.9v2.2h-14.5V92.8z"/>
		<path class="st1" d="M895.8,92.8h3.2l8.5,28.6h-2.7l-2.3-8.3h-10.1l-2.3,8.3h-2.7L895.8,92.8z M901.8,110.8l-4.4-16.1h-0.1
			l-4.4,16.1H901.8z"/>
		<path class="st1" d="M913.2,92.8h7.8c5.6,0,7.9,3.2,7.9,8.1c0,4.4-2.2,8.1-8.8,8.1h-4.3v12.4h-2.6V92.8z M915.8,106.7h4.4
			c3.4,0,6.1-1.5,6.1-5.9c0-4.3-2.2-5.9-6.1-5.9h-4.4V106.7z"/>
		<path class="st1" d="M936,92.8h7.8c5.6,0,7.9,3.2,7.9,8.1c0,4.4-2.2,8.1-8.8,8.1h-4.3v12.4H936V92.8z M938.6,106.7h4.4
			c3.4,0,6.1-1.5,6.1-5.9c0-4.3-2.2-5.9-6.1-5.9h-4.4V106.7z"/>
		<path class="st1" d="M958.9,92.8h8.6c4.8,0,7.5,2.7,7.5,7.2c0,3.4-1.4,6.5-5.2,7.2v0.1c3.6,0.3,4.8,2.4,4.9,6.8l0.1,3.1
			c0,1.6,0.2,3.1,1.2,4.2h-3c-0.6-1-0.7-2.5-0.8-4l-0.1-2.4c-0.2-5-1.1-6.6-5.7-6.6h-4.9v13h-2.6V92.8z M961.5,106.1h4.4
			c4.1,0,6.5-1.8,6.5-5.6c0-3.5-1.5-5.6-6.2-5.6h-4.7V106.1z"/>
		<path class="st1" d="M991.5,92.3c5.9,0,9.2,4.5,9.2,14.8c0,10.2-3.3,14.8-9.2,14.8s-9.2-4.5-9.2-14.8
			C982.3,96.8,985.6,92.3,991.5,92.3z M991.5,119.6c4.1,0,6.6-3.4,6.6-12.6c0-9.2-2.5-12.6-6.6-12.6s-6.6,3.4-6.6,12.6
			C984.9,116.3,987.4,119.6,991.5,119.6z"/>
		<path class="st1" d="M1014.7,92.8h3.2l8.5,28.6h-2.7l-2.3-8.3h-10.1l-2.3,8.3h-2.7L1014.7,92.8z M1020.7,110.8l-4.4-16.1h-0.1
			l-4.4,16.1H1020.7z"/>
		<path class="st1" d="M1049.6,111.6c-0.4,6.5-3.4,10.2-8.6,10.2c-5.9,0-9.2-4.5-9.2-14.8c0-10.2,3.3-14.8,9.2-14.8
			c5.9,0,8.3,4.1,8.3,8.8h-2.6c0-3.9-2-6.6-5.7-6.6c-4.1,0-6.6,3.4-6.6,12.6c0,9.2,2.5,12.6,6.6,12.6c3.6,0,5.7-3.1,6-8H1049.6z"/>
		<path class="st1" d="M1070.3,107.1h-11.3v14.2h-2.6V92.8h2.6v12.2h11.3V92.8h2.6v28.6h-2.6V107.1z"/>
	</g>
</g>
<g>
	<path class="st2" d="M124,45.1h3l7,15.4h-2.9l-2-4.7h-7.5l-2.1,4.7h-2.8L124,45.1z M128.4,54.2l-3-6.8l-3.1,6.8H128.4z"/>
	<g>
		<path class="st2" d="M120.1,67.6c-0.3-0.5-0.4-1-0.4-1.5c0-1,0.4-1.8,1.3-2.5c0.8-0.7,2-1,3.4-1c1.3,0,2.4,0.3,3.1,0.9
			c0.8,0.6,1.1,1.3,1.1,2.2c0,1-0.4,1.9-1.2,2.6c-0.5,0.4-1.2,0.9-2.3,1.5l3.5,3.4c0.2-0.6,0.4-1,0.4-1.3c0.1-0.3,0.2-0.7,0.3-1.2
			h2.3c-0.1,1-0.4,1.9-0.9,2.9c-0.4,0.9-0.7,1.3-0.7,1.1l3.4,3.3h-3l-1.8-1.7c-0.7,0.6-1.4,1.1-2,1.3c-1,0.5-2.2,0.7-3.6,0.7
			c-2,0-3.5-0.4-4.4-1.3c-0.9-0.9-1.4-1.8-1.4-2.9c0-1.2,0.4-2.1,1.3-2.9c0.5-0.5,1.5-1.1,3-1.8C120.9,68.7,120.4,68.1,120.1,67.6
			 M125.8,76.2c0.7-0.4,1.2-0.8,1.6-1.2l-4.4-4.2c-1.2,0.7-2,1.2-2.4,1.5c-0.6,0.5-0.9,1.2-0.9,1.9c0,0.8,0.4,1.4,1.1,1.9
			c0.7,0.4,1.5,0.7,2.4,0.7C124.2,76.7,125.1,76.5,125.8,76.2 M125.6,67.5c0.5-0.5,0.8-1,0.8-1.6c0-0.4-0.2-0.8-0.6-1.2
			c-0.4-0.3-0.9-0.5-1.5-0.5c-1,0-1.6,0.3-2,0.8c-0.2,0.3-0.3,0.6-0.3,0.9c0,0.4,0.1,0.8,0.4,1.2c0.3,0.4,0.8,0.9,1.5,1.5
			C124.7,68.1,125.3,67.8,125.6,67.5"/>
		<path class="st2" d="M116.2,81.2h3.7l5.5,13.1l5.5-13.1h3.7v15.4h-2.5v-9.1c0-0.3,0-0.8,0.1-1.6c0-0.7,0-1.5,0-2.3l-5.6,13h-2.6
			l-5.6-13v0.5c0,0.4,0,1,0,1.7c0,0.8,0.1,1.3,0.1,1.7v9.1h-2.5V81.2z"/>
	</g>
	<polygon class="st2" points="81.9,-1.1 23.9,96.8 37.3,96.8 84.5,13.8 84.5,96.8 95,96.8 95,-1.1 	"/>
	<polygon class="st3" points="80.5,27.2 69.9,45.8 69.9,96.8 80.5,96.8 	"/>
	<polygon class="st3" points="98.5,27.2 109.1,45.8 109.1,96.8 98.5,96.8 	"/>
	<polygon class="st3" points="3.4,131.3 0.7,135.8 388.5,135.8 388.5,131.3 	"/>
	<polygon class="st3" points="186.2,12.6 185.2,17.1 383.9,17.1 383.9,135.8 388.5,135.8 388.5,12.6 	"/>
	<g>
		<path class="st2" d="M228.8,41.2h8.8l5.1,33.7l18.7-33.7h8.8l-13,65.1h-9.7l8-40.4L242,91.8h-5.4l-2.9-26.1l-8.1,40.6h-9.7
			L228.8,41.2z"/>
		<path class="st2" d="M283.2,70.8c-2.7-6.3-4.1-10.8-4.1-14.4c0-9,5.1-15.7,14.4-15.7c7.7,0,11.6,5.2,11.6,12
			c0,8-4.1,12.9-10.6,18.7l-1.2,1.1l5,12.2c2-3.2,3.7-8,4.8-12.3h7.9c-1.7,7.4-5.4,15.8-9.1,21.1l5.3,13.1h-9.5l-2.4-5.6
			c-4,4.1-8.5,6.3-13.4,6.3c-8.5,0-12.3-6-12.3-13.3C269.8,84,275.1,77.4,283.2,70.8z M283.9,98.4c2.7,0,5.3-1.6,8.5-5.3l-6-14.5
			c-3.9,3.6-7.6,8-7.6,13.4C278.7,96.1,280.7,98.4,283.9,98.4z M291.5,63.6c2.9-2.7,5.2-6.1,5.2-10.1c0-3.2-1.4-4.6-3.7-4.6
			c-3,0-4.9,3.3-4.9,7c0,3,0.9,5.7,2.2,8.7L291.5,63.6z"/>
		<path class="st2" d="M339.7,106.3l0.1-13.2h-14.4l-5.3,13.2h-10.3l28.1-65.1h9.5l2,65.1H339.7z M339.8,56.1l-11,28.3h10.8
			L339.8,56.1z"/>
	</g>
	<g>
		<path class="st3" d="M177.3,56.1h6l-8.1,40.5h-6L177.3,56.1z"/>
		<path class="st3" d="M189.9,85.6c-0.2,1.2-0.3,2.1-0.3,2.8c0,1,0.2,1.7,0.7,2.2c0.5,0.6,1.3,1,2.4,1c1.3,0,2.3-0.4,3.1-1.1
			c1.1-1,1.4-2,2-4.6c0.3-1.3,0.4-2.6,0.4-3.6c0-1.6-0.9-2.7-2.7-3.5l-3.8-1.8c-3.1-1.5-4.2-3.5-4.2-6.4c0-1.5,0.1-2.8,0.5-4.4
			c0.7-3.4,1.8-6,3.6-7.7c1.8-1.8,3.9-2.8,7.3-2.8c3.4,0,5.2,0.9,6.8,2.4c0.9,0.9,1.6,2.7,1.6,4.9c0,1.1-0.1,2.4-0.4,4.1h-6
			c0.3-1.3,0.3-2.2,0.3-3c0-1-0.2-1.7-0.6-2.2c-0.3-0.5-1-0.9-2-0.9c-1.1,0-1.9,0.3-2.7,1c-1,0.9-1.5,2.3-1.8,4.1
			c-0.2,0.9-0.3,1.9-0.3,2.7c0,1.7,0.8,2.6,2.2,3.2l3.2,1.5c3.9,1.9,5.2,3.7,5.2,6.9c0,1.5-0.2,3.4-0.6,5.4
			c-0.9,4.6-1.9,6.7-3.6,8.4c-1.9,1.8-4.2,2.7-8,2.7c-3.5,0-5.5-0.8-6.9-2.4c-1.1-1.2-1.8-2.9-1.8-5c0-1.3,0.2-2.4,0.5-4.1H189.9z"
			/>
	</g>
	<path class="st4" d="M346,5.4"/>
</g>
</svg>
