<?xml version="1.0" encoding="utf-8"?>
<!-- Generator: Adobe Illustrator 22.1.0, SVG Export Plug-In . SVG Version: 6.00 Build 0)  -->
<svg version="1.1" id="Layer_1" xmlns="http://www.w3.org/2000/svg" xmlns:xlink="http://www.w3.org/1999/xlink" x="0px" y="0px"
	 viewBox="0 0 973 128.7" style="enable-background:new 0 0 973 128.7;" xml:space="preserve">
<style type="text/css">
	.st0{fill:#002A4A;}
	.st1{fill:#002B49;}
</style>
<g>
	<g>
		<path class="st0" d="M6.8,12.7c0-2.4,0.5-4.6,3-5.5v1.6c-1,0.6-1.4,1.8-1.4,3.9h1.2v4.1H6.8V12.7z M12.1,12.7c0-2.4,0.5-4.6,3-5.5
			v1.6c-1,0.6-1.4,1.8-1.4,3.9h1.2v4.1h-2.7v-4.1H12.1z"/>
	</g>
	<g>
		<path class="st0" d="M26.4,7.1h3.2L38,35.7h-2.7L33,27.4H23l-2.3,8.3H18L26.4,7.1z M32.4,25.2L28,9.1h-0.1l-4.4,16.1H32.4z"/>
	</g>
	<g>
		<path class="st0" d="M40.4,7.1h2.4v28.6h-2.4V7.1z"/>
	</g>
	<g>
		<path class="st0" d="M45.6,14.5h2.6L52.9,33H53l4.3-18.5h2.6l-5.6,21.2h-2.7L45.6,14.5z"/>
	</g>
	<g>
		<path class="st0" d="M62,20.8c0-4.4,2.1-6.8,6.6-6.8c4.4,0,6,2.3,6,5.6v12.6c0,1.2,0.4,1.8,1.2,1.8h0.7v1.8
			C76.1,36,75.7,36,75.4,36c-1.9,0-3.1-0.4-3.1-2.6v-0.7h-0.1c-1,2.8-3.1,3.6-5.5,3.6c-3.7,0-5.4-2.3-5.4-6c0-2.8,1.3-5,4.3-5.9
			l4.5-1.3c1.7-0.5,2-0.9,2-3.4c0-2.7-1.5-3.7-3.7-3.7c-2.8,0-4.1,1.7-4.1,4.8H62z M72.2,23.7L72.2,23.7c-0.3,0.7-1.7,1.2-2.6,1.4
			l-2,0.5C65.2,26.2,64,27.5,64,30s1.3,4.2,3.4,4.2c2.9,0,4.9-2.2,4.9-6v-4.5H72.2z"/>
	</g>
	<g>
		<path class="st0" d="M79.5,14.5h2.4v3.3H82c0.9-2.4,2.9-3.8,5.4-3.8c0.3,0,0.6,0,0.8,0.1v2.4c-0.4-0.1-0.8-0.1-1.2-0.1
			c-2.6,0-5.1,1.9-5.1,6v13.3h-2.4C79.5,35.7,79.5,14.5,79.5,14.5z"/>
	</g>
	<g>
		<path class="st0" d="M103.7,28.7c-0.4,4.5-2.8,7.5-6.8,7.5c-4.5,0-7.1-3.1-7.1-11.1c0-7.4,2.6-11.1,7.3-11.1
			c4.7,0,6.8,3.2,6.8,10.3v0.9H92.3v1c0,6.1,2.2,8,4.5,8c2.5,0,4.1-1.8,4.5-5.5C101.3,28.7,103.7,28.7,103.7,28.7z M101.3,23.2
			c-0.1-5.3-1.6-7.2-4.5-7.2s-4.4,1.9-4.5,7.2H101.3z"/>
	</g>
	<g>
		<path class="st0" d="M106,33.7l10.1-17.2h-9.6v-2h12.1v2l-10.1,17.2h10.1v2H106V33.7z"/>
	</g>
	<g>
		<path class="st0" d="M145.5,32.2c-1.6,2.4-4.1,4-7.6,4c-4.9,0-8-3.4-8-7.6c0-3,1.5-5.4,4.1-7.4l2.4-1.8c-2-2.7-3.3-4.8-3.3-7
			c0-3.4,2.7-5.3,5.8-5.3c3.3,0,5.5,2.1,5.5,5.3c0,2.3-1,4.5-5,7.4l6.2,8.6c0.7-1.8,1-3.6,1-5.4h2.4c0,2.5-0.7,5.1-2,7.4l3.8,5.3
			H148L145.5,32.2z M137.6,21.1c-4,2.8-5.1,5-5.1,7.3c0,3.4,2.6,5.7,5.8,5.7c2.3,0,4.9-1.4,6-3.6L137.6,21.1z M138.2,18.1
			c3.2-2.4,3.8-4.2,3.8-5.8c0-1.8-1.4-3.2-3.2-3.2c-1.9,0-3.3,1.4-3.3,3.2C135.5,13.9,136.6,16,138.2,18.1z"/>
	</g>
	<g>
		<path class="st0" d="M162.6,7.1h4.4l6.9,25.4h0.1l6.9-25.4h4.2v28.6h-2.6V9.5h-0.1L175,35.7h-2.4l-7.4-26.2h-0.1v26.2h-2.6V7.1
			H162.6z"/>
	</g>
	<g>
		<path class="st0" d="M189.4,20.8c0-4.4,2.1-6.8,6.6-6.8c4.4,0,6,2.3,6,5.6v12.6c0,1.2,0.4,1.8,1.2,1.8h0.7v1.8
			c-0.4,0.2-0.8,0.2-1.1,0.2c-1.9,0-3.1-0.4-3.1-2.6v-0.7h-0.1c-1,2.8-3.1,3.6-5.5,3.6c-3.7,0-5.4-2.3-5.4-6c0-2.8,1.3-5,4.3-5.9
			l4.5-1.3c1.7-0.5,2-0.9,2-3.4c0-2.7-1.5-3.7-3.7-3.7c-2.8,0-4.1,1.7-4.1,4.8H189.4z M199.6,23.7L199.6,23.7
			c-0.3,0.7-1.7,1.2-2.6,1.4l-2,0.5c-2.4,0.6-3.6,1.9-3.6,4.4s1.3,4.2,3.4,4.2c2.9,0,4.9-2.2,4.9-6L199.6,23.7L199.6,23.7z"/>
	</g>
	<g>
		<path class="st0" d="M206.9,14.5h2.4v3.3h0.1c0.9-2.4,2.9-3.8,5.4-3.8c0.3,0,0.6,0,0.8,0.1v2.4c-0.4-0.1-0.8-0.1-1.2-0.1
			c-2.6,0-5.1,1.9-5.1,6v13.3h-2.4V14.5z"/>
	</g>
	<g>
		<path class="st0" d="M221.4,25.1c-3-1.2-4.1-2.9-4.1-5c0-4.4,2.7-6.1,6.3-6.1c4,0,5.8,2,5.8,5.9v0.6H227v-0.6
			c0-2.8-1.3-3.9-3.5-3.9c-2.8,0-3.9,1.5-3.9,3.6c0,1.5,0.5,2.6,2.9,3.6l3.5,1.3c2.9,1.1,4,3.1,4,5.4c0,3.6-2.1,6.3-6.6,6.3
			c-4.4,0-6.5-1.8-6.5-6.6v-0.7h2.4v0.6c0,3.1,1.4,4.7,4.1,4.7c2.6,0,4.2-1.4,4.2-3.8c0-1.9-0.8-3.1-2.9-3.9L221.4,25.1z"/>
	</g>
	<g>
		<path class="st0" d="M233.1,20.8c0-4.4,2.1-6.8,6.6-6.8c4.4,0,6,2.3,6,5.6v12.6c0,1.2,0.4,1.8,1.2,1.8h0.7v1.8
			c-0.4,0.2-0.8,0.2-1.1,0.2c-1.9,0-3.1-0.4-3.1-2.6v-0.7h-0.1c-1,2.8-3.1,3.6-5.5,3.6c-3.7,0-5.4-2.3-5.4-6c0-2.8,1.3-5,4.3-5.9
			l4.5-1.3c1.7-0.5,2-0.9,2-3.4c0-2.7-1.5-3.7-3.7-3.7c-2.8,0-4.1,1.7-4.1,4.8H233.1z M243.3,23.7L243.3,23.7
			c-0.3,0.7-1.7,1.2-2.6,1.4l-2,0.5c-2.4,0.6-3.6,1.9-3.6,4.4s1.3,4.2,3.4,4.2c2.9,0,4.9-2.2,4.9-6L243.3,23.7L243.3,23.7z"/>
	</g>
	<g>
		<path class="st0" d="M250.8,7.1h2.4v28.6h-2.4V7.1z"/>
	</g>
	<g>
		<path class="st0" d="M267.7,7.1h2.4v4.1h-2.4V7.1z M267.7,14.5h2.4v21.2h-2.4V14.5z"/>
	</g>
	<g>
		<path class="st0" d="M278.3,25.1c-3-1.2-4.1-2.9-4.1-5c0-4.4,2.7-6.1,6.3-6.1c4,0,5.8,2,5.8,5.9v0.6H284v-0.6
			c0-2.8-1.3-3.9-3.5-3.9c-2.8,0-3.9,1.5-3.9,3.6c0,1.5,0.5,2.6,2.9,3.6l3.5,1.3c2.9,1.1,4,3.1,4,5.4c0,3.6-2.1,6.3-6.6,6.3
			c-4.4,0-6.5-1.8-6.5-6.6v-0.7h2.4v0.6c0,3.1,1.4,4.7,4.1,4.7c2.6,0,4.2-1.4,4.2-3.8c0-1.9-0.8-3.1-2.9-3.9L278.3,25.1z"/>
	</g>
	<g>
		<path class="st0" d="M303.4,25.1c-3-1.2-4.1-2.9-4.1-5c0-4.4,2.7-6.1,6.3-6.1c4,0,5.8,2,5.8,5.9v0.6H309v-0.6
			c0-2.8-1.3-3.9-3.5-3.9c-2.8,0-3.9,1.5-3.9,3.6c0,1.5,0.5,2.6,2.9,3.6l3.5,1.3c2.9,1.1,4,3.1,4,5.4c0,3.6-2.1,6.3-6.6,6.3
			c-4.4,0-6.5-1.8-6.5-6.6v-0.7h2.4v0.6c0,3.1,1.4,4.7,4.1,4.7c2.6,0,4.2-1.4,4.2-3.8c0-1.9-0.8-3.1-2.9-3.9L303.4,25.1z"/>
	</g>
	<g>
		<path class="st0" d="M316.5,16.5h-2.9v-2h2.9V8.6h2.4v5.9h3.8v2h-3.8v15.2c0,1.7,0.7,2.2,2.3,2.2c0.5,0,1-0.1,1.5-0.2v2
			c-0.3,0.2-0.9,0.2-1.7,0.2c-3.2,0-4.5-0.9-4.5-3.7L316.5,16.5L316.5,16.5z"/>
	</g>
	<g>
		<path class="st0" d="M325.4,7.1h2.4v4.1h-2.4V7.1z M325.4,14.5h2.4v21.2h-2.4V14.5z"/>
	</g>
	<g>
		<path class="st0" d="M332.8,7.1h2.4v28.6h-2.4V7.1z"/>
	</g>
	<g>
		<path class="st0" d="M340.2,7.1h2.4v28.6h-2.4V7.1z"/>
	</g>
	<g>
		<path class="st0" d="M363.2,14c4.7,0,7.3,3.7,7.3,11.1s-2.6,11.1-7.3,11.1s-7.3-3.7-7.3-11.1C355.8,17.7,358.5,14,363.2,14z
			 M363.2,34.2c2.7,0,4.8-2.3,4.8-9.1c0-6.8-2.1-9.1-4.8-9.1s-4.8,2.3-4.8,9.1C358.4,31.9,360.5,34.2,363.2,34.2z"/>
	</g>
	<g>
		<path class="st0" d="M374,14.5h2.2v3h0.1c1.2-2.4,3.3-3.4,5.4-3.4c3.2,0,5.4,1.7,5.4,5.7v16h-2.4V20.3c0-2.9-1.2-4.4-3.6-4.4
			c-2.8,0-4.7,2.2-4.7,5.4v14.3H374V14.5z"/>
	</g>
	<g>
		<path class="st0" d="M404.8,28.7c-0.4,4.5-2.8,7.5-6.8,7.5c-4.5,0-7.1-3.1-7.1-11.1c0-7.4,2.6-11.1,7.3-11.1
			c4.7,0,6.8,3.2,6.8,10.3v0.9h-11.6v1c0,6.1,2.2,8,4.5,8c2.5,0,4.1-1.8,4.5-5.5C402.4,28.7,404.8,28.7,404.8,28.7z M402.5,23.2
			c-0.1-5.3-1.6-7.2-4.5-7.2s-4.4,1.9-4.5,7.2H402.5z"/>
	</g>
	<g>
		<path class="st0" d="M424.6,14c4.7,0,7.3,3.7,7.3,11.1s-2.6,11.1-7.3,11.1s-7.3-3.7-7.3-11.1C417.3,17.7,419.9,14,424.6,14z
			 M424.6,34.2c2.7,0,4.8-2.3,4.8-9.1c0-6.8-2.1-9.1-4.8-9.1s-4.8,2.3-4.8,9.1C419.8,31.9,421.9,34.2,424.6,34.2z"/>
	</g>
	<g>
		<path class="st0" d="M436.3,16.5h-2.9v-2h2.9V12c0-2.9,0.6-5.1,4.6-5.1c0.7,0,1.1,0,1.5,0.1v2c-0.4-0.1-0.7-0.1-1.2-0.1
			c-1.8,0-2.6,0.7-2.6,3.1v2.5h3.8v2h-3.8v19.2h-2.4V16.5H436.3z"/>
	</g>
	<g>
		<path class="st0" d="M455.6,16.5h-2.9v-2h2.9V8.6h2.4v5.9h3.8v2H458v15.2c0,1.7,0.7,2.2,2.3,2.2c0.5,0,1-0.1,1.5-0.2v2
			c-0.3,0.2-0.9,0.2-1.7,0.2c-3.2,0-4.5-0.9-4.5-3.7L455.6,16.5L455.6,16.5z"/>
	</g>
	<g>
		<path class="st0" d="M464.3,7.1h2.4v10.3h0.1c0.6-2.2,2.7-3.4,5.2-3.4c3.2,0,5.4,1.7,5.4,5.7v16H475V20.3c0-2.9-1.2-4.4-3.6-4.4
			c-2.8,0-4.7,2.2-4.7,5.4v14.3h-2.4V7.1z"/>
	</g>
	<g>
		<path class="st0" d="M495.2,28.7c-0.4,4.5-2.8,7.5-6.8,7.5c-4.5,0-7.1-3.1-7.1-11.1c0-7.4,2.6-11.1,7.3-11.1
			c4.7,0,6.8,3.2,6.8,10.3v0.9h-11.6v1c0,6.1,2.2,8,4.5,8c2.5,0,4.1-1.8,4.5-5.5C492.8,28.7,495.2,28.7,495.2,28.7z M492.8,23.2
			c-0.1-5.3-1.6-7.2-4.5-7.2s-4.4,1.9-4.5,7.2H492.8z"/>
	</g>
	<g>
		<path class="st0" d="M508.9,14.5h2.2v3h0.1c1.1-2.4,3-3.4,5.4-3.4c2.6,0,4.1,1.6,4.4,3.7h0.1c1-2.4,2.7-3.7,5.4-3.7
			c3,0,4.9,1.7,4.9,5.5v16.2H529v-16c0-2.5-1.2-3.8-3.3-3.8c-2.4,0-4.3,2.2-4.3,5.4v14.3H519V19.8c0-2.5-1.2-3.8-3.3-3.8
			c-2.4,0-4.3,2.2-4.3,5.4v14.3H509V14.5H508.9z"/>
	</g>
	<g>
		<path class="st0" d="M542.4,14c4.7,0,7.3,3.7,7.3,11.1s-2.6,11.1-7.3,11.1s-7.3-3.7-7.3-11.1C535,17.7,537.7,14,542.4,14z
			 M542.4,34.2c2.7,0,4.8-2.3,4.8-9.1c0-6.8-2.1-9.1-4.8-9.1s-4.8,2.3-4.8,9.1C537.6,31.9,539.7,34.2,542.4,34.2z"/>
	</g>
	<g>
		<path class="st0" d="M556.6,25.1c-3-1.2-4.1-2.9-4.1-5c0-4.4,2.7-6.1,6.3-6.1c4,0,5.8,2,5.8,5.9v0.6h-2.4v-0.6
			c0-2.8-1.3-3.9-3.5-3.9c-2.8,0-3.9,1.5-3.9,3.6c0,1.5,0.5,2.6,2.9,3.6l3.5,1.3c2.9,1.1,4,3.1,4,5.4c0,3.6-2.1,6.3-6.6,6.3
			c-4.4,0-6.5-1.8-6.5-6.6v-0.7h2.4v0.6c0,3.1,1.4,4.7,4.1,4.7c2.6,0,4.2-1.4,4.2-3.8c0-1.9-0.8-3.1-2.9-3.9L556.6,25.1z"/>
	</g>
	<g>
		<path class="st0" d="M569.6,16.5h-2.9v-2h2.9V8.6h2.4v5.9h3.8v2H572v15.2c0,1.7,0.7,2.2,2.3,2.2c0.5,0,1-0.1,1.5-0.2v2
			c-0.3,0.2-0.9,0.2-1.7,0.2c-3.2,0-4.5-0.9-4.5-3.7V16.5z"/>
	</g>
	<g>
		<path class="st0" d="M588.9,16.5H586v-2h2.9V12c0-2.9,0.6-5.1,4.6-5.1c0.7,0,1.1,0,1.5,0.1v2c-0.4-0.1-0.7-0.1-1.2-0.1
			c-1.8,0-2.6,0.7-2.6,3.1v2.5h3.8v2h-3.8v19.2h-2.4V16.5H588.9z"/>
	</g>
	<g>
		<path class="st0" d="M597.6,14.5h2.4v3.3h0.1c0.9-2.4,2.9-3.8,5.4-3.8c0.3,0,0.6,0,0.8,0.1v2.4c-0.4-0.1-0.8-0.1-1.2-0.1
			c-2.6,0-5.1,1.9-5.1,6v13.3h-2.4V14.5z"/>
	</g>
	<g>
		<path class="st0" d="M621.8,28.7c-0.4,4.5-2.8,7.5-6.8,7.5c-4.5,0-7.1-3.1-7.1-11.1c0-7.4,2.6-11.1,7.3-11.1s6.8,3.2,6.8,10.3v0.9
			h-11.6v1c0,6.1,2.2,8,4.5,8c2.5,0,4.1-1.8,4.5-5.5C619.4,28.7,621.8,28.7,621.8,28.7z M619.5,23.2c-0.1-5.3-1.6-7.2-4.5-7.2
			c-3,0-4.4,1.9-4.5,7.2H619.5z"/>
	</g>
	<g>
		<path class="st0" d="M636.8,32.5L636.8,32.5c-0.6,2.2-2.4,3.7-5,3.7c-4.7,0-6.8-3.8-6.8-11.1c0-7.4,2-11.1,6.8-11.1
			c2.7,0,4.5,1.6,5.2,3.5h0.1v-3h2.2v28.3h-2.4L636.8,32.5L636.8,32.5z M632.1,34.2c2.4,0,4.6-1.2,4.6-9.1c0-3.7-0.3-5.8-1.4-7.2
			c-0.8-1.2-2-1.9-3.4-1.9c-2.3,0-4.6,1.4-4.6,9.1C627.5,32.9,629.7,34.2,632.1,34.2z"/>
	</g>
	<g>
		<path class="st0" d="M643.6,14.5h2.4v15c0,3.4,1.2,4.8,3.7,4.8c2.7,0,4.6-2.2,4.6-5.4V14.5h2.4v21.2h-2.2v-3h-0.1
			c-1.2,2.4-3.3,3.4-5.4,3.4c-3.2,0-5.4-1.7-5.4-5.7V14.5z"/>
	</g>
	<g>
		<path class="st0" d="M674.4,28.7c-0.4,4.5-2.8,7.5-6.8,7.5c-4.5,0-7.1-3.1-7.1-11.1c0-7.4,2.6-11.1,7.3-11.1s6.8,3.2,6.8,10.3v0.9
			H663v1c0,6.1,2.2,8,4.5,8c2.5,0,4.1-1.8,4.5-5.5C672,28.7,674.4,28.7,674.4,28.7z M672,23.2c-0.1-5.3-1.6-7.2-4.5-7.2
			s-4.4,1.9-4.5,7.2H672z"/>
	</g>
	<g>
		<path class="st0" d="M678.4,14.5h2.2v3h0.1c1.2-2.4,3.3-3.4,5.4-3.4c3.2,0,5.4,1.7,5.4,5.7v16h-2.4V20.3c0-2.9-1.2-4.4-3.6-4.4
			c-2.8,0-4.7,2.2-4.7,5.4v14.3h-2.4V14.5z"/>
	</g>
	<g>
		<path class="st0" d="M697,16.5h-2.9v-2h2.9V8.6h2.4v5.9h3.8v2h-3.8v15.2c0,1.7,0.7,2.2,2.3,2.2c0.5,0,1-0.1,1.5-0.2v2
			c-0.3,0.2-0.9,0.2-1.7,0.2c-3.2,0-4.5-0.9-4.5-3.7V16.5z"/>
	</g>
	<g>
		<path class="st0" d="M705.9,7.1h2.4v28.6h-2.4V7.1z"/>
	</g>
	<g>
		<path class="st0" d="M711.1,14.5h2.6l4.8,18.4h0.1l4.3-18.4h2.6l-6.2,23c-1.1,4.2-2.4,5.3-5.6,5.3c-0.6,0-1.1,0-1.6-0.1v-2
			c0.5,0,1,0.1,1.6,0.1c1.5,0,2.5-0.6,3.2-2.8l0.6-2L711.1,14.5z"/>
	</g>
	<g>
		<path class="st0" d="M737.7,7.1h2.4v4.1h-2.4V7.1z M737.7,14.5h2.4v21.2h-2.4V14.5z"/>
	</g>
	<g>
		<path class="st0" d="M744.9,14.5h2.2v3h0.1c1.2-2.4,3.3-3.4,5.4-3.4c3.2,0,5.4,1.7,5.4,5.7v16h-2.4V20.3c0-2.9-1.2-4.4-3.6-4.4
			c-2.8,0-4.7,2.2-4.7,5.4v14.3h-2.4V14.5z"/>
	</g>
	<g>
		<path class="st0" d="M760.6,14.5h2.6l4.7,18.5h0.1l4.3-18.5h2.6l-5.6,21.2h-2.7L760.6,14.5z"/>
	</g>
	<g>
		<path class="st0" d="M783.6,14c4.7,0,7.3,3.7,7.3,11.1s-2.6,11.1-7.3,11.1s-7.3-3.7-7.3-11.1S778.9,14,783.6,14z M783.6,34.2
			c2.7,0,4.8-2.3,4.8-9.1c0-6.8-2.1-9.1-4.8-9.1s-4.8,2.3-4.8,9.1C778.9,31.9,780.9,34.2,783.6,34.2z"/>
	</g>
	<g>
		<path class="st0" d="M794.2,7.1h2.4V25h0.1l8.2-10.6h3l-6.4,7.9l7.6,13.4h-3l-6.3-11.2l-3.2,3.8v7.4h-2.4L794.2,7.1L794.2,7.1z"/>
	</g>
	<g>
		<path class="st0" d="M823.8,28.7c-0.4,4.5-2.8,7.5-6.8,7.5c-4.5,0-7.1-3.1-7.1-11.1c0-7.4,2.6-11.1,7.3-11.1s6.8,3.2,6.8,10.3v0.9
			h-11.6v1c0,6.1,2.2,8,4.5,8c2.5,0,4.1-1.8,4.5-5.5C821.4,28.7,823.8,28.7,823.8,28.7z M821.5,23.2c-0.1-5.3-1.6-7.2-4.5-7.2
			s-4.4,1.9-4.5,7.2H821.5z"/>
	</g>
	<g>
		<path class="st0" d="M839,32.2L839,32.2c-0.7,2.4-2.8,4-5.3,4c-4.7,0-6.8-3.8-6.8-11.1c0-7.3,2.1-11.1,6.8-11.1
			c2.6,0,4.4,1.4,5,3.7h0.1V7.1h2.4v28.6H839V32.2z M834.1,34.2c2.4,0,4.6-1.2,4.6-9.1c0-7.8-2.2-9.1-4.6-9.1
			c-2.4,0-4.6,1.2-4.6,9.1C829.5,32.9,831.7,34.2,834.1,34.2z"/>
	</g>
	<g>
		<path class="st0" d="M856,16.5h-2.9v-2h2.9V12c0-2.9,0.6-5.1,4.6-5.1c0.7,0,1.1,0,1.5,0.1v2c-0.4-0.1-0.7-0.1-1.2-0.1
			c-1.8,0-2.6,0.7-2.6,3.1v2.5h3.8v2h-3.8v19.2H856V16.5z M865,7.1h2.4v4.1H865V7.1z M865,14.5h2.4v21.2H865V14.5z"/>
	</g>
	<g>
		<path class="st0" d="M872.2,14.5h2.4v3.3h0.1c0.9-2.4,2.9-3.8,5.4-3.8c0.3,0,0.6,0,0.8,0.1v2.4c-0.4-0.1-0.8-0.1-1.2-0.1
			c-2.6,0-5.1,1.9-5.1,6v13.3h-2.4V14.5z"/>
	</g>
	<g>
		<path class="st0" d="M883.5,14.5h2.2v3h0.1c1.1-2.4,3-3.4,5.4-3.4c2.6,0,4.1,1.6,4.4,3.7h0.1c1-2.4,2.7-3.7,5.4-3.7
			c3,0,4.9,1.7,4.9,5.5v16.2h-2.4v-16c0-2.5-1.2-3.8-3.3-3.8c-2.4,0-4.3,2.2-4.3,5.4v14.3h-2.4V19.8c0-2.5-1.2-3.8-3.3-3.8
			c-2.4,0-4.3,2.2-4.3,5.4v14.3h-2.4V14.5H883.5z"/>
	</g>
	<g>
		<path class="st0" d="M914.1,25.1c-3-1.2-4.1-2.9-4.1-5c0-4.4,2.7-6.1,6.3-6.1c4,0,5.8,2,5.8,5.9v0.6h-2.4v-0.6
			c0-2.8-1.3-3.9-3.5-3.9c-2.8,0-3.9,1.5-3.9,3.6c0,1.5,0.5,2.6,2.9,3.6l3.5,1.3c2.9,1.1,4,3.1,4,5.4c0,3.6-2.1,6.3-6.6,6.3
			c-4.4,0-6.5-1.8-6.5-6.6v-0.7h2.4v0.6c0,3.1,1.4,4.7,4.1,4.7c2.6,0,4.2-1.4,4.2-3.8c0-1.9-0.8-3.1-2.9-3.9L914.1,25.1z"/>
	</g>
	<g>
		<path class="st0" d="M935.7,7.1h2.4v10.5h0.1c0.5-2.2,2.3-3.7,5-3.7c4.7,0,6.8,3.8,6.8,11.1c0,7.4-2.1,11.1-6.8,11.1
			c-2.5,0-4.6-1.6-5.2-4h-0.1v3.5h-2.2V7.1z M942.7,34.2c2.4,0,4.6-1.2,4.6-9.1c0-7.8-2.2-9.1-4.6-9.1c-2.4,0-4.6,1.2-4.6,9.1
			C938.1,32.9,940.3,34.2,942.7,34.2z"/>
	</g>
	<g>
		<path class="st0" d="M951.6,14.5h2.6l4.8,18.4h0.1l4.3-18.4h2.6l-6.2,23c-1.1,4.2-2.4,5.3-5.6,5.3c-0.6,0-1.1,0-1.6-0.1v-2
			c0.5,0,1,0.1,1.6,0.1c1.5,0,2.5-0.6,3.2-2.8l0.6-2L951.6,14.5z"/>
	</g>
	<g>
		<path class="st0" d="M186.6,61.1h2.4v10.5h0.1c0.5-2.2,2.3-3.7,5-3.7c4.7,0,6.8,3.8,6.8,11.1c0,7.4-2.1,11.1-6.8,11.1
			c-2.5,0-4.6-1.6-5.2-4h-0.1v3.5h-2.2V61.1z M193.6,88.2c2.4,0,4.6-1.2,4.6-9.1c0-7.8-2.2-9.1-4.6-9.1c-2.4,0-4.6,1.2-4.6,9.1
			C189,86.9,191.2,88.2,193.6,88.2z"/>
	</g>
	<g>
		<path class="st0" d="M210.8,68c4.7,0,7.3,3.7,7.3,11.1c0,7.4-2.6,11.1-7.3,11.1s-7.3-3.7-7.3-11.1S206.1,68,210.8,68z M210.8,88.2
			c2.7,0,4.8-2.3,4.8-9.1s-2.1-9.1-4.8-9.1s-4.8,2.3-4.8,9.1C206,85.9,208.1,88.2,210.8,88.2z"/>
	</g>
	<g>
		<path class="st0" d="M222.5,70.5h-2.9v-2h2.9v-5.9h2.4v5.9h3.8v2h-3.8v15.2c0,1.7,0.7,2.2,2.3,2.2c0.5,0,1-0.1,1.5-0.2v2
			c-0.3,0.2-0.9,0.2-1.7,0.2c-3.2,0-4.5-0.9-4.5-3.7V70.5z"/>
	</g>
	<g>
		<path class="st0" d="M231.3,61.1h2.4v10.3h0.1c0.6-2.2,2.7-3.4,5.2-3.4c3.2,0,5.4,1.7,5.4,5.7v16H242V74.3c0-2.9-1.2-4.4-3.6-4.4
			c-2.8,0-4.7,2.2-4.7,5.4v14.3h-2.4V61.1z"/>
	</g>
	<g>
		<path class="st0" d="M271.4,82.7c-0.4,4.5-2.8,7.5-6.8,7.5c-4.5,0-7.1-3.1-7.1-11.1c0-7.4,2.6-11.1,7.3-11.1c4,0,6.3,2.4,6.6,6.8
			H269c-0.3-3.3-1.6-4.8-4.2-4.8s-4.8,1.6-4.8,9.1c0,8,2.3,9.1,4.5,9.1c2.4,0,4-1.8,4.4-5.5H271.4z"/>
	</g>
	<g>
		<path class="st0" d="M275.1,61.1h2.4v28.6h-2.4V61.1z"/>
	</g>
	<g>
		<path class="st0" d="M282.4,61.1h2.4v4.1h-2.4V61.1z M282.4,68.5h2.4v21.2h-2.4V68.5z"/>
	</g>
	<g>
		<path class="st0" d="M302.7,82.7c-0.4,4.5-2.8,7.5-6.8,7.5c-4.5,0-7.1-3.1-7.1-11.1c0-7.4,2.6-11.1,7.3-11.1
			c4.7,0,6.8,3.2,6.8,10.3v0.9h-11.6v1c0,6.1,2.2,8,4.5,8c2.5,0,4.1-1.8,4.5-5.5L302.7,82.7L302.7,82.7z M300.4,77.2
			c-0.1-5.3-1.6-7.2-4.5-7.2s-4.4,1.9-4.5,7.2H300.4z"/>
	</g>
	<g>
		<path class="st0" d="M306.7,68.5h2.2v3h0.1c1.2-2.4,3.3-3.4,5.4-3.4c3.2,0,5.4,1.7,5.4,5.7v16h-2.4V74.4c0-2.9-1.2-4.4-3.6-4.4
			c-2.8,0-4.7,2.2-4.7,5.4v14.3h-2.4V68.5z"/>
	</g>
	<g>
		<path class="st0" d="M325.3,70.5h-2.9v-2h2.9v-5.9h2.4v5.9h3.8v2h-3.8v15.2c0,1.7,0.7,2.2,2.3,2.2c0.5,0,1-0.1,1.5-0.2v2
			c-0.3,0.2-0.9,0.2-1.7,0.2c-3.2,0-4.5-0.9-4.5-3.7L325.3,70.5L325.3,70.5z"/>
	</g>
	<g>
		<path class="st0" d="M337.4,79.1c-3-1.2-4.1-2.9-4.1-5c0-4.4,2.7-6.1,6.3-6.1c4,0,5.8,2,5.8,5.9v0.6H343v-0.6
			c0-2.8-1.3-3.9-3.5-3.9c-2.8,0-3.9,1.5-3.9,3.6c0,1.5,0.5,2.6,2.9,3.6l3.5,1.3c2.9,1.1,4,3.1,4,5.4c0,3.6-2.1,6.3-6.6,6.3
			c-4.4,0-6.5-1.8-6.5-6.6v-0.7h2.4v0.6c0,3.1,1.4,4.7,4.1,4.7c2.6,0,4.2-1.4,4.2-3.8c0-1.9-0.8-3.1-2.9-3.9L337.4,79.1z"/>
	</g>
	<g>
		<path class="st0" d="M358.8,74.8c0-4.4,2.1-6.8,6.6-6.8c4.4,0,6,2.3,6,5.6v12.6c0,1.2,0.4,1.8,1.2,1.8h0.7v1.8
			c-0.4,0.2-0.8,0.2-1.1,0.2c-1.9,0-3.1-0.4-3.1-2.6v-0.7H369c-1,2.8-3.1,3.6-5.5,3.6c-3.7,0-5.4-2.3-5.4-6c0-2.8,1.3-5,4.3-5.9
			l4.5-1.3c1.7-0.5,2-0.9,2-3.4c0-2.7-1.5-3.7-3.7-3.7c-2.8,0-4.1,1.7-4.1,4.8C361.1,74.8,358.8,74.8,358.8,74.8z M369,77.7
			L369,77.7c-0.3,0.7-1.7,1.2-2.6,1.4l-2,0.5c-2.4,0.6-3.6,1.9-3.6,4.4s1.3,4.2,3.4,4.2c2.9,0,4.9-2.2,4.9-6L369,77.7L369,77.7z"/>
	</g>
	<g>
		<path class="st0" d="M376.3,68.5h2.2v3h0.1c1.2-2.4,3.3-3.4,5.4-3.4c3.2,0,5.4,1.7,5.4,5.7v16H387V74.4c0-2.9-1.2-4.4-3.6-4.4
			c-2.8,0-4.7,2.2-4.7,5.4v14.3h-2.4V68.5z"/>
	</g>
	<g>
		<path class="st0" d="M405.2,86.2L405.2,86.2c-0.7,2.4-2.8,4-5.3,4c-4.7,0-6.8-3.8-6.8-11.1s2.1-11.1,6.8-11.1c2.6,0,4.4,1.4,5,3.7
			h0.1V61.2h2.4v28.6h-2.2V86.2z M400.4,88.2c2.4,0,4.6-1.2,4.6-9.1c0-7.8-2.2-9.1-4.6-9.1s-4.6,1.2-4.6,9.1
			C395.7,86.9,398,88.2,400.4,88.2z"/>
	</g>
	<g>
		<path class="st0" d="M434.2,82.7c-0.4,4.5-2.8,7.5-6.8,7.5c-4.5,0-7.1-3.1-7.1-11.1c0-7.4,2.6-11.1,7.3-11.1c4,0,6.3,2.4,6.6,6.8
			h-2.4c-0.3-3.3-1.6-4.8-4.2-4.8s-4.8,1.6-4.8,9.1c0,8,2.3,9.1,4.5,9.1c2.4,0,4-1.8,4.4-5.5H434.2z"/>
	</g>
	<g>
		<path class="st0" d="M443.9,68c4.7,0,7.3,3.7,7.3,11.1c0,7.4-2.6,11.1-7.3,11.1s-7.3-3.7-7.3-11.1S439.2,68,443.9,68z M443.9,88.2
			c2.7,0,4.8-2.3,4.8-9.1s-2.1-9.1-4.8-9.1s-4.8,2.3-4.8,9.1C439.1,85.9,441.2,88.2,443.9,88.2z"/>
	</g>
	<g>
		<path class="st0" d="M454.9,68.5h2.2v3h0.1c1.1-2.4,3-3.4,5.4-3.4c2.6,0,4.1,1.6,4.4,3.7h0.1c1-2.4,2.7-3.7,5.4-3.7
			c3,0,4.9,1.7,4.9,5.5v16.2H475V73.9c0-2.5-1.2-3.8-3.3-3.8c-2.4,0-4.3,2.2-4.3,5.4v14.3H465V73.9c0-2.5-1.2-3.8-3.3-3.8
			c-2.4,0-4.3,2.2-4.3,5.4v14.3H455V68.5H454.9z"/>
	</g>
	<g>
		<path class="st0" d="M481.9,68.5h2.2v3h0.1c0.8-2,2.5-3.5,5.2-3.5c4.7,0,6.8,3.8,6.8,11.1s-2.1,11.1-6.8,11.1
			c-2.6,0-4.4-1.4-5-3.7h-0.1v10.2h-2.4L481.9,68.5L481.9,68.5z M489,70c-1.4,0-2.6,0.7-3.4,1.9c-1,1.5-1.4,3.6-1.4,7.2
			c0,7.8,2.2,9.1,4.6,9.1s4.6-1.2,4.6-9.1C493.6,71.4,491.4,70,489,70z"/>
	</g>
	<g>
		<path class="st0" d="M513,82.7c-0.4,4.5-2.8,7.5-6.8,7.5c-4.5,0-7.1-3.1-7.1-11.1c0-7.4,2.6-11.1,7.3-11.1c4.7,0,6.8,3.2,6.8,10.3
			v0.9h-11.6v1c0,6.1,2.2,8,4.5,8c2.5,0,4.1-1.8,4.5-5.5L513,82.7L513,82.7z M510.6,77.2c-0.1-5.3-1.6-7.2-4.5-7.2
			c-3,0-4.4,1.9-4.5,7.2H510.6z"/>
	</g>
	<g>
		<path class="st0" d="M517.8,70.5h-2.9v-2h2.9v-5.9h2.4v5.9h3.8v2h-3.8v15.2c0,1.7,0.7,2.2,2.3,2.2c0.5,0,1-0.1,1.5-0.2v2
			c-0.3,0.2-0.9,0.2-1.7,0.2c-3.2,0-4.5-0.9-4.5-3.7V70.5z"/>
	</g>
	<g>
		<path class="st0" d="M526.8,61.1h2.4v4.1h-2.4V61.1z M526.8,68.5h2.4v21.2h-2.4V68.5z"/>
	</g>
	<g>
		<path class="st0" d="M534.8,70.5h-2.9v-2h2.9v-5.9h2.4v5.9h3.8v2h-3.8v15.2c0,1.7,0.7,2.2,2.3,2.2c0.5,0,1-0.1,1.5-0.2v2
			c-0.3,0.2-0.9,0.2-1.7,0.2c-3.2,0-4.5-0.9-4.5-3.7V70.5z"/>
	</g>
	<g>
		<path class="st0" d="M549.8,68c4.7,0,7.3,3.7,7.3,11.1c0,7.4-2.6,11.1-7.3,11.1s-7.3-3.7-7.3-11.1S545.1,68,549.8,68z M549.8,88.2
			c2.7,0,4.8-2.3,4.8-9.1s-2.1-9.1-4.8-9.1s-4.8,2.3-4.8,9.1C545,85.9,547.1,88.2,549.8,88.2z"/>
	</g>
	<g>
		<path class="st0" d="M560.6,68.5h2.4v3.3h0.1c0.9-2.4,2.9-3.8,5.4-3.8c0.3,0,0.6,0,0.8,0.1v2.4c-0.4-0.1-0.8-0.1-1.2-0.1
			c-2.6,0-5.1,1.9-5.1,6v13.3h-2.4V68.5z"/>
	</g>
	<g>
		<path class="st0" d="M575.1,79.1c-3-1.2-4.1-2.9-4.1-5c0-4.4,2.7-6.1,6.3-6.1c4,0,5.8,2,5.8,5.9v0.6h-2.4v-0.6
			c0-2.8-1.3-3.9-3.5-3.9c-2.8,0-3.9,1.5-3.9,3.6c0,1.5,0.5,2.6,2.9,3.6l3.5,1.3c2.9,1.1,4,3.1,4,5.4c0,3.6-2.1,6.3-6.6,6.3
			c-4.4,0-6.5-1.8-6.5-6.6v-0.7h2.4v0.6c0,3.1,1.4,4.7,4.1,4.7c2.6,0,4.2-1.4,4.2-3.8c0-1.9-0.8-3.1-2.9-3.9L575.1,79.1z"/>
	</g>
	<g>
		<path class="st0" d="M597.1,61.1h2.4v4.1h-2.4V61.1z M597.1,68.5h2.4v21.2h-2.4V68.5z"/>
	</g>
	<g>
		<path class="st0" d="M604.3,68.5h2.2v3h0.1c1.2-2.4,3.3-3.4,5.4-3.4c3.2,0,5.4,1.7,5.4,5.7v16H615V74.4c0-2.9-1.2-4.4-3.6-4.4
			c-2.8,0-4.7,2.2-4.7,5.4v14.3h-2.4V68.5z"/>
	</g>
	<g>
		<path class="st0" d="M632.5,70.5h-2.9v-2h2.9v-5.9h2.4v5.9h3.8v2h-3.8v15.2c0,1.7,0.7,2.2,2.3,2.2c0.5,0,1-0.1,1.5-0.2v2
			c-0.3,0.2-0.9,0.2-1.7,0.2c-3.2,0-4.5-0.9-4.5-3.7V70.5z"/>
	</g>
	<g>
		<path class="st0" d="M641.3,61.1h2.4v10.3h0.1c0.6-2.2,2.7-3.4,5.2-3.4c3.2,0,5.4,1.7,5.4,5.7v16H652V74.3c0-2.9-1.2-4.4-3.6-4.4
			c-2.8,0-4.7,2.2-4.7,5.4v14.3h-2.4V61.1z"/>
	</g>
	<g>
		<path class="st0" d="M659.2,61.1h2.4v4.1h-2.4V61.1z M659.2,68.5h2.4v21.2h-2.4V68.5z"/>
	</g>
	<g>
		<path class="st0" d="M669.8,79.1c-3-1.2-4.1-2.9-4.1-5c0-4.4,2.7-6.1,6.3-6.1c4,0,5.8,2,5.8,5.9v0.6h-2.4v-0.6
			c0-2.8-1.3-3.9-3.5-3.9c-2.8,0-3.9,1.5-3.9,3.6c0,1.5,0.5,2.6,2.9,3.6l3.5,1.3c2.9,1.1,4,3.1,4,5.4c0,3.6-2.1,6.3-6.6,6.3
			c-4.4,0-6.5-1.8-6.5-6.6v-0.7h2.4v0.6c0,3.1,1.4,4.7,4.1,4.7c2.6,0,4.2-1.4,4.2-3.8c0-1.9-0.8-3.1-2.9-3.9L669.8,79.1z"/>
	</g>
	<g>
		<path class="st0" d="M694.9,79.1c-3-1.2-4.1-2.9-4.1-5c0-4.4,2.7-6.1,6.3-6.1c4,0,5.8,2,5.8,5.9v0.6h-2.4v-0.6
			c0-2.8-1.3-3.9-3.5-3.9c-2.8,0-3.9,1.5-3.9,3.6c0,1.5,0.5,2.6,2.9,3.6l3.5,1.3c2.9,1.1,4,3.1,4,5.4c0,3.6-2.1,6.3-6.6,6.3
			c-4.4,0-6.5-1.8-6.5-6.6v-0.7h2.4v0.6c0,3.1,1.4,4.7,4.1,4.7c2.6,0,4.2-1.4,4.2-3.8c0-1.9-0.8-3.1-2.9-3.9L694.9,79.1z"/>
	</g>
	<g>
		<path class="st0" d="M706.9,68.5h2.2v3h0.1c0.8-2,2.5-3.5,5.2-3.5c4.7,0,6.8,3.8,6.8,11.1s-2.1,11.1-6.8,11.1
			c-2.6,0-4.4-1.4-5-3.7h-0.1v10.2h-2.4V68.5z M714,70c-1.4,0-2.6,0.7-3.4,1.9c-1,1.5-1.4,3.6-1.4,7.2c0,7.8,2.2,9.1,4.6,9.1
			c2.4,0,4.6-1.2,4.6-9.1C718.5,71.4,716.3,70,714,70z"/>
	</g>
	<g>
		<path class="st0" d="M724.4,74.8c0-4.4,2.1-6.8,6.6-6.8c4.4,0,6,2.3,6,5.6v12.6c0,1.2,0.4,1.8,1.2,1.8h0.7v1.8
			c-0.4,0.2-0.8,0.2-1.1,0.2c-1.9,0-3.1-0.4-3.1-2.6v-0.7h-0.1c-1,2.8-3.1,3.6-5.5,3.6c-3.7,0-5.4-2.3-5.4-6c0-2.8,1.3-5,4.3-5.9
			l4.5-1.3c1.7-0.5,2-0.9,2-3.4c0-2.7-1.5-3.7-3.7-3.7c-2.8,0-4.1,1.7-4.1,4.8C726.7,74.8,724.4,74.8,724.4,74.8z M734.6,77.7
			L734.6,77.7c-0.3,0.7-1.7,1.2-2.6,1.4l-2,0.5c-2.4,0.6-3.6,1.9-3.6,4.4s1.3,4.2,3.4,4.2c2.9,0,4.9-2.2,4.9-6v-4.5H734.6z"/>
	</g>
	<g>
		<path class="st0" d="M754.7,82.7c-0.4,4.5-2.8,7.5-6.8,7.5c-4.5,0-7.1-3.1-7.1-11.1c0-7.4,2.6-11.1,7.3-11.1c4,0,6.3,2.4,6.6,6.8
			h-2.4c-0.3-3.3-1.6-4.8-4.2-4.8c-2.6,0-4.8,1.6-4.8,9.1c0,8,2.3,9.1,4.5,9.1c2.4,0,4-1.8,4.4-5.5H754.7z"/>
	</g>
	<g>
		<path class="st0" d="M771.3,82.7c-0.4,4.5-2.8,7.5-6.8,7.5c-4.5,0-7.1-3.1-7.1-11.1c0-7.4,2.6-11.1,7.3-11.1s6.8,3.2,6.8,10.3v0.9
			h-11.6v1c0,6.1,2.2,8,4.5,8c2.5,0,4.1-1.8,4.5-5.5L771.3,82.7L771.3,82.7z M768.9,77.2c-0.1-5.3-1.6-7.2-4.5-7.2s-4.4,1.9-4.5,7.2
			H768.9z"/>
	</g>
	<g>
		<path class="st0" d="M776.4,85.6h2.7v4.1h-2.7V85.6z"/>
	</g>
	<g>
		<path class="st0" d="M785.7,61.1h2.7v4.1c0,2.4-0.5,4.6-3,5.5v-1.6c1-0.6,1.4-1.8,1.4-3.9h-1.2L785.7,61.1L785.7,61.1z
			 M790.9,61.1h2.7v4.1c0,2.4-0.5,4.6-3,5.5v-1.6c1-0.6,1.4-1.8,1.4-3.9h-1.2L790.9,61.1L790.9,61.1z"/>
	</g>
</g>
<g>
	<g>
		<path class="st1" d="M257.4,117.8c0-1.1-0.4-1.9-1.7-1.9c-1.1,0-1.8,0.6-1.8,1.7c0,3,5.1,1.2,5.1,5.1c0,2.5-1.8,3.2-3.3,3.2
			c-2.5,0-3.2-1.3-3.2-3.6h1.3c0,1.2,0.1,2.5,2,2.5c1,0,1.9-0.8,1.9-1.9c0-3-5.1-1.3-5.1-5.2c0-1,0.4-3,3.1-3c2,0,3,1,3,3
			L257.4,117.8L257.4,117.8z"/>
	</g>
	<g>
		<path class="st1" d="M267.5,120.4c0,2.7-0.5,5.6-3.4,5.6c-3,0-3.5-2.9-3.5-5.6c0-2.7,0.5-5.6,3.5-5.6
			C267,114.8,267.5,117.7,267.5,120.4z M262,120.4c0,2.5,0.2,4.5,2.1,4.5s2.1-2,2.1-4.5s-0.2-4.5-2.1-4.5S262,117.9,262,120.4z"/>
	</g>
	<g>
		<path class="st1" d="M269.4,115h1.3v7.5c0,1.6,0.5,2.3,1.8,2.3c1.4,0,1.8-0.8,1.8-2.3V115h1.3v7.5c0,2.1-1,3.4-3.1,3.4
			s-3.1-1.2-3.1-3.4L269.4,115L269.4,115z"/>
	</g>
	<g>
		<path class="st1" d="M277.8,115h3.5c1.7,0,2.7,1,2.7,2.7c0,1.2-0.4,2.4-1.6,2.7l0,0c0.9,0.1,1.5,0.9,1.5,1.8l0.1,1.8
			c0.1,1.2,0.3,1.5,0.6,1.7H283c-0.2-0.2-0.3-1-0.4-1.5l-0.1-1.7c-0.1-1.5-0.9-1.6-1.6-1.6h-1.8v4.8h-1.3L277.8,115L277.8,115z
			 M279.2,119.9h1.3c0.8,0,2.2,0,2.2-2.1c0-1-0.7-1.7-1.9-1.7h-1.6V119.9z"/>
	</g>
	<g>
		<path class="st1" d="M292.5,122.1c-0.1,2-0.9,3.9-3.3,3.9c-3,0-3.4-2.9-3.4-5.6c0-2.7,0.5-5.6,3.4-5.6c2.2,0,3.1,1.2,3.2,3.3H291
			c0-1.2-0.4-2.2-1.8-2.2c-1.8,0-2.1,2-2.1,4.5s0.2,4.5,2.1,4.5c1.6,0,1.8-1.5,1.9-2.8L292.5,122.1L292.5,122.1z"/>
	</g>
	<g>
		<path class="st1" d="M294.3,115h5.5v1.2h-4.2v3.4h4v1.2h-4v3.8h4.4v1.2h-5.7L294.3,115L294.3,115z"/>
	</g>
	<g>
		<path class="st1" d="M301.8,118.1h1.4v1.6h-1.4V118.1z M301.8,124.1h1.4v1.6h-1.4V124.1z"/>
	</g>
	<g>
		<path class="st1" d="M311.8,115h1.2l3.2,10.7h-1l-0.9-3.1h-3.8l-0.9,3.1h-1L311.8,115z M314,121.8l-1.6-6l0,0l-1.6,6H314z"/>
	</g>
	<g>
		<path class="st1" d="M317.7,115h1v9.9h4.4v0.8h-5.4V115z"/>
	</g>
	<g>
		<path class="st1" d="M324.7,115h1.7l2.6,9.5l0,0l2.6-9.5h1.6v10.7h-1v-9.8l0,0l-2.8,9.8h-0.9l-2.8-9.8l0,0v9.8h-1L324.7,115
			L324.7,115z"/>
	</g>
	<g>
		<path class="st1" d="M338.5,115h1l2.4,9.7l0,0l2.4-9.7h1l-2.8,10.7h-1.2L338.5,115z"/>
	</g>
	<g>
		<path class="st1" d="M348.4,115h1.2l3.2,10.7h-1l-0.9-3.1h-3.8l-0.9,3.1h-1L348.4,115z M350.7,121.8l-1.6-6l0,0l-1.6,6H350.7z"/>
	</g>
	<g>
		<path class="st1" d="M354.3,115h1.3l4.1,9.3l0,0V115h1v10.7h-1.3l-4.1-9.3l0,0v9.3h-1V115z"/>
	</g>
	<g>
		<path class="st1" d="M365.9,121.1v-0.8h3.4v5.5h-0.8V124l0,0c-0.3,1.2-1.3,1.9-2.4,1.9c-2.2,0-3.4-1.7-3.4-5.5s1.2-5.5,3.4-5.5
			c2,0,3,1.3,3.1,3.2h-1c0-1.3-0.7-2.4-2.1-2.4c-1.5,0-2.5,1.3-2.5,4.7s0.9,4.7,2.5,4.7c1.4,0,2.2-1.3,2.2-3.8v-0.2L365.9,121.1
			L365.9,121.1z"/>
	</g>
	<g>
		<path class="st1" d="M371.4,115h1v7.7c0,1.6,0.7,2.4,2.1,2.4s2.1-0.8,2.1-2.4V115h1v7.7c0,2.2-1.1,3.2-3.1,3.2s-3.1-0.9-3.1-3.2
			V115z"/>
	</g>
	<g>
		<path class="st1" d="M381.8,115h1.2l3.2,10.7h-1l-0.9-3.1h-3.8l-0.9,3.1h-1L381.8,115z M384.1,121.8l-1.6-6l0,0l-1.6,6H384.1z"/>
	</g>
	<g>
		<path class="st1" d="M387.7,115h3.2c1.8,0,2.8,1,2.8,2.7c0,1.3-0.5,2.4-1.9,2.7l0,0c1.3,0.1,1.8,0.9,1.8,2.5v1.2
			c0,0.6,0.1,1.2,0.4,1.6h-1.1c-0.2-0.4-0.3-0.9-0.3-1.5v-0.9c-0.1-1.9-0.4-2.5-2.1-2.5h-1.8v4.9h-1V115z M388.7,120h1.6
			c1.5,0,2.4-0.7,2.4-2.1c0-1.3-0.6-2.1-2.3-2.1h-1.8L388.7,120L388.7,120z"/>
	</g>
	<g>
		<path class="st1" d="M395.8,115h2.6c3.1,0,3.9,1.9,3.9,5.4s-0.8,5.4-3.9,5.4h-2.6V115z M396.7,124.9h1.6c2.1,0,3-1.1,3-4.5
			c0-3.5-0.9-4.6-3-4.6h-1.6V124.9z"/>
	</g>
	<g>
		<path class="st1" d="M404.3,118.2h1v1.5h-1V118.2z M404.3,124.2h1v1.5h-1V124.2z"/>
	</g>
	<g>
		<path class="st1" d="M413.9,115.8h-2.8V115h6.5v0.8h-2.8v9.9h-1L413.9,115.8L413.9,115.8z"/>
	</g>
	<g>
		<path class="st1" d="M419.1,115h3.2c1.8,0,2.8,1,2.8,2.7c0,1.3-0.5,2.4-1.9,2.7l0,0c1.3,0.1,1.8,0.9,1.8,2.5v1.2
			c0,0.6,0.1,1.2,0.4,1.6h-1.1c-0.2-0.4-0.3-0.9-0.3-1.5v-0.9c-0.1-1.9-0.4-2.5-2.1-2.5h-1.8v4.9h-1V115z M420.1,120h1.6
			c1.5,0,2.4-0.7,2.4-2.1c0-1.3-0.6-2.1-2.3-2.1H420L420.1,120L420.1,120z"/>
	</g>
	<g>
		<path class="st1" d="M429.9,115h1.2l3.2,10.7h-1l-0.9-3.1h-3.8l-0.9,3.1h-1L429.9,115z M432.2,121.8l-1.6-6l0,0l-1.6,6H432.2z"/>
	</g>
	<g>
		<path class="st1" d="M435.8,115h1.3l4.1,9.3l0,0V115h1v10.7h-1.3l-4.1-9.3l0,0v9.3h-1V115z"/>
	</g>
	<g>
		<path class="st1" d="M449.1,117.8c0-1.3-0.6-2.1-1.9-2.1s-2,0.9-2,1.9c0,3.2,5.2,1.4,5.2,5.2c0,2.1-1.3,3.1-3.2,3.1
			c-2,0-3.1-1.1-3.1-3.2v-0.3h1v0.4c0,1.4,0.7,2.3,2.1,2.3s2.3-0.7,2.3-2.2c0-3.2-5.2-1.4-5.2-5.2c0-1.7,1.1-2.8,3-2.8
			c2,0,2.9,1,2.9,2.9L449.1,117.8L449.1,117.8z"/>
	</g>
	<g>
		<path class="st1" d="M454.6,115h1.2l3.2,10.7h-1l-0.9-3.1h-3.8l-0.9,3.1h-1L454.6,115z M456.8,121.8l-1.6-6l0,0l-1.6,6H456.8z"/>
	</g>
	<g>
		<path class="st1" d="M466.5,122.1c-0.1,2.4-1.3,3.8-3.2,3.8c-2.2,0-3.4-1.7-3.4-5.5s1.2-5.5,3.4-5.5c2.2,0,3.1,1.5,3.1,3.3h-1
			c0-1.5-0.7-2.5-2.1-2.5c-1.5,0-2.5,1.3-2.5,4.7s0.9,4.7,2.5,4.7c1.3,0,2.1-1.2,2.2-3H466.5z"/>
	</g>
	<g>
		<path class="st1" d="M470.3,115.8h-2.8V115h6.5v0.8h-2.8v9.9h-1L470.3,115.8L470.3,115.8z"/>
	</g>
	<g>
		<path class="st1" d="M475.6,115h1v10.7h-1V115z"/>
	</g>
	<g>
		<path class="st1" d="M482.1,114.8c2.2,0,3.4,1.7,3.4,5.5s-1.2,5.5-3.4,5.5s-3.4-1.7-3.4-5.5S479.9,114.8,482.1,114.8z
			 M482.1,125.1c1.5,0,2.5-1.3,2.5-4.7s-0.9-4.7-2.5-4.7c-1.5,0-2.5,1.3-2.5,4.7S480.6,125.1,482.1,125.1z"/>
	</g>
	<g>
		<path class="st1" d="M487.6,115h1.3l4.1,9.3l0,0V115h1v10.7h-1.3l-4.1-9.3l0,0v9.3h-1V115z"/>
	</g>
	<g>
		<path class="st1" d="M500.9,117.8c0-1.3-0.6-2.1-1.9-2.1s-2,0.9-2,1.9c0,3.2,5.2,1.4,5.2,5.2c0,2.1-1.3,3.1-3.2,3.1
			c-2,0-3.1-1.1-3.1-3.2v-0.3h1v0.4c0,1.4,0.7,2.3,2.1,2.3c1.3,0,2.3-0.7,2.3-2.2c0-3.2-5.2-1.4-5.2-5.2c0-1.7,1.1-2.8,3-2.8
			c2,0,2.9,1,2.9,2.9L500.9,117.8L500.9,117.8z"/>
	</g>
	<g>
		<path class="st1" d="M507.1,121.1v0.8h-3.3v-0.8H507.1z"/>
	</g>
	<g>
		<path class="st1" d="M511.4,115h1.2l3.2,10.7h-1l-0.9-3.1h-3.7l-0.9,3.1h-1L511.4,115z M513.6,121.8l-1.6-6l0,0l-1.6,6H513.6z"/>
	</g>
	<g>
		<path class="st1" d="M523.3,122.1c-0.1,2.4-1.3,3.8-3.2,3.8c-2.2,0-3.4-1.7-3.4-5.5s1.2-5.5,3.4-5.5s3.1,1.5,3.1,3.3h-1
			c0-1.5-0.7-2.5-2.1-2.5c-1.5,0-2.5,1.3-2.5,4.7s0.9,4.7,2.5,4.7c1.3,0,2.1-1.2,2.2-3H523.3z"/>
	</g>
	<g>
		<path class="st1" d="M530.3,125.2c-0.5,0.5-1.2,0.7-1.9,0.7c-2.2,0-3.4-1.7-3.4-5.5s1.2-5.5,3.4-5.5s3.4,1.7,3.4,5.5
			c0,2-0.3,3.4-1,4.3l1.1,1l-0.5,0.6L530.3,125.2z M528.5,123.4l0.5-0.6l1.2,1.1c0.4-0.8,0.6-2,0.6-3.6c0-3.5-0.9-4.7-2.5-4.7
			c-1.5,0-2.5,1.3-2.5,4.7s0.9,4.7,2.5,4.7c0.5,0,1-0.1,1.3-0.5L528.5,123.4z"/>
	</g>
	<g>
		<path class="st1" d="M533.8,115h1v7.7c0,1.6,0.7,2.4,2.1,2.4s2.1-0.8,2.1-2.4V115h1v7.7c0,2.2-1.1,3.2-3.1,3.2s-3.1-0.9-3.1-3.2
			V115z"/>
	</g>
	<g>
		<path class="st1" d="M542.1,115h1v10.7h-1V115z"/>
	</g>
	<g>
		<path class="st1" d="M550,117.8c0-1.3-0.6-2.1-1.9-2.1c-1.3,0-2,0.9-2,1.9c0,3.2,5.2,1.4,5.2,5.2c0,2.1-1.3,3.1-3.2,3.1
			c-2,0-3.1-1.1-3.1-3.2v-0.3h1v0.4c0,1.4,0.7,2.3,2.1,2.3c1.3,0,2.3-0.7,2.3-2.2c0-3.2-5.2-1.4-5.2-5.2c0-1.7,1.1-2.8,3-2.8
			c2,0,2.9,1,2.9,2.9L550,117.8L550,117.8z"/>
	</g>
	<g>
		<path class="st1" d="M553.1,115h1v10.7h-1V115z"/>
	</g>
	<g>
		<path class="st1" d="M558.4,115.8h-2.8V115h6.5v0.8h-2.8v9.9h-1L558.4,115.8L558.4,115.8z"/>
	</g>
	<g>
		<path class="st1" d="M563.8,115h1v10.7h-1V115z"/>
	</g>
	<g>
		<path class="st1" d="M570.2,114.8c2.2,0,3.4,1.7,3.4,5.5s-1.2,5.5-3.4,5.5s-3.4-1.7-3.4-5.5S568,114.8,570.2,114.8z M570.2,125.1
			c1.5,0,2.5-1.3,2.5-4.7s-0.9-4.7-2.5-4.7c-1.5,0-2.5,1.3-2.5,4.7S568.7,125.1,570.2,125.1z"/>
	</g>
	<g>
		<path class="st1" d="M575.7,115h1.3l4.1,9.3l0,0V115h1v10.7h-1.3l-4.1-9.3l0,0v9.3h-1V115z"/>
	</g>
	<g>
		<path class="st1" d="M589,117.8c0-1.3-0.6-2.1-1.9-2.1s-2,0.9-2,1.9c0,3.2,5.2,1.4,5.2,5.2c0,2.1-1.3,3.1-3.2,3.1
			c-2,0-3.1-1.1-3.1-3.2v-0.3h1v0.4c0,1.4,0.7,2.3,2.1,2.3c1.4,0,2.3-0.7,2.3-2.2c0-3.2-5.2-1.4-5.2-5.2c0-1.7,1.1-2.8,3-2.8
			c2,0,2.9,1,2.9,2.9L589,117.8L589,117.8z"/>
	</g>
	<g>
		<path class="st1" d="M602.4,122.1c-0.1,2.4-1.3,3.8-3.2,3.8c-2.2,0-3.4-1.7-3.4-5.5s1.2-5.5,3.4-5.5s3.1,1.5,3.1,3.3h-1
			c0-1.5-0.7-2.5-2.1-2.5c-1.5,0-2.5,1.3-2.5,4.7s0.9,4.7,2.5,4.7c1.4,0,2.1-1.2,2.2-3H602.4z"/>
	</g>
	<g>
		<path class="st1" d="M607.5,114.8c2.2,0,3.4,1.7,3.4,5.5s-1.2,5.5-3.4,5.5s-3.4-1.7-3.4-5.5S605.3,114.8,607.5,114.8z
			 M607.5,125.1c1.5,0,2.5-1.3,2.5-4.7s-0.9-4.7-2.5-4.7c-1.5,0-2.5,1.3-2.5,4.7S605.9,125.1,607.5,125.1z"/>
	</g>
	<g>
		<path class="st1" d="M612.9,115h1.3l4.1,9.3l0,0V115h1v10.7H618l-4.1-9.3l0,0v9.3h-1V115z"/>
	</g>
	<g>
		<path class="st1" d="M626.3,117.8c0-1.3-0.6-2.1-1.9-2.1c-1.3,0-2,0.9-2,1.9c0,3.2,5.2,1.4,5.2,5.2c0,2.1-1.3,3.1-3.2,3.1
			c-2,0-3.1-1.1-3.1-3.2v-0.3h1v0.4c0,1.4,0.7,2.3,2.1,2.3c1.3,0,2.3-0.7,2.3-2.2c0-3.2-5.2-1.4-5.2-5.2c0-1.7,1.1-2.8,3-2.8
			c2,0,2.9,1,2.9,2.9L626.3,117.8L626.3,117.8z"/>
	</g>
	<g>
		<path class="st1" d="M629.2,115h1v7.7c0,1.6,0.7,2.4,2.1,2.4s2.1-0.8,2.1-2.4V115h1v7.7c0,2.2-1.1,3.2-3.1,3.2s-3.1-0.9-3.1-3.2
			V115z"/>
	</g>
	<g>
		<path class="st1" d="M637.4,115h1v9.9h4.4v0.8h-5.4V115z"/>
	</g>
	<g>
		<path class="st1" d="M645.4,115.8h-2.8V115h6.5v0.8h-2.8v9.9h-1L645.4,115.8L645.4,115.8z"/>
	</g>
	<g>
		<path class="st1" d="M650.8,115h1v10.7h-1V115z"/>
	</g>
	<g>
		<path class="st1" d="M654,115h1.3l4.1,9.3l0,0V115h1v10.7h-1.3l-4.1-9.3l0,0v9.3h-1V115z"/>
	</g>
	<g>
		<path class="st1" d="M665.5,121.1v-0.8h3.4v5.5h-0.8V124l0,0c-0.3,1.2-1.3,1.9-2.4,1.9c-2.2,0-3.4-1.7-3.4-5.5s1.2-5.5,3.4-5.5
			c2,0,3,1.3,3.1,3.2h-1c0-1.3-0.7-2.4-2.1-2.4c-1.5,0-2.5,1.3-2.5,4.7s0.9,4.7,2.5,4.7c1.4,0,2.2-1.3,2.2-3.8v-0.2L665.5,121.1
			L665.5,121.1z"/>
	</g>
	<g>
		<path class="st1" d="M674.9,115h3.2c1.8,0,2.8,1,2.8,2.7c0,1.3-0.5,2.4-1.9,2.7l0,0c1.3,0.1,1.8,0.9,1.8,2.5v1.2
			c0,0.6,0.1,1.2,0.5,1.6h-1.1c-0.2-0.4-0.3-0.9-0.3-1.5v-0.9c-0.1-1.9-0.4-2.5-2.1-2.5H676v4.9h-1V115H674.9z M675.9,120h1.7
			c1.5,0,2.4-0.7,2.4-2.1c0-1.3-0.6-2.1-2.3-2.1h-1.8L675.9,120L675.9,120z"/>
	</g>
	<g>
		<path class="st1" d="M683,115h5.3v0.8H684v3.9h4.1v0.8H684v4.4h4.5v0.8H683V115z"/>
	</g>
	<g>
		<path class="st1" d="M690.1,115h2.9c2.1,0,2.9,1.2,2.9,3c0,1.7-0.8,3-3.3,3H691v4.6h-1L690.1,115L690.1,115z M691.1,120.3h1.6
			c1.3,0,2.3-0.6,2.3-2.2c0-1.6-0.8-2.2-2.3-2.2h-1.6V120.3z"/>
	</g>
	<g>
		<path class="st1" d="M701.1,114.8c2.2,0,3.4,1.7,3.4,5.5s-1.2,5.5-3.4,5.5s-3.4-1.7-3.4-5.5S698.9,114.8,701.1,114.8z
			 M701.1,125.1c1.5,0,2.5-1.3,2.5-4.7s-0.9-4.7-2.5-4.7s-2.5,1.3-2.5,4.7S699.5,125.1,701.1,125.1z"/>
	</g>
	<g>
		<path class="st1" d="M706.6,115h3.2c1.8,0,2.8,1,2.8,2.7c0,1.3-0.5,2.4-1.9,2.7l0,0c1.3,0.1,1.8,0.9,1.8,2.5v1.2
			c0,0.6,0.1,1.2,0.5,1.6h-1.1c-0.2-0.4-0.3-0.9-0.3-1.5v-0.9c-0.1-1.9-0.4-2.5-2.1-2.5h-1.8v4.9h-1V115H706.6z M707.5,120h1.7
			c1.5,0,2.4-0.7,2.4-2.1c0-1.3-0.6-2.1-2.3-2.1h-1.8L707.5,120L707.5,120z"/>
	</g>
	<g>
		<path class="st1" d="M716.5,115.8h-2.8V115h6.5v0.8h-2.8v9.9h-1L716.5,115.8L716.5,115.8z"/>
	</g>
</g>
</svg>
