<?xml version="1.0" encoding="utf-8"?>
<!-- Generator: Adobe Illustrator 22.1.0, SVG Export Plug-In . SVG Version: 6.00 Build 0)  -->
<svg version="1.1" id="Layer_1" xmlns="http://www.w3.org/2000/svg" xmlns:xlink="http://www.w3.org/1999/xlink" x="0px" y="0px"
	 viewBox="0 0 146.5 33.4" style="enable-background:new 0 0 146.5 33.4;" xml:space="preserve">
<style type="text/css">
	.st0{fill:#002A4A;}
	.st1{fill:#002B49;}
</style>
<g>
	<g>
		<path class="st1" d="M13.2,11.6h1.6v10.5h6.3v1.3h-7.9V11.6z"/>
	</g>
	<g>
		<path class="st1" d="M24,11.6h8.2v1.3h-6.6v3.8h6.2V18h-6.2v4.1h6.7v1.3h-8.2V11.6H24z"/>
	</g>
	<g>
		<path class="st1" d="M39.4,11.6h1.7l4.6,11.9H44l-1.3-3.6h-5l-1.3,3.6h-1.6L39.4,11.6z M38.2,18.5h4l-2-5.5l0,0L38.2,18.5z"/>
	</g>
	<g>
		<path class="st1" d="M48.6,11.6h5.6c2.2,0,3.6,1.2,3.6,3.1c0,1.4-0.6,2.6-2.1,3l0,0c1.4,0.3,1.7,1.3,1.8,2.4
			c0.1,1.2,0,2.5,0.7,3.3h-1.8c-0.4-0.5-0.2-1.8-0.4-2.9c-0.2-1.2-0.4-2.1-2-2.1h-3.9v5.1h-1.6L48.6,11.6L48.6,11.6z M53.5,17
			c1.5,0,2.7-0.4,2.7-2.1c0-1.2-0.6-2-2.1-2h-3.9V17H53.5z"/>
	</g>
	<g>
		<path class="st1" d="M61.7,11.6h1.7l6.3,9.6l0,0v-9.6h1.5v11.9h-1.7L63.3,14l0,0v9.5h-1.5L61.7,11.6L61.7,11.6z"/>
	</g>
	<g>
		<path class="st1" d="M81.7,11.6h2.2l3.7,10l3.8-10h2.2v11.9h-1.5v-9.9l0,0l-3.7,9.9h-1.5l-3.7-9.9l0,0v9.9h-1.5V11.6z"/>
	</g>
	<g>
		<path class="st1" d="M102.8,11.3c3.8,0,5.7,3,5.7,6.2s-1.9,6.2-5.7,6.2s-5.7-3-5.7-6.2S99,11.3,102.8,11.3z M102.8,22.4
			c2.9,0,4.1-2.5,4.1-4.9s-1.2-4.9-4.1-4.9c-2.9,0-4.1,2.5-4.1,4.9C98.7,19.9,99.9,22.4,102.8,22.4z"/>
	</g>
	<g>
		<path class="st1" d="M112,11.6h5.6c2.2,0,3.6,1.2,3.6,3.1c0,1.4-0.6,2.6-2.1,3l0,0c1.4,0.3,1.7,1.3,1.8,2.4c0.1,1.2,0,2.5,0.7,3.3
			h-1.7c-0.4-0.5-0.2-1.8-0.4-2.9c-0.2-1.2-0.4-2.1-2-2.1h-3.9v5.1H112V11.6z M116.9,17c1.5,0,2.7-0.4,2.7-2.1c0-1.2-0.6-2-2.1-2
			h-3.9V17H116.9z"/>
	</g>
	<g>
		<path class="st1" d="M125.1,11.6h8.2v1.3h-6.6v3.8h6.2V18h-6.2v4.1h6.7v1.3h-8.2V11.6H125.1z"/>
	</g>
</g>
<g>
	<path class="st1" d="M145.7,32.6H0.8V0.9h144.9V32.6z M2.1,31.4h142.4V2.1H2.1V31.4z"/>
</g>
</svg>
