<svg id="Layer_1" data-name="Layer 1" xmlns="http://www.w3.org/2000/svg" viewBox="0 0 637.7 177.34"><defs><style>.cls-1{fill:#0a2b4a;}.cls-2{fill:#072c49;}</style></defs><title>slider-3-overlay-sm</title><path class="cls-1" d="M35.56,14.14c0-2.36.48-4.6,3-5.52v1.6c-1,.64-1.36,1.76-1.4,3.92h1.16v4.08H35.56Zm5.28,0c0-2.36.48-4.6,3-5.52v1.6c-1,.64-1.36,1.76-1.4,3.92h1.16v4.08H40.84Z"/><path class="cls-1" d="M55.12,8.62h3.2l8.44,28.55H64l-2.32-8.32h-10L49.4,37.17H46.68Zm6,18.07-4.4-16.07h-.08l-4.4,16.07Z"/><path class="cls-1" d="M69.2,8.62h2.4V37.17H69.2Z"/><path class="cls-1" d="M74.36,15.94h2.56l4.72,18.51h.08L86,15.94H88.6L83,37.17H80.28Z"/><path class="cls-1" d="M90.76,22.25c0-4.35,2.08-6.79,6.56-6.79s6,2.28,6,5.64V33.65c0,1.2.4,1.76,1.24,1.76h.68v1.76a3.32,3.32,0,0,1-1.12.24c-1.88,0-3.08-.44-3.08-2.64v-.72H101c-1,2.8-3.12,3.6-5.48,3.6-3.72,0-5.4-2.32-5.4-6a5.6,5.6,0,0,1,4.28-5.88l4.52-1.28c1.68-.48,2-.88,2-3.35,0-2.72-1.52-3.68-3.68-3.68-2.84,0-4.08,1.72-4.08,4.79Zm10.16,2.92h-.08c-.24.72-1.6,1.16-2.56,1.4l-2,.52c-2.4.64-3.64,1.88-3.64,4.4s1.28,4.16,3.36,4.16c2.92,0,4.92-2.2,4.92-6Z"/><path class="cls-1" d="M108.24,15.94h2.4v3.32h.08a5.62,5.62,0,0,1,5.36-3.8,3,3,0,0,1,.84.12V18a6,6,0,0,0-1.16-.12c-2.64,0-5.12,1.91-5.12,6V37.17h-2.4Z"/><path class="cls-1" d="M132.44,30.13c-.36,4.52-2.84,7.52-6.84,7.52-4.48,0-7.12-3.12-7.12-11.12,0-7.35,2.64-11.07,7.32-11.07s6.84,3.24,6.84,10.31v.88H121v1c0,6.12,2.16,8,4.52,8,2.52,0,4.08-1.8,4.48-5.52Zm-2.36-5.48c-.08-5.27-1.56-7.19-4.52-7.19s-4.44,1.92-4.52,7.19Z"/><path class="cls-1" d="M134.8,35.17l10.08-17.23h-9.56v-2h12.12v2L137.36,35.17h10.08v2H134.8Z"/><path class="cls-1" d="M174.24,33.69a8.66,8.66,0,0,1-7.6,4c-4.92,0-8-3.36-8-7.56,0-3,1.52-5.36,4.12-7.36l2.36-1.79c-2-2.68-3.28-4.8-3.28-7,0-3.44,2.68-5.28,5.84-5.28,3.32,0,5.48,2.12,5.48,5.28,0,2.32-1,4.48-5,7.36l6.16,8.63a15.22,15.22,0,0,0,1-5.4h2.4a15.45,15.45,0,0,1-2,7.4l3.76,5.28h-2.72Zm-7.92-11.16c-4,2.8-5.12,5-5.12,7.28a5.6,5.6,0,0,0,5.8,5.68,7,7,0,0,0,6-3.6Zm.6-2.91c3.16-2.4,3.84-4.24,3.84-5.8a3.26,3.26,0,0,0-6.52,0C164.24,15.34,165.32,17.46,166.92,19.62Z"/><path class="cls-1" d="M191.32,8.62h4.44L202.64,34h.08L209.6,8.62h4.2V37.17h-2.56V11h-.08l-7.4,26.15h-2.4L194,11h-.08V37.17h-2.56Z"/><path class="cls-1" d="M218.16,22.25c0-4.35,2.08-6.79,6.56-6.79s6,2.28,6,5.64V33.65c0,1.2.4,1.76,1.24,1.76h.68v1.76a3.32,3.32,0,0,1-1.12.24c-1.88,0-3.08-.44-3.08-2.64v-.72h-.08c-1,2.8-3.12,3.6-5.48,3.6-3.72,0-5.4-2.32-5.4-6a5.6,5.6,0,0,1,4.28-5.88l4.52-1.28c1.68-.48,2-.88,2-3.35,0-2.72-1.52-3.68-3.68-3.68-2.84,0-4.08,1.72-4.08,4.79Zm10.16,2.92h-.08c-.24.72-1.6,1.16-2.56,1.4l-2,.52c-2.4.64-3.64,1.88-3.64,4.4s1.28,4.16,3.36,4.16c2.92,0,4.92-2.2,4.92-6Z"/><path class="cls-1" d="M235.64,15.94H238v3.32h.08a5.62,5.62,0,0,1,5.36-3.8,3,3,0,0,1,.84.12V18a6,6,0,0,0-1.16-.12c-2.64,0-5.12,1.91-5.12,6V37.17h-2.4Z"/><path class="cls-1" d="M250.12,26.61c-3-1.16-4.08-2.92-4.08-5,0-4.35,2.72-6.11,6.32-6.11,4,0,5.84,2,5.84,5.92V22h-2.4v-.6c0-2.76-1.28-3.92-3.48-3.92-2.8,0-3.88,1.48-3.88,3.6,0,1.47.48,2.63,2.88,3.55l3.48,1.32a5.44,5.44,0,0,1,4,5.4c0,3.64-2.08,6.32-6.56,6.32s-6.52-1.8-6.52-6.6v-.68h2.4v.56c0,3.12,1.36,4.72,4.08,4.72,2.56,0,4.2-1.44,4.2-3.8,0-1.88-.76-3.08-2.88-3.92Z"/><path class="cls-1" d="M261.88,22.25c0-4.35,2.08-6.79,6.56-6.79s6,2.28,6,5.64V33.65c0,1.2.4,1.76,1.24,1.76h.68v1.76a3.32,3.32,0,0,1-1.12.24c-1.88,0-3.08-.44-3.08-2.64v-.72h-.08c-1,2.8-3.12,3.6-5.48,3.6-3.72,0-5.4-2.32-5.4-6a5.6,5.6,0,0,1,4.28-5.88L270,24.49c1.68-.48,2-.88,2-3.35,0-2.72-1.52-3.68-3.68-3.68-2.84,0-4.08,1.72-4.08,4.79ZM272,25.17H272c-.24.72-1.6,1.16-2.56,1.4l-2,.52c-2.4.64-3.64,1.88-3.64,4.4s1.28,4.16,3.36,4.16c2.92,0,4.92-2.2,4.92-6Z"/><path class="cls-1" d="M279.52,8.62h2.4V37.17h-2.4Z"/><path class="cls-1" d="M296.48,8.62h2.4V12.7h-2.4Zm0,7.32h2.4V37.17h-2.4Z"/><path class="cls-1" d="M307,26.61c-3-1.16-4.08-2.92-4.08-5,0-4.35,2.72-6.11,6.32-6.11,4,0,5.84,2,5.84,5.92V22h-2.4v-.6c0-2.76-1.28-3.92-3.48-3.92-2.8,0-3.88,1.48-3.88,3.6,0,1.47.48,2.63,2.88,3.55l3.48,1.32a5.44,5.44,0,0,1,4,5.4c0,3.64-2.08,6.32-6.56,6.32s-6.52-1.8-6.52-6.6v-.68H305v.56c0,3.12,1.36,4.72,4.08,4.72,2.56,0,4.2-1.44,4.2-3.8,0-1.88-.76-3.08-2.88-3.92Z"/><path class="cls-1" d="M332.2,26.61c-3-1.16-4.08-2.92-4.08-5,0-4.35,2.72-6.11,6.32-6.11,4,0,5.84,2,5.84,5.92V22h-2.4v-.6c0-2.76-1.28-3.92-3.48-3.92-2.8,0-3.88,1.48-3.88,3.6,0,1.47.48,2.63,2.88,3.55l3.48,1.32a5.43,5.43,0,0,1,3.95,5.4c0,3.64-2.07,6.32-6.55,6.32s-6.52-1.8-6.52-6.6v-.68h2.4v.56c0,3.12,1.36,4.72,4.08,4.72,2.56,0,4.2-1.44,4.2-3.8,0-1.88-.76-3.08-2.88-3.92Z"/><path class="cls-1" d="M345.28,17.94h-2.92v-2h2.92V10.06h2.4v5.88h3.76v2h-3.76V33.17c0,1.68.72,2.24,2.28,2.24a5,5,0,0,0,1.48-.24v2a4,4,0,0,1-1.68.24c-3.24,0-4.48-.88-4.48-3.72Z"/><path class="cls-1" d="M354.2,8.62h2.4V12.7h-2.4Zm0,7.32h2.4V37.17h-2.4Z"/><path class="cls-1" d="M361.56,8.62H364V37.17h-2.4Z"/><path class="cls-1" d="M368.92,8.62h2.39V37.17h-2.39Z"/><path class="cls-1" d="M391.91,15.46c4.68,0,7.32,3.72,7.32,11.07s-2.64,11.12-7.32,11.12-7.32-3.72-7.32-11.12S387.23,15.46,391.91,15.46Zm0,20.19c2.68,0,4.76-2.32,4.76-9.12s-2.08-9.07-4.76-9.07-4.76,2.31-4.76,9.07S389.23,35.65,391.91,35.65Z"/><path class="cls-1" d="M402.75,15.94h2.16v3H405a6,6,0,0,1,5.44-3.44c3.24,0,5.44,1.68,5.44,5.68v16h-2.4V21.81c0-2.91-1.2-4.35-3.64-4.35-2.8,0-4.68,2.16-4.68,5.44V37.17h-2.4Z"/><path class="cls-1" d="M433.59,30.13c-.36,4.52-2.84,7.52-6.84,7.52-4.48,0-7.12-3.12-7.12-11.12,0-7.35,2.64-11.07,7.32-11.07s6.84,3.24,6.84,10.31v.88h-11.6v1c0,6.12,2.16,8,4.52,8,2.52,0,4.08-1.8,4.48-5.52Zm-2.36-5.48c-.08-5.27-1.56-7.19-4.52-7.19s-4.44,1.92-4.52,7.19Z"/><path class="cls-1" d="M453.35,15.46c4.68,0,7.32,3.72,7.32,11.07S458,37.65,453.35,37.65,446,33.93,446,26.53,448.67,15.46,453.35,15.46Zm0,20.19c2.68,0,4.76-2.32,4.76-9.12s-2.08-9.07-4.76-9.07-4.76,2.31-4.76,9.07S450.67,35.65,453.35,35.65Z"/><path class="cls-1" d="M465.07,17.94h-2.92v-2h2.92V13.42c0-2.92.6-5.12,4.64-5.12a7.5,7.5,0,0,1,1.52.12v2a5.17,5.17,0,0,0-1.16-.12c-1.76,0-2.6.68-2.6,3.12v2.52h3.76v2h-3.76V37.17h-2.4Z"/><path class="cls-1" d="M484.31,17.94h-2.92v-2h2.92V10.06h2.4v5.88h3.76v2h-3.76V33.17c0,1.68.72,2.24,2.28,2.24a5,5,0,0,0,1.48-.24v2a4,4,0,0,1-1.68.24c-3.24,0-4.48-.88-4.48-3.72Z"/><path class="cls-1" d="M493.07,8.62h2.4V18.9h.08c.6-2.16,2.68-3.44,5.2-3.44,3.24,0,5.44,1.68,5.44,5.68v16h-2.4V21.81c0-2.91-1.2-4.35-3.64-4.35-2.8,0-4.68,2.16-4.68,5.44V37.17h-2.4Z"/><path class="cls-1" d="M523.91,30.13c-.36,4.52-2.84,7.52-6.84,7.52-4.48,0-7.12-3.12-7.12-11.12,0-7.35,2.64-11.07,7.32-11.07s6.84,3.24,6.84,10.31v.88h-11.6v1c0,6.12,2.16,8,4.52,8,2.52,0,4.08-1.8,4.48-5.52Zm-2.36-5.48c-.08-5.27-1.56-7.19-4.52-7.19s-4.44,1.92-4.52,7.19Z"/><path class="cls-1" d="M537.63,15.94h2.16v3h.08a5.64,5.64,0,0,1,5.4-3.44,4.19,4.19,0,0,1,4.44,3.72h.08a5.42,5.42,0,0,1,5.4-3.72c3,0,4.92,1.68,4.92,5.48V37.17h-2.4V21.3c0-2.52-1.16-3.84-3.32-3.84-2.4,0-4.32,2.16-4.32,5.44V37.17h-2.4V21.3c0-2.52-1.16-3.84-3.32-3.84-2.4,0-4.32,2.16-4.32,5.44V37.17h-2.4Z"/><path class="cls-1" d="M571.11,15.46c4.68,0,7.32,3.72,7.32,11.07s-2.64,11.12-7.32,11.12-7.32-3.72-7.32-11.12S566.43,15.46,571.11,15.46Zm0,20.19c2.68,0,4.76-2.32,4.76-9.12s-2.08-9.07-4.76-9.07-4.76,2.31-4.76,9.07S568.43,35.65,571.11,35.65Z"/><path class="cls-1" d="M585.31,26.61c-3-1.16-4.08-2.92-4.08-5,0-4.35,2.72-6.11,6.32-6.11,4,0,5.84,2,5.84,5.92V22H591v-.6c0-2.76-1.28-3.92-3.48-3.92-2.8,0-3.88,1.48-3.88,3.6,0,1.47.48,2.63,2.88,3.55L590,25.93a5.44,5.44,0,0,1,4,5.4c0,3.64-2.08,6.32-6.56,6.32s-6.52-1.8-6.52-6.6v-.68h2.4v.56c0,3.12,1.36,4.72,4.08,4.72,2.56,0,4.2-1.44,4.2-3.8,0-1.88-.76-3.08-2.88-3.92Z"/><path class="cls-1" d="M598.39,17.94h-2.92v-2h2.92V10.06h2.4v5.88h3.76v2h-3.76V33.17c0,1.68.72,2.24,2.28,2.24a5,5,0,0,0,1.48-.24v2a4,4,0,0,1-1.68.24c-3.24,0-4.48-.88-4.48-3.72Z"/><path class="cls-1" d="M14.42,67.94H11.5v-2h2.92V63.42c0-2.92.6-5.12,4.64-5.12a7.5,7.5,0,0,1,1.52.12v2a5.17,5.17,0,0,0-1.16-.12c-1.76,0-2.6.68-2.6,3.12v2.52h3.76v2H16.82V87.17h-2.4Z"/><path class="cls-1" d="M23.18,65.94h2.4v3.32h.08A5.62,5.62,0,0,1,31,65.46a3,3,0,0,1,.84.12V68a6,6,0,0,0-1.16-.12c-2.64,0-5.12,1.91-5.12,6V87.17h-2.4Z"/><path class="cls-1" d="M47.38,80.13c-.36,4.52-2.84,7.52-6.84,7.52-4.48,0-7.12-3.12-7.12-11.12,0-7.35,2.64-11.07,7.32-11.07s6.84,3.24,6.84,10.31v.88H36v1c0,6.12,2.16,8,4.52,8,2.52,0,4.08-1.8,4.48-5.52ZM45,74.65c-.08-5.27-1.56-7.19-4.52-7.19S36.06,69.38,36,74.65Z"/><path class="cls-1" d="M62.3,84h-.08a4.72,4.72,0,0,1-5,3.68c-4.68,0-6.8-3.76-6.8-11.08s2-11.11,6.76-11.11A5.38,5.38,0,0,1,62.46,69h.08v-3H64.7V94.21H62.3Zm-4.64,1.68c2.44,0,4.64-1.24,4.64-9.08,0-3.67-.32-5.76-1.36-7.23a4.08,4.08,0,0,0-3.36-1.88c-2.32,0-4.56,1.39-4.56,9.11S55.26,85.65,57.66,85.65Z"/><path class="cls-1" d="M69.1,65.94h2.4v15c0,3.44,1.16,4.76,3.68,4.76,2.72,0,4.64-2.16,4.64-5.44V65.94h2.4V87.17H80.06v-3H80a6,6,0,0,1-5.44,3.44C71.3,87.65,69.1,86,69.1,82Z"/><path class="cls-1" d="M99.94,80.13c-.36,4.52-2.84,7.52-6.84,7.52-4.48,0-7.12-3.12-7.12-11.12,0-7.35,2.64-11.07,7.32-11.07s6.84,3.24,6.84,10.31v.88H88.54v1c0,6.12,2.16,8,4.52,8,2.52,0,4.08-1.8,4.48-5.52Zm-2.36-5.48c-.08-5.27-1.56-7.19-4.52-7.19s-4.44,1.92-4.52,7.19Z"/><path class="cls-1" d="M103.9,65.94h2.16v3h.08a6,6,0,0,1,5.44-3.44c3.24,0,5.44,1.68,5.44,5.68v16h-2.4V71.81c0-2.91-1.2-4.35-3.64-4.35-2.8,0-4.68,2.16-4.68,5.44V87.17h-2.4Z"/><path class="cls-1" d="M122.54,67.94h-2.92v-2h2.92V60.06h2.4v5.88h3.76v2h-3.76V83.17c0,1.68.72,2.24,2.28,2.24a5,5,0,0,0,1.48-.24v2a4,4,0,0,1-1.68.24c-3.24,0-4.48-.88-4.48-3.72Z"/><path class="cls-1" d="M131.46,58.62h2.4V87.17h-2.4Z"/><path class="cls-1" d="M136.62,65.94h2.56l4.76,18.39H144l4.28-18.39h2.56l-6.2,23c-1.12,4.16-2.4,5.32-5.64,5.32-.64,0-1.12,0-1.6-.08v-2c.52,0,1,.08,1.56.08,1.48,0,2.48-.6,3.16-2.84l.6-2Z"/><path class="cls-1" d="M163.22,58.62h2.4V62.7h-2.4Zm0,7.32h2.4V87.17h-2.4Z"/><path class="cls-1" d="M170.42,65.94h2.16v3h.08a6,6,0,0,1,5.44-3.44c3.24,0,5.44,1.68,5.44,5.68v16h-2.4V71.81c0-2.91-1.2-4.35-3.64-4.35-2.8,0-4.68,2.16-4.68,5.44V87.17h-2.4Z"/><path class="cls-1" d="M186.14,65.94h2.56l4.72,18.51h.08l4.32-18.51h2.56l-5.6,21.23h-2.72Z"/><path class="cls-1" d="M209.18,65.46c4.68,0,7.32,3.72,7.32,11.07s-2.64,11.12-7.32,11.12-7.32-3.72-7.32-11.12S204.5,65.46,209.18,65.46Zm0,20.19c2.68,0,4.76-2.32,4.76-9.12s-2.08-9.07-4.76-9.07-4.76,2.31-4.76,9.07S206.5,85.65,209.18,85.65Z"/><path class="cls-1" d="M219.78,58.62h2.4V76.49h.08l8.24-10.55h3l-6.4,7.87,7.56,13.36h-3L225.34,76l-3.16,3.76v7.44h-2.4Z"/><path class="cls-1" d="M249.38,80.13c-.36,4.52-2.84,7.52-6.84,7.52-4.48,0-7.12-3.12-7.12-11.12,0-7.35,2.64-11.07,7.32-11.07s6.84,3.24,6.84,10.31v.88H238v1c0,6.12,2.16,8,4.52,8,2.52,0,4.08-1.8,4.48-5.52ZM247,74.65c-.08-5.27-1.56-7.19-4.52-7.19s-4.44,1.92-4.52,7.19Z"/><path class="cls-1" d="M264.54,83.65h-.08a5.24,5.24,0,0,1-5.2,4c-4.68,0-6.8-3.76-6.8-11.12s2.12-11.07,6.8-11.07a4.72,4.72,0,0,1,5,3.68h.08V58.62h2.4V87.17h-2.16Zm-4.88,2c2.44,0,4.64-1.24,4.64-9.12s-2.2-9.07-4.64-9.07S255,68.7,255,76.53,257.26,85.65,259.66,85.65Z"/><path class="cls-1" d="M281.58,67.94h-2.92v-2h2.92V63.42c0-2.92.6-5.12,4.64-5.12a7.5,7.5,0,0,1,1.52.12v2a5.17,5.17,0,0,0-1.16-.12c-1.76,0-2.6.68-2.6,3.12v2.52h3.76v2H284V87.17h-2.4Zm9-9.32h2.4V62.7h-2.4Zm0,7.32h2.4V87.17h-2.4Z"/><path class="cls-1" d="M297.74,65.94h2.4v3.32h.08a5.62,5.62,0,0,1,5.36-3.8,3,3,0,0,1,.84.12V68a6,6,0,0,0-1.16-.12c-2.64,0-5.12,1.91-5.12,6V87.17h-2.4Z"/><path class="cls-1" d="M309,65.94h2.16v3h.08a5.64,5.64,0,0,1,5.4-3.44,4.19,4.19,0,0,1,4.43,3.72h.08a5.42,5.42,0,0,1,5.4-3.72c3,0,4.92,1.68,4.92,5.48V87.17h-2.4V71.3c0-2.52-1.16-3.84-3.32-3.84-2.4,0-4.32,2.16-4.32,5.44V87.17h-2.39V71.3c0-2.52-1.16-3.84-3.32-3.84-2.4,0-4.32,2.16-4.32,5.44V87.17H309Z"/><path class="cls-1" d="M339.66,76.61c-3-1.16-4.08-2.92-4.08-5,0-4.35,2.72-6.11,6.32-6.11,4,0,5.83,2,5.83,5.92V72h-2.4v-.6c0-2.76-1.28-3.92-3.47-3.92-2.8,0-3.88,1.48-3.88,3.6,0,1.47.48,2.63,2.88,3.55l3.47,1.32a5.44,5.44,0,0,1,4,5.4c0,3.64-2.08,6.32-6.55,6.32s-6.52-1.8-6.52-6.6v-.68h2.4v.56c0,3.12,1.36,4.72,4.08,4.72,2.55,0,4.19-1.44,4.19-3.8,0-1.88-.76-3.08-2.87-3.92Z"/><path class="cls-1" d="M361.22,58.62h2.4V69.14h.07a4.72,4.72,0,0,1,5-3.68c4.68,0,6.8,3.76,6.8,11.07s-2.12,11.12-6.8,11.12a5.22,5.22,0,0,1-5.19-4h-.08v3.52h-2.16Zm7,27c2.4,0,4.64-1.24,4.64-9.12s-2.24-9.07-4.64-9.07-4.63,1.24-4.63,9.07S365.81,85.65,368.25,85.65Z"/><path class="cls-1" d="M377.17,65.94h2.56l4.76,18.39h.08l4.28-18.39h2.56l-6.2,23c-1.12,4.16-2.4,5.32-5.64,5.32-.64,0-1.12,0-1.6-.08v-2c.52,0,1,.08,1.56.08,1.48,0,2.48-.6,3.16-2.84l.6-2Z"/><path class="cls-1" d="M403.37,58.62h2.4V69.14h.08a4.72,4.72,0,0,1,5-3.68c4.68,0,6.8,3.76,6.8,11.07s-2.12,11.12-6.8,11.12a5.24,5.24,0,0,1-5.2-4h-.08v3.52h-2.16Zm7,27c2.4,0,4.64-1.24,4.64-9.12s-2.24-9.07-4.64-9.07-4.64,1.24-4.64,9.07S408,85.65,410.41,85.65Z"/><path class="cls-1" d="M427.57,65.46c4.68,0,7.32,3.72,7.32,11.07s-2.64,11.12-7.32,11.12-7.32-3.72-7.32-11.12S422.89,65.46,427.57,65.46Zm0,20.19c2.68,0,4.76-2.32,4.76-9.12s-2.08-9.07-4.76-9.07-4.76,2.31-4.76,9.07S424.89,85.65,427.57,85.65Z"/><path class="cls-1" d="M439.29,67.94h-2.92v-2h2.92V60.06h2.4v5.88h3.76v2h-3.76V83.17c0,1.68.72,2.24,2.28,2.24a5,5,0,0,0,1.48-.24v2a4,4,0,0,1-1.68.24c-3.24,0-4.48-.88-4.48-3.72Z"/><path class="cls-1" d="M448.05,58.62h2.4V68.9h.08c.6-2.16,2.68-3.44,5.2-3.44,3.24,0,5.44,1.68,5.44,5.68v16h-2.4V71.81c0-2.91-1.2-4.35-3.64-4.35-2.8,0-4.68,2.16-4.68,5.44V87.17h-2.4Z"/><path class="cls-1" d="M488.17,80.13c-.36,4.52-2.84,7.52-6.76,7.52-4.48,0-7.12-3.12-7.12-11.12,0-7.35,2.64-11.07,7.32-11.07,4,0,6.32,2.44,6.56,6.79h-2.4c-.28-3.31-1.6-4.79-4.16-4.79s-4.76,1.6-4.76,9.11c0,8,2.28,9.08,4.52,9.08,2.44,0,4-1.8,4.4-5.52Z"/><path class="cls-1" d="M491.85,58.62h2.4V87.17h-2.4Z"/><path class="cls-1" d="M499.21,58.62h2.4V62.7h-2.4Zm0,7.32h2.4V87.17h-2.4Z"/><path class="cls-1" d="M519.49,80.13c-.36,4.52-2.84,7.52-6.84,7.52-4.48,0-7.12-3.12-7.12-11.12,0-7.35,2.64-11.07,7.32-11.07s6.84,3.24,6.84,10.31v.88h-11.6v1c0,6.12,2.16,8,4.52,8,2.52,0,4.08-1.8,4.48-5.52Zm-2.36-5.48c-.08-5.27-1.56-7.19-4.52-7.19s-4.44,1.92-4.52,7.19Z"/><path class="cls-1" d="M523.45,65.94h2.16v3h.08a6,6,0,0,1,5.44-3.44c3.24,0,5.44,1.68,5.44,5.68v16h-2.4V71.81c0-2.91-1.2-4.35-3.64-4.35-2.8,0-4.68,2.16-4.68,5.44V87.17h-2.4Z"/><path class="cls-1" d="M542.09,67.94h-2.92v-2h2.92V60.06h2.4v5.88h3.76v2h-3.76V83.17c0,1.68.72,2.24,2.28,2.24a5,5,0,0,0,1.48-.24v2a4,4,0,0,1-1.68.24c-3.24,0-4.48-.88-4.48-3.72Z"/><path class="cls-1" d="M554.21,76.61c-3-1.16-4.08-2.92-4.08-5,0-4.35,2.72-6.11,6.32-6.11,4,0,5.84,2,5.84,5.92V72h-2.4v-.6c0-2.76-1.28-3.92-3.48-3.92-2.8,0-3.88,1.48-3.88,3.6,0,1.47.48,2.63,2.88,3.55l3.48,1.32a5.44,5.44,0,0,1,4,5.4c0,3.64-2.08,6.32-6.56,6.32s-6.52-1.8-6.52-6.6v-.68h2.4v.56c0,3.12,1.36,4.72,4.08,4.72,2.56,0,4.2-1.44,4.2-3.8,0-1.88-.76-3.08-2.88-3.92Z"/><path class="cls-1" d="M575.57,72.25c0-4.35,2.08-6.79,6.56-6.79s6,2.28,6,5.64V83.65c0,1.2.4,1.76,1.24,1.76h.68v1.76a3.32,3.32,0,0,1-1.12.24c-1.88,0-3.08-.44-3.08-2.64v-.72h-.08c-1,2.8-3.12,3.6-5.48,3.6-3.72,0-5.4-2.32-5.4-6a5.6,5.6,0,0,1,4.28-5.88l4.52-1.28c1.68-.48,2-.88,2-3.35,0-2.72-1.52-3.68-3.68-3.68-2.84,0-4.08,1.72-4.08,4.79Zm10.16,2.92h-.08c-.24.72-1.6,1.16-2.56,1.4l-2,.52c-2.4.64-3.64,1.88-3.64,4.4s1.28,4.16,3.36,4.16c2.92,0,4.92-2.2,4.92-6Z"/><path class="cls-1" d="M593.05,65.94h2.16v3h.08a6,6,0,0,1,5.44-3.44c3.24,0,5.44,1.68,5.44,5.68v16h-2.4V71.81c0-2.91-1.2-4.35-3.64-4.35-2.8,0-4.68,2.16-4.68,5.44V87.17h-2.4Z"/><path class="cls-1" d="M622,83.65h-.08a5.24,5.24,0,0,1-5.2,4c-4.68,0-6.8-3.76-6.8-11.12s2.12-11.07,6.8-11.07a4.72,4.72,0,0,1,5,3.68h.08V58.62h2.4V87.17H622Zm-4.88,2c2.44,0,4.64-1.24,4.64-9.12s-2.2-9.07-4.64-9.07-4.64,1.24-4.64,9.07S614.73,85.65,617.13,85.65Z"/><path class="cls-1" d="M145.8,130.13c-.36,4.52-2.84,7.52-6.76,7.52-4.48,0-7.12-3.12-7.12-11.12,0-7.35,2.64-11.07,7.32-11.07,4,0,6.32,2.44,6.56,6.79h-2.4c-.28-3.31-1.6-4.79-4.16-4.79s-4.76,1.6-4.76,9.11c0,8,2.28,9.08,4.52,9.08,2.44,0,4-1.8,4.4-5.52Z"/><path class="cls-1" d="M155.52,115.46c4.68,0,7.32,3.72,7.32,11.07s-2.64,11.12-7.32,11.12-7.32-3.72-7.32-11.12S150.84,115.46,155.52,115.46Zm0,20.19c2.68,0,4.76-2.32,4.76-9.12s-2.08-9.07-4.76-9.07-4.76,2.31-4.76,9.07S152.84,135.65,155.52,135.65Z"/><path class="cls-1" d="M166.52,115.94h2.16v3h.08a5.64,5.64,0,0,1,5.4-3.44,4.19,4.19,0,0,1,4.44,3.72h.08a5.42,5.42,0,0,1,5.4-3.72c3,0,4.92,1.68,4.92,5.48v16.23h-2.4V121.3c0-2.52-1.16-3.84-3.32-3.84-2.4,0-4.32,2.16-4.32,5.44v14.27h-2.4V121.3c0-2.52-1.16-3.84-3.32-3.84-2.4,0-4.32,2.16-4.32,5.44v14.27h-2.4Z"/><path class="cls-1" d="M193.56,115.94h2.16v3h.08a5.38,5.38,0,0,1,5.24-3.52c4.72,0,6.76,3.76,6.76,11.11s-2.12,11.08-6.8,11.08a4.72,4.72,0,0,1-5-3.68H196v10.24h-2.4Zm7.12,1.52a4.08,4.08,0,0,0-3.36,1.88c-1,1.47-1.36,3.56-1.36,7.23,0,7.84,2.2,9.08,4.64,9.08s4.64-1.24,4.64-9.08S203,117.46,200.68,117.46Z"/><path class="cls-1" d="M224.64,130.13c-.36,4.52-2.84,7.52-6.84,7.52-4.48,0-7.12-3.12-7.12-11.12,0-7.35,2.64-11.07,7.32-11.07s6.84,3.24,6.84,10.31v.88h-11.6v1c0,6.12,2.16,8,4.52,8,2.52,0,4.08-1.8,4.48-5.52Zm-2.36-5.48c-.08-5.27-1.56-7.19-4.52-7.19s-4.44,1.92-4.52,7.19Z"/><path class="cls-1" d="M229.48,117.94h-2.92v-2h2.92v-5.88h2.4v5.88h3.76v2h-3.76v15.23c0,1.68.72,2.24,2.28,2.24a5,5,0,0,0,1.48-.24v2a4,4,0,0,1-1.68.24c-3.24,0-4.48-.88-4.48-3.72Z"/><path class="cls-1" d="M238.4,108.62h2.4v4.08h-2.4Zm0,7.32h2.4v21.23h-2.4Z"/><path class="cls-1" d="M246.48,117.94h-2.92v-2h2.92v-5.88h2.4v5.88h3.76v2h-3.76v15.23c0,1.68.72,2.24,2.28,2.24a5,5,0,0,0,1.48-.24v2a4,4,0,0,1-1.68.24c-3.24,0-4.48-.88-4.48-3.72Z"/><path class="cls-1" d="M261.44,115.46c4.68,0,7.32,3.72,7.32,11.07s-2.64,11.12-7.32,11.12-7.32-3.72-7.32-11.12S256.76,115.46,261.44,115.46Zm0,20.19c2.68,0,4.76-2.32,4.76-9.12s-2.08-9.07-4.76-9.07-4.76,2.31-4.76,9.07S258.76,135.65,261.44,135.65Z"/><path class="cls-1" d="M272.28,115.94h2.4v3.32h.08a5.62,5.62,0,0,1,5.36-3.8,3,3,0,0,1,.84.12V118a6,6,0,0,0-1.16-.12c-2.64,0-5.12,1.91-5.12,6v13.27h-2.4Z"/><path class="cls-1" d="M286.76,126.61c-3-1.16-4.08-2.92-4.08-5,0-4.35,2.72-6.11,6.32-6.11,4,0,5.84,2,5.84,5.92v.6h-2.4v-.6c0-2.76-1.28-3.92-3.48-3.92-2.8,0-3.88,1.48-3.88,3.6,0,1.47.48,2.63,2.88,3.55l3.48,1.32a5.44,5.44,0,0,1,4,5.4c0,3.64-2.08,6.32-6.56,6.32s-6.52-1.8-6.52-6.6v-.68h2.4v.56c0,3.12,1.36,4.72,4.08,4.72,2.56,0,4.2-1.44,4.2-3.8,0-1.88-.76-3.08-2.88-3.92Z"/><path class="cls-1" d="M308.72,108.62h2.4v4.08h-2.4Zm0,7.32h2.4v21.23h-2.4Z"/><path class="cls-1" d="M315.92,115.94h2.16v3h.08a6,6,0,0,1,5.44-3.44c3.23,0,5.43,1.68,5.43,5.68v16h-2.4V121.81c0-2.91-1.2-4.35-3.63-4.35-2.8,0-4.68,2.16-4.68,5.44v14.27h-2.4Z"/><path class="cls-1" d="M344.16,117.94h-2.92v-2h2.92v-5.88h2.39v5.88h3.76v2h-3.76v15.23c0,1.68.72,2.24,2.28,2.24a5,5,0,0,0,1.48-.24v2a4,4,0,0,1-1.68.24c-3.23,0-4.47-.88-4.47-3.72Z"/><path class="cls-1" d="M352.92,108.62h2.39V118.9h.09c.59-2.16,2.67-3.44,5.19-3.44,3.24,0,5.44,1.68,5.44,5.68v16h-2.4V121.81c0-2.91-1.2-4.35-3.64-4.35-2.8,0-4.68,2.16-4.68,5.44v14.27h-2.39Z"/><path class="cls-1" d="M370.83,108.62h2.4v4.08h-2.4Zm0,7.32h2.4v21.23h-2.4Z"/><path class="cls-1" d="M381.39,126.61c-3-1.16-4.08-2.92-4.08-5,0-4.35,2.72-6.11,6.32-6.11,4,0,5.84,2,5.84,5.92v.6h-2.4v-.6c0-2.76-1.28-3.92-3.48-3.92-2.8,0-3.88,1.48-3.88,3.6,0,1.47.48,2.63,2.88,3.55l3.48,1.32a5.44,5.44,0,0,1,4,5.4c0,3.64-2.08,6.32-6.56,6.32s-6.52-1.8-6.52-6.6v-.68h2.4v.56c0,3.12,1.36,4.72,4.08,4.72,2.56,0,4.2-1.44,4.2-3.8,0-1.88-.76-3.08-2.88-3.92Z"/><path class="cls-1" d="M406.55,126.61c-3-1.16-4.08-2.92-4.08-5,0-4.35,2.72-6.11,6.32-6.11,4,0,5.84,2,5.84,5.92v.6h-2.4v-.6c0-2.76-1.28-3.92-3.48-3.92-2.8,0-3.88,1.48-3.88,3.6,0,1.47.48,2.63,2.88,3.55l3.48,1.32a5.44,5.44,0,0,1,4,5.4c0,3.64-2.08,6.32-6.56,6.32s-6.52-1.8-6.52-6.6v-.68h2.4v.56c0,3.12,1.36,4.72,4.08,4.72,2.56,0,4.2-1.44,4.2-3.8,0-1.88-.76-3.08-2.88-3.92Z"/><path class="cls-1" d="M418.51,115.94h2.16v3h.08a5.38,5.38,0,0,1,5.24-3.52c4.72,0,6.76,3.76,6.76,11.11s-2.12,11.08-6.8,11.08a4.72,4.72,0,0,1-5-3.68h-.08v10.24h-2.4Zm7.12,1.52a4.08,4.08,0,0,0-3.36,1.88c-1,1.47-1.36,3.56-1.36,7.23,0,7.84,2.2,9.08,4.64,9.08s4.64-1.24,4.64-9.08S428,117.46,425.63,117.46Z"/><path class="cls-1" d="M436.07,122.25c0-4.35,2.08-6.79,6.56-6.79s6,2.28,6,5.64v12.55c0,1.2.4,1.76,1.24,1.76h.68v1.76a3.32,3.32,0,0,1-1.12.24c-1.88,0-3.08-.44-3.08-2.64v-.72h-.08c-1,2.8-3.12,3.6-5.48,3.6-3.72,0-5.4-2.32-5.4-6a5.6,5.6,0,0,1,4.28-5.88l4.52-1.28c1.68-.48,2-.88,2-3.35,0-2.72-1.52-3.68-3.68-3.68-2.84,0-4.08,1.72-4.08,4.79Zm10.16,2.92h-.08c-.24.72-1.6,1.16-2.56,1.4l-2,.52c-2.4.64-3.64,1.88-3.64,4.4s1.28,4.16,3.36,4.16c2.92,0,4.92-2.2,4.92-6Z"/><path class="cls-1" d="M466.31,130.13c-.36,4.52-2.84,7.52-6.76,7.52-4.48,0-7.12-3.12-7.12-11.12,0-7.35,2.64-11.07,7.32-11.07,4,0,6.32,2.44,6.56,6.79h-2.4c-.28-3.31-1.6-4.79-4.16-4.79s-4.76,1.6-4.76,9.11c0,8,2.28,9.08,4.52,9.08,2.44,0,4-1.8,4.4-5.52Z"/><path class="cls-1" d="M482.91,130.13c-.36,4.52-2.84,7.52-6.84,7.52-4.48,0-7.12-3.12-7.12-11.12,0-7.35,2.64-11.07,7.32-11.07s6.84,3.24,6.84,10.31v.88h-11.6v1c0,6.12,2.16,8,4.52,8,2.52,0,4.08-1.8,4.48-5.52Zm-2.36-5.48c-.08-5.27-1.56-7.19-4.52-7.19s-4.44,1.92-4.52,7.19Z"/><path class="cls-1" d="M488,133.09h2.72v4.08H488Z"/><path class="cls-1" d="M497.31,108.62H500v4.08c0,2.36-.48,4.6-3,5.52v-1.6c1-.64,1.36-1.76,1.4-3.92h-1.16Zm5.28,0h2.72v4.08c0,2.36-.48,4.6-3,5.52v-1.6c1-.64,1.36-1.76,1.4-3.92h-1.16Z"/><path class="cls-2" d="M89.76,166.52c0-1.12-.41-1.9-1.67-1.9a1.59,1.59,0,0,0-1.77,1.74c0,3,5.06,1.21,5.06,5.13a3,3,0,0,1-3.33,3.18c-2.51,0-3.24-1.29-3.24-3.57h1.32c0,1.2.07,2.49,2,2.49A1.8,1.8,0,0,0,90,171.7c0-3-5.06-1.28-5.06-5.21a2.8,2.8,0,0,1,3.14-3c2,0,3,1,3,3Z"/><path class="cls-2" d="M99.9,169.1c0,2.7-.5,5.57-3.45,5.57S93,171.8,93,169.1s.49-5.56,3.45-5.56S99.9,166.4,99.9,169.1Zm-5.52,0c0,2.48.24,4.49,2.07,4.49s2.07-2,2.07-4.49-.24-4.48-2.07-4.48S94.38,166.63,94.38,169.1Z"/><path class="cls-2" d="M101.81,163.75h1.32v7.53c0,1.57.51,2.31,1.82,2.31s1.83-.81,1.83-2.31v-7.53h1.32v7.53c0,2.05-1,3.39-3.15,3.39s-3.14-1.19-3.14-3.39Z"/><path class="cls-2" d="M110.24,163.75h3.47a2.5,2.5,0,0,1,2.74,2.68c0,1.17-.4,2.4-1.65,2.7v0a1.77,1.77,0,0,1,1.52,1.79l.09,1.83c.06,1.18.25,1.48.57,1.68h-1.59a3.22,3.22,0,0,1-.36-1.55l-.09-1.66c-.11-1.47-.92-1.56-1.59-1.56h-1.79v4.77h-1.32Zm1.32,4.86h1.31c.78,0,2.2,0,2.2-2.07,0-1-.7-1.71-1.93-1.71h-1.58Z"/><path class="cls-2" d="M124.94,170.78c-.12,2-.92,3.89-3.26,3.89-3,0-3.45-2.87-3.45-5.57s.5-5.56,3.45-5.56c2.19,0,3.11,1.23,3.17,3.33h-1.38c0-1.22-.42-2.25-1.79-2.25-1.83,0-2.07,2-2.07,4.48s.24,4.49,2.07,4.49c1.61,0,1.83-1.5,1.88-2.81Z"/><path class="cls-2" d="M126.66,163.75h5.53v1.17H128v3.36h4v1.17h-4v3.84h4.4v1.17h-5.72Z"/><path class="cls-2" d="M134.19,166.87h1.38v1.59h-1.38Zm0,6h1.38v1.59h-1.38Z"/><path class="cls-2" d="M144.18,163.75h1.2l3.16,10.71h-1l-.87-3.12H142.9l-.87,3.12h-1Zm2.26,6.78-1.65-6h0l-1.65,6Z"/><path class="cls-2" d="M150.07,163.75h1v9.9h4.44v.81h-5.4Z"/><path class="cls-2" d="M157.11,163.75h1.66l2.58,9.51h0l2.58-9.51h1.58v10.71h-1v-9.81h0l-2.78,9.81h-.9l-2.77-9.81h0v9.81h-1Z"/><path class="cls-2" d="M170.86,163.75h1l2.39,9.69h0l2.38-9.69h1l-2.82,10.71h-1.2Z"/><path class="cls-2" d="M180.85,163.75H182l3.17,10.71h-1l-.87-3.12h-3.75l-.87,3.12h-1Zm2.26,6.78-1.65-6h0l-1.65,6Z"/><path class="cls-2" d="M186.73,163.75H188l4.1,9.33h0v-9.33h1v10.71h-1.29l-4.1-9.33h0v9.33h-1Z"/><path class="cls-2" d="M198.29,169.81V169h3.43v5.46H201v-1.77h0a2.52,2.52,0,0,1-2.35,1.95c-2.19,0-3.42-1.7-3.42-5.54s1.23-5.53,3.42-5.53c2,0,2.95,1.33,3.07,3.18h-1a2.11,2.11,0,0,0-2.11-2.37c-1.53,0-2.46,1.26-2.46,4.72s.93,4.73,2.46,4.73,2.23-1.29,2.23-3.8v-.22Z"/><path class="cls-2" d="M203.76,163.75h1v7.69c0,1.61.69,2.39,2.1,2.39s2.1-.78,2.1-2.39v-7.69h1v7.71c0,2.25-1.1,3.18-3.06,3.18s-3.06-.93-3.06-3.18Z"/><path class="cls-2" d="M214.2,163.75h1.2l3.17,10.71h-1l-.87-3.12h-3.75l-.87,3.12h-1Zm2.27,6.78-1.65-6h0l-1.65,6Z"/><path class="cls-2" d="M220.09,163.75h3.2a2.49,2.49,0,0,1,2.77,2.68,2.45,2.45,0,0,1-1.93,2.72v0c1.33.12,1.78.88,1.83,2.53l0,1.17a2.31,2.31,0,0,0,.45,1.58h-1.13A3.25,3.25,0,0,1,225,173l0-.9c-.06-1.89-.41-2.49-2.13-2.49h-1.82v4.89h-1Zm1,5h1.65c1.52,0,2.4-.69,2.4-2.1s-.55-2.1-2.29-2.1h-1.76Z"/><path class="cls-2" d="M228.15,163.75h2.58c3.12,0,3.89,1.86,3.89,5.35s-.77,5.36-3.89,5.36h-2.58Zm1,9.9h1.56c2.1,0,3-1.05,3-4.53s-.89-4.56-3-4.56h-1.56Z"/><path class="cls-2" d="M236.75,166.94h1v1.53h-1Zm0,6h1v1.53h-1Z"/><path class="cls-2" d="M246.25,164.56h-2.76v-.81H250v.81h-2.76v9.9h-1Z"/><path class="cls-2" d="M251.55,163.75h3.19a2.5,2.5,0,0,1,2.78,2.68,2.45,2.45,0,0,1-1.94,2.72v0c1.34.12,1.79.88,1.83,2.53l0,1.17a2.42,2.42,0,0,0,.45,1.58h-1.12a3.24,3.24,0,0,1-.29-1.5l0-.9c-.06-1.89-.4-2.49-2.13-2.49h-1.81v4.89h-1Zm1,5h1.65c1.51,0,2.4-.69,2.4-2.1s-.56-2.1-2.3-2.1h-1.75Z"/><path class="cls-2" d="M262.33,163.75h1.2l3.16,10.71h-1l-.87-3.12h-3.75l-.87,3.12h-1Zm2.26,6.78-1.65-6h0l-1.65,6Z"/><path class="cls-2" d="M268.22,163.75h1.29l4.09,9.33h0v-9.33h1v10.71H273.3l-4.09-9.33h0v9.33h-1Z"/><path class="cls-2" d="M281.53,166.49c0-1.32-.61-2.11-1.92-2.11a1.87,1.87,0,0,0-2,1.92c0,3.19,5.19,1.44,5.19,5.2a2.92,2.92,0,0,1-3.23,3.14c-2,0-3.12-1.08-3.12-3.18v-.32h1v.41a2,2,0,0,0,2.12,2.28,2,2,0,0,0,2.31-2.18c0-3.18-5.19-1.36-5.19-5.25a2.7,2.7,0,0,1,3-2.83,2.58,2.58,0,0,1,2.91,2.92Z"/><path class="cls-2" d="M287,163.75h1.2l3.17,10.71h-1l-.87-3.12h-3.75l-.87,3.12h-1Zm2.27,6.78-1.65-6h0l-1.65,6Z"/><path class="cls-2" d="M298.91,170.83c-.13,2.44-1.26,3.81-3.18,3.81-2.19,0-3.42-1.7-3.42-5.54s1.23-5.53,3.42-5.53,3.08,1.54,3.08,3.3h-1c0-1.46-.74-2.49-2.12-2.49-1.53,0-2.46,1.26-2.46,4.72s.93,4.73,2.46,4.73c1.35,0,2.12-1.16,2.22-3Z"/><path class="cls-2" d="M302.71,164.56H300v-.81h6.48v.81h-2.76v9.9h-1Z"/><path class="cls-2" d="M308,163.75h1v10.71h-1Z"/><path class="cls-2" d="M314.49,163.57c2.19,0,3.42,1.69,3.42,5.53s-1.23,5.54-3.42,5.54-3.42-1.7-3.42-5.54S312.3,163.57,314.49,163.57Zm0,10.26c1.53,0,2.46-1.26,2.46-4.73s-.93-4.72-2.46-4.72S312,165.64,312,169.1,313,173.83,314.49,173.83Z"/><path class="cls-2" d="M320,163.75h1.29l4.09,9.33h0v-9.33h1v10.71h-1.29L321,165.13h0v9.33h-1Z"/><path class="cls-2" d="M333.28,166.49c0-1.32-.61-2.11-1.92-2.11a1.86,1.86,0,0,0-2,1.92c0,3.19,5.19,1.44,5.19,5.2a2.92,2.92,0,0,1-3.24,3.14c-2,0-3.12-1.08-3.12-3.18v-.32h1v.41a2,2,0,0,0,2.13,2.28,2,2,0,0,0,2.31-2.18c0-3.18-5.19-1.36-5.19-5.25a2.7,2.7,0,0,1,2.95-2.83c2,0,2.91,1,2.91,2.92Z"/><path class="cls-2" d="M339.5,169.79v.81h-3.25v-.81Z"/><path class="cls-2" d="M343.77,163.75H345l3.16,10.71h-1l-.87-3.12h-3.75l-.87,3.12h-1Zm2.26,6.78-1.65-6h0l-1.65,6Z"/><path class="cls-2" d="M355.73,170.83c-.14,2.44-1.26,3.81-3.18,3.81-2.19,0-3.42-1.7-3.42-5.54s1.23-5.53,3.42-5.53,3.07,1.54,3.07,3.3h-1c0-1.46-.73-2.49-2.11-2.49-1.53,0-2.46,1.26-2.46,4.72s.93,4.73,2.46,4.73c1.35,0,2.11-1.16,2.22-3Z"/><path class="cls-2" d="M362.75,174a2.87,2.87,0,0,1-1.94.66c-2.19,0-3.42-1.7-3.42-5.54s1.23-5.53,3.42-5.53,3.42,1.69,3.42,5.53a7.49,7.49,0,0,1-1,4.31l1.09,1.05-.52.57Zm-1.8-1.8.52-.57,1.16,1.12a7.79,7.79,0,0,0,.64-3.63c0-3.46-.93-4.72-2.46-4.72s-2.46,1.26-2.46,4.72.93,4.73,2.46,4.73a1.93,1.93,0,0,0,1.35-.48Z"/><path class="cls-2" d="M366.21,163.75h1v7.69c0,1.61.69,2.39,2.1,2.39s2.1-.78,2.1-2.39v-7.69h1v7.71c0,2.25-1.1,3.18-3.06,3.18s-3.06-.93-3.06-3.18Z"/><path class="cls-2" d="M374.52,163.75h1v10.71h-1Z"/><path class="cls-2" d="M382.44,166.49c0-1.32-.61-2.11-1.92-2.11a1.86,1.86,0,0,0-2,1.92c0,3.19,5.19,1.44,5.19,5.2a2.92,2.92,0,0,1-3.24,3.14c-2,0-3.12-1.08-3.12-3.18v-.32h1v.41a2,2,0,0,0,2.13,2.28,2,2,0,0,0,2.31-2.18c0-3.18-5.19-1.36-5.19-5.25a2.7,2.7,0,0,1,2.95-2.83c2,0,2.91,1,2.91,2.92Z"/><path class="cls-2" d="M385.53,163.75h1v10.71h-1Z"/><path class="cls-2" d="M390.84,164.56h-2.76v-.81h6.48v.81H391.8v9.9h-1Z"/><path class="cls-2" d="M396.16,163.75h1v10.71h-1Z"/><path class="cls-2" d="M402.62,163.57c2.19,0,3.42,1.69,3.42,5.53s-1.23,5.54-3.42,5.54-3.42-1.7-3.42-5.54S400.43,163.57,402.62,163.57Zm0,10.26c1.53,0,2.46-1.26,2.46-4.73s-.93-4.72-2.46-4.72-2.46,1.26-2.46,4.72S401.09,173.83,402.62,173.83Z"/><path class="cls-2" d="M408.1,163.75h1.29l4.09,9.33h0v-9.33h1v10.71h-1.29l-4.09-9.33h0v9.33h-1Z"/><path class="cls-2" d="M421.41,166.49c0-1.32-.62-2.11-1.92-2.11a1.86,1.86,0,0,0-2,1.92c0,3.19,5.19,1.44,5.19,5.2a2.92,2.92,0,0,1-3.24,3.14c-2,0-3.12-1.08-3.12-3.18v-.32h1v.41a2,2,0,0,0,2.13,2.28,2,2,0,0,0,2.31-2.18c0-3.18-5.19-1.36-5.19-5.25a2.7,2.7,0,0,1,3-2.83,2.58,2.58,0,0,1,2.91,2.92Z"/><path class="cls-2" d="M434.77,170.83c-.13,2.44-1.26,3.81-3.18,3.81-2.19,0-3.42-1.7-3.42-5.54s1.23-5.53,3.42-5.53,3.08,1.54,3.08,3.3h-1c0-1.46-.74-2.49-2.12-2.49s-2.46,1.26-2.46,4.72.93,4.73,2.46,4.73c1.35,0,2.12-1.16,2.22-3Z"/><path class="cls-2" d="M439.86,163.57c2.19,0,3.42,1.69,3.42,5.53s-1.23,5.54-3.42,5.54-3.42-1.7-3.42-5.54S437.67,163.57,439.86,163.57Zm0,10.26c1.53,0,2.46-1.26,2.46-4.73s-.93-4.72-2.46-4.72-2.46,1.26-2.46,4.72S438.33,173.83,439.86,173.83Z"/><path class="cls-2" d="M445.34,163.75h1.29l4.09,9.33h0v-9.33h1v10.71h-1.29l-4.09-9.33h0v9.33h-1Z"/><path class="cls-2" d="M458.65,166.49c0-1.32-.61-2.11-1.92-2.11a1.86,1.86,0,0,0-2,1.92c0,3.19,5.19,1.44,5.19,5.2a2.92,2.92,0,0,1-3.24,3.14c-2,0-3.12-1.08-3.12-3.18v-.32h1v.41a2,2,0,0,0,2.13,2.28,2,2,0,0,0,2.31-2.18c0-3.18-5.19-1.36-5.19-5.25a2.7,2.7,0,0,1,2.95-2.83c2,0,2.91,1,2.91,2.92Z"/><path class="cls-2" d="M461.56,163.75h1v7.69c0,1.61.69,2.39,2.1,2.39s2.1-.78,2.1-2.39v-7.69h1v7.71c0,2.25-1.09,3.18-3.06,3.18s-3.06-.93-3.06-3.18Z"/><path class="cls-2" d="M469.85,163.75h1v9.9h4.44v.81h-5.4Z"/><path class="cls-2" d="M477.84,164.56h-2.76v-.81h6.48v.81H478.8v9.9h-1Z"/><path class="cls-2" d="M483.16,163.75h1v10.71h-1Z"/><path class="cls-2" d="M486.38,163.75h1.29l4.09,9.33h0v-9.33h1v10.71h-1.29l-4.09-9.33h0v9.33h-1Z"/><path class="cls-2" d="M497.93,169.81V169h3.44v5.46h-.75v-1.77h0a2.52,2.52,0,0,1-2.36,1.95c-2.19,0-3.42-1.7-3.42-5.54s1.23-5.53,3.42-5.53c2,0,3,1.33,3.08,3.18h-1a2.12,2.12,0,0,0-2.12-2.37c-1.53,0-2.46,1.26-2.46,4.72s.93,4.73,2.46,4.73,2.24-1.29,2.24-3.8v-.22Z"/><path class="cls-2" d="M507.31,163.75h3.19a2.5,2.5,0,0,1,2.78,2.68,2.45,2.45,0,0,1-1.94,2.72v0c1.34.12,1.79.88,1.83,2.53l0,1.17a2.42,2.42,0,0,0,.45,1.58h-1.12a3.24,3.24,0,0,1-.29-1.5l0-.9c-.06-1.89-.4-2.49-2.13-2.49h-1.81v4.89h-1Zm1,5h1.65c1.51,0,2.4-.69,2.4-2.1s-.56-2.1-2.3-2.1h-1.75Z"/><path class="cls-2" d="M515.37,163.75h5.31v.81h-4.35v3.9h4.06v.81h-4.06v4.38h4.48v.81h-5.44Z"/><path class="cls-2" d="M522.52,163.75h2.9c2.07,0,2.94,1.21,2.94,3,0,1.65-.83,3-3.27,3h-1.61v4.65h-1Zm1,5.25h1.64a2,2,0,0,0,2.28-2.22c0-1.61-.81-2.22-2.28-2.22h-1.64Z"/><path class="cls-2" d="M533.47,163.57c2.19,0,3.42,1.69,3.42,5.53s-1.23,5.54-3.42,5.54-3.42-1.7-3.42-5.54S531.28,163.57,533.47,163.57Zm0,10.26c1.53,0,2.46-1.26,2.46-4.73s-.93-4.72-2.46-4.72S531,165.64,531,169.1,531.94,173.83,533.47,173.83Z"/><path class="cls-2" d="M539,163.75h3.2a2.49,2.49,0,0,1,2.77,2.68,2.45,2.45,0,0,1-1.93,2.72v0c1.33.12,1.78.88,1.83,2.53l0,1.17a2.31,2.31,0,0,0,.45,1.58h-1.13a3.25,3.25,0,0,1-.28-1.5l0-.9c-.06-1.89-.41-2.49-2.13-2.49h-1.82v4.89h-1Zm1,5h1.65c1.52,0,2.4-.69,2.4-2.1s-.55-2.1-2.29-2.1h-1.76Z"/><path class="cls-2" d="M549,164.56h-2.76v-.81h6.48v.81h-2.76v9.9h-1Z"/></svg>