<?xml version="1.0" encoding="utf-8"?>
<!-- Generator: Adobe Illustrator 22.1.0, SVG Export Plug-In . SVG Version: 6.00 Build 0)  -->
<svg version="1.1" id="Layer_1" xmlns="http://www.w3.org/2000/svg" xmlns:xlink="http://www.w3.org/1999/xlink" x="0px" y="0px"
	 viewBox="0 0 60.1 62.9" style="enable-background:new 0 0 60.1 62.9;" xml:space="preserve">
<style type="text/css">
	.st0{fill:#002B49;}
	.st1{fill:#FFFFFF;}
</style>
<rect x="0" y="-0.2" class="st0" width="60" height="63.1"/>
<g>
	<path class="st1" d="M45.8,30.6h1l2.5,5.4h-1l-0.7-1.7H45L44.2,36h-1L45.8,30.6z M47.4,33.8l-1-2.4l-1.1,2.4H47.4z"/>
	<path class="st1" d="M44.4,38.5c-0.1-0.2-0.2-0.3-0.2-0.5c0-0.3,0.2-0.7,0.4-0.9c0.3-0.2,0.7-0.3,1.2-0.3c0.4,0,0.7,0.1,1.1,0.3
		c0.2,0.2,0.4,0.5,0.4,0.7c0,0.3-0.2,0.7-0.4,0.9s-0.5,0.4-0.8,0.5l1.2,1.2c0.1-0.2,0.2-0.3,0.2-0.4c0-0.2,0.1-0.2,0.1-0.4h0.8
		c-0.1,0.3-0.2,0.7-0.3,1c-0.2,0.3-0.2,0.4-0.2,0.4l1.2,1.2h-1l-0.5-0.6c-0.2,0.2-0.4,0.3-0.7,0.5c-0.4,0.2-0.8,0.2-1.2,0.2
		c-0.6,0.1-1.1-0.1-1.6-0.4c-0.3-0.2-0.5-0.7-0.5-1c0-0.4,0.2-0.7,0.5-1c0.3-0.2,0.7-0.4,1-0.6C44.7,39,44.6,38.7,44.4,38.5
		 M46.4,41.6c0.2-0.1,0.4-0.2,0.6-0.4l-1.5-1.5c-0.3,0.2-0.6,0.3-0.8,0.5s-0.3,0.4-0.3,0.7s0.2,0.5,0.4,0.7s0.6,0.2,0.8,0.2
		C45.8,41.8,46.2,41.7,46.4,41.6 M46.4,38.6c0.2-0.2,0.2-0.3,0.2-0.6c0-0.2-0.1-0.3-0.2-0.4c-0.2-0.1-0.3-0.2-0.5-0.2
		s-0.5,0.1-0.7,0.2c-0.1,0.1-0.1,0.2-0.1,0.3s0.1,0.2,0.2,0.2c0.2,0.2,0.3,0.4,0.5,0.5c0.2-0.1,0.4-0.2,0.6-0.4"/>
	<path class="st1" d="M43.1,43.3h1.3l1.9,4.6l1.9-4.6h1.3v5.4h-0.8v-3.2c0-0.1,0-0.3,0-0.6c0-0.2,0-0.5,0-0.8l-2.1,4.6h-0.8l-2-4.6
		v0.2c0,0.2,0,0.3,0,0.6c0,0.2,0,0.5,0,0.6v3.2H43L43.1,43.3z"/>
	<polygon class="st1" points="31,14.4 10.6,48.7 15.3,48.7 31.9,19.6 31.9,48.7 35.6,48.7 35.6,14.4 	"/>
	<polygon class="st1" points="30.5,24.3 26.8,30.8 26.8,48.7 30.5,48.7 	"/>
	<polygon class="st1" points="36.8,24.3 40.6,30.8 40.6,48.7 36.8,48.7 	"/>
</g>
</svg>
