<?xml version="1.0" encoding="utf-8"?>
<!-- Generator: Adobe Illustrator 22.1.0, SVG Export Plug-In . SVG Version: 6.00 Build 0)  -->
<svg version="1.1" id="Layer_1" xmlns="http://www.w3.org/2000/svg" xmlns:xlink="http://www.w3.org/1999/xlink" x="0px" y="0px"
	 viewBox="0 0 60.1 62.9" style="enable-background:new 0 0 60.1 62.9;" xml:space="preserve">
<style type="text/css">
	.st0{fill:#002B49;}
	.st1{fill:#FFFFFF;}
</style>
<rect x="0" y="0" class="st0" width="60.1" height="62.9"/>
<g>
	<path class="st1" d="M16.2,18.5c0.7,0,1.3,0.1,1.8,0.3c0.5,0.2,0.9,0.5,1.2,0.9c0.3,0.4,0.6,0.8,0.7,1.3c0.2,0.5,0.2,1.1,0.2,1.7
		c0,1.4-0.4,2.5-1.2,3.2c-0.8,0.7-1.9,1.1-3.4,1.1h-1.3v5.3h-3.6V18.5H16.2z M15.1,24.5c0.5,0,0.8-0.1,1-0.4
		c0.2-0.3,0.4-0.7,0.4-1.3c0-1.1-0.5-1.7-1.4-1.7h-0.7v3.4H15.1z"/>
	<path class="st1" d="M27.4,18.5l3.4,13.8H27l-0.4-2.4h-2.9l-0.4,2.4h-3.8l3.3-13.8H27.4z M25.1,21.4l-1,5.9h2L25.1,21.4L25.1,21.4z
		"/>
	<path class="st1" d="M34.6,28.5c0,0.7,0.1,1.1,0.3,1.3c0.2,0.2,0.5,0.3,0.8,0.3c0.3,0,0.6-0.1,0.8-0.3c0.2-0.2,0.3-0.7,0.3-1.3v-10
		h3.6v9.1c0,1-0.1,1.8-0.3,2.4c-0.2,0.6-0.5,1.2-0.9,1.5s-0.9,0.7-1.5,0.8c-0.6,0.1-1.3,0.2-2,0.2c-0.7,0-1.4-0.1-2-0.2
		c-0.6-0.1-1.1-0.4-1.5-0.8c-0.4-0.4-0.7-0.9-0.9-1.5c-0.2-0.6-0.3-1.5-0.3-2.4v-9.1h3.6V28.5z"/>
	<path class="st1" d="M45.6,18.5v10.9H50v2.9h-8V18.5H45.6z"/>
	<path class="st1" d="M8.8,35.6l2.1,8.6H8.5l-0.2-1.5H6.5l-0.2,1.5H4L6,35.6H8.8z M7.4,37.4L6.8,41H8L7.4,37.4L7.4,37.4z"/>
	<path class="st1" d="M12.5,35.6l0.9,6.5h0l0.9-6.5h2.4l-1.8,8.6H12l-1.8-8.6H12.5z"/>
	<path class="st1" d="M22.1,35.6v1.8h-2.8v1.5H22v1.8h-2.7v1.7h3v1.8h-5.2v-8.6H22.1z"/>
	<path class="st1" d="M26.6,35.6c0.4,0,0.8,0.1,1.1,0.2c0.3,0.1,0.5,0.3,0.7,0.5s0.3,0.4,0.4,0.7c0.1,0.3,0.1,0.6,0.1,0.9
		c0,0.6-0.1,1-0.3,1.4c-0.2,0.4-0.6,0.6-1.1,0.6v0c0.5,0,0.9,0.2,1.1,0.6s0.3,0.8,0.3,1.4v0.7c0,0.1,0,0.2,0,0.3s0,0.2,0,0.3
		c0,0.1,0,0.2,0,0.3c0,0.1,0,0.2,0.1,0.2c0,0,0.1,0.1,0.1,0.1c0,0,0.1,0.1,0.2,0.1v0.1h-2.4c-0.1-0.1-0.1-0.2-0.1-0.4
		c0-0.2,0-0.3-0.1-0.5c0-0.2,0-0.3,0-0.4s0-0.3,0-0.3V42c0-0.2,0-0.4,0-0.6s-0.1-0.3-0.1-0.4c-0.1-0.1-0.1-0.2-0.2-0.2
		c-0.1,0-0.2-0.1-0.3-0.1h-0.6v3.4h-2.2v-8.6H26.6z M25.7,39.2c0.3,0,0.6-0.1,0.7-0.3c0.2-0.2,0.2-0.4,0.2-0.7
		c0-0.4-0.1-0.6-0.2-0.8c-0.1-0.2-0.4-0.2-0.7-0.2h-0.4v2H25.7z"/>
	<path class="st1" d="M33.3,37.9c0-0.3-0.1-0.5-0.2-0.7C33,37,32.9,37,32.7,37c-0.2,0-0.4,0.1-0.5,0.2C32,37.3,32,37.5,32,37.7
		c0,0.3,0.1,0.5,0.3,0.7c0.2,0.2,0.4,0.3,0.7,0.4c0.3,0.1,0.6,0.2,0.9,0.4c0.3,0.1,0.6,0.3,0.9,0.5c0.3,0.2,0.5,0.5,0.7,0.8
		c0.2,0.3,0.3,0.7,0.3,1.3c0,0.9-0.3,1.6-0.8,2c-0.5,0.4-1.3,0.6-2.3,0.6c-0.5,0-0.9,0-1.2-0.1c-0.4-0.1-0.7-0.2-0.9-0.4
		c-0.2-0.2-0.4-0.4-0.6-0.7c-0.1-0.3-0.2-0.7-0.2-1.1v-0.3h2.2v0.2c0,0.4,0.1,0.6,0.2,0.8c0.1,0.1,0.3,0.2,0.5,0.2
		c0.2,0,0.4-0.1,0.5-0.2c0.1-0.2,0.2-0.4,0.2-0.6c0-0.3-0.1-0.5-0.3-0.7s-0.4-0.3-0.6-0.4s-0.5-0.2-0.8-0.4s-0.6-0.3-0.8-0.5
		c-0.3-0.2-0.5-0.4-0.6-0.8c-0.2-0.3-0.3-0.7-0.3-1.2c0-0.9,0.2-1.5,0.7-2c0.5-0.5,1.2-0.7,2.1-0.7c1,0,1.7,0.2,2.1,0.6
		c0.4,0.4,0.7,1.1,0.7,2h-2.1V37.9z"/>
	<path class="st1" d="M40.6,35.6l2.1,8.6h-2.4l-0.2-1.5h-1.8l-0.2,1.5h-2.3l2.1-8.6H40.6z M39.2,37.4L38.6,41h1.2L39.2,37.4
		L39.2,37.4z"/>
	<path class="st1" d="M45.6,35.6l1.4,5.3h0v-5.3h2.1v8.6h-2.4l-1.5-5.3h0v5.3h-2.1v-8.6H45.6z"/>
	<path class="st1" d="M50.1,37.9c0.1-0.6,0.3-1,0.5-1.4c0.2-0.4,0.6-0.6,0.9-0.8c0.4-0.2,0.9-0.2,1.4-0.2s1,0.1,1.4,0.2
		c0.4,0.2,0.7,0.4,0.9,0.8c0.2,0.4,0.4,0.8,0.5,1.4c0.1,0.6,0.2,1.2,0.2,2s-0.1,1.5-0.2,2c-0.1,0.6-0.3,1-0.5,1.4
		c-0.2,0.4-0.6,0.6-0.9,0.8c-0.4,0.2-0.9,0.2-1.4,0.2s-1-0.1-1.4-0.2c-0.4-0.2-0.7-0.4-0.9-0.8c-0.2-0.4-0.4-0.8-0.5-1.4
		c-0.1-0.6-0.2-1.2-0.2-2S50,38.4,50.1,37.9z M52.3,41.3c0,0.4,0.1,0.7,0.1,0.9c0.1,0.2,0.1,0.4,0.2,0.5c0.1,0.1,0.2,0.1,0.4,0.1
		s0.3,0,0.4-0.1c0.1-0.1,0.2-0.2,0.2-0.5c0.1-0.2,0.1-0.5,0.1-0.9c0-0.4,0-0.9,0-1.4s0-1.1,0-1.4c0-0.4-0.1-0.7-0.1-0.9
		s-0.1-0.4-0.2-0.5C53.3,37,53.2,37,53,37s-0.3,0-0.4,0.1c-0.1,0.1-0.2,0.2-0.2,0.5s-0.1,0.5-0.1,0.9c0,0.4,0,0.9,0,1.4
		S52.2,41,52.3,41.3z"/>
</g>
</svg>
