<svg xmlns="http://www.w3.org/2000/svg" width="30.189" height="29.489" viewBox="0 0 30.189 29.489">
  <g id="Group_1180" data-name="Group 1180" transform="translate(0 0)">
    <g id="Group_904" data-name="Group 904" transform="translate(7.762 9.833)">
      <path id="Path_1173" data-name="Path 1173" d="M2801.464,1845.827a.461.461,0,0,1-.461-.461v-4.713a1.308,1.308,0,0,1,.665-1.144,1.989,1.989,0,0,0,.77-1.4l-.04-7.848a.427.427,0,0,0-.448-.4.352.352,0,0,0-.26.109.487.487,0,0,0-.14.31v3.21a.461.461,0,0,1-.922,0v-3.208a1.4,1.4,0,0,1,.408-.963,1.282,1.282,0,0,1,.915-.38,1.353,1.353,0,0,1,1.37,1.317l.04,7.847a2.894,2.894,0,0,1-1.239,2.208.386.386,0,0,0-.2.338v4.715A.461.461,0,0,1,2801.464,1845.827Z" transform="translate(-2791.244 -1826.172)" fill="#00244a"/>
      <path id="Path_1174" data-name="Path 1174" d="M2769.1,1806.826a.461.461,0,0,1-.462-.461v-4.914a1.454,1.454,0,0,1,.433-1,1.409,1.409,0,0,1,1-.427,1.479,1.479,0,0,1,1.456,1.415v4.917a.461.461,0,0,1-.923,0v-4.914a.569.569,0,0,0-.533-.495.493.493,0,0,0-.348.155.534.534,0,0,0-.164.346v4.917A.461.461,0,0,1,2769.1,1806.826Z" transform="translate(-2761.222 -1799.035)" fill="#00244a"/>
      <path id="Path_1175" data-name="Path 1175" d="M2737.934,1791.721a.461.461,0,0,1-.461-.461v-5.914a1.475,1.475,0,0,1,.421-1.027,1.346,1.346,0,0,1,.977-.4,1.436,1.436,0,0,1,1.44,1.415v5.917a.461.461,0,0,1-.922,0v-5.915a.519.519,0,0,0-.518-.495.431.431,0,0,0-.323.127.544.544,0,0,0-.153.374v5.917A.461.461,0,0,1,2737.934,1791.721Z" transform="translate(-2731.973 -1783.92)" fill="#00244a"/>
      <path id="Path_1176" data-name="Path 1176" d="M2653.292,1818.415a.461.461,0,0,1-.461-.461V1813.1a.41.41,0,0,0-.06-.213l-.012-.012-.125-.127c-.527-.405-2.607-2.584-3.059-3.06a1.167,1.167,0,0,1-.314-.494l-1.1-2.28a1.269,1.269,0,1,1,2.292-1.092l.9,1.863.039.018.4.217-.034-6.756a1.509,1.509,0,0,1,.425-1.054,1.246,1.246,0,0,1,.9-.374,1.422,1.422,0,0,1,1.374,1.415v4.955a.461.461,0,1,1-.923,0v-4.952a.494.494,0,0,0-.452-.495.333.333,0,0,0-.247.1.588.588,0,0,0-.157.4l.038,7.535a.462.462,0,0,1-.681.408l-1.056-.571a.834.834,0,0,1-.446-.416l-.916-1.895a.347.347,0,1,0-.628.3l1.113,2.309a.45.45,0,0,1,.028.074.248.248,0,0,0,.072.117l.026.025c1.057,1.112,2.657,2.752,2.955,2.97l.03.021a1.348,1.348,0,0,1,.535,1.066v4.86A.461.461,0,0,1,2653.292,1818.415Zm-1.922-10.7h0Z" transform="translate(-2648.04 -1798.76)" fill="#00244a"/>
    </g>
    <g id="Group_905" data-name="Group 905" transform="translate(17.022 0)">
      <path id="Path_1177" data-name="Path 1177" d="M2799.079,1629.824a.461.461,0,0,1-.342-.771,2.893,2.893,0,0,1,2.4-.793.388.388,0,0,0,.373-.117l.026-.027,4.234-3.969a.461.461,0,1,1,.631.672l-4.221,3.958a1.31,1.31,0,0,1-1.25.382,1.99,1.99,0,0,0-1.513.513A.46.46,0,0,1,2799.079,1629.824Z" transform="translate(-2798.618 -1624.022)" fill="#00244a"/>
      <path id="Path_1178" data-name="Path 1178" d="M2849.5,1667.339a1.271,1.271,0,0,1-1.213-1.641l.593-1.982a.343.343,0,0,1-.016-.04l-.155-.447-.554.588a.461.461,0,1,1-.671-.632l1.075-1.143a.461.461,0,0,1,.771.165l.394,1.134a.829.829,0,0,1,.049.608l-.6,2.016a.347.347,0,0,0,.663.206l.738-2.455a.447.447,0,0,1,.029-.074.243.243,0,0,0,.026-.135c0-.012,0-.023,0-.035-.03-1.535-.1-3.829-.177-4.187a.338.338,0,0,1-.008-.034,1.351,1.351,0,0,1,.324-1.148l.016-.017,5.961-5.956a.461.461,0,0,1,.652.653l-5.952,5.946a.419.419,0,0,0-.094.192c0,.006,0,.011,0,.018l.005.177c.115.655.179,3.667.192,4.322a1.164,1.164,0,0,1-.1.576l-.728,2.424a1.275,1.275,0,0,1-1.215.9Zm-.611-3.657h0Z" transform="translate(-2844.362 -1650.276)" fill="#00244a"/>
    </g>
    <g id="Group_906" data-name="Group 906" transform="translate(0 0)">
      <path id="Path_1179" data-name="Path 1179" d="M2527.813,1671.791a.459.459,0,0,1-.349-.161,2.893,2.893,0,0,1-.487-2.484.387.387,0,0,0-.062-.376l-4.971-5.148a.461.461,0,0,1,.663-.641l4.982,5.16.018.02a1.31,1.31,0,0,1,.236,1.3,1.989,1.989,0,0,0,.32,1.565.462.462,0,0,1-.35.762Z" transform="translate(-2521.814 -1660.453)" fill="#00244a"/>
      <path id="Path_1180" data-name="Path 1180" d="M2607.108,1633.582a.459.459,0,0,1-.36-.173l-1.211-1.512a.461.461,0,0,1,.264-.74l1.174-.249a.831.831,0,0,1,.609.027l1.925.85a.347.347,0,1,0,.287-.632l-2.343-1.038a.463.463,0,0,1-.07-.038.243.243,0,0,0-.13-.043l-.036,0c-1.525-.163-3.808-.375-4.175-.348l-.036,0a1.356,1.356,0,0,1-1.09-.456l-4.193-4.432a.461.461,0,1,1,.67-.634l4.2,4.439.015.016a.418.418,0,0,0,.185.125h.018l.177.016c.666-.032,3.66.28,4.312.35a1.172,1.172,0,0,1,.56.173l2.313,1.025a1.27,1.27,0,0,1-1.039,2.317l-1.892-.836-.042.011-.475.1.743.928a.461.461,0,0,1-.359.75Zm.1-1.8h0Z" transform="translate(-2592.936 -1624.022)" fill="#00244a"/>
    </g>
    <g id="Group_907" data-name="Group 907" transform="translate(0 10.224)">
      <path id="Path_1181" data-name="Path 1181" d="M2522.275,1989.094a.461.461,0,0,1-.259-.843l6.575-4.458.024-.015a1.31,1.31,0,0,1,1.325,0,1.99,1.99,0,0,0,1.6-.041.461.461,0,0,1,.47.794,2.9,2.9,0,0,1-2.531.044.386.386,0,0,0-.381,0l-6.562,4.449A.459.459,0,0,1,2522.275,1989.094Z" transform="translate(-2521.813 -1971.707)" fill="#00244a"/>
      <path id="Path_1182" data-name="Path 1182" d="M2522.275,1801.293a.461.461,0,0,1-.233-.859l4.194-2.451a.418.418,0,0,0,.154-.159c0-.006,0-.012,0-.017h0l.047-.17c.084-.66.916-3.555,1.1-4.185a1.167,1.167,0,0,1,.268-.52l1.414-2.1a1.27,1.27,0,1,1,2.1,1.428l-1.155,1.717a.357.357,0,0,1,0,.042l.016.482,1.851-1.019a.461.461,0,1,1,.445.808l-2.508,1.381a.461.461,0,0,1-.684-.389l-.04-1.2a.832.832,0,0,1,.134-.594l1.174-1.747a.347.347,0,1,0-.572-.393l-1.432,2.125a.541.541,0,0,1-.05.062.244.244,0,0,0-.065.121c0,.011-.005.023-.009.034-.427,1.474-1.036,3.684-1.073,4.05,0,.012,0,.024,0,.036a1.35,1.35,0,0,1-.65,1l-4.2,2.452A.462.462,0,0,1,2522.275,1801.293Zm7.873-7.288h0Z" transform="translate(-2521.813 -1790.276)" fill="#00244a"/>
    </g>
    <g id="Group_908" data-name="Group 908" transform="translate(20.381 15.05)">
      <path id="Path_1183" data-name="Path 1183" d="M2918.761,1875.51a.46.46,0,0,1-.281-.1l-3.708-2.847a1.309,1.309,0,0,1-.493-1.232,1.994,1.994,0,0,0-.622-1.467l-.374-.275a.461.461,0,0,1,.548-.742l.378.279.009.007a2.893,2.893,0,0,1,.972,2.337.386.386,0,0,0,.146.363l3.706,2.845a.461.461,0,0,1-.281.827Z" transform="translate(-2909.415 -1868.761)" fill="#00244a"/>
      <path id="Path_1184" data-name="Path 1184" d="M2862.589,1982.7a.458.458,0,0,1-.28-.095l-6.889-5.273a.427.427,0,0,0-.209-.087l-.017,0h0l-.169.018a6.257,6.257,0,0,1-1.3.189.461.461,0,1,1-.033-.922,5.2,5.2,0,0,0,1.09-.156l.038-.011a1.35,1.35,0,0,1,1.169.237l6.886,5.271a.461.461,0,0,1-.281.828Z" transform="translate(-2853.243 -1969.706)" fill="#00244a"/>
    </g>
  </g>
</svg>
