<svg id="Layer_1" data-name="Layer 1" xmlns="http://www.w3.org/2000/svg" viewBox="0 0 79.56 71.31"><defs><style>.cls-1{fill:#002b49;}</style></defs><title>gm-ico-5</title><polygon class="cls-1" points="51.25 21.41 51.05 21.77 51.03 21.9 51.07 21.9 51.37 21.79 51.6 21.49 51.63 21.42 51.53 21.37 51.36 21.36 51.25 21.41"/><path class="cls-1" d="M46.39,76.75h.07l.94.11s0,0,.05,0h0l.73.58a0,0,0,0,0,0,0s0,0,0,0l.54.69.63.24h0l1.61.83,1.77.71.8,0,.68-.39.4-.31s.06,0,.09,0h.06l.52,0h0l.78.31h0l1.67.84,0,0h0l.73.73s0,0,0,0l0,0,.51.81,1.25,1.15.37.13.31-.08.53-.53h0l.31-.26.06,0,.08,0s0,0,.06,0l.07,0,.31.32s0,0,0,0h0l.4.6.71.61s0,0,0,0,0,0,0,0l.52.73h0s0,0,0,0L65,86.28l.52.66.72.19a0,0,0,0,1,0,0h0l1.12.51.48,0,.08-.25L67.86,87l-.31-1v0a.17.17,0,0,1,0-.07.14.14,0,0,1,0-.07s0,0,0,0l1.69-1.94h0a0,0,0,0,0,0,0l.82-.63h0l0,0L71.4,83l.89-.65.44-.37,0,0s0,0,0,0l.75-.19h1.1l1.1.31,1,.06.36,0,.17-.51L77,81.22s0,0,0,0l0,0-.12-.25a.2.2,0,0,1,.09-.27l.25-.12h0v0l1.38-.37h0a0,0,0,0,0,0,0l2.5-.37h.05l.5.06,0,0,0,0,.42.35.89.4.3-.13.21-.38s0,0,0,0v0l.06,0s0,0,.06,0a.08.08,0,0,1,.07,0s0,0,.06,0h0a0,0,0,0,1,0,0l1.07.87s0,0,0,0,0,0,0,0l.63.87s0,0,0,.06a.11.11,0,0,1,0,.06v.43l.46.63.85,1,1.17.93.91.61.51.22h.08l.18-.4v-1l-.42-1.25-.67-.91v0l0,0-.5-1.24h0l-.29-1-1.2-1.14h0l-.59-.66-.12-.07s0,0,0,0,0,0,0-.06a.09.09,0,0,1,0-.07s0,0,0,0v-.16h0l0-.37s0,0,0,0v0L86.57,76l.28-.69h0v0l.49-.64,1-1.4L89,71.54l.4-1.57.11-.68-.13-.54L88,67.58s0,0,0,0,0,0,0,0L87.67,67v0a.05.05,0,0,1,0,0l0-.76v0l.1-.65,0,0s0,0,0-.06h0s0,0,.06,0l.09,0h0s0,0,.05,0,0,0,.06,0l.32.36a0,0,0,0,1,0,0l0,0,.49,1v0l0,0,0-.42-.21-1.49v-.05l.07-.61s0,0,0,0,0,0,0,0l.29-.43h0v0l.2-.2v-.09l-.31-.19s0,0,0,0l0-.06A.13.13,0,0,1,89,63s0,0,0,0v-.29s0,0,0-.06,0,0,0-.06l.22-.29s0,0,0,0,0,0,0,0l.39-.33.58-.47h0l0,0,.65-.28.85-.79.07-.67v-.19h0l-1-.32a0,0,0,0,1,0,0h-.05L90.49,59v0l0,0-.15-.32s0-.05,0-.07,0,0,0-.07l.15-.54s0,0,0,0,0,0,0-.06l1-.82.93-.93h0a0,0,0,0,1,0,0l.2-.13,0-.15-.1-.41-.09,0,0,0,0,0-.06-.12-.3-.54h0l-.48-1.1-.35-.35-.25.07h0l-1,0-.13,0,0,.07.08.46h0l.09.89v0h0l-.06,1,0,0s0,0,0,0l-.29.83a.28.28,0,0,1-.09.1h0l-1.2.66h0l-.62.15-.44.16-.87,1.06-.37.49-.18.45,0,.59s0,0,0,0,0,0,0,0l-.21.51a.18.18,0,0,1,0,.07h0l-.48.36h0l0,0-.57.21h0l-.61.06-.35.26v0l.09.05.23.09s0,0,0,0l.06.06a.64.64,0,0,1,0,.07s0,0,0,0l0,.24s0,0,0,0,0,0,0,0l-.69,1h0s0,0,0,0l-.48.48h0s0,0,0,0l-.6.39h0a0,0,0,0,0,0,0l-1.26.42h-.34a.21.21,0,0,1-.15-.07,0,0,0,0,0,0,0l-.15-.21h0a0,0,0,0,0,0,0l-.12-.21s0,0,0,0,0,0,0,0v-.24s0,0,0,0v0l.15-.6h0s0,0,0,0l.2-.49.11-.44L80.06,62l-.14-.25-.06,0-.4.2-.09,0h0l-.24,0h0l-.12,0s0,0,0,0l-.06,0a.14.14,0,0,1,0-.07s0,0,0-.05v-.12s0,0,0,0,0,0,0,0l.14-.55-.14-.65-.45-.14-.58.08-.34.29-.51,1.3-.06,1,.16.54.32.49v0l0,0,.09.51s0,0,0,0,0,0,0,.06l-.18.48h0l-.06.12,0,0,0,0a.16.16,0,0,1-.12.06H76.8a.19.19,0,0,1-.1,0l-.27-.15h0l-.48-.3,0,0s0,0,0,0l-.42-.48a0,0,0,0,1,0,0l0,0-.21-.54v0L75,62.31s0,0,0,0,0,0,0,0l.12-.63s0,0,0,0,0,0,0,0l.22-.35,0,0-.08,0L75.1,61l0,0,0,0,0-.07s0,0,0,0V60.6s0,0,0-.06a.08.08,0,0,1,0-.07l.18-.21h0v0l.84-.63h0l1.11-.68.15-.12-.24-.06-.66,0-.57.2h-.07l-1.18,0h0l-.09,0-.44-.26-.46,0-.36.32-.23.59s0,0,0,0v0l-.55.55s0,0-.06,0,0,0-.06,0l-.39,0h0a.22.22,0,0,1-.13-.06h0l-.14-.15s0,0,0,0a.15.15,0,0,1,0-.09l0-.53-.1.05h0l-.55.3-.09,0h0l-.2-.06s0,0,0,0l-.06,0s0,0,0-.07,0,0,0,0V59.2s0,0,0-.06,0,0,0,0l.35-.55h0s0,0,0,0l.32-.33-.35-.26h0l-1.07-.84L64,57.61h0l-1.38-.1h0s0,0,0,0l-1.88-.34-3.14-.4h0l-3.51-.24h0l-2.66-.44-3.06-.29h0l-2.06-.39-1.32,0,0,.84s0,0,0,0,0,0,0,0l-.09.38,0,0a0,0,0,0,1,0,0l-.14.19s0,0,0,0a.19.19,0,0,1-.14.07.12.12,0,0,1-.08,0l-.33-.14h0a.22.22,0,0,1-.1-.09l-.35-.84-.11,0-.11.15-.09.9s0,0,0,.06,0,0,0,0l-.69.89-.42.93h0l-.7,1.28-.15,1h0L41,62.58v0l-.55,1.2L40,65.12l.24,1h0l.35,2.11.4,1.46v0s0,0,0,0l.05,1.11h0l0,1.2.08.55.31.15h0l1.36.91a0,0,0,0,1,0,0h0l1.16,1.11s0,0,0,0l0,0L44.58,76h0l.26.66s0,0,0,0v0l0,.23h.69Z" transform="translate(-22.15 -16.38)"/><path class="cls-1" d="M74.24,36.46v-.11l0-.1-.37-.2-.58,0h0l-.38-.11,0,.27.51.44.48.11Z" transform="translate(-22.15 -16.38)"/><polygon class="cls-1" points="53.25 22.09 53.37 22.27 53.37 22.27 53.38 22.2 53.29 21.95 53.24 21.89 53.25 22.09"/><path class="cls-1" d="M76.17,36h0l-.06.07h0l0,0,0,.07.29.2.16.07-.21-.37L76.2,36Z" transform="translate(-22.15 -16.38)"/><path class="cls-1" d="M39.18,38.72l0,0,.41,1.47s0,0,0,0l0,0-.12,1.34v.64l.37.51h.23l.17-.53L40.16,41h0a.15.15,0,0,1,0-.07.14.14,0,0,1,0-.07h0l.17-.18h0a.23.23,0,0,1,.29,0l.16.17h0s0,0,0,.06,0,0,0,.07l.06.76h0L41,43.24l.47,2.52s0,0,0,0,0,0,0,0L41.26,47l0,.7,0,0s0,0,0,0l0,.06.25.15a0,0,0,0,0,0,0h0l.84.65h0v0a.17.17,0,0,1,.06.11h0l.1.94.28,1s0,0,0,0,0,0,0,0,0,0,0,0l0,.07-.06.05,0,0h-.08l.14.43.6.34,0,.06a.1.1,0,0,1,0,0l.37.88.6.74s0,0,0,.06a.11.11,0,0,1,0,.06l.05.88.42.5,1.46,0h0l2.06.39,3.06.3h0l2.66.44,3.5.25h0l3.16.4h0l1.87.34,1.36.1,5.71-.54a.12.12,0,0,1,.1,0h.05l1.13.88.44.32.3-.15.52-.42h0l.48-.27.57-.43.15-.42a.08.08,0,0,1,.05,0s0,0,0-.05l.52-.33h.06l.06,0,.8.05h0l.06,0s0,0,.06,0h0l.34.65.12.14.21.1.55,0,.46,0h.05s0,0,.07,0,0,0,.06,0,0,0,0,0l.23.62h0l.15.45,0,.13.16,0,0,0h0l.39.3h0a0,0,0,0,1,0,0l.14.13h.14l1.07-.37h0s0,0,0,0l.5,0h.42l.28.08h0l.45.21s0,0,0,0h0l.19.17s0,0,0,0,0,0,0,0l.19.26a.06.06,0,0,1,0,0l0,0,.13.45s0,0,0,.05a.43.43,0,0,1,0,0l-.07.32,0,0v0l-.15.23h0a.2.2,0,0,1-.15.09h-.07l-.27-.1,0,.05v.21l.14,1.08a0,0,0,0,1,0,0s0,0,0,0l0,.49h0l0,.26,0,0v0l-.15.22-.39.76.08.05h0l.07,0,.19-.11,0,0v-.09l0,0s0,0,0,0l.23-.59s0,0,0,0h0l.23-.39s0,0,0,0l0,0,.37-.21h0l0,0,.33-.06h.08l.28.07h0l.1,0v-.39s0,0,0,0,0,0,0-.07,0,0,0,0l0,0h0l0-.08s0,0,0,0,0,0,0-.06V61s0,0,0,0v0l.09-.26,0,0s0,0,0,0l.39-.54h0l0,0,.67-.47a.35.35,0,0,1,.11,0h0l.24,0h0l0,0,.2-.27h0l.1-.12s0,0,0,0,0,0,0,0L85,59h0l0,0,.29,0h.08l.08,0,.06,0,.35-.45h0l.9-1.11s0,0,0,0,0,0,0,0l.51-.18h0l.6-.15,1.11-.6.27-.73,0-1-.08-.86-.09-.48-.06-.13s0,0,0-.06,0,0,0-.05v-.14l-.11,0h0L89,52.78l-.4-.32s0,0,0,0l0-.06-.12-.28s0-.05,0-.07,0-.05,0-.07l.2-.64h0L89.22,50l-.07-.46s0,0,0-.05,0,0,0,0l.12-.32s0,0,0,0a0,0,0,0,1,0,0l.44-.55,1-1.32,0,0h0l.4-.36,0,0,0,0,.48-.15.91-.4h0l.89-.35.7-.55.15-.38-.06-.25h0L94.2,44s0,0,0,0a.14.14,0,0,1,0-.07.08.08,0,0,1,0-.07v0l.48-.52h0l0,0,.7-.44.37-.33,0-.22-.47-.41-1.23-.79h0l-.47-.33h-.1l-.13.53h0l0,.16s0,0,0,.06a.05.05,0,0,1,0,0,.21.21,0,0,1-.13.05H93l-.32-.08s-.06,0-.09-.07h0l-.44-.64s0,0,0-.06a.14.14,0,0,1,0-.06v0l0,0-.14,0h0l-.36-.1-.68.07h0l-.91,0h0l-.32,0h0l-.09,0,0,0,0,0L89.25,40l-1-1.39-1.44-1-1.36-.81-.4.11-.17.16,0,.16,0,.08h0l.22.52.22.48s0,0,0,0,0,0,0,0v.35h0l-.15,1s0,0,0,.06,0,0,0,0a.16.16,0,0,1-.1,0s0,0,0,0h0l-.77,0h0l-.44,0h0s0,0-.07,0l-.3-.18,0,0h0L82.73,39v0l0,0-.52-1.13-.24-.37-.16,0-.72.28H81a.19.19,0,0,1-.1,0l-.78-.44v0h0l-.39-.35H79.5l-.81.27-.34.31a.24.24,0,0,1-.14,0h-.28l-.71.07-.63.25-.13.31,0,.15.29.19H77l.06,0s0,0,.06,0a.21.21,0,0,1,0,.06l0,.05.07.45s0,0,0,.05,0,0,0,0l-.1.26V40l.53.34h0s0,0,0,0,0,.05,0,.07h0l.18.73s0,0,0,0,0,0,0,0l-.1.86.06.7.1,0h.14l.37,0,0,0h0l.78.4s0,0,0,0,0,0,0,0l1,1.48h0a.17.17,0,0,1,0,.07.11.11,0,0,1,0,.08h0l-.19.82s0,0,0,0,0,0,0,0l-.69.84-.46.75-.27.85.51.91.72.83s0,0,0,0l0,0,.11.3s0,0,0,.06,0,0,0,.06l0,.15h0l-.11.34h0l-.19.44v0s0,0,0,0l-.08.06h0l-.3.07H79.4l-.93-.37s0,0,0,0h0l-.74-.48a0,0,0,0,1,0,0h0l-.82-.7s0,0,0,0l0,0-.22-.41s0,0,0,0,0,0,0,0l0-.41s0,0,0,0h0v-1l-.15-.63-.24.3-.14.4s0,0,0,.06l0,0a.21.21,0,0,1-.12,0h0l-.29,0h0l-2-.44h-.83l-.09,0-.41-.23s0,0,0,0l0,0-.25-.32-.6-.53-1.2-.07-.79.14-.44.11h-.09l-.15,0h0a.2.2,0,0,1-.07-.06l0,0,0,0,0-.15s0,0,0,0,0,0,0,0l.08-.89v0a0,0,0,0,0,0,0l.25-.84,0-.12h-.06l-.51-.07-.59-.08h0l-.06,0-.29-.14h0a.24.24,0,0,1-.09-.11h0l-.15-.4v0l0-.26-.29-.68s0,0,0,0,0,0,0-.05L66.76,41s0,0,0,0,0,0,0,0l.76-1.73s0,0,0,0,0,0,0-.05l.67-.41.42-.45L69.32,37l1.11-2.78h0s0,0,0,0l.46-.73h0s0,0,.06-.05,0,0,.06,0h0l.65-.06.6-.12.39-.34.14-.29,0-.12-.45-.33-.63-.22,0,0a.12.12,0,0,1,0-.05.08.08,0,0,1,0-.07.08.08,0,0,1,0-.05l0-.55v-.05l.14-.52-.09-.21-.44-.57s0,0,0,0v0l-.11-.21L71,29.46h-.67l-.44,0,0,.08.06.53.25.56s0,0,0,0,0,0,0,0l0,.52s0,0,0,0,0,0,0,0L70,32.1a0,0,0,0,1,0,0s0,0,0,0l-.06.14,0,0,0,0a.17.17,0,0,1-.12.06h-.16l-.26,0h0a.16.16,0,0,1-.09-.05l0,0h0l-.3-.56s0,0,0-.05,0,0,0-.05V31s0,0,0,0l.09-.35,0-.14-.47-.37-.87-.31-.35,0-.44.06h0a.16.16,0,0,1-.11-.05s0,0,0,0l0,0-1-2.12-.15-.18-.13,0-.29.32-.19.36,0,.41.49,1.17.58.88s0,0,0,.06,0,0,0,.05v.51s0,0,0,.05,0,0,0,.06l-.23.37-.19.46,0,0,0,0a.18.18,0,0,1-.12.05H65a.21.21,0,0,1-.12-.05l0,0s0,0,0,0L64.72,32v0h0l-.22-.65L64.12,31l-.35-.14-.38.19-.23.14,0,.2v.46s0,0,0,0,0,0,0,0l-.16.42h0a.18.18,0,0,1-.09.1,0,0,0,0,1,0,0l-.47.23h0l-.74.31-.08,0a.28.28,0,0,1-.12,0h0l-.4-.31v0l0,0-.24-.5L60.27,32l-1-.15-.32.13-.06.36,0,.35h0a.18.18,0,0,1,0,.09l0,0a.24.24,0,0,1-.14,0h0l-.31,0h0a.19.19,0,0,1-.1-.05l0,0,0,0,0,0h-.08l-.16,0h0l-.74-.26-.19,0,0,.06h0a.25.25,0,0,1-.1.08h0l-.39.12h-.06l-.06,0-.43-.15h0l-.46-.24s0,0,0,0l0,0s0,0,0,0a.14.14,0,0,1,0-.07s0-.05,0-.07,0,0,0,0l0,0a0,0,0,0,1,0,0l.34-.3-.1-.3-2-1.64h0l-.76-.79-.35,0-.26.07h0a.16.16,0,0,1-.12,0h0l-.16-.12h0l-.61-.42s0,0,0,0l0,0-.27-.43s0,0,0,0l0,0-.15-.54-.08-.22-.1,0-1.25-.23H48.7l-.42.17-.57.35a.23.23,0,0,1-.11,0h0l-.47,0a.23.23,0,0,1-.12-.06h0l-.69-.8L44.36,25.1h0l-1.13-.78-.61-.41s0,0,0,0h0l-.34-.48s0,0,0,0a0,0,0,0,1,0,0l-.57-1.24L41,21.22l-2.29-1.76-.56-.39-.59-.23-1.29-.4h-1.2l-.68.24-.39.43-.13,1.34.13.62s0,0,0,0,0,0,0,0l-.07.44h0l0,.17s0,0,0,0l0,.05-.07,0,0,0-.14,0h-.05a.19.19,0,0,1-.11,0l-.3-.2h0l-.44-.41a0,0,0,0,1,0,0,.08.08,0,0,1,0,0l-.43-.89-1.07-.08-.43.34-.32.38v.1l.16.11h0l.44.41h0s0,0,0,.07a.14.14,0,0,1,0,.06h0v.13s0,0,0,0A.09.09,0,0,1,31,22a.13.13,0,0,1,0,.06l0,0-.13.07h0l-.27.1-.24.12-.09.06.2.37.53.27.72.13s0,0,0,0l0,0,.38.27,0,0a.21.21,0,0,1,0,.06.2.2,0,0,1,0,.07s0,0,0,0l-.07.34a.25.25,0,0,1,0,.07s0,0,0,0l-.24.24s0,0,0,0,0,0,0,0l-.62.17h-.66l-.38-.14s0,0-.06,0,0,0,0,0l-.37-.5-.15-.15-.2-.05h-.5l-.28.18-.32.56,0,.55h0v0l0,.58,0,0s0,0,0,0l-.24.44s0,0,0,0h0L27,27.37h0l-.19.23,0,.18.06.34.66,1,.31.48s0,0,0,0l0,0,.09.38.09.17.19.09.54,0,0,0s0,0,0,0l.14.07s0,0,0,0l0,.06,0,.07s0,0,0,0v.13s0,0,0,.06,0,0,0,.06l-.17.24s0,0,0,0l0,0-.24.13h0L27.09,32H27l-2.17.24h-.5l-.06,0L23.64,32l0,0h0l-1-.74-.29-.07-.18.29,1.13.72h0l1.11.64h0l.61.33.77.06,2.39-.18h1.51l.3-.34h0l.53-.53s0,0,.06,0,0,0,0,0l2.65-.47s0,0,0,0h0l1.17.06h0a.15.15,0,0,1,.07,0l.06.05h0l.76,1.36s0,0,0,0a0,0,0,0,0,0,0l.41,1.28.2.42.56.44s0,0,0,0h0l1.89,2.12v0a0,0,0,0,1,0,0l.65,1.18Z" transform="translate(-22.15 -16.38)"/><polygon class="cls-1" points="17.89 27.21 17.75 27.81 17.77 28.36 17.79 28.46 17.86 28.55 18.16 28.58 18.13 28.37 18.01 27.65 17.89 27.21"/><path class="cls-1" d="M66.16,24,66,23.84l-.12,0-1,.31h0l.39,1.33s0,0,0,0,0,0,0,0v.65s0,0,0,0,0,0,0,0l-.1.35.09-.06L66,25.9l.12-.28,0-.47h0l.14-.92Z" transform="translate(-22.15 -16.38)"/><path class="cls-1" d="M59.61,25.2h0l0,0-.64.47a.16.16,0,0,1-.09,0h0l-.81,0h0l-.39,0a.17.17,0,0,1-.13-.07h0l-.34-.42,0,0-1.31,1.05-.59.47,0,.06.14.05h.6l0,0s.05,0,.07,0a.13.13,0,0,1,0,.06l0,0,0,.17s0,0,0,0a.22.22,0,0,1,0,.08.21.21,0,0,1,0,.06l0,0-.74.54-.14.23,0,.08.94.12h0s0,0,.07,0,0,0,.06,0l.52.64h0s0,0,0,.07a.19.19,0,0,1,0,.07.43.43,0,0,1,0,.07s0,0,0,.06h0l-.68.51h0a0,0,0,0,0,0,0l-.14.05.05.1.62.51.76.24.7.07,1.76-.66h.17l.61.36.88.13.6,0,.16-.58-.09-.34-.27-.17s0,0,0,0h0l-.69-.73h0l-.34-.43,0-.05s0,0,0-.05l-.05-.34s0,0,0-.05,0,0,0,0l.52-1.46h0l.34-.84,0-.21-.2-.17-.64-.48-.68-.1Z" transform="translate(-22.15 -16.38)"/><path class="cls-1" d="M89.67,52.79v0l.16,0h0l1,0,.34-.09h0a.11.11,0,0,1,.08,0s0,0,.07,0h0l.46.45s0,0,0,0l0,0,.48,1.12.28.5,0,0,0-.28v-.24s0,0,0-.07,0,0,0-.06l.25-.27,0,0,0,0,.82-.52h0s0,0,0,0l1-.24h0l.08,0a.11.11,0,0,1,.07,0h0l.09.09,0,0,0,.07a.2.2,0,0,1,0,.07v0l-.06.12,0,0v0l-.25.24h0v0l-.45.3-.38.86v.25l.27.32.28.07h.21l.17-.15.91-1.18.29-1,.12-.93h0v0l.3-.87.09-.73-.06.09h0v0l-.69.75-.25.31,0,0s0,0,0,0l-.52.21-.07,0h0l-1.09-.13-.36,0h0s-.06,0-.08,0L93,51.71h0s0-.05-.05-.08,0,0,0-.06h0l-.07-1.13h0s0,0,0,0l0-.3-.34-.34-.4-.19-.48-.11h-.32l-.2,0-.15.16-.56,1.05-.14.39,0,0v0l-.28.42-.26.44-.15.42.07.35h0Z" transform="translate(-22.15 -16.38)"/><path class="cls-1" d="M62.46,18l.36.36,0,0,0,0,.2-.81,0-.22,0-.09,0,0-.08,0a.17.17,0,0,1-.1,0h-.32l-.1,0-.27-.15,0,0,0,0-.51-.58-.18-.14,0,0-.07.32.2.33Z" transform="translate(-22.15 -16.38)"/><path class="cls-1" d="M55.55,20.44l.25,0,.06-.26,0-.26s0,0,0,0,0,0,0-.05l.21-.3s0,0,0,0l0,0,.36-.15h0l.8-.13v0l-.14-.19-.22-.13L56,19l-.51.31-.15.4-.1.42,0,.12Z" transform="translate(-22.15 -16.38)"/><path class="cls-1" d="M65.07,21.71,65,21.48h-.1s0,0,0,0v0l-.12.1-.2.43,0,.34.1.14h.15l.25-.36Z" transform="translate(-22.15 -16.38)"/><path class="cls-1" d="M52.48,26l.21.42s0,0,0,0,0,0,0,0h0l.58-.18.43-.62,0,0a0,0,0,0,1,0,0l.73-.56h0s0,0,0,0l1.79-.87.09-.12-.22-.53L55.89,23l-1.25-.27-.86,0-.17.25v.37h0l0,.42V24a.2.2,0,0,1-.2.2h-.21L52.42,24l-.26,0-.16.25.07.67Z" transform="translate(-22.15 -16.38)"/><path class="cls-1" d="M67,19.82l.28,0h0l1,.07.56-.36h0a0,0,0,0,1,0,0l.56-.27.11-.18V18.8h0l.08-.75v0l-.3,0h0l0,0-.79-.37,0,0h0l-.27-.25s0,0,0,0l0,0L68,16.92l-.13-.22-.24-.07-.29,0,0,.09s0,0,0,0l0,0a.21.21,0,0,1-.11,0H67l-.08.08-.06.26.17.61.25.29a.06.06,0,0,1,0,0s0,0,0,0l.1.38s0,0,0,0,0,0,0,0l0,.34s0,0,0,.05,0,0,0,0l-.2.28h0s0,0,0,0l-.27.18-.12.13.06.08Z" transform="translate(-22.15 -16.38)"/><path class="cls-1" d="M62.76,20.59l-.48-.08-.75-.09h0l.16.88.19.44.24,0h0l.63.09h0l.06,0a.12.12,0,0,1,0,.05h0l.15.33h0l.12.33.13.09,0-.14v-.69l-.31-1.07Z" transform="translate(-22.15 -16.38)"/><path class="cls-1" d="M64.26,20.33l1.28.17s0,0,0,0h0l.12.09a.56.56,0,0,1,0,.08l0,.05h0l0,.24h0l.06.51h0l.1,1.05,1.53.08,1.56-.44h0l1.23-.29v-.2l-.35-.3a0,0,0,0,0,0,0h0l-.53-.58-.93.14-.81.14h0l0,.1,0,.11,0,0,0,.05a.18.18,0,0,1-.07.05l0,0-.23.06h0a.17.17,0,0,1-.1,0l-1-.57h0a.16.16,0,0,1-.08-.1l-.12-.39s0,0,0,0v-.12L65,20l-1-.21L64,19.8l.09.29Z" transform="translate(-22.15 -16.38)"/><path class="cls-1" d="M65.75,17.75l.08,0,0,0,0-.29-.06-.37s0,0,0,0,0,0,0,0l0-.11,0,0-.28-.08-.06,0-.19.34v.14l.11.17Z" transform="translate(-22.15 -16.38)"/><path class="cls-1" d="M63.26,25s0,0,0,0l-.06-.63,0-.07h0s0,0,0,0l-.07-.12-.13,0-.17.17v.18l.08.61h0s0,0,0,0v.57s0,0,0,.05a.64.64,0,0,1,0,.07l-.07,0s0,0,0,0l-.17,0h0l.33.54.22.22a.2.2,0,0,1,.06.14v.36a0,0,0,0,1,0,0v0l-.1.45.11.31.16.13h.07l0-.19v0s0,0,0,0l.36-.65s0,0,0,0v0l.13-.15v-.2h0s0,0,0,0l.08-.67,0-.29-.11-.07h0s0,0,0,0l-.33-.27a0,0,0,0,1,0,0l-.05-.05-.18-.39S63.27,25,63.26,25Z" transform="translate(-22.15 -16.38)"/><path class="cls-1" d="M57.14,21h0l-.31.39,0,.11.22.39.14.08h.37l.27,0h0s0,0,0,0,0,0,.06,0l.06,0s0,.05,0,.08,0,0,0,.06h0l-.05.22v.42l.36-.2h.06l1.31-.24.77-.44.22-.27-.18-.29-.14-.13h-.32l-.6-.06s0,0-.06,0l-.07,0a.14.14,0,0,1,0-.07s0,0,0-.06v-.22l-.09-.47-.17,0-.2.15-.17.56h0a.18.18,0,0,1,0,.07l0,0a.21.21,0,0,1-.12,0h-.06l-.09,0s0,0,0,0h0l-.52-.35h-.38Z" transform="translate(-22.15 -16.38)"/><path class="cls-1" d="M70.09,25.35h0l-.56.39,0,0h0l-.27.07H69a.2.2,0,0,1-.12-.06l0,0,0,0-.1-.27h0a.22.22,0,0,1,0-.08.1.1,0,0,1,0-.07v0l0,0-.15-.79-.1-.31L68.24,24H68l-.31.13-.12,1.09-.1,1.72,0,.12.24.09s0,0,0,0h0l.2.17s0,0,0,0a.16.16,0,0,1,0,.07.15.15,0,0,1,0,.07s0,0,0,0l-.06.4,0,.17.15.18.61.21.7.19.2,0,.34-.09.73-.38s0,0,0,0,0,0,0,0l.75-.07h0l.25,0H72l.11-.05.07-.21,0-.05a.1.1,0,0,1,0-.05l.39-.26s0,0,.06,0l0,0h.33l0,0h.06l.26.17h0l1.69,1.37,1,.68s0,0,0,0h0l.52.73s0,0,0,0l0,0,.19.95h0l0,.25,0,.12s0,0,0,0a.13.13,0,0,1,0,.12.1.1,0,0,1,0,0,.18.18,0,0,1-.07.05h0l-.19,0,.07,0,0,0,0,0,.17.19h0s0,.05,0,.07a.24.24,0,0,1,0,.08h0L77,33.1a.19.19,0,0,1-.07.12h0l-1.14.83-.05.54.07.06.35,0L77.23,34h0l.29-.1h.09l.23,0a.22.22,0,0,1,.14.08l.17.23,2.18,1.25,1,.44h.32l.34-.11.78-.55,0,0L82.57,35l-.65-.16s0,0-.06,0l0,0-.19-.23a.08.08,0,0,1,0-.07s0,0,0-.06v-.13a.08.08,0,0,1,0,0s0-.05,0-.07,0,0,.06-.05l0,0,.39-.1h.94l-.5-.77v0l0,0-.2-.49L81,31.84l-1-.18a.22.22,0,0,1-.13-.1h0l-.13-.23s0,0,0-.07,0-.05,0-.07l.1-.43s0,0,0,0,0,0,0,0l.26-.36.06,0,0,0,.5-.13s0,0,0,0,0,0,.05,0l.62.16h0l.06,0,.06.06h0l.19.4,0,.05.17-.17.24-.88,0-.7h0l0-.62v-.21l-.08-.11h-.31l-.5.16h-.06l-2,0h-.05l-1.58-.45,0-.05,0,0-.17-.2s0,0,0,0a.25.25,0,0,1,0-.07.22.22,0,0,1,0-.08s0,0,0,0l.3-.55s0,0,0,0a0,0,0,0,0,0,0l.2-.23h0v-.06l-1.25-.76-2.49-.52h0l-1.62-.71-1-.22-.27,0-.47.42-.72.68A0,0,0,0,0,70.09,25.35Z" transform="translate(-22.15 -16.38)"/><polygon class="cls-1" points="48.75 18.52 48.66 18.67 48.66 19.02 48.79 19.85 49.02 20.77 49.37 21.09 49.38 21.09 49.7 20.32 49.79 19.49 49.81 18.89 48.79 18.53 48.75 18.52"/><polygon class="cls-1" points="46.88 0.52 47.06 0.58 47.12 0.56 47.2 0.44 47.27 0.13 47.27 0.04 47.22 0 46.61 0 46.6 0.06 46.62 0.28 46.88 0.52"/><path class="cls-1" d="M80.4,19.88s0,0,0,0l4,3.38s0,0,0,0l0,0,1,1.73v0s0,0,0,0l.3,1.26.73,1.82,2.19,2,3.76,1.77,3.18.22h.7l.08-.16.06-.51-.27-.68L94,27.58s0,0,0,0,0,0,0-.05l-.3-2.85s0,0,0,0,0,0,0,0l.45-3.06v-.84l-.63-1.33-.9-.55-2.34-.37-4.64-.07h0l-4.92-1.27-4.44.22-.14.25,4.32,2.31Z" transform="translate(-22.15 -16.38)"/><path class="cls-1" d="M96.15,44.63l.19,1.72.78,1.23v0l0,0,.19.55.1.2.24.11.4-.39.46-.62h0l.63-.86h0v0l.23-.23a.07.07,0,0,1,.06,0s0,0,0,0l.13,0h.14l0,.06s0,0,0,.05l.1.26v0h0l.06.3h.42l.28-.31.08-.19v0l0-.09s0,0,0-.05a.2.2,0,0,1,0-.07l0-.07s0,0,0,0l.1-.1.06,0s0,0,.06,0l.49-.06.14-.08,0-.11-.17-.54-.18-.28-.28-.09-.54.15h-.06a.19.19,0,0,1-.15-.08h0l-.33-.54h0l0,0-.06-.15-.19,0-.64.06-.44.4-.31.54,0,0s0,0-.05.06l-.6.3h-.07l-.33,0h0a.22.22,0,0,1-.11,0l0,0,0,0-.2-.4s0,0,0,0,0,0,0,0V43.64l0,0s0,0,0,0l.17-.53v0h0L97,43l-.14,0h0l-.37.65Z" transform="translate(-22.15 -16.38)"/><path class="cls-1" d="M43.94,54.62v0s0,0,0,0l-.3-.61h0l-.36-.54L43,52.75h0l-.2-.51s0,0,0,0l0,0-.48-.37-.41-.42-.25-.32,0,0s0,0,0,0l-.3-.18h-.05l0,0H41l-.05,0-.06,0-.05.06,0,.05,0,.1s0,0,0,0v.38s0,0,0,.06,0,.05,0,.06l.48.6.79,1.3.38,1.16s0,0,0,0,0,0,0,0l.15.18,0,0s0,0,0,0l.28.13.57.3h0l.25.1.08,0H44l0,0a.18.18,0,0,0,.08-.07l0,0h0s0,0,0-.06,0,0,0-.08Z" transform="translate(-22.15 -16.38)"/><path class="cls-1" d="M30.92,33.47l0-.06s0,0-.06,0,0,0,0,0l-.22-.1a.22.22,0,0,0-.08,0s-.05,0-.07,0l-.82.31-1.18.28h-.32l-.07,0-.05.05,0,0-.12.26s0,0,0,0a.16.16,0,0,0,0,.07.14.14,0,0,0,0,.07s0,0,0,0l.23.25s0,0,0,0,0,0,0,0l.48.16h.09l.79-.1h.07l.67-.35h0l.18-.11h.2a.16.16,0,0,0,.15-.09h0L31,34s0,0,0-.06,0,0,0-.07l-.06-.38S30.92,33.48,30.92,33.47Z" transform="translate(-22.15 -16.38)"/><path class="cls-1" d="M34.6,33.11l-.17-.32-.06-.35v0s0,0,0-.06l-.06-.06h0l-.39-.16s0,0,0,0l0,0h-.38s0,0-.06,0h-.06l-.33.24-.29.1h-.32l-.06,0H32.2l-.08,0h0l-.42.35-.11.09h0a.16.16,0,0,0,0,.07s0,0,0,.06v.3a.19.19,0,0,0,0,.07s0,0,0,.06l.35.44s0,0,0,0,0,0,0,.05l.45.16h.09l.89-.13h.06l.76-.35s0,0,0,0,0,0,0,0l.29-.31s0,0,0-.05a.14.14,0,0,0,0-.06.22.22,0,0,0,0-.08S34.61,33.12,34.6,33.11Z" transform="translate(-22.15 -16.38)"/><path class="cls-1" d="M27.85,34.51h0l-.15-.25h0s0,0-.06,0l-.06,0h0l-.1,0a.1.1,0,0,0-.05,0l-.07,0a0,0,0,0,1,0,0l-.2,0s0,0-.06,0H27l-.15.07,0,.06-.05,0-.08.2v0s0,0,0,.07,0,0,0,.07v0l.2.32,0,0s0,0,0,0l.27.17h0a.23.23,0,0,0,.11,0h.06l.23-.07,0,0a.13.13,0,0,0,.07-.06l0,0h0l.1-.33h0s0-.06,0-.08A.15.15,0,0,0,27.85,34.51Z" transform="translate(-22.15 -16.38)"/><path class="cls-1" d="M39.79,47.53l0-.32.38-.59h0L40.5,46v0a.25.25,0,0,0,0-.14v0l0-.08,0,0a.12.12,0,0,0,0,0,.09.09,0,0,0-.07,0h-.15l-.12,0-.46-.21-.08-.06v-.05s0,0,0,0,0,0,0,0l0-.06h0s0,0-.05-.06,0,0-.06,0v0l-.15,0s0,0-.07,0,0,0-.07,0l-.08,0h0a.18.18,0,0,0-.05.07s0,0,0,0h0l0,.16s0,0,0,0,0,0,0,0v.16s0,0,0,.06a.13.13,0,0,0,0,.06l.09.12L39,46v.13l-.08.49v0h0l0,1.35s0,0,0,0v0l.17.57s0,0,0,0,0,0,0,0l.12.16h0a.2.2,0,0,0,.14.06.16.16,0,0,0,.12,0h0l.12-.12a.06.06,0,0,0,0,0,.1.1,0,0,0,0-.07l.11-.61a0,0,0,0,0,0,0s0,0,0,0Z" transform="translate(-22.15 -16.38)"/></svg>