<?xml version="1.0" encoding="utf-8"?>
<!-- Generator: Adobe Illustrator 22.1.0, SVG Export Plug-In . SVG Version: 6.00 Build 0)  -->
<svg version="1.1" id="Text_Overlay" xmlns="http://www.w3.org/2000/svg" xmlns:xlink="http://www.w3.org/1999/xlink" x="0px"
	 y="0px" viewBox="0 0 1027.5 171" style="enable-background:new 0 0 1027.5 171;" xml:space="preserve">
<style type="text/css">
	.st0{fill:#FFFFFF;}
	.st1{enable-background:new    ;}
</style>
<g id="SOURCE:_ALM_VANGUARD:_TRANSACTIONS_-_ACQUISITIONS_CONSULTING_RE">
	<path class="st0" d="M43.2,103.6c0-1.3-0.6-2.1-1.9-2.1c-1.3,0-2,0.9-2,1.9c0,3.2,5.2,1.4,5.2,5.2c0,2.1-1.3,3.1-3.2,3.1
		c-2,0-3.1-1.1-3.1-3.2v-0.3h1v0.4c0,1.4,0.7,2.3,2.1,2.3c1.4,0,2.3-0.7,2.3-2.2c0-3.2-5.2-1.4-5.2-5.2c0-1.7,1.1-2.8,3-2.8
		c2,0,2.9,1,2.9,2.9C44.3,103.6,43.2,103.6,43.2,103.6z"/>
	<path class="st0" d="M49.5,100.7c2.2,0,3.4,1.7,3.4,5.5s-1.2,5.5-3.4,5.5s-3.4-1.7-3.4-5.5S47.3,100.7,49.5,100.7z M49.5,110.9
		c1.5,0,2.5-1.3,2.5-4.7s-0.9-4.7-2.5-4.7c-1.5,0-2.5,1.3-2.5,4.7S47.9,110.9,49.5,110.9z"/>
	<path class="st0" d="M54.9,100.8h1v7.7c0,1.6,0.7,2.4,2.1,2.4c1.4,0,2.1-0.8,2.1-2.4v-7.7h1v7.7c0,2.2-1.1,3.2-3.1,3.2
		s-3.1-0.9-3.1-3.2V100.8z"/>
	<path class="st0" d="M63.1,100.8h3.2c1.8,0,2.8,1,2.8,2.7c0,1.3-0.5,2.4-1.9,2.7l0,0c1.3,0.1,1.8,0.9,1.8,2.5v1.2
		c0,0.6,0.1,1.2,0.4,1.6h-1.1c-0.2-0.4-0.3-0.9-0.3-1.5v-0.9c-0.1-1.9-0.4-2.5-2.1-2.5h-1.8v4.9h-1
		C63.1,111.5,63.1,100.8,63.1,100.8z M64.1,105.9h1.6c1.5,0,2.4-0.7,2.4-2.1c0-1.3-0.6-2.1-2.3-2.1H64L64.1,105.9L64.1,105.9z"/>
	<path class="st0" d="M77.5,107.9c-0.1,2.4-1.3,3.8-3.2,3.8c-2.2,0-3.4-1.7-3.4-5.5s1.2-5.5,3.4-5.5c2.2,0,3.1,1.5,3.1,3.3h-1
		c0-1.5-0.7-2.5-2.1-2.5c-1.5,0-2.5,1.3-2.5,4.7s0.9,4.7,2.5,4.7c1.3,0,2.1-1.2,2.2-3H77.5z"/>
	<path class="st0" d="M79.3,100.8h5.3v0.8h-4.4v3.9h4.1v0.8h-4.1v4.4h4.5v0.8h-5.4V100.8z"/>
	<path class="st0" d="M86.7,104h1v1.5h-1V104z M86.7,110h1v1.5h-1V110z"/>
	<path class="st0" d="M96.5,100.8h1.2l3.2,10.7h-1l-0.9-3.1h-3.8l-0.9,3.1h-1L96.5,100.8z M98.8,107.6l-1.6-6l0,0l-1.6,6H98.8z"/>
	<path class="st0" d="M102.4,100.8h1v9.9h4.4v0.8h-5.4V100.8z"/>
	<path class="st0" d="M109.4,100.8h1.7l2.6,9.5l0,0l2.6-9.5h1.6v10.7h-1v-9.8l0,0l-2.8,9.8h-0.9l-2.8-9.8l0,0v9.8h-1L109.4,100.8
		L109.4,100.8z"/>
	<path class="st0" d="M123.2,100.8h1l2.4,9.7l0,0l2.4-9.7h1l-2.8,10.7H126L123.2,100.8z"/>
	<path class="st0" d="M133.2,100.8h1.2l3.2,10.7h-1l-0.9-3.1h-3.8l-0.9,3.1h-1L133.2,100.8z M135.4,107.6l-1.6-6l0,0l-1.6,6H135.4z"
		/>
	<path class="st0" d="M139.1,100.8h1.3l4.1,9.3l0,0v-9.3h1v10.7h-1.3l-4.1-9.3l0,0v9.3h-1V100.8z"/>
	<path class="st0" d="M150.6,106.9v-0.8h3.4v5.5h-0.8v-1.8l0,0c-0.3,1.2-1.3,1.9-2.4,1.9c-2.2,0-3.4-1.7-3.4-5.5s1.2-5.5,3.4-5.5
		c2,0,3,1.3,3.1,3.2h-1c0-1.3-0.7-2.4-2.1-2.4c-1.5,0-2.5,1.3-2.5,4.7s0.9,4.7,2.5,4.7c1.4,0,2.2-1.3,2.2-3.8v-0.2
		C153,106.9,150.6,106.9,150.6,106.9z"/>
	<path class="st0" d="M156.1,100.8h1v7.7c0,1.6,0.7,2.4,2.1,2.4c1.4,0,2.1-0.8,2.1-2.4v-7.7h1v7.7c0,2.2-1.1,3.2-3.1,3.2
		s-3.1-0.9-3.1-3.2V100.8z"/>
	<path class="st0" d="M166.5,100.8h1.2l3.2,10.7h-1l-0.9-3.1h-3.8l-0.9,3.1h-1L166.5,100.8z M168.8,107.6l-1.6-6l0,0l-1.6,6H168.8z"
		/>
	<path class="st0" d="M172.4,100.8h3.2c1.8,0,2.8,1,2.8,2.7c0,1.3-0.5,2.4-1.9,2.7l0,0c1.3,0.1,1.8,0.9,1.8,2.5v1.2
		c0,0.6,0.1,1.2,0.4,1.6h-1.1c-0.2-0.4-0.3-0.9-0.3-1.5v-0.9c-0.1-1.9-0.4-2.5-2.1-2.5h-1.8v4.9h-1L172.4,100.8L172.4,100.8z
		 M173.4,105.9h1.6c1.5,0,2.4-0.7,2.4-2.1c0-1.3-0.6-2.1-2.3-2.1h-1.8v4.2H173.4z"/>
	<path class="st0" d="M180.5,100.8h2.6c3.1,0,3.9,1.9,3.9,5.4s-0.8,5.4-3.9,5.4h-2.6V100.8z M181.4,110.7h1.6c2.1,0,3-1.1,3-4.5
		c0-3.5-0.9-4.6-3-4.6h-1.6V110.7z"/>
	<path class="st0" d="M189.1,104h1v1.5h-1V104z M189.1,110h1v1.5h-1V110z"/>
	<path class="st0" d="M198.6,101.7h-2.8v-0.9h6.5v0.8h-2.8v9.9h-1v-9.8H198.6z"/>
	<path class="st0" d="M203.9,100.8h3.2c1.8,0,2.8,1,2.8,2.7c0,1.3-0.5,2.4-1.9,2.7l0,0c1.3,0.1,1.8,0.9,1.8,2.5v1.2
		c0,0.6,0.1,1.2,0.4,1.6h-1.1c-0.2-0.4-0.3-0.9-0.3-1.5v-0.9c-0.1-1.9-0.4-2.5-2.1-2.5h-1.8v4.9h-1L203.9,100.8L203.9,100.8z
		 M204.8,105.9h1.6c1.5,0,2.4-0.7,2.4-2.1c0-1.3-0.6-2.1-2.3-2.1h-1.8v4.2H204.8z"/>
	<path class="st0" d="M214.7,100.8h1.2l3.2,10.7h-1l-0.9-3.1h-3.8l-0.9,3.1h-1L214.7,100.8z M216.9,107.6l-1.6-6l0,0l-1.6,6H216.9z"
		/>
	<path class="st0" d="M220.5,100.8h1.3l4.1,9.3l0,0v-9.3h1v10.7h-1.3l-4.1-9.3l0,0v9.3h-1V100.8z"/>
	<path class="st0" d="M233.9,103.6c0-1.3-0.6-2.1-1.9-2.1c-1.3,0-2,0.9-2,1.9c0,3.2,5.2,1.4,5.2,5.2c0,2.1-1.3,3.1-3.2,3.1
		c-2,0-3.1-1.1-3.1-3.2v-0.3h1v0.4c0,1.4,0.7,2.3,2.1,2.3c1.4,0,2.3-0.7,2.3-2.2c0-3.2-5.2-1.4-5.2-5.2c0-1.7,1.1-2.8,3-2.8
		c2,0,2.9,1,2.9,2.9C235,103.6,233.9,103.6,233.9,103.6z"/>
	<path class="st0" d="M239.3,100.8h1.2l3.2,10.7h-1l-0.9-3.1H238l-0.9,3.1h-1L239.3,100.8z M241.6,107.6l-1.6-6l0,0l-1.6,6H241.6z"
		/>
	<path class="st0" d="M251.2,107.9c-0.1,2.4-1.3,3.8-3.2,3.8c-2.2,0-3.4-1.7-3.4-5.5s1.2-5.5,3.4-5.5s3.1,1.5,3.1,3.3h-1
		c0-1.5-0.7-2.5-2.1-2.5c-1.5,0-2.5,1.3-2.5,4.7s0.9,4.7,2.5,4.7c1.4,0,2.1-1.2,2.2-3H251.2z"/>
	<path class="st0" d="M255,101.7h-2.8v-0.9h6.5v0.8H256v9.9h-1V101.7z"/>
	<path class="st0" d="M260.4,100.8h1v10.7h-1V100.8z"/>
	<path class="st0" d="M266.8,100.7c2.2,0,3.4,1.7,3.4,5.5s-1.2,5.5-3.4,5.5s-3.4-1.7-3.4-5.5S264.6,100.7,266.8,100.7z M266.8,110.9
		c1.5,0,2.5-1.3,2.5-4.7s-0.9-4.7-2.5-4.7c-1.5,0-2.5,1.3-2.5,4.7S265.3,110.9,266.8,110.9z"/>
	<path class="st0" d="M272.3,100.8h1.3l4.1,9.3l0,0v-9.3h1v10.7h-1.3l-4.1-9.3l0,0v9.3h-1V100.8z"/>
	<path class="st0" d="M285.6,103.6c0-1.3-0.6-2.1-1.9-2.1s-2,0.9-2,1.9c0,3.2,5.2,1.4,5.2,5.2c0,2.1-1.3,3.1-3.2,3.1
		c-2,0-3.1-1.1-3.1-3.2v-0.3h1v0.4c0,1.4,0.7,2.3,2.1,2.3s2.3-0.7,2.3-2.2c0-3.2-5.2-1.4-5.2-5.2c0-1.7,1.1-2.8,3-2.8
		c2,0,2.9,1,2.9,2.9C286.7,103.6,285.6,103.6,285.6,103.6z"/>
	<path class="st0" d="M295.8,106.9v0.8h-3.3v-0.8H295.8z"/>
	<path class="st0" d="M83.4,118.8h1.2l3.2,10.7h-1l-0.9-3.1h-3.8l-0.9,3.1h-1L83.4,118.8z M85.7,125.6l-1.6-6l0,0l-1.6,6H85.7z"/>
	<path class="st0" d="M95.4,125.9c-0.1,2.4-1.3,3.8-3.2,3.8c-2.2,0-3.4-1.7-3.4-5.5s1.2-5.5,3.4-5.5c2.2,0,3.1,1.5,3.1,3.3h-1
		c0-1.5-0.7-2.5-2.1-2.5c-1.5,0-2.5,1.3-2.5,4.7s0.9,4.7,2.5,4.7c1.4,0,2.1-1.2,2.2-3C94.4,125.9,95.4,125.9,95.4,125.9z"/>
	<path class="st0" d="M102.4,129.1c-0.5,0.5-1.2,0.7-1.9,0.7c-2.2,0-3.4-1.7-3.4-5.5s1.2-5.5,3.4-5.5s3.4,1.7,3.4,5.5
		c0,2-0.3,3.4-1,4.3l1.1,1l-0.5,0.6L102.4,129.1z M100.6,127.3l0.5-0.6l1.2,1.1c0.4-0.8,0.6-2,0.6-3.6c0-3.5-0.9-4.7-2.5-4.7
		c-1.5,0-2.5,1.3-2.5,4.7s0.9,4.7,2.5,4.7c0.5,0,1-0.1,1.3-0.5L100.6,127.3z"/>
	<path class="st0" d="M105.9,118.8h1v7.7c0,1.6,0.7,2.4,2.1,2.4s2.1-0.8,2.1-2.4v-7.7h1v7.7c0,2.2-1.1,3.2-3.1,3.2s-3.1-0.9-3.1-3.2
		V118.8z"/>
	<path class="st0" d="M114.2,118.8h1v10.7h-1V118.8z"/>
	<path class="st0" d="M122.1,121.6c0-1.3-0.6-2.1-1.9-2.1s-2,0.9-2,1.9c0,3.2,5.2,1.4,5.2,5.2c0,2.1-1.3,3.1-3.2,3.1
		c-2,0-3.1-1.1-3.1-3.2v-0.3h1v0.4c0,1.4,0.7,2.3,2.1,2.3s2.3-0.7,2.3-2.2c0-3.2-5.2-1.4-5.2-5.2c0-1.7,1.1-2.8,3-2.8
		c2,0,2.9,1,2.9,2.9C123.2,121.6,122.1,121.6,122.1,121.6z"/>
	<path class="st0" d="M125.2,118.8h1v10.7h-1V118.8z"/>
	<path class="st0" d="M130.5,119.7h-2.8v-0.9h6.5v0.8h-2.8v9.9h-1v-9.8H130.5z"/>
	<path class="st0" d="M135.8,118.8h1v10.7h-1V118.8z"/>
	<path class="st0" d="M142.3,118.7c2.2,0,3.4,1.7,3.4,5.5s-1.2,5.5-3.4,5.5s-3.4-1.7-3.4-5.5S140.1,118.7,142.3,118.7z M142.3,128.9
		c1.5,0,2.5-1.3,2.5-4.7s-0.9-4.7-2.5-4.7s-2.5,1.3-2.5,4.7S140.7,128.9,142.3,128.9z"/>
	<path class="st0" d="M147.7,118.8h1.3l4.1,9.3l0,0v-9.3h1v10.7h-1.3l-4.1-9.3l0,0v9.3h-1V118.8z"/>
	<path class="st0" d="M161.1,121.6c0-1.3-0.6-2.1-1.9-2.1c-1.3,0-2,0.9-2,1.9c0,3.2,5.2,1.4,5.2,5.2c0,2.1-1.3,3.1-3.2,3.1
		c-2,0-3.1-1.1-3.1-3.2v-0.3h1v0.4c0,1.4,0.7,2.3,2.1,2.3c1.4,0,2.3-0.7,2.3-2.2c0-3.2-5.2-1.4-5.2-5.2c0-1.7,1.1-2.8,3-2.8
		c2,0,2.9,1,2.9,2.9C162.2,121.6,161.1,121.6,161.1,121.6z"/>
	<path class="st0" d="M174.4,125.9c-0.1,2.4-1.3,3.8-3.2,3.8c-2.2,0-3.4-1.7-3.4-5.5s1.2-5.5,3.4-5.5s3.1,1.5,3.1,3.3h-1
		c0-1.5-0.7-2.5-2.1-2.5c-1.5,0-2.5,1.3-2.5,4.7s0.9,4.7,2.5,4.7c1.4,0,2.1-1.2,2.2-3C173.4,125.9,174.4,125.9,174.4,125.9z"/>
	<path class="st0" d="M179.5,118.7c2.2,0,3.4,1.7,3.4,5.5s-1.2,5.5-3.4,5.5s-3.4-1.7-3.4-5.5S177.3,118.7,179.5,118.7z M179.5,128.9
		c1.5,0,2.5-1.3,2.5-4.7s-0.9-4.7-2.5-4.7c-1.5,0-2.5,1.3-2.5,4.7S178,128.9,179.5,128.9z"/>
	<path class="st0" d="M185,118.8h1.3l4.1,9.3l0,0v-9.3h1v10.7h-1.3l-4.1-9.3l0,0v9.3h-1V118.8z"/>
	<path class="st0" d="M198.3,121.6c0-1.3-0.6-2.1-1.9-2.1c-1.3,0-2,0.9-2,1.9c0,3.2,5.2,1.4,5.2,5.2c0,2.1-1.3,3.1-3.2,3.1
		c-2,0-3.1-1.1-3.1-3.2v-0.3h1v0.4c0,1.4,0.7,2.3,2.1,2.3c1.4,0,2.3-0.7,2.3-2.2c0-3.2-5.2-1.4-5.2-5.2c0-1.7,1.1-2.8,3-2.8
		c2,0,2.9,1,2.9,2.9C199.4,121.6,198.3,121.6,198.3,121.6z"/>
	<path class="st0" d="M201.2,118.8h1v7.7c0,1.6,0.7,2.4,2.1,2.4c1.4,0,2.1-0.8,2.1-2.4v-7.7h1v7.7c0,2.2-1.1,3.2-3.1,3.2
		s-3.1-0.9-3.1-3.2V118.8z"/>
	<path class="st0" d="M209.5,118.8h1v9.9h4.4v0.8h-5.4V118.8z"/>
	<path class="st0" d="M217.5,119.7h-2.8v-0.9h6.5v0.8h-2.8v9.9h-1v-9.8H217.5z"/>
	<path class="st0" d="M222.8,118.8h1v10.7h-1V118.8z"/>
	<path class="st0" d="M226,118.8h1.3l4.1,9.3l0,0v-9.3h1v10.7h-1.3l-4.1-9.3l0,0v9.3h-1V118.8z"/>
	<path class="st0" d="M237.6,124.9v-0.8h3.4v5.5h-0.8v-1.8l0,0c-0.3,1.2-1.3,1.9-2.4,1.9c-2.2,0-3.4-1.7-3.4-5.5s1.2-5.5,3.4-5.5
		c2,0,3,1.3,3.1,3.2h-1c0-1.3-0.7-2.4-2.1-2.4c-1.5,0-2.5,1.3-2.5,4.7s0.9,4.7,2.5,4.7c1.4,0,2.2-1.3,2.2-3.8v-0.2
		C240,124.9,237.6,124.9,237.6,124.9z"/>
	<path class="st0" d="M249.3,118.8h1.2l3.2,10.7h-1l-0.9-3.1H248l-0.9,3.1h-1L249.3,118.8z M251.5,125.6l-1.6-6l0,0l-1.6,6H251.5z"
		/>
	<path class="st0" d="M255.1,118.8h3.2c1.8,0,2.8,1,2.8,2.7c0,1.3-0.5,2.4-1.9,2.7l0,0c1.3,0.1,1.8,0.9,1.8,2.5v1.2
		c0,0.6,0.1,1.2,0.4,1.6h-1.1c-0.2-0.4-0.3-0.9-0.3-1.5v-0.9c-0.1-1.9-0.4-2.5-2.1-2.5h-1.8v4.9h-1V118.8L255.1,118.8z M256.1,123.9
		h1.6c1.5,0,2.4-0.7,2.4-2.1c0-1.3-0.6-2.1-2.3-2.1H256v4.2H256.1z"/>
	<path class="st0" d="M263.2,118.8h5.3v0.8h-4.4v3.9h4.1v0.8h-4.1v4.4h4.5v0.8h-5.4V118.8z"/>
	<path class="st0" d="M270.4,118.8h2.9c2.1,0,2.9,1.2,2.9,3c0,1.7-0.8,3-3.3,3h-1.6v4.6h-1v-10.6
		C270.3,118.8,270.4,118.8,270.4,118.8z M271.3,124.1h1.6c1.3,0,2.3-0.6,2.3-2.2s-0.8-2.2-2.3-2.2h-1.6V124.1z"/>
	<path class="st0" d="M281.3,118.7c2.2,0,3.4,1.7,3.4,5.5s-1.2,5.5-3.4,5.5s-3.4-1.7-3.4-5.5S279.1,118.7,281.3,118.7z M281.3,128.9
		c1.5,0,2.5-1.3,2.5-4.7s-0.9-4.7-2.5-4.7s-2.5,1.3-2.5,4.7S279.8,128.9,281.3,128.9z"/>
	<path class="st0" d="M286.8,118.8h3.2c1.8,0,2.8,1,2.8,2.7c0,1.3-0.5,2.4-1.9,2.7l0,0c1.3,0.1,1.8,0.9,1.8,2.5v1.2
		c0,0.6,0.1,1.2,0.4,1.6H292c-0.2-0.4-0.3-0.9-0.3-1.5v-0.9c-0.1-1.9-0.4-2.5-2.1-2.5h-1.8v4.9h-1L286.8,118.8L286.8,118.8z
		 M287.8,123.9h1.6c1.5,0,2.4-0.7,2.4-2.1c0-1.3-0.6-2.1-2.3-2.1h-1.8L287.8,123.9L287.8,123.9z"/>
	<path class="st0" d="M296.8,119.7H294v-0.9h6.5v0.8h-2.8v9.9h-1L296.8,119.7L296.8,119.7z"/>
</g>
<g id="_Alvarez_Marsal_s_services_are_increasingly_on_a_global_scale" class="st1">
	<path class="st0" d="M395.4,16.4h1.5v6h-1.5V16.4z M399.1,16.4h1.5v6h-1.5V16.4z"/>
	<path class="st0" d="M408.4,16.4h2l5.3,17.8H414l-1.4-5.2h-6.2l-1.4,5.2h-1.7L408.4,16.4z M412.2,27.7l-2.7-10l0,0l-2.7,10H412.2z"
		/>
	<path class="st0" d="M417.8,16.4h1.6v16.5h7.4v1.3h-9V16.4z"/>
	<path class="st0" d="M426,16.4h1.7l4,16.1l0,0l4-16.1h1.7l-4.7,17.8h-2L426,16.4z"/>
	<path class="st0" d="M442.6,16.4h2l5.3,17.8h-1.7l-1.4-5.2h-6.2l-1.4,5.2h-1.7L442.6,16.4z M446.3,27.7l-2.7-10l0,0l-2.7,10H446.3z
		"/>
	<path class="st0" d="M452,16.4h5.3c3,0,4.6,1.7,4.6,4.5c0,2.1-0.9,4.1-3.2,4.5l0,0c2.2,0.2,3,1.5,3,4.2l0.1,1.9
		c0,1,0.1,1.9,0.7,2.6h-1.9c-0.4-0.6-0.5-1.5-0.5-2.5l-0.1-1.5c-0.1-3.1-0.7-4.1-3.5-4.1h-3v8.1H452V16.4z M453.6,24.8h2.8
		c2.5,0,4-1.1,4-3.5c0-2.2-0.9-3.5-3.8-3.5h-2.9v7H453.6z"/>
	<path class="st0" d="M465.2,16.4h8.8v1.4h-7.2v6.5h6.8v1.3h-6.8v7.3h7.5v1.3h-9.1L465.2,16.4L465.2,16.4z"/>
	<path class="st0" d="M476.2,32.8l8.7-15h-8.2v-1.3h9.8V18L478,33h8.7v1.3h-10.4v-1.5H476.2z"/>
	<path class="st0" d="M505,32.1c-1,1.5-2.5,2.5-4.7,2.5c-3.1,0-5-2.1-5-4.7c0-1.9,1-3.3,2.6-4.6l1.5-1.1c-1.3-1.7-2-3-2-4.4
		c0-2.1,1.7-3.3,3.6-3.3c2.1,0,3.4,1.3,3.4,3.3c0,1.4-0.6,2.8-3.1,4.6l3.8,5.4c0.5-1.1,0.6-2.3,0.7-3.4h1.5c0,1.5-0.4,3.2-1.2,4.6
		l2.3,3.3h-1.7L505,32.1z M500.1,25.1c-2.5,1.7-3.2,3.1-3.2,4.5c0,2.1,1.6,3.5,3.6,3.5c1.5,0,3-0.9,3.7-2.2L500.1,25.1z M500.4,23.3
		c2-1.5,2.4-2.6,2.4-3.6c0-1.1-0.9-2-2-2c-1.2,0-2,0.8-2,2C498.8,20.6,499.4,22,500.4,23.3z"/>
	<path class="st0" d="M517.2,16.4h2.8l4.3,15.8l0,0l4.3-15.8h2.6v17.8h-1.6V17.9l0,0L525,34.3h-1.5L518.9,18l0,0v16.3h-1.6V16.4
		H517.2z"/>
	<path class="st0" d="M538.8,16.4h2l5.3,17.8h-1.7L543,29h-6.2l-1.4,5.2h-1.7L538.8,16.4z M542.6,27.7l-2.7-10l0,0l-2.7,10H542.6z"
		/>
	<path class="st0" d="M548.2,16.4h5.3c3,0,4.6,1.7,4.6,4.5c0,2.1-0.9,4.1-3.2,4.5l0,0c2.2,0.2,3,1.5,3,4.2l0.1,1.9
		c0,1,0.1,1.9,0.7,2.6h-1.9c-0.4-0.6-0.5-1.5-0.5-2.5l-0.1-1.5c-0.1-3.1-0.7-4.1-3.5-4.1h-3v8.1h-1.6V16.4H548.2z M549.8,24.8h2.8
		c2.5,0,4-1.1,4-3.5c0-2.2-0.9-3.5-3.8-3.5h-2.9L549.8,24.8L549.8,24.8z"/>
	<path class="st0" d="M569.3,21c0-2.2-1-3.5-3.2-3.5s-3.4,1.4-3.4,3.2c0,5.3,8.6,2.4,8.6,8.7c0,3.4-2.1,5.2-5.4,5.2
		c-3.3,0-5.2-1.8-5.2-5.3v-0.5h1.6v0.7c0,2.3,1.2,3.8,3.5,3.8c2.2,0,3.8-1.1,3.8-3.6c0-5.3-8.6-2.3-8.6-8.7c0-2.8,1.8-4.7,4.9-4.7
		c3.3,0,4.8,1.7,4.8,4.9h-1.4L569.3,21L569.3,21z"/>
	<path class="st0" d="M578,16.4h2l5.3,17.8h-1.7l-1.4-5.2H576l-1.4,5.2h-1.7L578,16.4z M581.8,27.7l-2.7-10l0,0l-2.7,10H581.8z"/>
	<path class="st0" d="M587.4,16.4h1.6v16.5h7.4v1.3h-9V16.4z"/>
	<path class="st0" d="M599.7,16.4h1.5v6h-1.5V16.4z"/>
	<path class="st0" d="M613.4,21c0-2.2-1-3.5-3.2-3.5s-3.4,1.4-3.4,3.2c0,5.3,8.6,2.4,8.6,8.7c0,3.4-2.1,5.2-5.4,5.2
		c-3.3,0-5.2-1.8-5.2-5.3v-0.5h1.6v0.7c0,2.3,1.2,3.8,3.5,3.8c2.2,0,3.8-1.1,3.8-3.6c0-5.3-8.6-2.3-8.6-8.7c0-2.8,1.8-4.7,4.9-4.7
		c3.3,0,4.8,1.7,4.8,4.9h-1.4L613.4,21L613.4,21z"/>
	<path class="st0" d="M632.9,21c0-2.2-1-3.5-3.2-3.5s-3.4,1.4-3.4,3.2c0,5.3,8.6,2.4,8.6,8.7c0,3.4-2.1,5.2-5.4,5.2
		c-3.3,0-5.2-1.8-5.2-5.3v-0.5h1.6v0.7c0,2.3,1.2,3.8,3.5,3.8c2.2,0,3.8-1.1,3.8-3.6c0-5.3-8.6-2.3-8.6-8.7c0-2.8,1.8-4.7,4.9-4.7
		c3.3,0,4.8,1.7,4.8,4.9h-1.4L632.9,21L632.9,21z"/>
	<path class="st0" d="M637.8,16.4h8.8v1.4h-7.2v6.5h6.8v1.3h-6.8v7.3h7.5v1.3h-9.1V16.4z"/>
	<path class="st0" d="M649.7,16.4h5.3c3,0,4.6,1.7,4.6,4.5c0,2.1-0.9,4.1-3.2,4.5l0,0c2.2,0.2,3,1.5,3,4.2l0.1,1.9
		c0,1,0.1,1.9,0.7,2.6h-1.9c-0.4-0.6-0.5-1.5-0.5-2.5l-0.1-1.5c-0.1-3.1-0.7-4.1-3.5-4.1h-3v8.1h-1.6V16.4H649.7z M651.3,24.8h2.8
		c2.5,0,4-1.1,4-3.5c0-2.2-0.9-3.5-3.8-3.5h-2.9L651.3,24.8L651.3,24.8z"/>
	<path class="st0" d="M661.6,16.4h1.7l4,16.1l0,0l4-16.1h1.7l-4.7,17.8h-2L661.6,16.4z"/>
	<path class="st0" d="M675.3,16.4h1.6v17.8h-1.6V16.4z"/>
	<path class="st0" d="M691.4,28.2c-0.2,4.1-2.1,6.3-5.3,6.3c-3.6,0-5.7-2.8-5.7-9.2s2-9.2,5.7-9.2c3.6,0,5.1,2.6,5.1,5.5h-1.6
		c0-2.4-1.2-4.1-3.5-4.1c-2.5,0-4.1,2.1-4.1,7.9s1.5,7.9,4.1,7.9c2.2,0,3.5-1.9,3.7-5L691.4,28.2L691.4,28.2z"/>
	<path class="st0" d="M694.3,16.4h8.8v1.4h-7.2v6.5h6.8v1.3h-6.8v7.3h7.5v1.3h-9.1V16.4z"/>
	<path class="st0" d="M714,21c0-2.2-1-3.5-3.2-3.5s-3.4,1.4-3.4,3.2c0,5.3,8.6,2.4,8.6,8.7c0,3.4-2.1,5.2-5.4,5.2
		c-3.3,0-5.2-1.8-5.2-5.3v-0.5h1.6v0.7c0,2.3,1.2,3.8,3.5,3.8c2.2,0,3.8-1.1,3.8-3.6c0-5.3-8.6-2.3-8.6-8.7c0-2.8,1.8-4.7,4.9-4.7
		c3.3,0,4.8,1.7,4.8,4.9H714V21z"/>
	<path class="st0" d="M728.6,16.4h2l5.3,17.8h-1.7l-1.4-5.2h-6.2l-1.4,5.2h-1.7L728.6,16.4z M732.4,27.7l-2.7-10l0,0l-2.7,10H732.4z
		"/>
	<path class="st0" d="M738,16.4h5.3c3,0,4.6,1.7,4.6,4.5c0,2.1-0.9,4.1-3.2,4.5l0,0c2.2,0.2,3,1.5,3,4.2l0.1,1.9
		c0,1,0.1,1.9,0.7,2.6h-1.9c-0.4-0.6-0.5-1.5-0.5-2.5l-0.1-1.5c-0.1-3.1-0.7-4.1-3.5-4.1h-3v8.1H738V16.4z M739.6,24.8h2.8
		c2.5,0,4-1.1,4-3.5c0-2.2-0.9-3.5-3.8-3.5h-2.9L739.6,24.8L739.6,24.8z"/>
	<path class="st0" d="M751.2,16.4h8.8v1.4h-7.2v6.5h6.8v1.3h-6.8v7.3h7.5v1.3h-9.1V16.4z"/>
	<path class="st0" d="M769.9,16.4h1.6v17.8h-1.6V16.4z"/>
	<path class="st0" d="M775.2,16.4h2.1l6.8,15.5h0.1V16.4h1.6v17.8h-2.1l-6.8-15.5l0,0v15.5h-1.6L775.2,16.4L775.2,16.4z"/>
	<path class="st0" d="M800.2,28.2c-0.2,4.1-2.1,6.3-5.3,6.3c-3.6,0-5.7-2.8-5.7-9.2s2-9.2,5.7-9.2c3.6,0,5.1,2.6,5.1,5.5h-1.6
		c0-2.4-1.2-4.1-3.5-4.1c-2.5,0-4.1,2.1-4.1,7.9s1.5,7.9,4.1,7.9c2.2,0,3.5-1.9,3.7-5L800.2,28.2L800.2,28.2z"/>
	<path class="st0" d="M803.1,16.4h5.3c3,0,4.6,1.7,4.6,4.5c0,2.1-0.9,4.1-3.2,4.5l0,0c2.2,0.2,3,1.5,3,4.2l0.1,1.9
		c0,1,0.1,1.9,0.7,2.6h-1.9c-0.4-0.6-0.5-1.5-0.5-2.5l-0.1-1.5c-0.1-3.1-0.7-4.1-3.5-4.1h-3v8.1H803L803.1,16.4L803.1,16.4z
		 M804.7,24.8h2.8c2.5,0,4-1.1,4-3.5c0-2.2-0.9-3.5-3.8-3.5h-2.9L804.7,24.8L804.7,24.8z"/>
	<path class="st0" d="M816.3,16.4h8.8v1.4h-7.2v6.5h6.8v1.3h-6.8v7.3h7.5v1.3h-9.1V16.4z"/>
	<path class="st0" d="M832,16.4h2l5.3,17.8h-1.7l-1.4-5.2H830l-1.4,5.2h-1.7L832,16.4z M835.8,27.7l-2.7-10l0,0l-2.7,10H835.8z"/>
	<path class="st0" d="M849.3,21c0-2.2-1-3.5-3.2-3.5s-3.4,1.4-3.4,3.2c0,5.3,8.6,2.4,8.6,8.7c0,3.4-2.1,5.2-5.4,5.2
		c-3.3,0-5.2-1.8-5.2-5.3v-0.5h1.6v0.7c0,2.3,1.2,3.8,3.5,3.8c2.2,0,3.8-1.1,3.8-3.6c0-5.3-8.6-2.3-8.6-8.7c0-2.8,1.8-4.7,4.9-4.7
		c3.3,0,4.8,1.7,4.8,4.9h-1.4L849.3,21L849.3,21z"/>
	<path class="st0" d="M854.3,16.4h1.6v17.8h-1.6V16.4z"/>
	<path class="st0" d="M859.5,16.4h2.1l6.8,15.5h0.1V16.4h1.6v17.8H868l-6.8-15.5l0,0v15.5h-1.6V16.4H859.5z"/>
	<path class="st0" d="M878.8,26.5v-1.3h5.7v9.1h-1.2v-2.9l0,0c-0.5,2-2.1,3.2-3.9,3.2c-3.6,0-5.7-2.8-5.7-9.2s2-9.2,5.7-9.2
		c3.4,0,4.9,2.2,5.1,5.3h-1.6c0-2.1-1.2-3.9-3.5-3.9c-2.5,0-4.1,2.1-4.1,7.9s1.5,7.9,4.1,7.9c2.4,0,3.7-2.1,3.7-6.3v-0.4h-4.3V26.5z
		"/>
	<path class="st0" d="M887.9,16.4h1.6v16.5h7.4v1.3h-9V16.4z"/>
	<path class="st0" d="M900.3,27.1l-4.8-10.7h1.7l3.9,8.9l3.9-8.9h1.7l-4.8,10.7v7.1h-1.6L900.3,27.1L900.3,27.1z"/>
	<path class="st0" d="M921.1,16.1c3.6,0,5.7,2.8,5.7,9.2s-2,9.2-5.7,9.2s-5.7-2.8-5.7-9.2S917.5,16.1,921.1,16.1z M921.1,33.2
		c2.5,0,4.1-2.1,4.1-7.9s-1.5-7.9-4.1-7.9c-2.5,0-4.1,2.1-4.1,7.9S918.6,33.2,921.1,33.2z"/>
	<path class="st0" d="M930.2,16.4h2.1l6.8,15.5h0.1V16.4h1.6v17.8h-2.1l-6.8-15.5l0,0v15.5h-1.6L930.2,16.4L930.2,16.4z"/>
	<path class="st0" d="M954.1,16.4h2l5.3,17.8h-1.7l-1.4-5.2H952l-1.4,5.2h-1.7L954.1,16.4z M957.9,27.7l-2.7-10l0,0l-2.7,10H957.9z"
		/>
	<path class="st0" d="M400,61.5v-1.3h5.7v9.1h-1.2v-2.9l0,0c-0.5,2-2.1,3.2-3.9,3.2c-3.6,0-5.7-2.8-5.7-9.2s2-9.2,5.7-9.2
		c3.4,0,4.9,2.2,5.1,5.3h-1.6c0-2.1-1.2-3.9-3.5-3.9c-2.5,0-4.1,2.1-4.1,7.9s1.5,7.9,4.1,7.9c2.4,0,3.7-2.1,3.7-6.3v-0.4H400V61.5z"
		/>
	<path class="st0" d="M409.2,51.4h1.6v16.5h7.4v1.3h-9V51.4z"/>
	<path class="st0" d="M426.1,51.1c3.6,0,5.7,2.8,5.7,9.2s-2,9.2-5.7,9.2s-5.7-2.8-5.7-9.2S422.5,51.1,426.1,51.1z M426.1,68.2
		c2.5,0,4.1-2.1,4.1-7.9s-1.5-7.9-4.1-7.9s-4.1,2.1-4.1,7.9S423.6,68.2,426.1,68.2z"/>
	<path class="st0" d="M435.2,51.4h4.9c3.4,0,4.8,1.8,4.8,4.5c0,1.7-0.9,3.4-2.7,3.9l0,0c2.2,0.4,3.3,2.1,3.3,4.4c0,3.1-2,5-5.4,5
		h-4.9L435.2,51.4L435.2,51.4z M436.8,59.3h2.5c2.8,0,4-1.2,4-3.2c0-2.4-1.2-3.2-3.7-3.2h-2.8V59.3z M436.8,67.9h3
		c2.8,0,4.1-1.2,4.1-3.6s-1.3-3.6-4.1-3.6h-3V67.9z"/>
	<path class="st0" d="M452.3,51.4h2l5.3,17.8h-1.7l-1.4-5.2h-6.2l-1.4,5.2H447L452.3,51.4z M456.1,62.7l-2.7-10l0,0l-2.7,10H456.1z"
		/>
	<path class="st0" d="M461.7,51.4h1.6v16.5h7.4v1.3h-9V51.4z"/>
	<path class="st0" d="M487.7,56c0-2.2-1-3.5-3.2-3.5s-3.4,1.4-3.4,3.2c0,5.3,8.6,2.4,8.6,8.7c0,3.4-2.1,5.2-5.4,5.2
		s-5.2-1.8-5.2-5.3v-0.5h1.6v0.7c0,2.3,1.2,3.8,3.5,3.8c2.2,0,3.8-1.1,3.8-3.6c0-5.3-8.6-2.3-8.6-8.7c0-2.8,1.8-4.7,4.9-4.7
		c3.3,0,4.8,1.7,4.8,4.9h-1.4L487.7,56L487.7,56z"/>
	<path class="st0" d="M503.5,63.2c-0.2,4.1-2.1,6.3-5.3,6.3c-3.6,0-5.7-2.8-5.7-9.2s2-9.2,5.7-9.2c3.6,0,5.1,2.6,5.1,5.5h-1.6
		c0-2.4-1.2-4.1-3.5-4.1c-2.5,0-4.1,2.1-4.1,7.9s1.5,7.9,4.1,7.9c2.2,0,3.5-1.9,3.7-5h1.6L503.5,63.2L503.5,63.2z"/>
	<path class="st0" d="M510.2,51.4h2l5.3,17.8h-1.7l-1.4-5.2h-6.2l-1.4,5.2h-1.7L510.2,51.4z M514,62.7l-2.7-10l0,0l-2.7,10H514z"/>
	<path class="st0" d="M519.6,51.4h1.6v16.5h7.4v1.3h-9V51.4z"/>
	<path class="st0" d="M531,51.4h8.8v1.4h-7.2v6.5h6.8v1.3h-6.8v7.3h7.5v1.3H531V51.4z"/>
	<path class="st0" d="M547.5,51.4h1.6l3.1,15.7l0,0l3-15.7h1.8l3,15.7l0,0l3.1-15.7h1.6l-3.8,17.8h-2L556,53.5l0,0l-2.9,15.7h-2
		L547.5,51.4z"/>
	<path class="st0" d="M567.6,51.4h1.6v17.8h-1.6V51.4z"/>
	<path class="st0" d="M576.2,52.8h-4.6v-1.3h10.8v1.3h-4.6v16.5h-1.6L576.2,52.8L576.2,52.8z"/>
	<path class="st0" d="M593.2,60.4h-7v8.9h-1.6V51.4h1.6V59h7v-7.6h1.6v17.8h-1.6V60.4z"/>
	<path class="st0" d="M613.9,51.9v1.3h-6.5l-0.8,6.2l0,0c0.7-1.3,2.1-1.8,3.4-1.8c2.7,0,4.7,1.9,4.7,5.8c0,3.5-1.8,6.1-5.2,6.1
		c-2.7,0-4.7-1.7-4.7-4.8h1.6c0,2,1.2,3.6,3.3,3.6s3.5-1.7,3.5-5.1c0-2.4-1.1-4.3-3.4-4.3c-1.3,0-2.5,0.6-3,2h-1.5l1-9.1h7.6
		L613.9,51.9L613.9,51.9z"/>
	<path class="st0" d="M622.5,51.6c4,0,5,3.8,5,9s-1,9-5,9s-5-3.8-5-9S618.5,51.6,622.5,51.6z M622.5,68.3c2.4,0,3.4-2.1,3.4-7.7
		c0-5.7-1-7.7-3.4-7.7s-3.4,2.1-3.4,7.7C619.1,66.3,620.1,68.3,622.5,68.3z"/>
	<path class="st0" d="M642.9,51.1c3.6,0,5.7,2.8,5.7,9.2s-2,9.2-5.7,9.2s-5.7-2.8-5.7-9.2S639.3,51.1,642.9,51.1z M642.9,68.2
		c2.5,0,4.1-2.1,4.1-7.9s-1.5-7.9-4.1-7.9s-4.1,2.1-4.1,7.9S640.4,68.2,642.9,68.2z"/>
	<path class="st0" d="M652,51.4h8.8v1.4h-7.2v6.5h6.8v1.3h-6.8v8.6H652V51.4z"/>
	<path class="st0" d="M663.4,51.4h8.8v1.4H665v6.5h6.8v1.3H665v8.6h-1.6V51.4z"/>
	<path class="st0" d="M674.9,51.4h1.6v17.8h-1.6V51.4z"/>
	<path class="st0" d="M691,63.2c-0.2,4.1-2.1,6.3-5.3,6.3c-3.6,0-5.7-2.8-5.7-9.2s2-9.2,5.7-9.2c3.6,0,5.1,2.6,5.1,5.5h-1.6
		c0-2.4-1.2-4.1-3.5-4.1c-2.5,0-4.1,2.1-4.1,7.9s1.5,7.9,4.1,7.9c2.2,0,3.5-1.9,3.7-5h1.6V63.2z"/>
	<path class="st0" d="M693.9,51.4h8.8v1.4h-7.2v6.5h6.8v1.3h-6.8v7.3h7.5v1.3h-9.1V51.4z"/>
	<path class="st0" d="M713.6,56c0-2.2-1-3.5-3.2-3.5s-3.4,1.4-3.4,3.2c0,5.3,8.6,2.4,8.6,8.7c0,3.4-2.1,5.2-5.4,5.2
		c-3.3,0-5.2-1.8-5.2-5.3v-0.5h1.6v0.7c0,2.3,1.2,3.8,3.5,3.8c2.2,0,3.8-1.1,3.8-3.6c0-5.3-8.6-2.3-8.6-8.7c0-2.8,1.8-4.7,4.9-4.7
		c3.3,0,4.8,1.7,4.8,4.9h-1.4L713.6,56L713.6,56z"/>
	<path class="st0" d="M730.8,51.1c3.6,0,5.7,2.8,5.7,9.2s-2,9.2-5.7,9.2s-5.7-2.8-5.7-9.2S727.2,51.1,730.8,51.1z M730.8,68.2
		c2.5,0,4.1-2.1,4.1-7.9s-1.5-7.9-4.1-7.9s-4.1,2.1-4.1,7.9S728.3,68.2,730.8,68.2z"/>
	<path class="st0" d="M739.9,51.4h2.1l6.8,15.5h0.1V51.4h1.6v17.8h-2.1l-6.8-15.5l0,0v15.5H740L739.9,51.4L739.9,51.4z"/>
	<path class="st0" d="M765.2,51.4c-2,3.4-2.9,7.3-2.9,11.2s0.9,7.8,2.9,11.2h-1.1c-2.4-4-3.3-7.7-3.3-11.2c0-3.5,0.9-7.2,3.3-11.2
		H765.2z"/>
	<path class="st0" d="M771,51.4h2l5.3,17.8h-1.7l-1.4-5.2H769l-1.4,5.2h-1.7L771,51.4z M774.8,62.7l-2.7-10l0,0l-2.7,10H774.8z"/>
	<path class="st0" d="M780.4,51.4h1.6v16.5h7.4v1.3h-9V51.4z"/>
	<path class="st0" d="M791.9,51.4h2.8l4.3,15.8l0,0l4.3-15.8h2.6v17.8h-1.6V52.9h-0.1l-4.6,16.3h-1.5l-4.6-16.3l0,0v16.3h-1.6
		L791.9,51.4L791.9,51.4z"/>
	<path class="st0" d="M815.2,51.1c3.6,0,5.7,2.8,5.7,9.2s-2,9.2-5.7,9.2s-5.7-2.8-5.7-9.2S811.6,51.1,815.2,51.1z M815.2,68.2
		c2.5,0,4.1-2.1,4.1-7.9s-1.5-7.9-4.1-7.9s-4.1,2.1-4.1,7.9S812.7,68.2,815.2,68.2z"/>
	<path class="st0" d="M832.2,56c0-2.2-1-3.5-3.2-3.5s-3.4,1.4-3.4,3.2c0,5.3,8.6,2.4,8.6,8.7c0,3.4-2.1,5.2-5.4,5.2
		c-3.3,0-5.2-1.8-5.2-5.3v-0.5h1.6v0.7c0,2.3,1.2,3.8,3.5,3.8c2.2,0,3.8-1.1,3.8-3.6c0-5.3-8.6-2.3-8.6-8.7c0-2.8,1.8-4.7,4.9-4.7
		c3.3,0,4.8,1.7,4.8,4.9h-1.4L832.2,56L832.2,56z"/>
	<path class="st0" d="M840.4,52.8h-4.6v-1.3h10.8v1.3H842v16.5h-1.6V52.8z"/>
	<path class="st0" d="M847.3,73.9c2-3.4,2.9-7.3,2.9-11.2s-0.9-7.8-2.9-11.2h1.1c2.4,4,3.3,7.7,3.3,11.2c0,3.5-0.9,7.2-3.3,11.2
		H847.3z"/>
	<path class="st0" d="M864.9,51.4h2l5.3,17.8h-1.7l-1.4-5.2h-6.2l-1.4,5.2h-1.7L864.9,51.4z M868.7,62.7l-2.7-10l0,0l-2.7,10H868.7z
		"/>
	<path class="st0" d="M874.3,51.4h1.6v16.5h7.4v1.3h-9V51.4z"/>
	<path class="st0" d="M885.7,51.4h1.6v16.5h7.4v1.3h-9V51.4z"/>
	<path class="st0" d="M914.7,63.2c-0.2,4.1-2.1,6.3-5.3,6.3c-3.6,0-5.7-2.8-5.7-9.2s2-9.2,5.7-9.2c3.6,0,5.1,2.6,5.1,5.5h-1.6
		c0-2.4-1.2-4.1-3.5-4.1c-2.5,0-4.1,2.1-4.1,7.9s1.5,7.9,4.1,7.9c2.2,0,3.5-1.9,3.7-5h1.6V63.2z"/>
	<path class="st0" d="M923.1,51.1c3.6,0,5.7,2.8,5.7,9.2s-2,9.2-5.7,9.2s-5.7-2.8-5.7-9.2S919.5,51.1,923.1,51.1z M923.1,68.2
		c2.5,0,4.1-2.1,4.1-7.9s-1.5-7.9-4.1-7.9s-4.1,2.1-4.1,7.9S920.6,68.2,923.1,68.2z"/>
	<path class="st0" d="M932.2,51.4h2.1l6.8,15.5h0.1V51.4h1.6v17.8h-2.1l-6.8-15.5l0,0v15.5h-1.6L932.2,51.4L932.2,51.4z"/>
	<path class="st0" d="M949.8,52.8h-4.6v-1.3H956v1.3h-4.6v16.5h-1.6L949.8,52.8L949.8,52.8z"/>
	<path class="st0" d="M958.4,51.4h1.6v17.8h-1.6V51.4z"/>
	<path class="st0" d="M963.6,51.4h2.1l6.8,15.5h0.1V51.4h1.6v17.8h-2.1l-6.8-15.5l0,0v15.5h-1.6L963.6,51.4L963.6,51.4z"/>
	<path class="st0" d="M977.8,51.4h8.8v1.4h-7.2v6.5h6.8v1.3h-6.8v7.3h7.5v1.3h-9.1V51.4z"/>
	<path class="st0" d="M989.6,51.4h2.1l6.8,15.5h0.1V51.4h1.6v17.8h-2.1l-6.8-15.5l0,0v15.5h-1.6L989.6,51.4L989.6,51.4z"/>
	<path class="st0" d="M1007.2,52.8h-4.6v-1.3h10.8v1.3h-4.6v16.5h-1.6L1007.2,52.8L1007.2,52.8z"/>
	<path class="st0" d="M1023.5,56c0-2.2-1-3.5-3.2-3.5s-3.4,1.4-3.4,3.2c0,5.3,8.6,2.4,8.6,8.7c0,3.4-2.1,5.2-5.4,5.2
		c-3.3,0-5.2-1.8-5.2-5.3v-0.5h1.6v0.7c0,2.3,1.2,3.8,3.5,3.8c2.2,0,3.8-1.1,3.8-3.6c0-5.3-8.6-2.3-8.6-8.7c0-2.8,1.8-4.7,4.9-4.7
		c3.3,0,4.8,1.7,4.8,4.9h-1.4V56z"/>
	<path class="st0" d="M398.8,86.4h2l5.3,17.8h-1.7L403,99h-6.2l-1.4,5.2h-1.7L398.8,86.4z M402.6,97.7l-2.7-10l0,0l-2.7,10H402.6z"
		/>
	<path class="st0" d="M408.2,86.4h2.1l6.8,15.5h0.1V86.4h1.6v17.8h-2.1l-6.8-15.5l0,0v15.5h-1.6V86.4H408.2z"/>
	<path class="st0" d="M422.4,86.4h4.3c5.2,0,6.5,3.1,6.5,8.9s-1.3,8.9-6.5,8.9h-4.3V86.4z M424,102.9h2.6c3.5,0,5-1.7,5-7.5
		s-1.5-7.6-5-7.6H424V102.9z"/>
	<path class="st0" d="M443.3,86.4h1.6v9.4l0,0l6.8-9.3h1.7l-5.4,7.4l6,10.4h-1.7l-5.3-9l-2.1,2.8v6.2h-1.6V86.4z"/>
	<path class="st0" d="M456.1,86.4h8.8v1.4h-7.2v6.5h6.8v1.3h-6.8v7.3h7.5v1.3h-9.1L456.1,86.4L456.1,86.4z"/>
	<path class="st0" d="M471.3,97.1l-4.8-10.7h1.7l3.9,8.9l3.9-8.9h1.7l-4.8,10.7v7.1h-1.6L471.3,97.1L471.3,97.1z"/>
	<path class="st0" d="M495.1,95.4h-7v8.9h-1.6V86.4h1.6V94h7v-7.6h1.6v17.8h-1.6V95.4z"/>
	<path class="st0" d="M500,86.4h1.6v12.8c0,2.7,1.2,4,3.5,4s3.5-1.3,3.5-4V86.4h1.6v12.8c0,3.8-1.8,5.3-5.1,5.3
		c-3.3,0-5.1-1.5-5.1-5.3V86.4z"/>
	<path class="st0" d="M513.5,86.4h4.9c3.4,0,4.8,1.8,4.8,4.5c0,1.7-0.9,3.4-2.7,3.9l0,0c2.2,0.4,3.3,2.1,3.3,4.4c0,3.1-2,5-5.4,5
		h-4.9L513.5,86.4L513.5,86.4z M515.1,94.3h2.5c2.8,0,4-1.2,4-3.2c0-2.4-1.2-3.2-3.7-3.2h-2.8V94.3z M515.1,102.9h3
		c2.8,0,4.1-1.2,4.1-3.6s-1.3-3.6-4.1-3.6h-3V102.9z"/>
	<path class="st0" d="M534.6,91c0-2.2-1-3.5-3.2-3.5s-3.4,1.4-3.4,3.2c0,5.3,8.6,2.4,8.6,8.7c0,3.4-2.1,5.2-5.4,5.2
		c-3.3,0-5.2-1.8-5.2-5.3v-0.5h1.6v0.7c0,2.3,1.2,3.8,3.5,3.8c2.2,0,3.8-1.1,3.8-3.6c0-5.3-8.6-2.3-8.6-8.7c0-2.8,1.8-4.7,4.9-4.7
		c3.3,0,4.8,1.7,4.8,4.9h-1.4L534.6,91L534.6,91z"/>
	<path class="st0" d="M546.4,86.4h1.6v17.8h-1.6V86.4z"/>
	<path class="st0" d="M551.6,86.4h2.1l6.8,15.5h0.1V86.4h1.6v17.8h-2.1l-6.8-15.5l0,0v15.5h-1.6L551.6,86.4L551.6,86.4z"/>
	<path class="st0" d="M572.5,86.4h2.1l6.8,15.5h0.1V86.4h1.6v17.8H581l-6.8-15.5l0,0v15.5h-1.6V86.4H572.5z"/>
	<path class="st0" d="M586.7,86.4h8.8v1.4h-7.2v6.5h6.8v1.3h-6.8v7.3h7.5v1.3h-9.1V86.4z"/>
	<path class="st0" d="M597.4,86.4h1.6l3.1,15.7l0,0l3-15.7h1.8l3,15.7l0,0l3.1-15.7h1.6l-3.8,17.8h-2l-2.9-15.7l0,0l-2.9,15.7h-2
		L597.4,86.4z"/>
	<path class="st0" d="M626.5,97.1l-4.8-10.7h1.7l3.9,8.9l3.9-8.9h1.7l-4.8,10.7v7.1h-1.6L626.5,97.1L626.5,97.1z"/>
	<path class="st0" d="M640.6,86.1c3.6,0,5.7,2.8,5.7,9.2s-2,9.2-5.7,9.2s-5.7-2.8-5.7-9.2S636.9,86.1,640.6,86.1z M640.6,103.2
		c2.5,0,4.1-2.1,4.1-7.9s-1.5-7.9-4.1-7.9s-4.1,2.1-4.1,7.9S638,103.2,640.6,103.2z"/>
	<path class="st0" d="M649.7,86.4h5.3c3,0,4.6,1.7,4.6,4.5c0,2.1-0.9,4.1-3.2,4.5l0,0c2.2,0.2,3,1.5,3,4.2l0.1,1.9
		c0,1,0.1,1.9,0.7,2.6h-1.9c-0.4-0.6-0.5-1.5-0.5-2.5l-0.1-1.5c-0.1-3.1-0.7-4.1-3.5-4.1h-3v8.1h-1.6V86.4H649.7z M651.3,94.8h2.8
		c2.5,0,4-1.2,4-3.5c0-2.2-0.9-3.5-3.8-3.5h-2.9L651.3,94.8L651.3,94.8z"/>
	<path class="st0" d="M662.9,86.4h1.6v9.4l0,0l6.8-9.3h1.7l-5.4,7.4l6,10.4H672l-5.3-9l-2.1,2.8v6.2H663L662.9,86.4L662.9,86.4z"/>
	<path class="st0" d="M676.4,101.7h1.7v2.5c0,1.5-0.3,2.9-1.8,3.4v-1c0.6-0.4,0.8-1.1,0.9-2.4h-0.7v-2.5H676.4z"/>
	<path class="st0" d="M688.3,86.4h1.6v16.5h7.4v1.3h-9V86.4z"/>
	<path class="st0" d="M705.2,86.1c3.6,0,5.7,2.8,5.7,9.2s-2,9.2-5.7,9.2s-5.7-2.8-5.7-9.2S701.6,86.1,705.2,86.1z M705.2,103.2
		c2.5,0,4.1-2.1,4.1-7.9s-1.5-7.9-4.1-7.9s-4.1,2.1-4.1,7.9S702.7,103.2,705.2,103.2z"/>
	<path class="st0" d="M714.3,86.4h2.1l6.8,15.5h0.1V86.4h1.6v17.8h-2.1L716,88.7l0,0v15.5h-1.6V86.4H714.3z"/>
	<path class="st0" d="M728.5,86.4h4.3c5.2,0,6.5,3.1,6.5,8.9s-1.3,8.9-6.5,8.9h-4.3V86.4z M730.1,102.9h2.6c3.5,0,5-1.7,5-7.5
		s-1.5-7.6-5-7.6h-2.6V102.9z"/>
	<path class="st0" d="M748.2,86.1c3.6,0,5.7,2.8,5.7,9.2s-2,9.2-5.7,9.2s-5.7-2.8-5.7-9.2S744.6,86.1,748.2,86.1z M748.2,103.2
		c2.5,0,4.1-2.1,4.1-7.9s-1.5-7.9-4.1-7.9s-4.1,2.1-4.1,7.9S745.7,103.2,748.2,103.2z"/>
	<path class="st0" d="M757.3,86.4h2.1l6.8,15.5h0.1V86.4h1.6v17.8h-2.1L759,88.7l0,0v15.5h-1.6V86.4H757.3z"/>
	<path class="st0" d="M772.2,101.7h1.7v2.5c0,1.5-0.3,2.9-1.8,3.4v-1c0.7-0.4,0.9-1.1,0.9-2.4h-0.7v-2.5H772.2z"/>
	<path class="st0" d="M792.6,95.4h-7v8.9H784V86.4h1.6V94h7v-7.6h1.6v17.8h-1.6V95.4z"/>
	<path class="st0" d="M803.3,86.1c3.6,0,5.7,2.8,5.7,9.2s-2,9.2-5.7,9.2s-5.7-2.8-5.7-9.2S799.7,86.1,803.3,86.1z M803.3,103.2
		c2.5,0,4.1-2.1,4.1-7.9s-1.5-7.9-4.1-7.9s-4.1,2.1-4.1,7.9S800.8,103.2,803.3,103.2z"/>
	<path class="st0" d="M812.4,86.4h2.1l6.8,15.5h0.1V86.4h1.6v17.8h-2.1l-6.8-15.5l0,0v15.5h-1.6L812.4,86.4L812.4,86.4z"/>
	<path class="st0" d="M831.7,96.5v-1.3h5.7v9.1h-1.2v-2.9l0,0c-0.5,2-2.1,3.2-3.9,3.2c-3.6,0-5.7-2.8-5.7-9.2s2-9.2,5.7-9.2
		c3.4,0,4.9,2.2,5.1,5.3h-1.6c0-2.1-1.2-3.9-3.5-3.9c-2.5,0-4.1,2.1-4.1,7.9s1.5,7.9,4.1,7.9c2.4,0,3.7-2.1,3.7-6.3v-0.4h-4.3V96.5z
		"/>
	<path class="st0" d="M847.5,86.4h1.6v9.4l0,0l6.8-9.3h1.7l-5.4,7.4l6,10.4h-1.7l-5.3-9l-2.1,2.8v6.2h-1.6V86.4z"/>
	<path class="st0" d="M865.8,86.1c3.6,0,5.7,2.8,5.7,9.2s-2,9.2-5.7,9.2s-5.7-2.8-5.7-9.2S862.2,86.1,865.8,86.1z M865.8,103.2
		c2.5,0,4.1-2.1,4.1-7.9s-1.5-7.9-4.1-7.9s-4.1,2.1-4.1,7.9S863.3,103.2,865.8,103.2z"/>
	<path class="st0" d="M874.9,86.4h2.1l6.8,15.5h0.1V86.4h1.6v17.8h-2.1l-6.8-15.5l0,0v15.5H875L874.9,86.4L874.9,86.4z"/>
	<path class="st0" d="M894.2,96.5v-1.3h5.7v9.1h-1.2v-2.9l0,0c-0.5,2-2.1,3.2-3.9,3.2c-3.6,0-5.7-2.8-5.7-9.2s2-9.2,5.7-9.2
		c3.4,0,4.9,2.2,5.1,5.3h-1.6c0-2.1-1.2-3.9-3.5-3.9c-2.5,0-4.1,2.1-4.1,7.9s1.5,7.9,4.1,7.9c2.4,0,3.7-2.1,3.7-6.3v-0.4h-4.3V96.5z
		"/>
	<path class="st0" d="M904,101.7h1.7v2.5H904V101.7z"/>
	<path class="st0" d="M910.6,86.4h1.7v2.5c0,1.5-0.3,2.9-1.8,3.4v-1c0.7-0.4,0.9-1.1,0.9-2.4h-0.7v-2.5H910.6z M913.9,86.4h1.7v2.5
		c0,1.5-0.3,2.9-1.8,3.4v-1c0.6-0.4,0.8-1.1,0.9-2.4H914L913.9,86.4L913.9,86.4z"/>
</g>
<g id="MIddle_Rule">
	<rect x="349.2" y="-0.2" class="st0" width="2" height="171"/>
</g>
<g>
	<g>
		<g>
			<path class="st0" d="M407.5,141.2h1.6v10.5h6.3v1.3h-7.9V141.2z"/>
		</g>
	</g>
	<g>
		<g>
			<path class="st0" d="M418.3,141.2h8.2v1.3h-6.6v3.8h6.2v1.3h-6.2v4.1h6.7v1.3h-8.2v-11.8L418.3,141.2L418.3,141.2z"/>
		</g>
	</g>
	<g>
		<g>
			<path class="st0" d="M433.7,141.2h1.7l4.6,11.9h-1.7l-1.3-3.6h-5l-1.3,3.6h-1.6L433.7,141.2z M432.5,148.1h4l-2-5.5l0,0
				L432.5,148.1z"/>
		</g>
	</g>
	<g>
		<g>
			<path class="st0" d="M442.9,141.2h5.6c2.2,0,3.6,1.2,3.6,3.1c0,1.4-0.6,2.6-2.1,3l0,0c1.4,0.3,1.7,1.3,1.8,2.4
				c0.1,1.2,0,2.5,0.7,3.3h-1.8c-0.4-0.5-0.2-1.8-0.4-2.9c-0.2-1.2-0.4-2.1-2-2.1h-3.9v5.1h-1.6L442.9,141.2L442.9,141.2z
				 M447.8,146.6c1.5,0,2.7-0.4,2.7-2.1c0-1.2-0.6-2-2.1-2h-3.9v4.1H447.8z"/>
		</g>
	</g>
	<g>
		<g>
			<path class="st0" d="M456,141.2h1.7l6.3,9.6l0,0v-9.6h1.5v11.9h-1.7l-6.2-9.5l0,0v9.5h-1.5L456,141.2L456,141.2z"/>
		</g>
	</g>
	<g>
		<g>
			<path class="st0" d="M476,141.2h2.2l3.7,10l3.8-10h2.2v11.9h-1.5v-9.9l0,0l-3.7,9.9h-1.5l-3.7-9.9l0,0v9.9H476V141.2z"/>
		</g>
	</g>
	<g>
		<g>
			<path class="st0" d="M497.1,140.9c3.8,0,5.7,3,5.7,6.2s-1.9,6.2-5.7,6.2c-3.8,0-5.7-3-5.7-6.2S493.3,140.9,497.1,140.9z
				 M497.1,152c2.9,0,4.1-2.5,4.1-4.9s-1.2-4.9-4.1-4.9s-4.1,2.5-4.1,4.9S494.2,152,497.1,152z"/>
		</g>
	</g>
	<g>
		<g>
			<path class="st0" d="M506.3,141.2h5.6c2.2,0,3.6,1.2,3.6,3.1c0,1.4-0.6,2.6-2.1,3l0,0c1.4,0.3,1.7,1.3,1.8,2.4
				c0.1,1.2,0,2.5,0.7,3.3h-1.7c-0.4-0.5-0.2-1.8-0.4-2.9c-0.2-1.2-0.4-2.1-2-2.1h-3.9v5.1h-1.6V141.2L506.3,141.2z M511.2,146.6
				c1.5,0,2.7-0.4,2.7-2.1c0-1.2-0.6-2-2.1-2h-3.9v4.1H511.2z"/>
		</g>
	</g>
	<g>
		<g>
			<path class="st0" d="M519.4,141.2h8.2v1.3H521v3.8h6.2v1.3H521v4.1h6.7v1.3h-8.2L519.4,141.2L519.4,141.2L519.4,141.2z"/>
		</g>
	</g>
</g>
<g>
	<g>
		<path class="st0" d="M540,162.2H395.1v-31.7H540V162.2z M396.4,161h142.4v-29.3H396.4V161z"/>
	</g>
</g>
<rect x="116.7" y="44.1" class="st0" width="3.1" height="27.8"/>
<path class="st0" d="M139.2,71.8V59.7c0-4.5-1.6-6.5-4.9-6.5c-2.9,0-5.2,1.9-5.2,6.5v12.2h-3V51h3v2.5c1.2-1.7,3.1-3,5.8-3
	c4.4,0,7.3,2.6,7.3,8.6v12.7C142.2,71.8,139.2,71.8,139.2,71.8z"/>
<path class="st0" d="M151.5,53.5v13.6c0,1.9,0.5,2.5,2.1,2.5c1.2,0,2-0.2,2.9-0.6l-0.2,2.6c-1.2,0.5-2.3,0.7-3.9,0.7
	c-2.6,0-4-1.3-4-4.7v-14h-2.6V51h2.6v-6.4l3-1.7V51h5.2v2.5H151.5z"/>
<path class="st0" d="M168.3,53.2c-3.1,0-5.2,2.2-5.6,6.9h11.2C173.7,56,172,53.2,168.3,53.2 M176.6,62.4h-13.9
	c0.3,4.4,2.4,7.3,5.8,7.3c2.4,0,3.8-0.7,5.8-2l1.4,2.1c-2.5,1.6-4.3,2.4-7.5,2.4c-3.8,0-8.5-2.8-8.5-11c0-6.6,3.7-10.8,8.6-10.8
	c5.4,0,8.4,4.3,8.4,10.2C176.7,61.5,176.7,62,176.6,62.4"/>
<polygon class="st0" points="181.7,71.8 181.7,44.6 184.7,42.9 184.7,71.8 "/>
<polygon class="st0" points="190.9,71.8 190.9,44.6 193.8,42.9 193.8,71.8 "/>
<path class="st0" d="M200,51h3v20.8h-3V51z M201.6,47.3c-1.2,0-2.2-1-2.2-2.1c0-1.2,1-2.1,2.2-2.1c1.1,0,2.1,1,2.1,2.1
	C203.6,46.3,202.7,47.3,201.6,47.3"/>
<path class="st0" d="M221.6,56.3c-1.2-1.7-3.2-3.1-5.6-3.1c-3.5,0-5.2,3-5.2,8.6c0,5.2,2,8,5.3,8c2.2,0,4-1.2,5.5-3V56.3z M214,79.5
	l-1-2.3c6.9-0.2,8.5-2,8.5-6.9v-1.1c-1.5,1.6-3.5,3-6.3,3c-4.2,0-7.5-3.2-7.5-10.5c0-7.4,3.5-11.2,7.9-11.2c2.6,0,4.4,1.1,5.9,2.8
	V51h3v19C224.6,76.3,221.8,79.3,214,79.5"/>
<path class="st0" d="M237.9,53.2c-3.1,0-5.2,2.2-5.6,6.9h11.2C243.2,56,241.5,53.2,237.9,53.2 M246.1,62.4h-13.9
	c0.3,4.4,2.4,7.3,5.8,7.3c2.4,0,3.9-0.7,5.8-2l1.4,2.1c-2.5,1.6-4.3,2.4-7.5,2.4c-3.8,0-8.5-2.8-8.5-11c0-6.6,3.7-10.8,8.6-10.8
	c5.4,0,8.4,4.3,8.4,10.2C246.3,61.5,246.2,62,246.1,62.4"/>
<path class="st0" d="M264.1,71.8V59.7c0-4.5-1.6-6.5-4.9-6.5c-2.9,0-5.2,1.9-5.2,6.5v12.2h-3V51h3v2.5c1.2-1.7,3.1-3,5.8-3
	c4.4,0,7.3,2.6,7.3,8.6v12.7C267.1,71.8,264.1,71.8,264.1,71.8z"/>
<path class="st0" d="M284.6,55.3c-1.5-1.4-2.9-2.1-5-2.1c-3.3,0-5.8,2.9-5.8,8.1c0,5.1,2.2,8.4,5.9,8.4c2,0,3.4-0.8,4.8-2.2l1.8,1.9
	c-1.7,1.8-3.8,2.9-6.7,2.9c-4.6,0-8.8-3.5-8.8-10.8c0-7.7,4.6-11,9-11c2.8,0,5,1,6.6,2.5L284.6,55.3z"/>
<path class="st0" d="M297.6,53.2c-3.1,0-5.2,2.2-5.6,6.9h11.2C303,56,301.2,53.2,297.6,53.2 M305.9,62.4H292
	c0.3,4.4,2.4,7.3,5.8,7.3c2.4,0,3.9-0.7,5.8-2l1.4,2.1c-2.5,1.6-4.3,2.4-7.5,2.4c-3.8,0-8.5-2.8-8.5-11c0-6.6,3.7-10.8,8.6-10.8
	c5.4,0,8.4,4.3,8.4,10.2C306,61.5,306,62,305.9,62.4"/>
<path class="st0" d="M14.9,60.7l6.2-11.3l6,11.3H14.9z M22.5,44.1c-2.9,0.1-5.1,1.8-6.2,3.5L2.5,71.8H9l3.2-6.1h17.6l3.3,6.1h7.3
	l-16-27.7H22.5z"/>
<path class="st0" d="M99.1,44.1c-3,0.1-4.6,1.7-6.2,3.6l-10,13.2L69.7,44.1c-3.1,0.1-5.2,1.8-5.2,4.3v13.9l0,0v2.9l5.2,5.2V54.7
	c0-0.9-0.1-1.8-0.2-3c0.4,1.1,1,2,1.7,2.9l10.4,13.9H83l10.4-13.9c0.5-0.6,1-1.7,1.6-2.9c-0.2,1.4-0.2,2.4-0.2,3v17.2h6V44.1H99.1z"
	/>
<path class="st0" d="M62.7,66.6L62.7,66.6H45V44.1h-0.2c-3.2,0.1-6.2,2.1-6.3,4.8v15.4l4.3,7.6h25.4L63,66.7L62.7,66.6L62.7,66.6z"
	/>
</svg>
