<?xml version="1.0" encoding="utf-8"?>
<!-- Generator: Adobe Illustrator 21.0.2, SVG Export Plug-In . SVG Version: 6.00 Build 0)  -->
<svg version="1.1" id="Layer_1" xmlns="http://www.w3.org/2000/svg" xmlns:xlink="http://www.w3.org/1999/xlink" x="0px" y="0px"
	 viewBox="0 0 532.8 347.5" style="enable-background:new 0 0 532.8 347.5;" xml:space="preserve">
<style type="text/css">
	.st0{fill:#3398CB;}
	.st1{fill:#003366;}
	.st2{fill:#FFFFFF;}
	.st3{fill:none;}
</style>
<title>Untitled-1</title>
<g>
	<path class="st0" d="M46,129.6V54.1h34.7v11.3H59v19.4h16.7v11.3H59v22.2h23.2v11.3C82.2,129.6,46,129.6,46,129.6z"/>
	<path class="st0" d="M113.8,54.1h12.8l-15.8,75.5h-13L82,54.1h12.8l9.4,52.4h0.2L113.8,54.1z"/>
	<path class="st0" d="M128.6,129.6V54.1h34.7v11.3h-21.8v19.4h16.7v11.3h-16.7v22.2h23.2v11.3C164.7,129.6,128.6,129.6,128.6,129.6z
		"/>
	<path class="st0" d="M182.9,129.6h-13V54.1h18.2c14.5,0,22,6.2,22,22.3c0,12.1-4.7,17-9.1,19l11,34.2h-13.2l-9.2-31.3
		c-2.2,0.2-4.5,0.3-6.7,0.3V129.6z M182.9,88h4.6c7,0,9.6-2.6,9.6-11.6s-2.6-11.6-9.6-11.6h-4.6V88z"/>
	<path class="st0" d="M238.6,129.6h-13V98.3L210,54.1h13.2l9.1,28.8h0.2l8.7-28.8h13.2l-15.7,44.1L238.6,129.6L238.6,129.6z"/>
	<path class="st0" d="M274.6,54.1h19.3c13.4,0,20.5,7.3,20.5,22.8v29.9c0,15.5-7.1,22.8-20.5,22.8h-19.3V54.1z M287.6,119h4.5
		c6.9,0,9.3-2.6,9.3-10.6v-33c0-8-2.4-10.6-9.3-10.6h-4.5V119z"/>
	<path class="st0" d="M329.3,129.6h-12.6l13.9-75.5h16.1l13.9,75.5H348l-2.3-16.7h-14.2L329.3,129.6z M333.5,101.6h10.4l-5.1-32.4
		h-0.2L333.5,101.6z"/>
	<path class="st0" d="M380.8,129.6h-13V98.3l-15.6-44.1h13.2l9.1,28.8h0.2l8.7-28.8h13.2l-15.7,44.1v31.3H380.8z"/>
	<path class="st0" d="M392.1,129.6v-12.3h12.3v12.3H392.1z"/>
	<path class="st1" d="M46,209.6v-75.5h34.7v11.3H59v19.4h16.7v11.3H59v22.2h23.2v11.3H46z"/>
	<path class="st1" d="M113.8,134.1h12.8l-15.8,75.5h-13L82,134.1h12.8l9.4,52.4h0.2L113.8,134.1z"/>
	<path class="st1" d="M128.6,209.6v-75.5h34.7v11.3h-21.8v19.4h16.7v11.3h-16.7v22.2h23.2v11.3H128.6z"/>
	<path class="st1" d="M182.9,209.6h-13v-75.5h18.2c14.5,0,22,6.2,22,22.3c0,12.1-4.7,17-9.1,19l11,34.2h-13.2l-9.2-31.3
		c-2.2,0.2-4.5,0.3-6.7,0.3V209.6z M182.9,168h4.6c7,0,9.6-2.6,9.6-11.6s-2.6-11.6-9.6-11.6h-4.6V168z"/>
	<path class="st1" d="M238.6,209.6h-13v-31.4l-15.7-44.1h13.2l9.1,28.8h0.2l8.7-28.8h13.2l-15.7,44.1V209.6z"/>
	<path class="st1" d="M274.6,134.1h19.3c13.4,0,20.5,7.3,20.5,22.8v29.9c0,15.5-7.1,22.8-20.5,22.8h-19.3V134.1z M287.6,198.9h4.5
		c6.9,0,9.3-2.6,9.3-10.6v-33c0-7.9-2.4-10.6-9.3-10.6h-4.5V198.9z"/>
	<path class="st1" d="M321.8,209.6v-75.5h34.7v11.3h-21.8v19.4h16.7v11.3h-16.7v22.2H358v11.3H321.8z"/>
	<path class="st1" d="M370.6,209.6h-12.5l13.9-75.5h16.1l13.9,75.5h-12.6l-2.3-16.7h-14.2L370.6,209.6z M374.8,181.6h10.5l-5.1-32.4
		H380L374.8,181.6z"/>
	<path class="st1" d="M403.8,209.6v-75.5h13v64.2h20.4v11.3H403.8z"/>
	<path class="st1" d="M439.1,209.6v-12.3h12.3v12.3H439.1z"/>
	<path class="st2" d="M46,290.5V215h34.7v11.3H59v19.4h16.7V257H59v22.2h23.2v11.3H46z"/>
	<path class="st2" d="M113.8,215h12.8l-15.8,75.5h-13L82,215h12.8l9.4,52.4h0.2L113.8,215z"/>
	<path class="st2" d="M128.6,290.5V215h34.7v11.3h-21.8v19.4h16.7V257h-16.7v22.2h23.2v11.3H128.6z"/>
	<path class="st2" d="M182.9,290.5h-13V215h18.2c14.5,0,22,6.2,22,22.3c0,12.1-4.7,17-9.1,19l11,34.2h-13.2l-9.2-31.3
		c-2.2,0.2-4.5,0.3-6.7,0.3V290.5z M182.9,248.9h4.6c7,0,9.6-2.6,9.6-11.6s-2.6-11.6-9.6-11.6h-4.6V248.9z"/>
	<path class="st2" d="M238.6,290.5h-13v-31.4L209.9,215h13.2l9.1,28.8h0.2l8.7-28.8h13.2l-15.7,44.1L238.6,290.5z"/>
	<path class="st2" d="M298.2,233.6c-0.5-6.5-4-8.4-6.9-8.4c-4.2,0-6.5,2.7-6.5,7.4c0,12.9,26.4,19,26.4,39.5
		c0,12.5-8.4,19.4-20.5,19.4s-18.9-9.6-19.5-20.9l12.3-1.8c0.5,7.6,3.6,11.4,7.7,11.4c4.5,0,7.5-2.4,7.5-6.9
		c0-15-26.4-18.9-26.4-40.6c0-12,7.3-18.8,20.1-18.8c10.6,0,16.8,7.6,18,18.3L298.2,233.6z"/>
	<path class="st2" d="M323.5,226.3H311V215h38v11.3h-12.6v64.2h-13L323.5,226.3z"/>
	<path class="st2" d="M357.1,290.5h-12.5l13.9-75.5h16.1l13.9,75.5h-12.6l-2.3-16.7h-14.2L357.1,290.5z M361.3,262.5h10.5l-5.1-32.4
		h-0.2L361.3,262.5z"/>
	<path class="st2" d="M408.8,252.3H430v38.2h-6.3l-2.4-5.6c-3.9,4.6-7,6.7-13.1,6.7c-10.2,0-17.4-7.3-17.4-19.4v-38.9
		c0-10.7,6.3-19.4,19-19.4c13,0,19.5,9.4,19.5,20.7v4.8H417c0-11.3-2.3-14.2-7.4-14.2c-3.1,0-5.8,1.9-5.8,8.3v38.8
		c0,4.8,1.6,8,6.1,8c5.2,0,7.1-2.9,7.1-10.5v-7.3h-8.3L408.8,252.3z"/>
	<path class="st2" d="M438,290.5V215h34.7v11.3h-21.8v19.4h16.7V257h-16.7v22.2h23.2v11.3H438z"/>
	<path class="st2" d="M478.5,290.5v-12.3h12.3v12.3H478.5z"/>
</g>
<polygon class="st3" points="532.8,0 532.8,347.5 0,347.5 0,347.5 532.8,347.5 "/>
</svg>
