<svg xmlns="http://www.w3.org/2000/svg" xmlns:xlink="http://www.w3.org/1999/xlink" width="121.032" height="107" viewBox="0 0 121.032 107"><defs><clipPath id="a"><rect width="121.032" height="107" fill="none"/></clipPath></defs><g transform="translate(0 0)"><path d="M106.206,50.7l3.1,7.121h-6.326Zm-1.5-2.394-7.6,16.136h2.879l2.205-4.872h7.879l2.115,4.872h2.99L107.87,48.306Z" transform="translate(5.237 2.594)" fill="#002b49"/><g transform="translate(0 0)"><g clip-path="url(#a)"><path d="M100.691,72.012a3.467,3.467,0,0,1-.453-1.625,3.328,3.328,0,0,1,1.383-2.721A5.784,5.784,0,0,1,105.3,66.59a5.28,5.28,0,0,1,3.427,1,3.022,3.022,0,0,1,1.225,2.4,3.854,3.854,0,0,1-1.269,2.849,12.362,12.362,0,0,1-2.489,1.648l3.841,3.659c.233-.616.4-1.073.489-1.37a9.754,9.754,0,0,0,.286-1.281h2.515a10.393,10.393,0,0,1-.973,3.118c-.484.983-.726,1.388-.726,1.187l3.684,3.586h-3.275l-1.98-1.876a9.956,9.956,0,0,1-2.146,1.461,8.994,8.994,0,0,1-3.927.81q-3.278,0-4.775-1.4a4.33,4.33,0,0,1-1.492-3.173,4.051,4.051,0,0,1,1.454-3.186,16.682,16.682,0,0,1,3.31-1.942,9.076,9.076,0,0,1-1.794-2.07m6.222,9.426a5.605,5.605,0,0,0,1.76-1.307l-4.763-4.637a14.309,14.309,0,0,0-2.614,1.645,2.726,2.726,0,0,0-.942,2.1,2.27,2.27,0,0,0,1.219,2.061,5.04,5.04,0,0,0,2.615.717,5.964,5.964,0,0,0,2.725-.58m-.2-9.522a2.328,2.328,0,0,0,.838-1.74,1.637,1.637,0,0,0-.61-1.28,2.458,2.458,0,0,0-1.666-.54,2.548,2.548,0,0,0-2.2.849,1.538,1.538,0,0,0-.317.945,2.2,2.2,0,0,0,.479,1.344,13.493,13.493,0,0,0,1.609,1.671,11.057,11.057,0,0,0,1.869-1.248" transform="translate(4.42 3.012)" fill="#002b49"/><path d="M96.49,86.092h4.054l6.037,14.263,6.053-14.263h4.034v16.866h-2.691V93c0-.344.023-.911.063-1.712s.051-1.65.051-2.558l-6.11,14.23h-2.837l-6.078-14.23v.514c0,.418.02,1.054.053,1.9s.059,1.461.059,1.853v9.96H96.49Z" transform="translate(4.364 3.894)" fill="#002b49"/><path d="M63.413,0,0,107H14.663L66.239,16.243V107h11.5V0Z" transform="translate(0 0)" fill="#002b49"/><path d="M59.671,29.611,48.1,49.949v55.712H59.671Z" transform="translate(2.175 1.339)" fill="#4e8abe"/><path d="M77.987,29.611,89.552,49.949v55.712H77.987Z" transform="translate(3.527 1.339)" fill="#4e8abe"/></g></g></g></svg>