<svg xmlns="http://www.w3.org/2000/svg" width="23.945" height="22.79" viewBox="0 0 23.945 22.79"><g transform="translate(1 1)"><path d="M16.965,18.55a1,1,0,0,1-.707-.293l-3.465-3.465a1,1,0,0,1,1.414-1.414l2.758,2.758L27.808,5.293a1,1,0,1,1,1.414,1.414l-11.55,11.55A1,1,0,0,1,16.965,18.55Z" transform="translate(-6.57 -4.845)" fill="#fff"/><path d="M22.98,26.29H6.81A3.314,3.314,0,0,1,3.5,22.98V6.81A3.314,3.314,0,0,1,6.81,3.5h12.7a1,1,0,0,1,0,2H6.81A1.311,1.311,0,0,0,5.5,6.81V22.98a1.311,1.311,0,0,0,1.31,1.31H22.98a1.311,1.311,0,0,0,1.31-1.31V14.895a1,1,0,1,1,2,0V22.98A3.314,3.314,0,0,1,22.98,26.29Z" transform="translate(-4.5 -4.5)" fill="#fff"/></g></svg>