<?xml version="1.0" encoding="utf-8"?>
<!-- Generator: Adobe Illustrator 22.1.0, SVG Export Plug-In . SVG Version: 6.00 Build 0)  -->
<svg version="1.1" id="Layer_1" xmlns="http://www.w3.org/2000/svg" xmlns:xlink="http://www.w3.org/1999/xlink" x="0px" y="0px"
	 viewBox="0 0 436.6 281.4" style="enable-background:new 0 0 436.6 281.4;" xml:space="preserve">
<style type="text/css">
	.st0{fill:#FFFFFF;}
</style>
<g>
	<path class="st0" d="M58.5,66.6h1.3v5.3h-1.3V66.6z M61.8,66.6h1.3v5.3h-1.3V66.6z"/>
	<path class="st0" d="M70,66.6h1.8l4.6,15.7h-1.5l-1.3-4.6h-5.5l-1.3,4.6h-1.5L70,66.6z M73.3,76.6l-2.4-8.8l0,0l-2.4,8.8H73.3z"/>
	<path class="st0" d="M78.3,66.6h1.4v14.5h6.5v1.2h-7.9V66.6z"/>
	<path class="st0" d="M85.5,66.6H87l3.5,14.2l0,0L94,66.6h1.5l-4.1,15.7h-1.8L85.5,66.6z"/>
	<path class="st0" d="M100.1,66.6h1.8l4.6,15.7H105l-1.3-4.6h-5.5l-1.3,4.6h-1.5L100.1,66.6z M103.4,76.6l-2.4-8.8l0,0l-2.4,8.8
		H103.4z"/>
	<path class="st0" d="M108.3,66.6h4.7c2.6,0,4.1,1.5,4.1,3.9c0,1.9-0.7,3.6-2.8,4l0,0c2,0.2,2.6,1.3,2.7,3.7v1.7
		c0,0.9,0.1,1.7,0.7,2.3H116c-0.3-0.5-0.4-1.4-0.4-2.2v-1.3c-0.1-2.8-0.6-3.7-3.1-3.7h-2.7v7.2h-1.4L108.3,66.6L108.3,66.6z
		 M109.7,74h2.4c2.2,0,3.5-1,3.5-3.1c0-1.9-0.8-3.1-3.4-3.1h-2.6L109.7,74L109.7,74z"/>
	<path class="st0" d="M120,66.6h7.8v1.2h-6.4v5.7h6v1.2h-6v6.4h6.6v1.2h-8V66.6z"/>
	<path class="st0" d="M129.7,81l7.7-13.2h-7.2v-1.2h8.6V68l-7.5,13.2h7.6v1.2h-9.2L129.7,81L129.7,81z"/>
	<path class="st0" d="M155,80.4c-0.9,1.3-2.2,2.2-4.2,2.2c-2.7,0-4.4-1.8-4.4-4.2c0-1.7,0.8-2.9,2.3-4l1.3-1
		c-1.1-1.5-1.8-2.6-1.8-3.9c0-1.9,1.5-2.9,3.2-2.9c1.8,0,3,1.2,3,2.9c0,1.3-0.5,2.5-2.8,4l3.4,4.8c0.4-1,0.5-2,0.6-3h1.3
		c0,1.4-0.4,2.8-1.1,4.1l2.1,2.9h-1.5L155,80.4z M150.7,74.3c-2.2,1.5-2.8,2.8-2.8,4c0,1.9,1.5,3.1,3.2,3.1c1.3,0,2.7-0.8,3.3-2
		L150.7,74.3z M151,72.7c1.7-1.3,2.1-2.3,2.1-3.2c0-1-0.8-1.8-1.8-1.8s-1.8,0.7-1.8,1.8C149.5,70.3,150.1,71.5,151,72.7z"/>
	<path class="st0" d="M165.7,66.6h2.4l3.8,13.9l0,0l3.8-13.9h2.3v15.7h-1.4V68l0,0l-4.1,14.4h-1.3l-4-14.4l0,0v14.4h-1.4V66.6H165.7
		z"/>
	<path class="st0" d="M184.7,66.6h1.8l4.6,15.7h-1.5l-1.3-4.6h-5.5l-1.3,4.6H180L184.7,66.6z M188.1,76.6l-2.4-8.8l0,0l-2.4,8.8
		H188.1z"/>
	<path class="st0" d="M193,66.6h4.7c2.6,0,4.1,1.5,4.1,3.9c0,1.9-0.7,3.6-2.8,4l0,0c2,0.2,2.6,1.3,2.7,3.7v1.7
		c0,0.9,0.1,1.7,0.7,2.3h-1.7c-0.3-0.5-0.4-1.4-0.4-2.2v-1.3c-0.1-2.8-0.6-3.7-3.1-3.7h-2.7v7.2H193V66.6z M194.4,74h2.4
		c2.2,0,3.5-1,3.5-3.1c0-1.9-0.8-3.1-3.4-3.1h-2.6V74H194.4z"/>
	<path class="st0" d="M211.6,70.7c0-1.9-0.9-3.1-2.8-3.1c-1.9,0-3,1.3-3,2.8c0,4.7,7.6,2.1,7.6,7.6c0,3-1.9,4.6-4.8,4.6
		c-2.9,0-4.6-1.6-4.6-4.7v-0.5h1.4V78c0,2,1.1,3.3,3.1,3.3s3.4-1,3.4-3.2c0-4.7-7.6-2-7.6-7.7c0-2.5,1.6-4.2,4.3-4.2
		c2.9,0,4.3,1.5,4.3,4.3h-1.3V70.7z"/>
	<path class="st0" d="M219.3,66.6h1.8l4.6,15.7h-1.5l-1.3-4.6h-5.5l-1.3,4.6h-1.5L219.3,66.6z M222.6,76.6l-2.4-8.8l0,0l-2.4,8.8
		H222.6z"/>
	<path class="st0" d="M227.5,66.6h1.4v14.5h6.5v1.2h-7.9V66.6z"/>
	<path class="st0" d="M238.3,66.6h1.3v5.3h-1.3V66.6z"/>
	<path class="st0" d="M250.4,70.7c0-1.9-0.9-3.1-2.8-3.1c-1.9,0-3,1.3-3,2.8c0,4.7,7.6,2.1,7.6,7.6c0,3-1.9,4.6-4.8,4.6
		c-2.9,0-4.6-1.6-4.6-4.7v-0.5h1.4V78c0,2,1.1,3.3,3.1,3.3s3.4-1,3.4-3.2c0-4.7-7.6-2-7.6-7.7c0-2.5,1.6-4.2,4.3-4.2
		c2.9,0,4.3,1.5,4.3,4.3h-1.3V70.7z"/>
	<path class="st0" d="M267.6,70.7c0-1.9-0.9-3.1-2.8-3.1s-3,1.3-3,2.8c0,4.7,7.6,2.1,7.6,7.6c0,3-1.9,4.6-4.8,4.6S260,81,260,77.9
		v-0.5h1.4V78c0,2,1.1,3.3,3.1,3.3s3.4-1,3.4-3.2c0-4.7-7.6-2-7.6-7.7c0-2.5,1.6-4.2,4.3-4.2c2.9,0,4.3,1.5,4.3,4.3h-1.3V70.7z"/>
	<path class="st0" d="M271.9,66.6h7.8v1.2h-6.4v5.7h6v1.2h-6v6.4h6.6v1.2h-8V66.6z"/>
	<path class="st0" d="M282.3,66.6h4.7c2.6,0,4.1,1.5,4.1,3.9c0,1.9-0.7,3.6-2.8,4l0,0c2,0.2,2.6,1.3,2.7,3.7v1.7
		c0,0.9,0.1,1.7,0.7,2.3H290c-0.3-0.5-0.4-1.4-0.4-2.2v-1.3c-0.1-2.8-0.6-3.7-3.1-3.7h-2.7v7.2h-1.4V66.6H282.3z M283.7,74h2.4
		c2.2,0,3.5-1,3.5-3.1c0-1.9-0.8-3.1-3.4-3.1h-2.6V74H283.7z"/>
	<path class="st0" d="M292.8,66.6h1.5l3.5,14.2l0,0l3.5-14.2h1.5l-4.1,15.7H297L292.8,66.6z"/>
	<path class="st0" d="M304.9,66.6h1.4v15.7h-1.4V66.6z"/>
	<path class="st0" d="M319.1,77c-0.2,3.6-1.8,5.6-4.7,5.6c-3.2,0-5-2.5-5-8.1s1.8-8.1,5-8.1s4.5,2.3,4.5,4.8h-1.4
		c0-2.1-1.1-3.7-3.1-3.7c-2.2,0-3.6,1.8-3.6,6.9s1.4,6.9,3.6,6.9c2,0,3.1-1.7,3.3-4.4L319.1,77L319.1,77z"/>
	<path class="st0" d="M321.6,66.6h7.8v1.2H323v5.7h6v1.2h-6v6.4h6.6v1.2h-8V66.6z"/>
	<path class="st0" d="M338.9,70.7c0-1.9-0.9-3.1-2.8-3.1s-3,1.3-3,2.8c0,4.7,7.6,2.1,7.6,7.6c0,3-1.9,4.6-4.8,4.6s-4.6-1.6-4.6-4.7
		v-0.5h1.4V78c0,2,1.1,3.3,3.1,3.3s3.4-1,3.4-3.2c0-4.7-7.6-2-7.6-7.7c0-2.5,1.6-4.2,4.3-4.2c2.9,0,4.3,1.5,4.3,4.3h-1.3V70.7z"/>
	<path class="st0" d="M351.8,66.6h1.8l4.6,15.7h-1.5l-1.3-4.6h-5.5l-1.3,4.6h-1.5L351.8,66.6z M355.1,76.6l-2.4-8.8l0,0l-2.4,8.8
		H355.1z"/>
	<path class="st0" d="M360,66.6h4.7c2.6,0,4.1,1.5,4.1,3.9c0,1.9-0.7,3.6-2.8,4l0,0c2,0.2,2.6,1.3,2.7,3.7v1.7
		c0,0.9,0.1,1.7,0.7,2.3h-1.7c-0.3-0.5-0.4-1.4-0.4-2.2v-1.3c-0.1-2.8-0.6-3.7-3.1-3.7h-2.7v7.2H360V66.6z M361.4,74h2.4
		c2.2,0,3.5-1,3.5-3.1c0-1.9-0.8-3.1-3.4-3.1h-2.6V74H361.4z"/>
	<path class="st0" d="M371.7,66.6h7.8v1.2h-6.4v5.7h6v1.2h-6v6.4h6.6v1.2h-8V66.6z"/>
	<path class="st0" d="M28.4,99.6h1.4v15.7h-1.4V99.6z"/>
	<path class="st0" d="M33,99.6h1.9l6,13.7l0,0V99.6h1.4v15.7h-1.9l-6-13.7l0,0v13.7H33V99.6z"/>
	<path class="st0" d="M55,110c-0.2,3.6-1.8,5.6-4.7,5.6c-3.2,0-5-2.5-5-8.1s1.8-8.1,5-8.1s4.5,2.3,4.5,4.8h-1.4
		c0-2.1-1.1-3.7-3.1-3.7c-2.2,0-3.6,1.8-3.6,6.9s1.4,6.9,3.6,6.9c2,0,3.1-1.7,3.3-4.4L55,110L55,110z"/>
	<path class="st0" d="M57.6,99.6h4.7c2.6,0,4.1,1.5,4.1,3.9c0,1.9-0.7,3.6-2.8,4l0,0c2,0.2,2.6,1.3,2.7,3.7v1.7
		c0,0.9,0.1,1.7,0.7,2.3h-1.7c-0.3-0.5-0.4-1.4-0.4-2.2v-1.3c-0.1-2.8-0.6-3.7-3.1-3.7H59v7.2h-1.4V99.6z M59,107h2.4
		c2.2,0,3.5-1,3.5-3.1c0-1.9-0.8-3.1-3.4-3.1H59V107z"/>
	<path class="st0" d="M69.2,99.6H77v1.2h-6.4v5.7h6v1.2h-6v6.4h6.6v1.2h-8V99.6z"/>
	<path class="st0" d="M83,99.6h1.8l4.6,15.7h-1.5l-1.3-4.6h-5.5l-1.3,4.6h-1.5L83,99.6z M86.4,109.6l-2.4-8.8l0,0l-2.4,8.8H86.4z"/>
	<path class="st0" d="M98.2,103.7c0-1.9-0.9-3.1-2.8-3.1s-3,1.3-3,2.8c0,4.7,7.6,2.1,7.6,7.6c0,3-1.9,4.6-4.8,4.6s-4.6-1.6-4.6-4.7
		v-0.5H92v0.6c0,2,1.1,3.3,3.1,3.3s3.4-1,3.4-3.2c0-4.7-7.6-2-7.6-7.7c0-2.5,1.6-4.2,4.3-4.2c2.9,0,4.3,1.5,4.3,4.3h-1.3V103.7z"/>
	<path class="st0" d="M102.6,99.6h1.4v15.7h-1.4V99.6z"/>
	<path class="st0" d="M107.2,99.6h1.9l6,13.7l0,0V99.6h1.4v15.7h-1.9l-6-13.7l0,0v13.7h-1.4V99.6z"/>
	<path class="st0" d="M124.1,108.5v-1.2h5v8H128v-2.6l0,0c-0.5,1.7-1.9,2.9-3.5,2.9c-3.2,0-5-2.5-5-8.1s1.8-8.1,5-8.1
		c3,0,4.3,2,4.5,4.7h-1.4c0-1.9-1-3.5-3.1-3.5c-2.2,0-3.6,1.8-3.6,6.9s1.4,6.9,3.6,6.9c2.1,0,3.3-1.9,3.3-5.6v-0.3
		C127.8,108.5,124.1,108.5,124.1,108.5z"/>
	<path class="st0" d="M132.2,99.6h1.4v14.5h6.5v1.2h-7.9V99.6z"/>
	<path class="st0" d="M143.1,109.1l-4.2-9.4h1.5l3.5,7.8l3.5-7.8h1.5l-4.2,9.4v6.3h-1.4v-6.3H143.1z"/>
	<path class="st0" d="M161.4,99.4c3.2,0,5,2.5,5,8.1s-1.8,8.1-5,8.1s-5-2.5-5-8.1S158.2,99.4,161.4,99.4z M161.4,114.4
		c2.2,0,3.6-1.8,3.6-6.9s-1.4-6.9-3.6-6.9c-2.2,0-3.6,1.8-3.6,6.9C157.8,112.6,159.2,114.4,161.4,114.4z"/>
	<path class="st0" d="M169.4,99.6h1.9l6,13.7l0,0V99.6h1.4v15.7h-1.9l-6-13.7l0,0v13.7h-1.4V99.6z"/>
	<path class="st0" d="M190.4,99.6h1.8l4.6,15.7h-1.5l-1.3-4.6h-5.5l-1.3,4.6h-1.5L190.4,99.6z M193.8,109.6l-2.4-8.8l0,0l-2.4,8.8
		H193.8z"/>
	<path class="st0" d="M209.1,108.5v-1.2h5v8H213v-2.6l0,0c-0.5,1.7-1.9,2.9-3.5,2.9c-3.2,0-5-2.5-5-8.1s1.8-8.1,5-8.1
		c3,0,4.3,2,4.5,4.7h-1.4c0-1.9-1-3.5-3.1-3.5c-2.2,0-3.6,1.8-3.6,6.9s1.4,6.9,3.6,6.9c2.1,0,3.3-1.9,3.3-5.6v-0.3
		C212.8,108.5,209.1,108.5,209.1,108.5z"/>
	<path class="st0" d="M217.1,99.6h1.4v14.5h6.5v1.2h-7.9V99.6z"/>
	<path class="st0" d="M232,99.4c3.2,0,5,2.5,5,8.1s-1.8,8.1-5,8.1s-5-2.5-5-8.1S228.8,99.4,232,99.4z M232,114.4
		c2.2,0,3.6-1.8,3.6-6.9s-1.4-6.9-3.6-6.9s-3.6,1.8-3.6,6.9S229.8,114.4,232,114.4z"/>
	<path class="st0" d="M240,99.6h4.3c3,0,4.2,1.6,4.2,3.9c0,1.5-0.8,3-2.4,3.4l0,0c1.9,0.4,2.9,1.9,2.9,3.9c0,2.8-1.8,4.4-4.8,4.4
		H240V99.6z M241.4,106.6h2.2c2.4,0,3.5-1,3.5-2.9c0-2.1-1.1-2.9-3.3-2.9h-2.5v5.8H241.4z M241.4,114.2h2.6c2.4,0,3.6-1.1,3.6-3.2
		s-1.2-3.2-3.6-3.2h-2.6V114.2z"/>
	<path class="st0" d="M255.1,99.6h1.8l4.6,15.7H260l-1.3-4.6h-5.5l-1.3,4.6h-1.5L255.1,99.6z M258.4,109.6l-2.4-8.8l0,0l-2.4,8.8
		H258.4z"/>
	<path class="st0" d="M263.4,99.6h1.4v14.5h6.5v1.2h-7.9V99.6z"/>
	<path class="st0" d="M286.2,103.7c0-1.9-0.9-3.1-2.8-3.1s-3,1.3-3,2.8c0,4.7,7.6,2.1,7.6,7.6c0,3-1.9,4.6-4.8,4.6s-4.6-1.6-4.6-4.7
		v-0.5h1.4v0.6c0,2,1.1,3.3,3.1,3.3s3.4-1,3.4-3.2c0-4.7-7.6-2-7.6-7.7c0-2.5,1.6-4.2,4.3-4.2c2.9,0,4.3,1.5,4.3,4.3h-1.3V103.7z"/>
	<path class="st0" d="M300.1,110c-0.2,3.6-1.8,5.6-4.7,5.6c-3.2,0-5-2.5-5-8.1s1.8-8.1,5-8.1s4.5,2.3,4.5,4.8h-1.4
		c0-2.1-1.1-3.7-3.1-3.7c-2.2,0-3.6,1.8-3.6,6.9s1.4,6.9,3.6,6.9c2,0,3.1-1.7,3.3-4.4L300.1,110L300.1,110z"/>
	<path class="st0" d="M306,99.6h1.8l4.6,15.7h-1.5l-1.3-4.6h-5.5l-1.3,4.6h-1.5L306,99.6z M309.3,109.6l-2.4-8.8l0,0l-2.4,8.8H309.3
		z"/>
	<path class="st0" d="M314.3,99.6h1.4v14.5h6.5v1.2h-7.9V99.6z"/>
	<path class="st0" d="M324.3,99.6h7.8v1.2h-6.4v5.7h6v1.2h-6v6.4h6.6v1.2h-8V99.6z"/>
	<path class="st0" d="M338.9,99.6h1.4l2.8,13.8l0,0l2.7-13.8h1.6l2.7,13.8l0,0l2.8-13.8h1.4l-3.3,15.7h-1.8l-2.6-13.8l0,0l-2.6,13.8
		h-1.8L338.9,99.6z"/>
	<path class="st0" d="M356.5,99.6h1.4v15.7h-1.4V99.6z"/>
	<path class="st0" d="M364.1,100.8h-4v-1.2h9.5v1.2h-4v14.5h-1.4v-14.5H364.1z"/>
	<path class="st0" d="M379.1,107.5H373v7.8h-1.4V99.6h1.4v6.7h6.1v-6.7h1.4v15.7h-1.4V107.5z"/>
	<path class="st0" d="M397.3,100v1.2h-5.8l-0.7,5.4l0,0c0.6-1.1,1.9-1.6,3-1.6c2.4,0,4.1,1.7,4.1,5.1c0,3.1-1.6,5.3-4.6,5.3
		c-2.4,0-4.1-1.5-4.1-4.2h1.4c0,1.8,1,3.1,2.9,3.1s3.1-1.5,3.1-4.5c0-2.2-0.9-3.8-3-3.8c-1.2,0-2.2,0.5-2.7,1.8h-1.3l0.9-8h6.8V100z
		"/>
	<path class="st0" d="M404.8,99.8c3.5,0,4.4,3.3,4.4,7.9s-0.8,7.9-4.4,7.9c-3.5,0-4.4-3.3-4.4-7.9S401.3,99.8,404.8,99.8z
		 M404.8,114.5c2.1,0,3-1.8,3-6.8s-0.8-6.8-3-6.8c-2.1,0-3,1.8-3,6.8C401.9,112.7,402.7,114.5,404.8,114.5z"/>
	<path class="st0" d="M13.1,132.4c3.2,0,5,2.5,5,8.1s-1.8,8.1-5,8.1s-5-2.5-5-8.1S9.9,132.4,13.1,132.4z M13.1,147.4
		c2.2,0,3.6-1.8,3.6-6.9c0-5.1-1.4-6.9-3.6-6.9s-3.6,1.8-3.6,6.9C9.5,145.6,10.9,147.4,13.1,147.4z"/>
	<path class="st0" d="M21.1,132.6h7.8v1.2h-6.4v5.7h6v1.2h-6v7.6h-1.4C21.1,148.3,21.1,132.6,21.1,132.6z"/>
	<path class="st0" d="M31.2,132.6H39v1.2h-6.4v5.7h6v1.2h-6v7.6h-1.4C31.2,148.3,31.2,132.6,31.2,132.6z"/>
	<path class="st0" d="M41.3,132.6h1.4v15.7h-1.4V132.6z"/>
	<path class="st0" d="M55.4,143c-0.2,3.6-1.8,5.6-4.7,5.6c-3.2,0-5-2.5-5-8.1s1.8-8.1,5-8.1s4.5,2.3,4.5,4.8h-1.4
		c0-2.1-1.1-3.7-3.1-3.7c-2.2,0-3.6,1.8-3.6,6.9c0,5.1,1.4,6.9,3.6,6.9c2,0,3.1-1.7,3.3-4.4h1.4V143z"/>
	<path class="st0" d="M58,132.6h7.8v1.2h-6.4v5.7h6v1.2h-6v6.4H66v1.2h-8V132.6z"/>
	<path class="st0" d="M75.3,136.7c0-1.9-0.9-3.1-2.8-3.1s-3,1.3-3,2.8c0,4.7,7.6,2.1,7.6,7.6c0,3-1.9,4.6-4.8,4.6s-4.6-1.6-4.6-4.7
		v-0.5h1.4v0.6c0,2,1.1,3.3,3.1,3.3s3.4-1,3.4-3.2c0-4.7-7.6-2-7.6-7.7c0-2.5,1.6-4.2,4.3-4.2c2.9,0,4.3,1.5,4.3,4.3h-1.3V136.7z"/>
	<path class="st0" d="M90.4,132.4c3.2,0,5,2.5,5,8.1s-1.8,8.1-5,8.1s-5-2.5-5-8.1S87.2,132.4,90.4,132.4z M90.4,147.4
		c2.2,0,3.6-1.8,3.6-6.9c0-5.1-1.4-6.9-3.6-6.9s-3.6,1.8-3.6,6.9C86.8,145.6,88.2,147.4,90.4,147.4z"/>
	<path class="st0" d="M98.4,132.6h1.9l6,13.7l0,0v-13.7h1.4v15.7h-1.9l-6-13.7l0,0v13.7h-1.4V132.6z"/>
	<path class="st0" d="M120.7,132.6c-1.7,3-2.6,6.4-2.6,9.9s0.8,6.9,2.6,9.9h-0.9c-2.2-3.5-2.9-6.8-2.9-9.9c0-3.1,0.8-6.4,2.9-9.9
		H120.7z"/>
	<path class="st0" d="M125.8,132.6h1.8l4.6,15.7h-1.5l-1.3-4.6h-5.5l-1.3,4.6h-1.5L125.8,132.6z M129.1,142.6l-2.4-8.8l0,0l-2.4,8.8
		H129.1z"/>
	<path class="st0" d="M134.1,132.6h1.4v14.5h6.5v1.2h-7.9V132.6z"/>
	<path class="st0" d="M144.2,132.6h2.4l3.8,13.9l0,0l3.8-13.9h2.3v15.7h-1.4V134l0,0l-4.1,14.4h-1.3l-4.1-14.4l0,0v14.4h-1.4V132.6z
		"/>
	<path class="st0" d="M164.7,132.4c3.2,0,5,2.5,5,8.1s-1.8,8.1-5,8.1s-5-2.5-5-8.1S161.5,132.4,164.7,132.4z M164.7,147.4
		c2.2,0,3.6-1.8,3.6-6.9c0-5.1-1.4-6.9-3.6-6.9c-2.2,0-3.6,1.8-3.6,6.9C161.1,145.6,162.5,147.4,164.7,147.4z"/>
	<path class="st0" d="M179.6,136.7c0-1.9-0.9-3.1-2.8-3.1c-1.9,0-3,1.3-3,2.8c0,4.7,7.6,2.1,7.6,7.6c0,3-1.9,4.6-4.8,4.6
		c-2.9,0-4.6-1.6-4.6-4.7v-0.5h1.4v0.6c0,2,1.1,3.3,3.1,3.3s3.4-1,3.4-3.2c0-4.7-7.6-2-7.6-7.7c0-2.5,1.6-4.2,4.3-4.2
		c2.9,0,4.3,1.5,4.3,4.3h-1.3V136.7z"/>
	<path class="st0" d="M186.9,133.8h-4v-1.2h9.5v1.2h-4v14.5H187v-14.5H186.9z"/>
	<path class="st0" d="M193,152.4c1.7-3,2.6-6.4,2.6-9.9s-0.8-6.9-2.6-9.9h0.9c2.2,3.5,2.9,6.8,2.9,9.9c0,3.1-0.8,6.4-2.9,9.9H193z"
		/>
	<path class="st0" d="M208.4,132.6h1.8l4.6,15.7h-1.5l-1.3-4.6h-5.5l-1.3,4.6h-1.5L208.4,132.6z M211.8,142.6l-2.4-8.8l0,0l-2.4,8.8
		H211.8z"/>
	<path class="st0" d="M216.7,132.6h1.4v14.5h6.5v1.2h-7.9V132.6z"/>
	<path class="st0" d="M226.8,132.6h1.4v14.5h6.5v1.2h-7.9V132.6z"/>
	<path class="st0" d="M252.3,143c-0.2,3.6-1.8,5.6-4.7,5.6c-3.2,0-5-2.5-5-8.1s1.8-8.1,5-8.1s4.5,2.3,4.5,4.8h-1.4
		c0-2.1-1.1-3.7-3.1-3.7c-2.2,0-3.6,1.8-3.6,6.9c0,5.1,1.4,6.9,3.6,6.9c2,0,3.1-1.7,3.3-4.4h1.4V143z"/>
	<path class="st0" d="M259.7,132.4c3.2,0,5,2.5,5,8.1s-1.8,8.1-5,8.1s-5-2.5-5-8.1C254.7,134.9,256.5,132.4,259.7,132.4z
		 M259.7,147.4c2.2,0,3.6-1.8,3.6-6.9c0-5.1-1.4-6.9-3.6-6.9s-3.6,1.8-3.6,6.9C256.1,145.6,257.4,147.4,259.7,147.4z"/>
	<path class="st0" d="M267.7,132.6h1.9l6,13.7l0,0v-13.7h1.4v15.7h-1.9l-6-13.7l0,0v13.7h-1.4V132.6z"/>
	<path class="st0" d="M283.1,133.8h-4v-1.2h9.5v1.2h-4v14.5h-1.4v-14.5H283.1z"/>
	<path class="st0" d="M290.7,132.6h1.4v15.7h-1.4V132.6z"/>
	<path class="st0" d="M295.3,132.6h1.9l6,13.7l0,0v-13.7h1.4v15.7h-1.9l-6-13.7l0,0v13.7h-1.4V132.6z"/>
	<path class="st0" d="M307.8,132.6h7.8v1.2h-6.4v5.7h6v1.2h-6v6.4h6.6v1.2h-8V132.6z"/>
	<path class="st0" d="M318.2,132.6h1.9l6,13.7l0,0v-13.7h1.4v15.7h-1.9l-6-13.7l0,0v13.7h-1.4V132.6z"/>
	<path class="st0" d="M333.6,133.8h-4v-1.2h9.5v1.2h-4v14.5h-1.4v-14.5H333.6z"/>
	<path class="st0" d="M348,136.7c0-1.9-0.9-3.1-2.8-3.1s-3,1.3-3,2.8c0,4.7,7.6,2.1,7.6,7.6c0,3-1.9,4.6-4.8,4.6s-4.6-1.6-4.6-4.7
		v-0.5h1.4v0.6c0,2,1.1,3.3,3.1,3.3s3.4-1,3.4-3.2c0-4.7-7.6-2-7.6-7.7c0-2.5,1.6-4.2,4.3-4.2c2.9,0,4.3,1.5,4.3,4.3H348V136.7z"/>
	<path class="st0" d="M360.8,132.6h1.8l4.6,15.7h-1.5l-1.3-4.6H359l-1.3,4.6h-1.5L360.8,132.6z M364.2,142.6l-2.4-8.8l0,0l-2.4,8.8
		H364.2z"/>
	<path class="st0" d="M369.1,132.6h1.9l6,13.7l0,0v-13.7h1.4v15.7h-1.9l-6-13.7l0,0v13.7h-1.4V132.6z"/>
	<path class="st0" d="M381.6,132.6h3.8c4.6,0,5.7,2.7,5.7,7.9c0,5.1-1.1,7.9-5.7,7.9h-3.8V132.6z M383,147.2h2.3
		c3.1,0,4.4-1.5,4.4-6.6s-1.3-6.7-4.4-6.7H383V147.2z"/>
	<path class="st0" d="M400,132.6h1.4v8.2l0,0l6-8.2h1.5l-4.8,6.6l5.3,9.2H408l-4.7-8l-1.9,2.5v5.5H400V132.6z"/>
	<path class="st0" d="M411.2,132.6h7.8v1.2h-6.4v5.7h6v1.2h-6v6.4h6.6v1.2h-8V132.6z"/>
	<path class="st0" d="M424.6,142.1l-4.2-9.4h1.5l3.5,7.8l3.5-7.8h1.5l-4.2,9.4v6.3h-1.4v-6.3H424.6z"/>
	<path class="st0" d="M37.6,173.5h-6.1v7.8H30v-15.7h1.4v6.7h6.1v-6.7H39v15.7h-1.4V173.5z"/>
	<path class="st0" d="M41.9,165.6h1.4v11.3c0,2.4,1,3.5,3.1,3.5s3.1-1.1,3.1-3.5v-11.3h1.4V177c0,3.3-1.6,4.7-4.5,4.7
		s-4.5-1.4-4.5-4.7V165.6z"/>
	<path class="st0" d="M53.8,165.6h4.3c3,0,4.2,1.6,4.2,3.9c0,1.5-0.8,3-2.4,3.4l0,0c1.9,0.4,2.9,1.9,2.9,3.9c0,2.8-1.8,4.4-4.8,4.4
		h-4.3L53.8,165.6L53.8,165.6z M55.2,172.6h2.2c2.4,0,3.5-1,3.5-2.9c0-2.1-1.1-2.9-3.3-2.9h-2.5L55.2,172.6L55.2,172.6z M55.2,180.2
		h2.6c2.4,0,3.6-1.1,3.6-3.2s-1.2-3.2-3.6-3.2h-2.6V180.2z"/>
	<path class="st0" d="M72.3,169.7c0-1.9-0.9-3.1-2.8-3.1s-3,1.3-3,2.8c0,4.7,7.6,2.1,7.6,7.6c0,3-1.9,4.6-4.8,4.6s-4.6-1.6-4.6-4.7
		v-0.5h1.4v0.6c0,2,1.1,3.3,3.1,3.3s3.4-1,3.4-3.2c0-4.7-7.6-2-7.6-7.7c0-2.5,1.6-4.2,4.3-4.2c2.9,0,4.3,1.5,4.3,4.3h-1.3V169.7z"/>
	<path class="st0" d="M82.7,165.6h1.4v15.7h-1.4V165.6z"/>
	<path class="st0" d="M87.3,165.6h1.9l6,13.7l0,0v-13.7h1.4v15.7h-1.9l-6-13.7l0,0v13.7h-1.4V165.6z"/>
	<path class="st0" d="M105.7,165.6h1.9l6,13.7l0,0v-13.7h1.4v15.7h-1.9l-6-13.7l0,0v13.7h-1.4V165.6z"/>
	<path class="st0" d="M118.2,165.6h7.8v1.2h-6.4v5.7h6v1.2h-6v6.4h6.6v1.2h-8V165.6z"/>
	<path class="st0" d="M127.6,165.6h1.4l2.8,13.8l0,0l2.7-13.8h1.6l2.7,13.8l0,0l2.8-13.8h1.4l-3.3,15.7h-1.8l-2.6-13.8l0,0
		l-2.6,13.8h-1.8L127.6,165.6z"/>
	<path class="st0" d="M153.2,175.1l-4.2-9.4h1.5l3.5,7.8l3.5-7.8h1.5l-4.2,9.4v6.3h-1.4v-6.3H153.2z"/>
	<path class="st0" d="M165.6,165.4c3.2,0,5,2.5,5,8.1s-1.8,8.1-5,8.1s-5-2.5-5-8.1S162.4,165.4,165.6,165.4z M165.6,180.4
		c2.2,0,3.6-1.8,3.6-6.9c0-5.1-1.4-6.9-3.6-6.9c-2.2,0-3.6,1.8-3.6,6.9C162,178.6,163.3,180.4,165.6,180.4z"/>
	<path class="st0" d="M173.6,165.6h4.7c2.6,0,4.1,1.5,4.1,3.9c0,1.9-0.7,3.6-2.8,4l0,0c2,0.2,2.6,1.3,2.7,3.7v1.7
		c0,0.9,0.1,1.7,0.7,2.3h-1.7c-0.3-0.5-0.4-1.4-0.4-2.2v-1.3c-0.1-2.8-0.6-3.7-3.1-3.7H175v7.2h-1.4V165.6z M175,173h2.4
		c2.2,0,3.5-1,3.5-3.1c0-1.9-0.8-3.1-3.4-3.1H175V173z"/>
	<path class="st0" d="M185.2,165.6h1.4v8.2l0,0l6-8.2h1.5l-4.8,6.6l5.3,9.2h-1.5l-4.7-8l-1.9,2.5v5.5h-1.4L185.2,165.6L185.2,165.6z
		"/>
	<path class="st0" d="M197.1,179.1h1.5v2.2c0,1.3-0.3,2.5-1.6,3v-0.9c0.6-0.4,0.7-1,0.8-2.2h-0.6L197.1,179.1L197.1,179.1z"/>
	<path class="st0" d="M207.5,165.6h1.4v14.5h6.5v1.2h-7.9V165.6z"/>
	<path class="st0" d="M222.5,165.4c3.2,0,5,2.5,5,8.1s-1.8,8.1-5,8.1s-5-2.5-5-8.1S219.2,165.4,222.5,165.4z M222.5,180.4
		c2.2,0,3.6-1.8,3.6-6.9c0-5.1-1.4-6.9-3.6-6.9c-2.2,0-3.6,1.8-3.6,6.9C218.8,178.6,220.2,180.4,222.5,180.4z"/>
	<path class="st0" d="M230.5,165.6h1.9l6,13.7l0,0v-13.7h1.4v15.7h-1.9l-6-13.7l0,0v13.7h-1.4V165.6z"/>
	<path class="st0" d="M242.9,165.6h3.8c4.6,0,5.7,2.7,5.7,7.9c0,5.1-1.1,7.9-5.7,7.9h-3.8V165.6z M244.3,180.2h2.3
		c3.1,0,4.4-1.5,4.4-6.6s-1.3-6.7-4.4-6.7h-2.3V180.2z"/>
	<path class="st0" d="M260.3,165.4c3.2,0,5,2.5,5,8.1s-1.8,8.1-5,8.1s-5-2.5-5-8.1S257.1,165.4,260.3,165.4z M260.3,180.4
		c2.2,0,3.6-1.8,3.6-6.9c0-5.1-1.4-6.9-3.6-6.9s-3.6,1.8-3.6,6.9C256.7,178.6,258,180.4,260.3,180.4z"/>
	<path class="st0" d="M268.3,165.6h1.9l6,13.7l0,0v-13.7h1.4v15.7h-1.9l-6-13.7l0,0v13.7h-1.4V165.6z"/>
	<path class="st0" d="M281.4,179.1h1.5v2.2c0,1.3-0.3,2.5-1.6,3v-0.9c0.6-0.4,0.7-1,0.8-2.2h-0.6L281.4,179.1L281.4,179.1z"/>
	<path class="st0" d="M299.4,173.5h-6.1v7.8h-1.4v-15.7h1.4v6.7h6.1v-6.7h1.4v15.7h-1.4V173.5z"/>
	<path class="st0" d="M308.8,165.4c3.2,0,5,2.5,5,8.1s-1.8,8.1-5,8.1s-5-2.5-5-8.1S305.6,165.4,308.8,165.4z M308.8,180.4
		c2.2,0,3.6-1.8,3.6-6.9c0-5.1-1.4-6.9-3.6-6.9s-3.6,1.8-3.6,6.9C305.2,178.6,306.6,180.4,308.8,180.4z"/>
	<path class="st0" d="M316.8,165.6h1.9l6,13.7l0,0v-13.7h1.4v15.7h-1.9l-6-13.7l0,0v13.7h-1.4V165.6z"/>
	<path class="st0" d="M333.7,174.5v-1.2h5v8h-1.1v-2.6l0,0c-0.5,1.7-1.9,2.9-3.5,2.9c-3.2,0-5-2.5-5-8.1s1.8-8.1,5-8.1
		c3,0,4.3,2,4.5,4.7h-1.4c0-1.9-1-3.5-3.1-3.5c-2.2,0-3.6,1.8-3.6,6.9c0,5.1,1.4,6.9,3.6,6.9c2.1,0,3.3-1.9,3.3-5.6v-0.3
		L333.7,174.5L333.7,174.5z"/>
	<path class="st0" d="M347.7,165.6h1.4v8.2l0,0l6-8.2h1.5l-4.8,6.6l5.3,9.2h-1.5l-4.7-8l-1.9,2.5v5.5h-1.4v-15.8H347.7z"/>
	<path class="st0" d="M363.8,165.4c3.2,0,5,2.5,5,8.1s-1.8,8.1-5,8.1s-5-2.5-5-8.1S360.6,165.4,363.8,165.4z M363.8,180.4
		c2.2,0,3.6-1.8,3.6-6.9c0-5.1-1.4-6.9-3.6-6.9s-3.6,1.8-3.6,6.9C360.2,178.6,361.6,180.4,363.8,180.4z"/>
	<path class="st0" d="M371.8,165.6h1.9l6,13.7l0,0v-13.7h1.4v15.7h-1.9l-6-13.7l0,0v13.7h-1.4V165.6z"/>
	<path class="st0" d="M388.7,174.5v-1.2h5v8h-1.1v-2.6l0,0c-0.5,1.7-1.9,2.9-3.5,2.9c-3.2,0-5-2.5-5-8.1s1.8-8.1,5-8.1
		c3,0,4.3,2,4.5,4.7h-1.4c0-1.9-1-3.5-3.1-3.5c-2.2,0-3.6,1.8-3.6,6.9c0,5.1,1.4,6.9,3.6,6.9c2.1,0,3.3-1.9,3.3-5.6v-0.3
		L388.7,174.5L388.7,174.5z"/>
	<path class="st0" d="M397.4,179.1h1.5v2.2h-1.5V179.1z"/>
	<path class="st0" d="M403.2,165.6h1.5v2.2c0,1.3-0.3,2.5-1.6,3V170c0.6-0.4,0.7-1,0.8-2.2h-0.6L403.2,165.6L403.2,165.6z
		 M406.1,165.6h1.5v2.2c0,1.3-0.3,2.5-1.6,3V170c0.6-0.4,0.7-1,0.8-2.2h-0.6L406.1,165.6L406.1,165.6z"/>
</g>
<g>
	<path class="st0" d="M24.6,203.4c0-1-0.3-1.6-1.4-1.6c-0.9,0-1.5,0.5-1.5,1.5c0,2.5,4.3,1,4.3,4.3c0,2.1-1.5,2.7-2.8,2.7
		c-2.1,0-2.7-1.1-2.7-3h1.1c0,1,0.1,2.1,1.7,2.1c0.9,0,1.6-0.6,1.6-1.6c0-2.6-4.3-1.1-4.3-4.4c0-0.8,0.4-2.5,2.6-2.5
		c1.7,0,2.5,0.9,2.5,2.5H24.6z"/>
	<path class="st0" d="M33.2,205.6c0,2.3-0.4,4.7-2.9,4.7s-2.9-2.4-2.9-4.7s0.4-4.7,2.9-4.7S33.2,203.3,33.2,205.6z M28.5,205.6
		c0,2.1,0.2,3.8,1.7,3.8s1.8-1.7,1.8-3.8s-0.2-3.8-1.8-3.8S28.5,203.5,28.5,205.6z"/>
	<path class="st0" d="M34.8,201h1.1v6.4c0,1.3,0.4,2,1.5,2c1.2,0,1.5-0.7,1.5-2V201H40v6.4c0,1.7-0.9,2.9-2.7,2.9s-2.7-1-2.7-2.9
		V201H34.8z"/>
	<path class="st0" d="M41.9,201h2.9c1.4,0,2.3,0.8,2.3,2.3c0,1-0.3,2-1.4,2.3l0,0c0.8,0.1,1.2,0.7,1.3,1.5l0.1,1.5
		c0.1,1,0.2,1.3,0.5,1.4h-1.3c-0.2-0.2-0.3-0.9-0.3-1.3l-0.1-1.4c-0.1-1.2-0.8-1.3-1.3-1.3H43v4h-1.1V201z M43,205.2h1.1
		c0.7,0,1.9,0,1.9-1.8c0-0.9-0.6-1.4-1.6-1.4H43V205.2z"/>
	<path class="st0" d="M54.4,207c-0.1,1.7-0.8,3.3-2.8,3.3c-2.6,0-2.9-2.4-2.9-4.7s0.4-4.7,2.9-4.7c1.9,0,2.6,1,2.7,2.8h-1.2
		c0-1-0.4-1.9-1.5-1.9c-1.5,0-1.7,1.7-1.7,3.8s0.2,3.8,1.7,3.8c1.4,0,1.5-1.3,1.6-2.4L54.4,207L54.4,207z"/>
	<path class="st0" d="M55.8,201h4.7v1h-3.6v2.8h3.4v1h-3.4v3.2h3.7v1h-4.8C55.8,210,55.8,201,55.8,201z"/>
	<path class="st0" d="M62.2,203.7h1.2v1.3h-1.2V203.7z M62.2,208.8h1.2v1.3h-1.2V208.8z"/>
	<path class="st0" d="M70.6,201h1l2.7,9.1h-0.9l-0.7-2.6h-3.2l-0.7,2.6H68L70.6,201z M72.5,206.8l-1.4-5.1l0,0l-1.4,5.1H72.5z"/>
	<path class="st0" d="M75.6,201h0.8v8.4h3.8v0.7h-4.6C75.6,210.1,75.6,201,75.6,201z"/>
	<path class="st0" d="M81.6,201H83l2.2,8l0,0l2.2-8h1.3v9.1h-0.8v-8.3l0,0l-2.3,8.3h-0.8l-2.3-8.3l0,0v8.3h-0.8L81.6,201L81.6,201z"
		/>
	<path class="st0" d="M93.2,201h0.9l2,8.2l0,0l2-8.2H99l-2.4,9.1h-1L93.2,201z"/>
	<path class="st0" d="M101.6,201h1l2.7,9.1h-0.9l-0.7-2.6h-3.2l-0.7,2.6H99L101.6,201z M103.6,206.8l-1.4-5.1l0,0l-1.4,5.1H103.6z"
		/>
	<path class="st0" d="M106.6,201h1.1l3.5,7.9l0,0V201h0.8v9.1h-1.1l-3.5-7.9l0,0v7.9h-0.8V201z"/>
	<path class="st0" d="M116.4,206.2v-0.7h2.9v4.6h-0.6v-1.5l0,0c-0.3,1-1.1,1.6-2,1.6c-1.9,0-2.9-1.4-2.9-4.7s1-4.7,2.9-4.7
		c1.7,0,2.5,1.1,2.6,2.7h-0.8c0-1.1-0.6-2-1.8-2c-1.3,0-2.1,1.1-2.1,4s0.8,4,2.1,4c1.2,0,1.9-1.1,1.9-3.2v-0.2L116.4,206.2
		L116.4,206.2z"/>
	<path class="st0" d="M121,201h0.8v6.5c0,1.4,0.6,2,1.8,2s1.8-0.7,1.8-2V201h0.8v6.5c0,1.9-0.9,2.7-2.6,2.7s-2.6-0.8-2.6-2.7
		L121,201L121,201z"/>
	<path class="st0" d="M129.9,201h1l2.7,9.1h-0.9l-0.7-2.6h-3.2l-0.7,2.6h-0.9L129.9,201z M131.8,206.8l-1.4-5.1l0,0l-1.4,5.1H131.8z
		"/>
	<path class="st0" d="M134.8,201h2.7c1.5,0,2.3,0.9,2.3,2.3c0,1.1-0.4,2.1-1.6,2.3l0,0c1.1,0.1,1.5,0.7,1.5,2.1v1
		c0,0.5,0.1,1,0.4,1.3h-1c-0.2-0.3-0.2-0.8-0.2-1.3v-0.8c-0.1-1.6-0.3-2.1-1.8-2.1h-1.5v4.1h-0.8L134.8,201L134.8,201z M135.7,205.3
		h1.4c1.3,0,2-0.6,2-1.8c0-1.1-0.5-1.8-1.9-1.8h-1.5V205.3z"/>
	<path class="st0" d="M141.7,201h2.2c2.6,0,3.3,1.6,3.3,4.5c0,3-0.6,4.5-3.3,4.5h-2.2V201z M142.5,209.4h1.3c1.8,0,2.5-0.9,2.5-3.8
		c0-3-0.7-3.9-2.5-3.9h-1.3V209.4z"/>
	<path class="st0" d="M148.9,203.7h0.9v1.3h-0.9V203.7z M148.9,208.8h0.9v1.3h-0.9V208.8z"/>
	<path class="st0" d="M157,201.7h-2.3V201h5.5v0.7h-2.3v8.4H157V201.7z"/>
	<path class="st0" d="M161.5,201h2.7c1.5,0,2.3,0.9,2.3,2.3c0,1.1-0.4,2.1-1.6,2.3l0,0c1.1,0.1,1.5,0.7,1.5,2.1v1
		c0,0.5,0.1,1,0.4,1.3h-1c-0.2-0.3-0.2-0.8-0.2-1.3v-0.8c-0.1-1.6-0.3-2.1-1.8-2.1h-1.5v4.1h-0.8L161.5,201L161.5,201z M162.3,205.3
		h1.4c1.3,0,2-0.6,2-1.8c0-1.1-0.5-1.8-1.9-1.8h-1.5V205.3z"/>
	<path class="st0" d="M170.6,201h1l2.7,9.1h-0.9l-0.7-2.6h-3.2l-0.7,2.6h-0.9L170.6,201z M172.5,206.8l-1.4-5.1l0,0l-1.4,5.1H172.5z
		"/>
	<path class="st0" d="M175.6,201h1.1l3.5,7.9l0,0V201h0.8v9.1h-1.1l-3.5-7.9l0,0v7.9h-0.8V201z"/>
	<path class="st0" d="M186.8,203.4c0-1.1-0.5-1.8-1.6-1.8s-1.7,0.7-1.7,1.6c0,2.7,4.4,1.2,4.4,4.4c0,1.8-1.1,2.7-2.7,2.7
		c-1.7,0-2.6-0.9-2.6-2.7v-0.3h0.8v0.3c0,1.2,0.6,1.9,1.8,1.9c1.1,0,2-0.6,2-1.8c0-2.7-4.4-1.2-4.4-4.4c0-1.4,0.9-2.4,2.5-2.4
		c1.7,0,2.5,0.9,2.5,2.5H186.8z"/>
	<path class="st0" d="M191.4,201h1l2.7,9.1h-0.9l-0.7-2.6h-3.2l-0.7,2.6h-0.9L191.4,201z M193.3,206.8l-1.4-5.1l0,0l-1.4,5.1H193.3z
		"/>
	<path class="st0" d="M201.5,207c-0.1,2.1-1.1,3.2-2.7,3.2c-1.9,0-2.9-1.4-2.9-4.7s1-4.7,2.9-4.7c1.8,0,2.6,1.3,2.6,2.8h-0.8
		c0-1.2-0.6-2.1-1.8-2.1c-1.3,0-2.1,1.1-2.1,4s0.8,4,2.1,4c1.1,0,1.8-1,1.9-2.5H201.5z"/>
	<path class="st0" d="M204.7,201.7h-2.3V201h5.5v0.7h-2.3v8.4h-0.8L204.7,201.7L204.7,201.7z"/>
	<path class="st0" d="M209.2,201h0.8v9.1h-0.8V201z"/>
	<path class="st0" d="M214.7,200.9c1.9,0,2.9,1.4,2.9,4.7s-1,4.7-2.9,4.7s-2.9-1.4-2.9-4.7S212.9,200.9,214.7,200.9z M214.7,209.6
		c1.3,0,2.1-1.1,2.1-4s-0.8-4-2.1-4s-2.1,1.1-2.1,4C212.6,208.5,213.4,209.6,214.7,209.6z"/>
	<path class="st0" d="M219.3,201h1.1l3.5,7.9l0,0V201h0.8v9.1h-1.1l-3.5-7.9l0,0v7.9h-0.8V201z"/>
	<path class="st0" d="M230.6,203.4c0-1.1-0.5-1.8-1.6-1.8s-1.7,0.7-1.7,1.6c0,2.7,4.4,1.2,4.4,4.4c0,1.8-1.1,2.7-2.7,2.7
		c-1.7,0-2.6-0.9-2.6-2.7v-0.3h0.8v0.3c0,1.2,0.6,1.9,1.8,1.9c1.1,0,2-0.6,2-1.8c0-2.7-4.4-1.2-4.4-4.4c0-1.4,0.9-2.4,2.5-2.4
		c1.7,0,2.5,0.9,2.5,2.5H230.6z"/>
	<path class="st0" d="M235.9,206.2v0.7h-2.8v-0.7H235.9z"/>
	<path class="st0" d="M239.5,201h1l2.7,9.1h-0.9l-0.7-2.6h-3.2l-0.7,2.6h-0.9L239.5,201z M241.4,206.8l-1.4-5.1l0,0l-1.4,5.1H241.4z
		"/>
	<path class="st0" d="M249.6,207c-0.1,2.1-1.1,3.2-2.7,3.2c-1.9,0-2.9-1.4-2.9-4.7s1-4.7,2.9-4.7c1.8,0,2.6,1.3,2.6,2.8h-0.8
		c0-1.2-0.6-2.1-1.8-2.1c-1.3,0-2.1,1.1-2.1,4s0.8,4,2.1,4c1.1,0,1.8-1,1.9-2.5H249.6z"/>
	<path class="st0" d="M255.5,209.7c-0.4,0.4-1,0.6-1.6,0.6c-1.9,0-2.9-1.4-2.9-4.7s1-4.7,2.9-4.7s2.9,1.4,2.9,4.7
		c0,1.7-0.3,2.9-0.8,3.6l0.9,0.9l-0.4,0.5L255.5,209.7z M254,208.2l0.4-0.5l1,1c0.4-0.6,0.5-1.6,0.5-3.1c0-2.9-0.8-4-2.1-4
		s-2.1,1.1-2.1,4s0.8,4,2.1,4c0.4,0,0.8-0.1,1.1-0.4L254,208.2z"/>
	<path class="st0" d="M258.5,201h0.8v6.5c0,1.4,0.6,2,1.8,2c1.2,0,1.8-0.7,1.8-2V201h0.8v6.5c0,1.9-0.9,2.7-2.6,2.7
		s-2.6-0.8-2.6-2.7L258.5,201L258.5,201z"/>
	<path class="st0" d="M265.5,201h0.8v9.1h-0.8V201z"/>
	<path class="st0" d="M272.2,203.4c0-1.1-0.5-1.8-1.6-1.8s-1.7,0.7-1.7,1.6c0,2.7,4.4,1.2,4.4,4.4c0,1.8-1.1,2.7-2.7,2.7
		c-1.7,0-2.6-0.9-2.6-2.7v-0.3h0.8v0.3c0,1.2,0.6,1.9,1.8,1.9c1.1,0,2-0.6,2-1.8c0-2.7-4.4-1.2-4.4-4.4c0-1.4,0.9-2.4,2.5-2.4
		c1.7,0,2.5,0.9,2.5,2.5H272.2z"/>
	<path class="st0" d="M274.8,201h0.8v9.1h-0.8V201z"/>
	<path class="st0" d="M279.3,201.7H277V201h5.5v0.7h-2.3v8.4h-0.8v-8.4H279.3z"/>
	<path class="st0" d="M283.8,201h0.8v9.1h-0.8V201z"/>
	<path class="st0" d="M289.3,200.9c1.9,0,2.9,1.4,2.9,4.7s-1,4.7-2.9,4.7s-2.9-1.4-2.9-4.7S287.4,200.9,289.3,200.9z M289.3,209.6
		c1.3,0,2.1-1.1,2.1-4s-0.8-4-2.1-4c-1.3,0-2.1,1.1-2.1,4C287.2,208.5,288,209.6,289.3,209.6z"/>
	<path class="st0" d="M293.9,201h1.1l3.5,7.9l0,0V201h0.8v9.1h-1.1l-3.5-7.9l0,0v7.9h-0.8V201z"/>
	<path class="st0" d="M305.2,203.4c0-1.1-0.5-1.8-1.6-1.8s-1.7,0.7-1.7,1.6c0,2.7,4.4,1.2,4.4,4.4c0,1.8-1.1,2.7-2.7,2.7
		c-1.7,0-2.6-0.9-2.6-2.7v-0.3h0.8v0.3c0,1.2,0.6,1.9,1.8,1.9c1.1,0,2-0.6,2-1.8c0-2.7-4.4-1.2-4.4-4.4c0-1.4,0.9-2.4,2.5-2.4
		c1.7,0,2.5,0.9,2.5,2.5H305.2z"/>
	<path class="st0" d="M316.5,207c-0.1,2.1-1.1,3.2-2.7,3.2c-1.9,0-2.9-1.4-2.9-4.7s1-4.7,2.9-4.7c1.8,0,2.6,1.3,2.6,2.8h-0.8
		c0-1.2-0.6-2.1-1.8-2.1c-1.3,0-2.1,1.1-2.1,4s0.8,4,2.1,4c1.1,0,1.8-1,1.9-2.5H316.5z"/>
	<path class="st0" d="M320.8,200.9c1.9,0,2.9,1.4,2.9,4.7s-1,4.7-2.9,4.7s-2.9-1.4-2.9-4.7S318.9,200.9,320.8,200.9z M320.8,209.6
		c1.3,0,2.1-1.1,2.1-4s-0.8-4-2.1-4c-1.3,0-2.1,1.1-2.1,4C318.7,208.5,319.5,209.6,320.8,209.6z"/>
	<path class="st0" d="M325.4,201h1.1l3.5,7.9l0,0V201h0.8v9.1h-1.1l-3.5-7.9l0,0v7.9h-0.8V201z"/>
	<path class="st0" d="M336.7,203.4c0-1.1-0.5-1.8-1.6-1.8s-1.7,0.7-1.7,1.6c0,2.7,4.4,1.2,4.4,4.4c0,1.8-1.1,2.7-2.7,2.7
		c-1.7,0-2.6-0.9-2.6-2.7v-0.3h0.8v0.3c0,1.2,0.6,1.9,1.8,1.9c1.1,0,2-0.6,2-1.8c0-2.7-4.4-1.2-4.4-4.4c0-1.4,0.9-2.4,2.5-2.4
		c1.7,0,2.5,0.9,2.5,2.5H336.7z"/>
	<path class="st0" d="M339.2,201h0.8v6.5c0,1.4,0.6,2,1.8,2c1.2,0,1.8-0.7,1.8-2V201h0.8v6.5c0,1.9-0.9,2.7-2.6,2.7
		s-2.6-0.8-2.6-2.7L339.2,201L339.2,201z"/>
	<path class="st0" d="M346.2,201h0.8v8.4h3.8v0.7h-4.6L346.2,201L346.2,201z"/>
	<path class="st0" d="M352.9,201.7h-2.3V201h5.5v0.7h-2.3v8.4H353v-8.4H352.9z"/>
	<path class="st0" d="M357.4,201h0.8v9.1h-0.8V201z"/>
	<path class="st0" d="M360.2,201h1.1l3.5,7.9l0,0V201h0.8v9.1h-1.1l-3.5-7.9l0,0v7.9h-0.8V201z"/>
	<path class="st0" d="M369.9,206.2v-0.7h2.9v4.6h-0.6v-1.5l0,0c-0.3,1-1.1,1.6-2,1.6c-1.9,0-2.9-1.4-2.9-4.7s1-4.7,2.9-4.7
		c1.7,0,2.5,1.1,2.6,2.7H372c0-1.1-0.6-2-1.8-2c-1.3,0-2.1,1.1-2.1,4s0.8,4,2.1,4c1.2,0,1.9-1.1,1.9-3.2v-0.2L369.9,206.2
		L369.9,206.2z"/>
	<path class="st0" d="M377.9,201h2.7c1.5,0,2.3,0.9,2.3,2.3c0,1.1-0.4,2.1-1.6,2.3l0,0c1.1,0.1,1.5,0.7,1.5,2.1v1
		c0,0.5,0.1,1,0.4,1.3h-1c-0.2-0.3-0.2-0.8-0.2-1.3v-0.8c-0.1-1.6-0.3-2.1-1.8-2.1h-1.5v4.1h-0.8V201z M378.7,205.3h1.4
		c1.3,0,2-0.6,2-1.8c0-1.1-0.5-1.8-1.9-1.8h-1.5V205.3z"/>
	<path class="st0" d="M384.7,201h4.5v0.7h-3.7v3.3h3.4v0.7h-3.4v3.7h3.8v0.7h-4.6L384.7,201L384.7,201z"/>
	<path class="st0" d="M390.7,201h2.4c1.8,0,2.5,1,2.5,2.6c0,1.4-0.7,2.6-2.8,2.6h-1.4v3.9h-0.8L390.7,201L390.7,201z M391.5,205.5
		h1.4c1.1,0,1.9-0.5,1.9-1.9s-0.7-1.9-1.9-1.9h-1.4V205.5z"/>
	<path class="st0" d="M400,200.9c1.9,0,2.9,1.4,2.9,4.7s-1,4.7-2.9,4.7s-2.9-1.4-2.9-4.7S398.1,200.9,400,200.9z M400,209.6
		c1.3,0,2.1-1.1,2.1-4s-0.8-4-2.1-4c-1.3,0-2.1,1.1-2.1,4S398.7,209.6,400,209.6z"/>
	<path class="st0" d="M404.6,201h2.7c1.5,0,2.3,0.9,2.3,2.3c0,1.1-0.4,2.1-1.6,2.3l0,0c1.1,0.1,1.5,0.7,1.5,2.1v1
		c0,0.5,0.1,1,0.4,1.3h-1c-0.2-0.3-0.2-0.8-0.2-1.3v-0.8c-0.1-1.6-0.3-2.1-1.8-2.1h-1.5v4.1h-0.8V201z M405.4,205.3h1.4
		c1.3,0,2-0.6,2-1.8c0-1.1-0.5-1.8-1.9-1.8h-1.5V205.3z"/>
	<path class="st0" d="M413.1,201.7h-2.3V201h5.5v0.7H414v8.4h-0.8v-8.4H413.1z"/>
</g>
<g>
	<g>
		<g>
			<path class="st0" d="M159,256h1.6v10.5h6.3v1.3H159V256z"/>
		</g>
	</g>
	<g>
		<g>
			<path class="st0" d="M169.8,256h8.2v1.3h-6.6v3.8h6.2v1.3h-6.2v4.1h6.7v1.3h-8.2L169.8,256L169.8,256L169.8,256z"/>
		</g>
	</g>
	<g>
		<g>
			<path class="st0" d="M185.2,256h1.7l4.6,11.9h-1.7l-1.3-3.6h-5l-1.3,3.6h-1.6L185.2,256z M184,262.9h4l-2-5.5l0,0L184,262.9z"/>
		</g>
	</g>
	<g>
		<g>
			<path class="st0" d="M194.4,256h5.6c2.2,0,3.6,1.2,3.6,3.1c0,1.4-0.6,2.6-2.1,3l0,0c1.4,0.3,1.7,1.3,1.8,2.4
				c0.1,1.2,0,2.5,0.7,3.3h-1.8c-0.4-0.5-0.2-1.8-0.4-2.9c-0.2-1.2-0.4-2.1-2-2.1h-3.9v5.1h-1.6L194.4,256L194.4,256z M199.3,261.4
				c1.5,0,2.7-0.4,2.7-2.1c0-1.2-0.6-2-2.1-2H196v4.1H199.3z"/>
		</g>
	</g>
	<g>
		<g>
			<path class="st0" d="M207.5,256h1.7l6.3,9.6l0,0V256h1.5v11.9h-1.7l-6.2-9.5l0,0v9.5h-1.5L207.5,256L207.5,256z"/>
		</g>
	</g>
	<g>
		<g>
			<path class="st0" d="M227.5,256h2.2l3.7,10l3.8-10h2.2v11.9h-1.5V258l0,0l-3.7,9.9h-1.5L229,258l0,0v9.9h-1.5V256z"/>
		</g>
	</g>
	<g>
		<g>
			<path class="st0" d="M248.6,255.7c3.8,0,5.7,3,5.7,6.2c0,3.2-1.9,6.2-5.7,6.2s-5.7-3-5.7-6.2
				C242.9,258.7,244.8,255.7,248.6,255.7z M248.6,266.8c2.9,0,4.1-2.5,4.1-4.9s-1.2-4.9-4.1-4.9s-4.1,2.5-4.1,4.9
				S245.7,266.8,248.6,266.8z"/>
		</g>
	</g>
	<g>
		<g>
			<path class="st0" d="M257.8,256h5.6c2.2,0,3.6,1.2,3.6,3.1c0,1.4-0.6,2.6-2.1,3l0,0c1.4,0.3,1.7,1.3,1.8,2.4
				c0.1,1.2,0,2.5,0.7,3.3h-1.7c-0.4-0.5-0.2-1.8-0.4-2.9c-0.2-1.2-0.4-2.1-2-2.1h-3.9v5.1h-1.6V256L257.8,256z M262.7,261.4
				c1.5,0,2.7-0.4,2.7-2.1c0-1.2-0.6-2-2.1-2h-3.9v4.1H262.7z"/>
		</g>
	</g>
	<g>
		<g>
			<path class="st0" d="M270.9,256h8.2v1.3h-6.6v3.8h6.2v1.3h-6.2v4.1h6.7v1.3H271L270.9,256L270.9,256L270.9,256z"/>
		</g>
	</g>
</g>
<g>
	<g>
		<path class="st0" d="M291.5,277H146.6v-31.7h144.9V277z M147.9,275.8h142.4v-29.3H147.9V275.8z"/>
	</g>
</g>
<rect x="180.9" y="3.4" class="st0" width="3.1" height="27.8"/>
<path class="st0" d="M203.4,31.1V19c0-4.5-1.6-6.5-4.9-6.5c-2.9,0-5.2,1.9-5.2,6.5v12.2h-3V10.3h3v2.5c1.2-1.7,3.1-3,5.8-3
	c4.4,0,7.3,2.6,7.3,8.6v12.7C206.4,31.1,203.4,31.1,203.4,31.1z"/>
<path class="st0" d="M215.7,12.8v13.6c0,1.9,0.5,2.5,2.1,2.5c1.2,0,2-0.2,2.9-0.6l-0.2,2.6c-1.2,0.5-2.3,0.7-3.9,0.7
	c-2.6,0-4-1.3-4-4.7v-14H210v-2.6h2.6V3.9l3-1.7v8.1h5.2v2.5H215.7z"/>
<path class="st0" d="M232.5,12.5c-3.1,0-5.2,2.2-5.6,6.9h11.2C237.9,15.3,236.2,12.5,232.5,12.5 M240.8,21.7h-13.9
	c0.3,4.4,2.4,7.3,5.8,7.3c2.4,0,3.8-0.7,5.8-2l1.4,2.1c-2.5,1.6-4.3,2.4-7.5,2.4c-3.8,0-8.5-2.8-8.5-11c0-6.6,3.7-10.8,8.6-10.8
	c5.4,0,8.4,4.3,8.4,10.2C240.9,20.8,240.9,21.3,240.8,21.7"/>
<polygon class="st0" points="245.9,31.1 245.9,3.9 248.9,2.2 248.9,31.1 "/>
<polygon class="st0" points="255.1,31.1 255.1,3.9 258,2.2 258,31.1 "/>
<path class="st0" d="M264.2,10.3h3v20.8h-3V10.3z M265.8,6.6c-1.2,0-2.2-1-2.2-2.1c0-1.2,1-2.1,2.2-2.1c1.1,0,2.1,1,2.1,2.1
	C267.8,5.6,266.9,6.6,265.8,6.6"/>
<path class="st0" d="M285.8,15.6c-1.2-1.7-3.2-3.1-5.6-3.1c-3.5,0-5.2,3-5.2,8.6c0,5.2,2,8,5.3,8c2.2,0,4-1.2,5.5-3L285.8,15.6
	L285.8,15.6z M278.2,38.8l-1-2.3c6.9-0.2,8.5-2,8.5-6.9v-1.1c-1.5,1.6-3.5,3-6.3,3c-4.2,0-7.5-3.2-7.5-10.5c0-7.4,3.5-11.2,7.9-11.2
	c2.6,0,4.4,1.1,5.9,2.8v-2.3h3v19C288.8,35.6,286,38.6,278.2,38.8"/>
<path class="st0" d="M302.1,12.5c-3.1,0-5.2,2.2-5.6,6.9h11.2C307.4,15.3,305.7,12.5,302.1,12.5 M310.3,21.7h-13.9
	c0.3,4.4,2.4,7.3,5.8,7.3c2.4,0,3.9-0.7,5.8-2l1.4,2.1c-2.5,1.6-4.3,2.4-7.5,2.4c-3.8,0-8.5-2.8-8.5-11c0-6.6,3.7-10.8,8.6-10.8
	c5.4,0,8.4,4.3,8.4,10.2C310.5,20.8,310.4,21.3,310.3,21.7"/>
<path class="st0" d="M328.3,31.1V19c0-4.5-1.6-6.5-4.9-6.5c-2.9,0-5.2,1.9-5.2,6.5v12.2h-3V10.3h3v2.5c1.2-1.7,3.1-3,5.8-3
	c4.4,0,7.3,2.6,7.3,8.6v12.7C331.3,31.1,328.3,31.1,328.3,31.1z"/>
<path class="st0" d="M348.8,14.6c-1.5-1.4-2.9-2.1-5-2.1c-3.3,0-5.8,2.9-5.8,8.1c0,5.1,2.2,8.4,5.9,8.4c2,0,3.4-0.8,4.8-2.2l1.8,1.9
	c-1.7,1.8-3.8,2.9-6.7,2.9c-4.6,0-8.8-3.5-8.8-10.8c0-7.7,4.6-11,9-11c2.8,0,5,1,6.6,2.5L348.8,14.6z"/>
<path class="st0" d="M361.8,12.5c-3.1,0-5.2,2.2-5.6,6.9h11.2C367.2,15.3,365.4,12.5,361.8,12.5 M370.1,21.7h-13.9
	c0.3,4.4,2.4,7.3,5.8,7.3c2.4,0,3.9-0.7,5.8-2l1.4,2.1c-2.5,1.6-4.3,2.4-7.5,2.4c-3.8,0-8.5-2.8-8.5-11c0-6.6,3.7-10.8,8.6-10.8
	c5.4,0,8.4,4.3,8.4,10.2C370.2,20.8,370.2,21.3,370.1,21.7"/>
<path class="st0" d="M79.1,20l6.2-11.3l6,11.3H79.1z M86.7,3.4c-2.9,0.1-5.1,1.8-6.2,3.5L66.7,31.1h6.5l3.2-6.1H94l3.3,6.1h7.3
	l-16-27.7C88.6,3.4,86.7,3.4,86.7,3.4z"/>
<path class="st0" d="M163.3,3.4c-3,0.1-4.6,1.7-6.2,3.6l-10,13.2L133.9,3.4c-3.1,0.1-5.2,1.8-5.2,4.3v13.9l0,0v2.9l5.2,5.2V14
	c0-0.9-0.1-1.8-0.2-3c0.4,1.1,1,2,1.7,2.9l10.4,13.9h1.4l10.4-13.9c0.5-0.6,1-1.7,1.6-2.9c-0.2,1.4-0.2,2.4-0.2,3v17.2h6V3.4H163.3z
	"/>
<path class="st0" d="M126.9,25.9L126.9,25.9h-17.7V3.4H109c-3.2,0.1-6.2,2.1-6.3,4.8v15.4l4.3,7.6h25.4l-5.2-5.2L126.9,25.9
	L126.9,25.9z"/>
</svg>
