<?xml version="1.0" encoding="utf-8"?>
<!-- Generator: Adobe Illustrator 21.0.2, SVG Export Plug-In . SVG Version: 6.00 Build 0)  -->
<svg version="1.1" id="Layer_1" xmlns="http://www.w3.org/2000/svg" xmlns:xlink="http://www.w3.org/1999/xlink" x="0px" y="0px"
	 viewBox="0 0 269.2 80.7" style="enable-background:new 0 0 269.2 80.7;" xml:space="preserve">
<style type="text/css">
	.st0{fill:#FFFFFF;}
</style>
<title>Untitled-3</title>
<path class="st0" d="M82.4,38h2.5l5.8,12.7h-2.4l-1.7-3.8h-6.2l-1.7,3.8h-2.3L82.4,38z M86,45.5l-2.4-5.6l-2.5,5.6H86z"/>
<path class="st0" d="M79.1,56.5c-0.2-0.4-0.3-0.8-0.3-1.2c0-0.8,0.4-1.5,1-2c0.8-0.6,1.8-0.9,2.8-0.8c0.9-0.1,1.8,0.2,2.6,0.8
	c0.6,0.4,1,1,1,1.8c0,0.8-0.4,1.6-1,2.2c-0.6,0.5-1.2,0.9-1.9,1.2l2.9,2.8c0.2-0.5,0.3-0.8,0.4-1c0.1-0.3,0.2-0.7,0.2-1h1.9
	c-0.1,0.8-0.3,1.6-0.7,2.4c-0.4,0.7-0.6,1-0.6,0.9l2.8,2.7h-2.5l-1.5-1.4c-0.5,0.4-1,0.8-1.6,1.1c-0.9,0.4-2,0.6-3,0.6
	c-1.3,0.1-2.6-0.3-3.6-1.1c-0.7-0.6-1.1-1.5-1.1-2.4c0-0.9,0.4-1.8,1.1-2.4c0.8-0.6,1.6-1.1,2.5-1.5C80,57.6,79.5,57.1,79.1,56.5
	 M83.8,63.6c0.5-0.2,1-0.6,1.3-1l-3.6-3.5c-0.7,0.3-1.4,0.8-2,1.2c-0.5,0.4-0.7,1-0.7,1.6c0,0.7,0.4,1.3,1,1.6
	c0.6,0.4,1.3,0.5,2,0.5C82.5,64.1,83.2,63.9,83.8,63.6 M83.7,56.4c0.4-0.3,0.6-0.8,0.6-1.3c0-0.4-0.2-0.8-0.5-1
	c-0.4-0.3-0.8-0.4-1.2-0.4c-0.6-0.1-1.2,0.2-1.7,0.6c-0.2,0.2-0.2,0.5-0.2,0.7c0,0.4,0.1,0.7,0.4,1c0.4,0.5,0.8,0.9,1.2,1.3
	C82.8,57.1,83.3,56.7,83.7,56.4"/>
<path class="st0" d="M75.9,67.8H79l4.6,10.7l4.6-10.7h3v12.7h-2V73c0-0.3,0-0.7,0-1.3s0-1.2,0-1.9l-4.5,10.7h-2.1l-4.6-10.8v0.4
	c0,0.3,0,0.8,0,1.4s0,1.1,0,1.4v7.5h-2L75.9,67.8z"/>
<polygon class="st0" points="47.8,0 0,80.6 11,80.6 49.9,12.2 49.9,80.6 58.5,80.6 58.5,0 "/>
<polygon class="st0" points="46.6,23.3 37.9,38.6 37.9,80.6 46.6,80.6 "/>
<polygon class="st0" points="61.4,23.3 70.1,38.6 70.1,80.6 61.4,80.6 "/>
<path class="st0" d="M114.5,55.9l-0.2-0.8c-0.5,0.7-1.3,1.1-2.2,1.1c-2.6,0-3.1-2.2-3.1-4.2v-9.1c0-1.5,0.2-4.4,3.5-4.4
	c1.9,0,3.1,0.9,3.1,3.5V44h-2.1v-2c0-0.9,0-1.7-1-1.7c-0.8,0-1.2,0.3-1.2,1.8v10c0,1.3,0.1,2.1,1.1,2.1c1.2,0,1.2-0.9,1.2-1.5v-3.9
	h-1.4v-2.1h3.7v9.2H114.5z"/>
<path class="st0" d="M119.5,55.9V38.6h2.3v15.2h3.8v2.1L119.5,55.9z"/>
<path class="st0" d="M134.9,52c0,3.4-1.8,4-3.8,4s-3.5-0.8-3.5-4V43c0-1.6,0.2-4.5,3.7-4.5c3.1,0,3.5,2.2,3.5,4.5V52z M132.6,43
	c0-1.8-0.2-2.6-1.3-2.6c-1.4,0-1.4,1.2-1.4,2v9.9c0,0.9,0.1,1.8,1.3,1.8c1.4,0,1.4-1.1,1.4-2.1V43z"/>
<path class="st0" d="M142.4,38.6c2.4,0,2.6,0.9,2.6,3.5v2.2c0,1.3-0.1,2.4-1.9,2.5c1.5,0.1,1.9,0.8,1.9,2.4v3.1
	c0,2.6-0.2,3.6-3.1,3.6h-3.6V38.6H142.4z M140.5,45.9h1c1,0,1.3-0.3,1.3-1.8v-1.7c0-1-0.1-1.6-1.1-1.6h-1.1L140.5,45.9z M140.5,53.8
	h1.2c1.1,0,1.1-0.2,1.1-1.6v-2.7c0-1-0.1-1.6-1.1-1.6h-1.2L140.5,53.8z"/>
<path class="st0" d="M152.9,55.9l-0.4-3.2h-2.6l-0.4,3.2h-2.2l2.4-17.3h2.8l2.7,17.3H152.9z M151,41.6l-1,9h2.1L151,41.6z"/>
<path class="st0" d="M157.4,55.9V38.6h2.3v15.2h3.8v2.1L157.4,55.9z"/>
<path class="st0" d="M174.5,40.7v15.3h-2.3V40.7h-2.6v-2h7.6v2H174.5z"/>
<path class="st0" d="M183.9,55.9c-0.3-1.2-0.4-2.4-0.3-3.6v-1.6c0-1.1,0-2.8-1.1-2.8h-1.1v8h-2.3V38.6h3.8c2.2,0,3.1,0.4,3.1,3.4
	v2.2c0,2.8-1,2.9-2.1,3c1.6,0.1,2,1,2,3.1v2.3c-0.1,1.2,0,2.3,0.4,3.4L183.9,55.9z M181.4,46h1.1c1,0,1.1-0.8,1.1-1.9v-1.7
	c0-1.1,0-1.7-0.8-1.7h-1.5V46z"/>
<path class="st0" d="M193.6,55.9l-0.4-3.2h-2.6l-0.4,3.2H188l2.4-17.3h2.8l2.7,17.3H193.6z M191.8,41.6l-1,9h2.1L191.8,41.6z"/>
<path class="st0" d="M202.8,55.9L200,43.2c0,2.5,0.2,12.7,0.2,12.7h-2.2V38.6h2.4l2.8,11.8c0,0-0.1-10.7-0.1-11.8h2.2v17.3H202.8z"
	/>
<path class="st0" d="M210.6,49.6v3.2c0,1.1,0.3,1.7,1.2,1.7c1.1,0,1.1-1.2,1.1-2.2c0-2-1.1-3.3-1.9-4.6l-0.9-1.4
	c-0.9-1.3-1.4-2.8-1.4-4.4c-0.2-1.8,1.1-3.4,2.9-3.6c0.2,0,0.4,0,0.6,0c2.5,0,2.9,1.6,2.9,3v3H213v-3c0-0.5-0.1-1.3-0.9-1.3
	c-1.1,0-1.1,1-1.1,1.8c0,1.5,0.6,2.9,1.5,4l1.2,1.8c0.9,1.2,1.5,2.7,1.5,4.3c0,1,0,4.3-3.4,4.3c-0.9,0.1-1.9-0.3-2.5-1
	c-0.6-0.8-0.9-1.8-0.8-2.7v-2.8H210.6z"/>
<path class="st0" d="M222.8,55.9l-0.4-3.2h-2.6l-0.4,3.2h-2.2l2.4-17.3h2.8l2.7,17.3H222.8z M220.9,41.6l-1,9h2.1L220.9,41.6z"/>
<path class="st0" d="M234.7,51.8c0,2.1-0.7,4.4-3.8,4.4c-3.4,0-3.7-2.7-3.7-4.1v-8.7c0-2.1,0.3-4.9,3.9-4.9c2.9,0,3.6,1.9,3.6,4.2
	v2.2h-2.3v-2.7c0-0.7-0.1-1.8-1.4-1.8c-1.1,0-1.4,0.9-1.4,1.9v9.8c0,1.6,0.4,2,1.4,2c1.3,0,1.4-1,1.4-2v-3.4h2.3L234.7,51.8z"/>
<path class="st0" d="M241.3,40.7v15.3h-2.3V40.7h-2.6v-2h7.6v2H241.3z"/>
<path class="st0" d="M245.7,55.9V38.6h2.2v17.3H245.7z"/>
<path class="st0" d="M258.5,52c0,3.4-1.8,4-3.8,4c-2,0-3.5-0.8-3.5-4V43c0-1.6,0.2-4.5,3.7-4.5c3.1,0,3.5,2.2,3.5,4.5V52z M256.2,43
	c0-1.8-0.2-2.6-1.3-2.6c-1.4,0-1.4,1.2-1.4,2v9.9c0,0.9,0.1,1.8,1.3,1.8c1.3,0,1.4-1.1,1.4-2.1V43z"/>
<path class="st0" d="M266.5,55.9l-2.8-12.7c0,2.5,0.2,12.7,0.2,12.7h-2.1V38.6h2.5l2.8,11.8c0,0-0.1-10.7-0.1-11.8h2.2v17.3H266.5z"
	/>
<path class="st0" d="M116.6,80.4l-1-6.2h-4.2l-1.1,6.2h-1.5l3.7-20.4h1.9l3.6,20.4H116.6z M113.5,61.9l-1.9,11h3.8L113.5,61.9z"/>
<path class="st0" d="M123.8,60.2c1.8,0,3.7,0.1,5,1.7c1.1,1.3,1.4,3.2,1.4,6.6v5.7c0,2.1-0.5,6.2-5.4,6.2H122V60.2H123.8z
	 M123.4,79.2h1.2c3,0,4.2-1.7,4.2-5.8v-5c0-1.4,0-3.8-0.7-5.1c-0.7-1.2-2.1-1.9-3.5-1.8h-1.1L123.4,79.2z"/>
<path class="st0" d="M138.8,80.4h-1.5l-3.4-20.2h1.5l2.7,17.3l3-17.3h1.4L138.8,80.4z"/>
<path class="st0" d="M146.3,80.4V60.2h1.5v20.2H146.3z"/>
<path class="st0" d="M153.8,73.8v1.6c0,1.5,0,2.3,0.6,3.1c0.6,0.7,1.5,1,2.4,1c2,0,2.6-1.3,2.6-3.3c0-2.2-0.6-3.2-3-5.4
	s-3.5-3.5-3.5-6.4c0-1.7,0.2-4.5,3.9-4.5s3.7,2.8,3.7,4.7V66h-1.3v-1.8c0-1.2,0-3.1-2.4-3.1c-1.8,0-2.4,1.1-2.4,3s0.4,2.8,3.4,5.9
	c2.1,2.2,3,3.2,3,5.9c0,1.9-0.3,4.8-4.1,4.8c-2.4,0-4.2-1.2-4.2-4.1v-2.8H153.8z"/>
<path class="st0" d="M165.2,64.4c0-2.5,1.2-4.4,4.1-4.4c3.8,0,4.1,2.8,4.1,5v11.5c0,1.8-0.8,4.2-4.2,4.2c-3,0-4-1.8-4-4.4
	L165.2,64.4z M172,65.3c0-3.2-1.1-4.1-2.8-4.1c-2,0-2.7,1.5-2.7,3.1v11.9c0,2,0.8,3.2,2.8,3.2c2.3,0,2.7-2,2.7-3.5V65.3z"/>
<path class="st0" d="M185.7,80.4l-3.7-9.9h-2.2v9.9h-1.4V60.2h4c2.5,0,3.9,1.1,3.9,3.5v3.4c0.1,1.7-1.2,3.2-2.8,3.3l3.7,10
	L185.7,80.4z M179.8,69.3h2.6c1.9,0,2.4-1,2.4-2.1v-3.2c0-1.7-0.4-2.7-2.2-2.7h-2.8V69.3z"/>
<path class="st0" d="M194.7,71.5v8.9h-1.4v-8.9l-4-11.3h1.5l3.2,9.5l3.2-9.5h1.6L194.7,71.5z"/>
<path class="st0" d="M216.1,80.4v-1.6c-0.7,1.2-2,1.9-3.4,1.9c-1.2,0-2.3-0.6-3-1.6c-0.6-1-0.8-1.8-0.8-4V64.4
	c0-2.8,1.1-4.5,4.2-4.5c2.9,0,3.9,1.8,3.9,3.7v3h-1.4v-2.3c0-1.6-0.4-3.2-2.6-3.2s-2.8,1.5-2.8,3.3v10.3c-0.1,1.1,0,2.2,0.4,3.3
	c0.4,0.9,1.2,1.4,2.2,1.4c1.8,0,2.9-2.1,2.9-3.4v-3.7h-3v-1.2h4.4v9.2H216.1z"/>
<path class="st0" d="M229.7,80.4l-3.7-9.9h-2.2v9.9h-1.4V60.2h4c2.5,0,3.9,1.1,3.9,3.5v3.4c0.1,1.7-1.2,3.2-2.8,3.3l3.7,10
	L229.7,80.4z M223.8,69.3h2.6c1.9,0,2.4-1,2.4-2.1v-3.2c0-1.7-0.4-2.7-2.2-2.7h-2.8V69.3z"/>
<path class="st0" d="M234.7,64.4c0-2.5,1.2-4.4,4.1-4.4c3.8,0,4.1,2.8,4.1,5v11.5c0,1.8-0.8,4.2-4.2,4.2c-3,0-4-1.8-4-4.4
	L234.7,64.4z M241.6,65.3c0-3.2-1.1-4.1-2.8-4.1c-2,0-2.7,1.5-2.7,3.1v11.9c0,2,0.8,3.2,2.8,3.2c2.3,0,2.7-2,2.7-3.5V65.3z"/>
<path class="st0" d="M247.9,60.2h1.4v15.7c0,1.9,0.2,3.6,2.7,3.6c2.1,0,2.6-1.4,2.6-3.4V60.2h1.4v16.2c0,3.2-1.8,4.4-4.1,4.4
	c-2.1,0-4-1-4-4.4V60.2z"/>
<path class="st0" d="M264.9,60.2c1.1-0.1,2.3,0.2,3.2,0.8c1.1,0.9,1.1,2.2,1.1,3.7v2.3c0.1,1-0.2,2.1-0.8,2.9
	c-1,0.9-2.3,1.4-3.6,1.3h-2.1v9.2h-1.4V60.2H264.9z M262.6,70h2.3c0.8,0.1,1.6-0.2,2.2-0.7c0.5-0.6,0.7-1.3,0.7-2v-2
	c0-2.7-0.2-3.9-2.8-3.9h-2.3V70z"/>
<rect x="99.4" y="37.9" class="st0" width="1.8" height="42.7"/>
</svg>
