<svg id="Layer_1" data-name="Layer 1" xmlns="http://www.w3.org/2000/svg" viewBox="0 0 269.16 80.74"><defs><style>.cls-1{fill:#002b49;}.cls-2{fill:#5b8ab5;}</style></defs><title>Untitled-3</title><path class="cls-1" d="M84.31,40.52H86.8l5.75,12.7H90.19l-1.66-3.84h-6.2l-1.74,3.84H78.32ZM87.93,48,85.48,42.4,82.95,48Z" transform="translate(-1.89 -2.5)"/><path class="cls-1" d="M81,59a2.62,2.62,0,0,1-.34-1.23,2.51,2.51,0,0,1,1-2,4.36,4.36,0,0,1,2.77-.81,4,4,0,0,1,2.58.76A2.27,2.27,0,0,1,88,57.47a2.9,2.9,0,0,1-1,2.15,9.14,9.14,0,0,1-1.87,1.24l2.89,2.76c.18-.46.3-.81.37-1a7.35,7.35,0,0,0,.22-1h1.89A7.79,7.79,0,0,1,89.83,64c-.36.74-.55,1-.55.9l2.77,2.7H89.59L88.1,66.15a7.56,7.56,0,0,1-1.62,1.1,6.79,6.79,0,0,1-3,.61,5.12,5.12,0,0,1-3.59-1.06,3.25,3.25,0,0,1-1.12-2.39A3.05,3.05,0,0,1,79.9,62a12.5,12.5,0,0,1,2.49-1.46A6.82,6.82,0,0,1,81,59m4.69,7.1a4.23,4.23,0,0,0,1.33-1l-3.59-3.49a10.74,10.74,0,0,0-2,1.24,2.05,2.05,0,0,0-.71,1.58A1.71,1.71,0,0,0,81.71,66a3.8,3.8,0,0,0,2,.54,4.47,4.47,0,0,0,2.05-.44m-.15-7.17a1.75,1.75,0,0,0,.63-1.31,1.23,1.23,0,0,0-.46-1,1.86,1.86,0,0,0-1.25-.41,1.91,1.91,0,0,0-1.66.64,1.15,1.15,0,0,0-.24.71,1.65,1.65,0,0,0,.36,1,10.24,10.24,0,0,0,1.21,1.26,8.41,8.41,0,0,0,1.41-.94" transform="translate(-1.89 -2.5)"/><path class="cls-1" d="M77.84,70.26h3.05L85.44,81,90,70.26h3V83H91v-7.5c0-.26,0-.69,0-1.29s0-1.24,0-1.93L86.49,83H84.35L79.78,72.25v.39c0,.31,0,.79,0,1.43s0,1.1,0,1.4V83h-2Z" transform="translate(-1.89 -2.5)"/><polygon class="cls-1" points="47.75 0 0 80.57 11.04 80.57 49.88 12.23 49.88 80.57 58.54 80.57 58.54 0 47.75 0"/><polygon class="cls-2" points="46.57 23.31 37.86 38.62 37.86 80.57 46.57 80.57 46.57 23.31"/><polygon class="cls-2" points="61.38 23.31 70.09 38.62 70.09 80.57 61.38 80.57 61.38 23.31"/><path class="cls-1" d="M116.39,58.41l-.2-.81A2.39,2.39,0,0,1,114,58.67c-2.6,0-3.06-2.2-3.06-4.21V45.33c0-1.52.15-4.41,3.48-4.41,1.91,0,3.09.91,3.09,3.55v2.06h-2.11v-2c0-.86,0-1.74-1-1.74-.76,0-1.18.32-1.18,1.84v10c0,1.3.1,2.08,1.08,2.08,1.15,0,1.2-.88,1.2-1.54V51.3h-1.4V49.2h3.65v9.21Z" transform="translate(-1.89 -2.5)"/><path class="cls-1" d="M121.36,58.41V41.11h2.28V56.27h3.77v2.13Z" transform="translate(-1.89 -2.5)"/><path class="cls-1" d="M136.79,54.54c0,3.36-1.81,4-3.77,4s-3.48-.81-3.48-4V45.47c0-1.57.2-4.48,3.72-4.48,3.09,0,3.53,2.23,3.53,4.53Zm-2.25-9c0-1.81-.17-2.57-1.32-2.57-1.4,0-1.4,1.22-1.4,2v9.87c0,.93.15,1.81,1.32,1.81,1.35,0,1.4-1.08,1.4-2.06Z" transform="translate(-1.89 -2.5)"/><path class="cls-1" d="M144.26,41.11c2.4,0,2.62.93,2.62,3.45v2.16c0,1.3-.07,2.4-1.89,2.55,1.54.12,1.89.76,1.89,2.38v3.14c0,2.62-.25,3.62-3.09,3.62h-3.62V41.11Zm-1.89,7.25h1c1,0,1.27-.29,1.27-1.84V44.81c0-1-.12-1.64-1.13-1.64h-1.15Zm0,7.91h1.18c1.1,0,1.15-.15,1.15-1.64V51.89c0-1-.12-1.64-1.13-1.64h-1.2Z" transform="translate(-1.89 -2.5)"/><path class="cls-1" d="M154.74,58.41l-.44-3.18h-2.6l-.39,3.18h-2.23l2.45-17.29h2.77L157,58.41ZM152.9,44.13l-1,9H154Z" transform="translate(-1.89 -2.5)"/><path class="cls-1" d="M159.27,58.41V41.11h2.28V56.27h3.77v2.13Z" transform="translate(-1.89 -2.5)"/><path class="cls-1" d="M176.39,43.15V58.41h-2.33V43.15h-2.62v-2h7.64v2Z" transform="translate(-1.89 -2.5)"/><path class="cls-1" d="M185.75,58.41a15,15,0,0,1-.34-3.62V53.21c0-1.13,0-2.77-1.1-2.77h-1.08v8h-2.28V41.11h3.75c2.16,0,3.09.37,3.09,3.36v2.16c0,2.84-1,2.89-2.08,3,1.62.07,2,1,2,3.09V55a7.67,7.67,0,0,0,.44,3.4Zm-2.5-9.87h1.15c1,0,1.13-.83,1.13-1.91V44.91c0-1.08,0-1.71-.81-1.71h-1.47Z" transform="translate(-1.89 -2.5)"/><path class="cls-1" d="M195.54,58.41l-.44-3.18h-2.6l-.39,3.18h-2.23l2.45-17.29h2.77l2.67,17.29ZM193.7,44.13l-1,9h2.06Z" transform="translate(-1.89 -2.5)"/><path class="cls-1" d="M204.73,58.41l-2.82-12.69c0,2.45.25,12.69.25,12.69H200V41.11h2.45l2.77,11.78s-.12-10.7-.15-11.78h2.16V58.41Z" transform="translate(-1.89 -2.5)"/><path class="cls-1" d="M212.47,52.09v3.16c0,1.1.29,1.67,1.18,1.67,1.08,0,1.1-1.25,1.1-2.16,0-2-1.05-3.28-1.91-4.58l-.93-1.42a7.4,7.4,0,0,1-1.4-4.41,3.27,3.27,0,0,1,3.5-3.58c2.52,0,2.91,1.62,2.91,3V46.8h-2.08v-3c0-.47-.07-1.27-.91-1.27-1.1,0-1.13,1-1.13,1.76a6.6,6.6,0,0,0,1.52,4l1.22,1.81a7.54,7.54,0,0,1,1.52,4.26c0,1,0,4.31-3.43,4.31a3.16,3.16,0,0,1-2.52-1,3.83,3.83,0,0,1-.76-2.74V52.09Z" transform="translate(-1.89 -2.5)"/><path class="cls-1" d="M224.66,58.41l-.44-3.18h-2.6l-.39,3.18H219l2.45-17.29h2.77l2.67,17.29Zm-1.84-14.28-1,9h2.06Z" transform="translate(-1.89 -2.5)"/><path class="cls-1" d="M236.57,54.27c0,2.13-.69,4.36-3.77,4.36-3.43,0-3.67-2.74-3.67-4.11V45.84c0-2.06.32-4.9,3.87-4.9,2.87,0,3.58,1.89,3.58,4.24v2.2h-2.28V44.71c0-.71-.1-1.79-1.42-1.79-1.15,0-1.45.88-1.45,1.89v9.85c0,1.59.37,2,1.4,2,1.32,0,1.45-1,1.45-2V51.25h2.3Z" transform="translate(-1.89 -2.5)"/><path class="cls-1" d="M243.15,43.15V58.41h-2.33V43.15h-2.62v-2h7.64v2Z" transform="translate(-1.89 -2.5)"/><path class="cls-1" d="M247.61,58.41V41.11h2.25V58.41Z" transform="translate(-1.89 -2.5)"/><path class="cls-1" d="M260.37,54.54c0,3.36-1.81,4-3.77,4s-3.48-.81-3.48-4V45.47c0-1.57.2-4.48,3.72-4.48,3.09,0,3.53,2.23,3.53,4.53Zm-2.25-9c0-1.81-.17-2.57-1.32-2.57-1.4,0-1.4,1.22-1.4,2v9.87c0,.93.15,1.81,1.32,1.81,1.35,0,1.4-1.08,1.4-2.06Z" transform="translate(-1.89 -2.5)"/><path class="cls-1" d="M268.43,58.41l-2.82-12.69c0,2.45.25,12.69.25,12.69h-2.13V41.11h2.45l2.77,11.78s-.12-10.7-.15-11.78H271V58.41Z" transform="translate(-1.89 -2.5)"/><path class="cls-1" d="M118.51,82.9l-1-6.17h-4.24l-1.06,6.17h-1.49l3.7-20.36h1.95L120,82.9Zm-3.15-18.5-1.89,11h3.76Z" transform="translate(-1.89 -2.5)"/><path class="cls-1" d="M125.65,62.65c1.84,0,3.67.14,5,1.66,1.12,1.35,1.38,3.18,1.38,6.62v5.71c0,2.06-.49,6.25-5.42,6.25H123.9V62.65Zm-.34,19h1.15c3,0,4.16-1.72,4.16-5.76v-5c0-1.43,0-3.84-.72-5.13a3.82,3.82,0,0,0-3.53-1.84H125.3Z" transform="translate(-1.89 -2.5)"/><path class="cls-1" d="M140.65,82.9h-1.46l-3.44-20.25h1.46l2.72,17.26,3-17.26h1.43Z" transform="translate(-1.89 -2.5)"/><path class="cls-1" d="M148.21,82.9V62.65h1.46V82.9Z" transform="translate(-1.89 -2.5)"/><path class="cls-1" d="M155.67,76.27v1.61c0,1.52,0,2.35.6,3.13a3,3,0,0,0,2.35,1c2,0,2.61-1.35,2.61-3.33,0-2.18-.63-3.15-3-5.45s-3.53-3.53-3.53-6.37c0-1.69.23-4.47,3.87-4.47s3.73,2.75,3.73,4.67V68.5H161V66.7c0-1.23,0-3.13-2.38-3.13-1.75,0-2.44,1.06-2.44,3s.4,2.81,3.44,5.91c2.09,2.15,3,3.21,3,5.88,0,1.92-.26,4.82-4.13,4.82-2.35,0-4.24-1.2-4.24-4.1V76.27Z" transform="translate(-1.89 -2.5)"/><path class="cls-1" d="M167.08,66.87c0-2.49,1.23-4.44,4.1-4.44,3.81,0,4.1,2.75,4.1,5V78.94c0,1.84-.77,4.22-4.16,4.22-3,0-4-1.75-4-4.45Zm6.85.95c0-3.21-1.09-4.13-2.75-4.13-2,0-2.72,1.55-2.72,3.07v11.9c0,2,.83,3.24,2.75,3.24,2.32,0,2.72-2,2.72-3.47Z" transform="translate(-1.89 -2.5)"/><path class="cls-1" d="M187.61,82.9,183.91,73h-2.21V82.9H180.3V62.65h4c2.5,0,3.87,1.06,3.87,3.53v3.38a3.18,3.18,0,0,1-2.84,3.35l3.73,10Zm-5.91-11.07h2.58c1.89,0,2.44-1,2.44-2.09V66.55c0-1.66-.43-2.7-2.24-2.7h-2.78Z" transform="translate(-1.89 -2.5)"/><path class="cls-1" d="M196.56,74V82.9h-1.38V74l-4-11.3h1.49l3.24,9.52,3.21-9.52h1.55Z" transform="translate(-1.89 -2.5)"/><path class="cls-1" d="M217.95,82.9V81.29a4,4,0,0,1-3.38,1.89,3.54,3.54,0,0,1-3-1.55c-.63-1-.77-1.84-.77-4V66.9c0-2.78,1.09-4.47,4.22-4.47,2.9,0,3.9,1.84,3.9,3.7v3h-1.35V66.78c0-1.61-.37-3.15-2.64-3.15s-2.75,1.52-2.75,3.3V77.28a7.45,7.45,0,0,0,.4,3.3A2.41,2.41,0,0,0,214.74,82c1.81,0,2.87-2.06,2.87-3.38V74.9h-3V73.66H219V82.9Z" transform="translate(-1.89 -2.5)"/><path class="cls-1" d="M231.57,82.9,227.87,73h-2.21V82.9h-1.41V62.65h4c2.5,0,3.87,1.06,3.87,3.53v3.38a3.18,3.18,0,0,1-2.84,3.35l3.73,10Zm-5.91-11.07h2.58c1.89,0,2.44-1,2.44-2.09V66.55c0-1.66-.43-2.7-2.24-2.7h-2.78Z" transform="translate(-1.89 -2.5)"/><path class="cls-1" d="M236.59,66.87c0-2.49,1.23-4.44,4.1-4.44,3.81,0,4.1,2.75,4.1,5V78.94c0,1.84-.77,4.22-4.16,4.22-3,0-4-1.75-4-4.45Zm6.85.95c0-3.21-1.09-4.13-2.75-4.13-2,0-2.72,1.55-2.72,3.07v11.9c0,2,.83,3.24,2.75,3.24,2.32,0,2.72-2,2.72-3.47Z" transform="translate(-1.89 -2.5)"/><path class="cls-1" d="M249.75,62.65h1.38V78.34c0,1.86.23,3.58,2.7,3.58,2.12,0,2.58-1.38,2.58-3.38V62.65h1.41V78.88c0,3.24-1.81,4.36-4.07,4.36-2.07,0-4-1-4-4.36Z" transform="translate(-1.89 -2.5)"/><path class="cls-1" d="M266.75,62.65a4.88,4.88,0,0,1,3.21.8c1.09.89,1.09,2.21,1.09,3.7v2.29a4,4,0,0,1-.8,2.93,4.57,4.57,0,0,1-3.61,1.29h-2.06V82.9h-1.41V62.65Zm-2.21,9.84h2.29a2.81,2.81,0,0,0,2.18-.72,2.91,2.91,0,0,0,.66-2v-2c0-2.72-.17-3.87-2.84-3.87h-2.29Z" transform="translate(-1.89 -2.5)"/><rect class="cls-1" x="99.38" y="37.89" width="1.79" height="42.69"/></svg>