<svg xmlns="http://www.w3.org/2000/svg" width="32.623" height="33.123" viewBox="0 0 32.623 33.123">
  <g id="Group_1247" data-name="Group 1247" transform="translate(-2347.508 -775.003)">
    <path id="Path_1242" data-name="Path 1242" d="M2377.372,842.534h-27.106a2.762,2.762,0,0,1-2.759-2.759V813.808a.5.5,0,0,1,.5-.5h31.623a.5.5,0,0,1,.5.5v25.967A2.762,2.762,0,0,1,2377.372,842.534Zm-28.864-28.226v25.467a1.761,1.761,0,0,0,1.759,1.759h27.106a1.761,1.761,0,0,0,1.759-1.759V814.308Z" transform="translate(0 -34.408)" fill="#fff"/>
    <path id="Line_1" data-name="Line 1" d="M31.427.5H0A.5.5,0,0,1-.5,0,.5.5,0,0,1,0-.5H31.427a.5.5,0,0,1,.5.5A.5.5,0,0,1,31.427.5Z" transform="translate(2348.205 787.306)" fill="#fff"/>
    <path id="Line_2" data-name="Line 2" d="M0,6.652a1,1,0,0,1-1-1V0A1,1,0,0,1,0-1,1,1,0,0,1,1,0V5.652A1,1,0,0,1,0,6.652Z" transform="translate(2373.98 776.003)" fill="#fff"/>
    <path id="Line_3" data-name="Line 3" d="M0,7.06a1,1,0,0,1-1-1V0A1,1,0,0,1,0-1,1,1,0,0,1,1,0V6.06A1,1,0,0,1,0,7.06Z" transform="translate(2354.068 776.003)" fill="#fff"/>
    <rect id="Rectangle_839" data-name="Rectangle 839" width="3.381" height="2.27" transform="translate(2353.66 791.815)" fill="#fff"/>
    <rect id="Rectangle_840" data-name="Rectangle 840" width="3.382" height="2.27" transform="translate(2359.311 791.815)" fill="#fff"/>
    <rect id="Rectangle_841" data-name="Rectangle 841" width="3.381" height="2.254" transform="translate(2353.66 796.339)" fill="#fff"/>
    <rect id="Rectangle_842" data-name="Rectangle 842" width="3.382" height="2.254" transform="translate(2359.311 796.339)" fill="#fff"/>
    <rect id="Rectangle_843" data-name="Rectangle 843" width="3.381" height="2.269" transform="translate(2353.66 800.848)" fill="#fff"/>
    <rect id="Rectangle_844" data-name="Rectangle 844" width="3.382" height="2.269" transform="translate(2359.311 800.848)" fill="#fff"/>
    <rect id="Rectangle_845" data-name="Rectangle 845" width="3.397" height="2.27" transform="translate(2364.947 791.815)" fill="#fff"/>
    <rect id="Rectangle_846" data-name="Rectangle 846" width="3.397" height="2.254" transform="translate(2364.947 796.339)" fill="#fff"/>
    <rect id="Rectangle_847" data-name="Rectangle 847" width="3.397" height="2.269" transform="translate(2364.947 800.848)" fill="#fff"/>
    <rect id="Rectangle_848" data-name="Rectangle 848" width="3.382" height="2.27" transform="translate(2370.599 791.815)" fill="#fff"/>
    <rect id="Rectangle_849" data-name="Rectangle 849" width="3.382" height="2.254" transform="translate(2370.599 796.339)" fill="#fff"/>
    <rect id="Rectangle_850" data-name="Rectangle 850" width="3.382" height="2.269" transform="translate(2370.599 800.848)" fill="#fff"/>
  </g>
</svg>
