<svg xmlns="http://www.w3.org/2000/svg" width="36.127" height="42.257" viewBox="0 0 36.127 42.257">
  <g id="Group_319" data-name="Group 319" transform="translate(-1070.5 -3058.743)">
    <g id="_16" data-name="16" transform="translate(512.76 2360.733)">
      <path id="Path_272" data-name="Path 272" d="M604.684,747.412h4.42a1.823,1.823,0,0,0,1.823-1.823V745" transform="translate(-18.754 -18.774)" fill="none" stroke="#fff" stroke-linecap="square" stroke-miterlimit="10" stroke-width="1"/>
      <path id="Path_273" data-name="Path 273" d="M570.834,733.718v18.014l9.74,2.154a4.1,4.1,0,0,0,.894.1l5.95,0h5.715a1.823,1.823,0,0,0,1.823-1.823v-.585" transform="translate(-5.085 -14.217)" fill="none" stroke="#fff" stroke-linecap="square" stroke-miterlimit="10" stroke-width="1"/>
      <path id="Path_274" data-name="Path 274" d="M594.474,726.549h4.947a1.823,1.823,0,0,0,1.823-1.823v-1.917a1.823,1.823,0,0,0-1.823-1.823H588.543l1.233-5.524a6.3,6.3,0,0,0,.072-2.363l-.746-4.672a1.559,1.559,0,0,0-1.539-1.313H586a1.559,1.559,0,0,0-1.547,1.359l-.605,4.694-1.362,3.415a5.484,5.484,0,0,1-2.393,2.741l-2.341,1.324" transform="translate(-7.877 -3.473)" fill="none" stroke="#fff" stroke-linecap="square" stroke-miterlimit="10" stroke-width="1"/>
      <path id="Path_275" data-name="Path 275" d="M603.567,756.743h3.753a1.823,1.823,0,0,0,1.823-1.823v-.586" transform="translate(-18.303 -22.541)" fill="none" stroke="#fff" stroke-linecap="square" stroke-miterlimit="10" stroke-width="1"/>
      <path id="Path_276" data-name="Path 276" d="M558.24,729.491h7.509v22.248H558.24V733.372" transform="translate(0 -12.51)" fill="none" stroke="#fff" stroke-linecap="square" stroke-miterlimit="10" stroke-width="1"/>
      <line id="Line_19" data-name="Line 19" y2="0.925" transform="translate(561.994 734.281)" fill="none" stroke="#fff" stroke-linecap="square" stroke-miterlimit="10" stroke-width="1"/>
      <line id="Line_20" data-name="Line 20" y1="1.138" transform="translate(578.501 698.51)" fill="none" stroke="#fff" stroke-linecap="square" stroke-miterlimit="10" stroke-width="1"/>
      <line id="Line_21" data-name="Line 21" x2="1.138" transform="translate(584.995 706.35)" fill="none" stroke="#fff" stroke-linecap="square" stroke-miterlimit="10" stroke-width="1"/>
      <line id="Line_22" data-name="Line 22" x2="1.138" transform="translate(571.409 706.35)" fill="none" stroke="#fff" stroke-linecap="square" stroke-miterlimit="10" stroke-width="1"/>
      <line id="Line_23" data-name="Line 23" x1="0.739" y1="0.865" transform="translate(573.051 701.13)" fill="none" stroke="#fff" stroke-linecap="square" stroke-miterlimit="10" stroke-width="1"/>
      <line id="Line_24" data-name="Line 24" y1="0.865" x2="0.739" transform="translate(583.211 701.13)" fill="none" stroke="#fff" stroke-linecap="square" stroke-miterlimit="10" stroke-width="1"/>
    </g>
  </g>
</svg>
