<svg xmlns="http://www.w3.org/2000/svg" width="37.71" height="50.58" viewBox="0 0 37.71 50.58">
  <g id="Group_318" data-name="Group 318" transform="translate(-1074.524 -3172.461)">
    <circle id="Ellipse_2" data-name="Ellipse 2" cx="11.252" cy="11.252" r="11.252" transform="translate(1082.127 3180.944)" fill="none" stroke="#fff" stroke-miterlimit="10" stroke-width="1"/>
    <path id="Path_277" data-name="Path 277" d="M784.192-50.758c-1.917,0-3.309-3.168-5.039-3.73-1.792-.582-4.777,1.142-6.269.057s-.783-4.476-1.88-5.982-4.528-1.843-5.111-3.634c-.562-1.729,2-4.029,2-5.945s-2.56-4.217-2-5.946c.581-1.793,4.024-2.142,5.11-3.634s.374-4.885,1.881-5.982c1.492-1.086,4.476.639,6.269.057,1.729-.562,3.122-3.73,5.039-3.73s3.309,3.168,5.039,3.73c1.792.582,4.777-1.142,6.269-.057s.783,4.476,1.88,5.983c1.086,1.492,4.529,1.842,5.111,3.634.562,1.729-2,4.029-2,5.945s2.561,4.216,2,5.945c-.582,1.793-4.025,2.143-5.111,3.634-1.1,1.507-.374,4.886-1.881,5.982-1.492,1.086-4.476-.638-6.269-.057C787.5-53.927,786.109-50.758,784.192-50.758Z" transform="translate(309.188 3262.19)" fill="none" stroke="#fff" stroke-miterlimit="10" stroke-width="1"/>
    <path id="Path_278" data-name="Path 278" d="M788.723-62l3.629,1.908-.693-4.041,2.936-2.862-4.057-.59-1.814-3.676-1.814,3.676-4.057.59,2.936,2.862-.693,4.041Z" transform="translate(304.657 3257.411)" fill="none" stroke="#fff" stroke-miterlimit="10" stroke-width="1"/>
    <path id="Path_279" data-name="Path 279" d="M795.164-38.145l2.861,12.081h-22.5l2.861-12.081" transform="translate(306.606 3248.605)" fill="none" stroke="#fff" stroke-miterlimit="10" stroke-width="1"/>
    <line id="Line_25" data-name="Line 25" y1="5.917" x2="0.814" transform="translate(1088.402 3213.078)" fill="none" stroke="#fff" stroke-miterlimit="10" stroke-width="1"/>
    <line id="Line_26" data-name="Line 26" x2="0.814" y2="5.917" transform="translate(1097.542 3213.078)" fill="none" stroke="#fff" stroke-miterlimit="10" stroke-width="1"/>
  </g>
</svg>
