<?xml version="1.0" encoding="utf-8"?>
<!-- Generator: Adobe Illustrator 24.0.3, SVG Export Plug-In . SVG Version: 6.00 Build 0)  -->
<svg version="1.1" id="Layer_1" xmlns="http://www.w3.org/2000/svg" xmlns:xlink="http://www.w3.org/1999/xlink" x="0px" y="0px"
	 viewBox="0 0 146.4 112.8" style="enable-background:new 0 0 146.4 112.8;" xml:space="preserve">
<style type="text/css">
	.st0{fill:#426E94;stroke:#002B49;stroke-width:0.2;}
	.st1{fill:none;stroke:#FFFFFF;}
	.st2{fill:#ACACAC;}
	.st3{fill:#FFFFFF;}
	.st4{enable-background:new    ;}
	.st5{fill:#002B49;}
</style>
<g id="Component_11_3" transform="translate(5779.667 704.481)">
	<path id="Path_383" class="st0" d="M-5705.9-655.2c-0.6-1.4-0.8-2.9-0.7-4.5c0.2-0.9,1.3-0.2,1.6-1.3c0.3-1.1-3-1.1-2-2.5
		s1.1,0,2.5,0c1.4,0,2,0.7,2,1.6c0,0.9,1.4,1.4,1.4,1.4s2.3-0.2,3.4-0.2c1.1,0,2.2,0,2.2,0.7c0,0.7-1.3,3-2.3,3
		c-1.1,0-1.1,3-0.2,3.2c0.9,0.2,1.6-2.3,2.1-2.3c0.4,0,0.7,2.8,1.2,5.8c0.1-0.2,0.3-0.3,0.4-0.3c0.7,0,0.4-2.5,0.8-3.2
		c0.5-0.7,0.2-3,0.6-3s2.5,0.7,2.4,0.1c-0.1-0.6,1.3-2.6,1.1-3.7s0.8-2.4,0.8-3.7s1.2-1.7,2-2.4c0.8-0.7,2.2-1.7,2.5-1.1
		c0.2,0.6,2,1.1,1.3,0c-0.7-1.1-0.7-1.8-0.2-2c0.5-0.2,0.7-1.4,0.7-1.4s-1.5-0.2-1.8-0.9s-1.2-1.4-1.2-2c0-0.6-0.8-0.3-1.5,0.2
		c-0.7,0.6-2-0.7-3.5,0.1c-1.5,0.8-1.9,1.8-2.6,1.7s-0.6,0.6-1.2,1.2s-1.1,1.3-1.4,1.3c-0.5,0.1-1.1,0.3-1.5,0.6
		c0,0,0.8,1.8,0.4,2.6c-0.5,0.8-1.7,0-2.9,0.4c-1.3,0.4-1.9-0.5-2.8-0.2s-1.5-0.6-2-0.5c-0.5,0.1-1.2-1.1-0.9-2
		c0.2-0.9-0.5-2.2-0.9-1.5c-0.5,0.7-1.2,0.4-1.2,1.4c0,1.1,0.6,2.4-0.1,3.1c-0.7,0.7-4.5,1.1-5.2,0.5c-0.7-0.6-3.8-0.9-3.9-1.5
		c-0.1-0.6-1.1-1.7-1.7-1.7c-0.6,0-2.4,0.8-2.8,0.5c-0.7-0.6-1.6-1.1-2.5-1.4c-0.8-0.1-2.1-0.7-2.2-1.2c-0.1-0.5-2-0.7-2.4-1.2
		s-1.5-0.6-1.5-1.2s0.5-1.5,0.5-2.2s1.4-1.4,1.4-1.9c0-0.5-1.3-1.3-1.3-1.3s-0.8-1.5-1.8-1.5c-0.9,0-1.7-1.7-2.5-1.8
		s-0.6-1.8-1.1-2.4c-0.5-0.6-0.1-2,0.7-1.3c0.8,0.7,2.4,0,1.8-1.1s-1.7-2-1.7-2.6s0.7-2.4-0.1-2.8c-0.8-0.4-1.5-1.1-1.8-2
		c-0.2-0.6-0.6-1.1-1.2-1.4l-1.2,0.1c0,0-0.7,1.9-1.2,2.1c-1,0.3-2,0.7-2.9,1.2c-0.8,0.6-3.2-0.8-4.5-0.8c-1.3,0-2.1,1.3-1.5,1.7
		c0.6,0.3,0.5,2.8,0.5,2.8s0.7,3.1,1.8,2.8c1.1-0.2,2.4,1.1,1.4,1.3c-0.9,0.4-1.5,1.3-1.5,2.2c-0.1,0.9,0.1,2.1-0.6,2.2
		c-0.8,0-1.4,0.7-1.4,1.5c0,0.1,0,0.1,0,0.2c0,1.3-1.5,0.9-1.8,1.4c-0.3,1.1-0.7,2.1-1.2,3.2c-0.4,0.4-2.4,0.5-2.5,1.5
		c-0.1,1.1-1.1,2.4-1.7,2.2c-0.6-0.1-1.7-0.6-2,0.1c-0.3,0.7-1.9-0.6-2.2-0.2s-2.2,1.9-2.2,2.8s2,0.9,1.9,2.1c0,1.2,0.5,2.3,1.3,3.1
		c0.6,0.6,1.5,2,1.1,2.7c-0.5,0.7-1.2,0.8-2.2,0.6c-1.1-0.2-0.9,0.5-2.8,0.1s-2,1.1-2.7,1.9c-0.1,0.1-0.1,0.1-0.2,0.2
		c0.9,0.7,1.3,2,2.7,2.5c1.7,0.7,3.3-1.1,3.3,0.2s-4.1,1-4.1,1.4c-0.1,0.4,4.2,5.6,6.4,5.2c2.2-0.4,3.8-2.7,3.1-3.1
		c-0.6-0.4,0.4-1.8,0.9-1.5s0.1,2.6,0.8,3.1c0.7,0.5,0.4,1.5,0,2.7c-0.4,1.2,0.4,3.7,0.6,5s1.1,3.4,1.4,5.4c0.6,2.8,1.5,5.5,2.8,8
		c1.2,2.2,2.1,6.7,2.9,7.7c0.8,1.1,2.8,4.3,2.8,6.3s2.2,4.8,2.9,5.3c0.8,0.5,2.4-0.6,2.8-1.9c0.4-1.2,2.7-1.7,2.8-2.8
		c0.1-1.1,0.4-1.9,1.1-2c0.8-0.1,0.8-1,0.8-2.1c-0.1-1.3,0.2-2.7,0.9-3.8c0.8-1.5,0.9-3.2,0.4-4.8c-0.4-1.2-0.3-2.6,0.2-3.8
		c0.4-1.1,0.3-2.4,1.1-2.5c1.2-0.3,2.3-1,3-2c0.9-1.2,3.6-2.8,4.6-3.6s3.9-3.4,4.8-4.8s3.4-1.9,4.6-3.1c1.1-1.2,0.7-1.8,0.9-3.1
		c0.2-1.3,3.9-1.8,5.3-1.8c0.2,0,0.5,0,0.7-0.1C-5705-651.7-5705.3-653.5-5705.9-655.2z"/>
	<path id="Path_384" class="st0" d="M-5738.5-607.2L-5738.5-607.2c-0.2,0-0.4-0.1-0.6-0.2c-0.7-0.5-3-3.3-3-5.5
		c0-1.8-1.9-4.9-2.8-6.2c-0.6-1.1-1-2.2-1.3-3.4c-0.4-1.5-1-2.9-1.6-4.3c-1.3-2.6-2.2-5.3-2.8-8.1c-0.2-1-0.4-2-0.8-3
		c-0.3-0.8-0.5-1.6-0.6-2.4c-0.1-0.5-0.2-1.1-0.3-1.6c-0.4-1.1-0.5-2.4-0.3-3.5c0.5-1.3,0.6-2.1,0.1-2.5c-0.4-0.3-0.4-1.1-0.5-1.8
		c0-0.5-0.1-1.1-0.2-1.2c-0.2-0.1-0.7,0.4-0.8,0.8c0,0.1-0.1,0.3,0.1,0.4c0.1,0.1,0.3,0.2,0.2,0.6c-0.6,1.5-1.9,2.6-3.4,2.9
		c-0.1,0-0.2,0-0.3,0c-1.8,0-4.4-2.7-5.5-4.1c-0.8-1-0.8-1.2-0.7-1.3c0.1-0.3,0.4-0.3,1.4-0.4c1-0.1,2.7-0.3,2.7-1
		c0-0.3-0.1-0.3-0.1-0.3c-0.2,0-0.4,0.1-0.6,0.1c-0.5,0.2-1,0.3-1.5,0.3c-0.3,0-0.6-0.1-0.9-0.2c-0.8-0.3-1.5-0.9-2-1.7
		c-0.2-0.3-0.5-0.6-0.8-0.9l-0.1-0.1l0.2-0.3l0.1-0.1c0.2-0.2,0.3-0.4,0.4-0.7c0.3-0.8,1-1.3,1.9-1.3c0.2,0,0.4,0,0.6,0.1
		c0.3,0.1,0.6,0.1,0.9,0.1c0.3,0,0.6-0.1,0.8-0.1c0.2-0.1,0.4-0.1,0.6-0.1c0.1,0,0.3,0,0.4,0.1c1.1,0.2,1.6,0.1,2-0.5
		c0.4-0.6-0.4-1.8-1-2.5c-0.9-0.8-1.4-2-1.3-3.2c0.1-0.5-0.3-0.7-0.9-1c-0.5-0.3-1-0.5-1-1.1c0-0.8,1-1.8,2-2.7
		c0.1-0.1,0.2-0.2,0.3-0.2c0.1-0.1,0.2-0.1,0.3-0.1c0.3,0,0.6,0.1,0.8,0.3c0.3,0.1,0.6,0.2,0.8,0.3c0.1,0,0.2-0.1,0.2-0.1
		c0.2-0.3,0.5-0.5,0.9-0.5c0.3,0,0.7,0.1,1,0.2c0.1,0,0.3,0.1,0.4,0.1h0c0.5,0,1.3-1.1,1.4-2.1c0.1-0.8,1.1-1.1,1.8-1.4
		c0.2-0.1,0.5-0.1,0.7-0.3c0.3-0.6,0.6-1.3,0.8-2c0.1-0.4,0.2-0.8,0.4-1.2c0.1-0.2,0.4-0.3,0.8-0.4c0.6-0.1,1-0.3,1-0.9
		c-0.1-0.9,0.5-1.7,1.4-1.8c0.1,0,0.1,0,0.2,0c0.4-0.1,0.4-0.5,0.4-1.3c0-0.3,0-0.5,0.1-0.8c0-1.1,0.7-2,1.7-2.4
		c0.2-0.1,0.2-0.1,0.2-0.2c0-0.3-0.7-0.8-1.3-0.8c-0.1,0-0.2,0-0.2,0c0,0-0.1,0-0.1,0c-1.1,0-1.8-2.7-1.8-3v0c0.1-1,0-2.5-0.4-2.7
		c-0.2-0.2-0.4-0.5-0.3-0.8c0.3-0.8,1-1.3,1.9-1.3c0.7,0.1,1.4,0.2,2,0.5c0.6,0.2,1.2,0.4,1.9,0.5c0.2,0,0.3,0,0.4-0.1
		c0.7-0.4,1.4-0.7,2.2-0.9c0.4-0.1,0.6-0.2,0.8-0.3c0.5-0.6,0.9-1.3,1.1-2l0-0.1l1.3-0.1l0.1,0c0.6,0.4,1,0.9,1.3,1.5
		c0.3,0.8,0.9,1.5,1.7,1.9c0.7,0.4,0.5,1.5,0.3,2.4c-0.1,0.2-0.1,0.4-0.1,0.6c0,0.3,0.4,0.7,0.7,1.2c0.3,0.4,0.6,0.8,0.9,1.3
		c0.2,0.3,0.2,0.7,0,1c-0.5,0.6-1.4,0.8-2,0.3c0,0,0,0,0,0c-0.1-0.1-0.2-0.1-0.3-0.1c-0.1,0-0.2,0.1-0.2,0.2c-0.1,0.3-0.1,0.7,0.1,1
		c0.2,0.3,0.3,0.7,0.4,1.1c0.1,0.7,0.2,1.1,0.6,1.1c0.5,0.2,0.9,0.5,1.2,0.9c0.4,0.4,0.8,0.9,1.2,0.9c1,0,1.8,1.3,1.9,1.6
		c0.4,0.2,1.3,0.9,1.3,1.4c0,0.3-0.3,0.6-0.7,0.9c-0.4,0.3-0.8,0.7-0.8,1c0,0.4-0.1,0.9-0.3,1.3c-0.1,0.3-0.2,0.6-0.2,1
		c0,0.2,0.4,0.4,0.7,0.6c0.3,0.1,0.6,0.3,0.8,0.5c0.3,0.2,0.7,0.4,1.1,0.5c0.6,0.2,1.2,0.4,1.3,0.8s1.3,0.9,2.1,1.1
		c0.9,0.3,1.7,0.7,2.4,1.3l0.1,0.1c0,0,0.1,0.1,0.2,0.1c0.5-0.1,0.9-0.2,1.4-0.3c0.3-0.1,0.7-0.2,1.1-0.3c0.7,0,1.7,1.2,1.8,1.8
		c0,0.2,1.2,0.5,1.8,0.7c0.7,0.1,1.4,0.4,2,0.8c0.5,0.2,1,0.3,1.5,0.3c1.5,0,3.1-0.3,3.4-0.7c0.4-0.4,0.3-1.1,0.2-1.9
		c-0.1-0.4-0.1-0.7-0.1-1.1c-0.1-0.5,0.2-0.9,0.7-1.1c0.2-0.1,0.4-0.2,0.6-0.4c0.1-0.2,0.3-0.3,0.5-0.3c0.2,0,0.4,0.1,0.5,0.3
		c0.3,0.5,0.5,1.1,0.3,1.7c-0.1,0.5,0,1.1,0.4,1.5c0.1,0.2,0.3,0.3,0.4,0.3c0.1,0,0.1,0,0.2,0c0.2,0,0.5,0.1,0.6,0.2
		c0.3,0.2,0.6,0.3,0.9,0.3c0.1,0,0.2,0,0.3,0c0.4-0.1,0.9,0,1.3,0.1c0.3,0.1,0.6,0.2,1,0.2c0.2,0,0.4,0,0.6-0.1
		c0.3-0.1,0.5-0.1,0.8-0.1c0.3,0,0.6,0,0.8,0.1c0.2,0,0.4,0.1,0.6,0.1c0.2,0,0.5-0.1,0.6-0.3c0.4-0.6-0.1-2-0.4-2.4l-0.1-0.2
		l0.2-0.1c0.5-0.3,1-0.5,1.6-0.6c0.2,0,0.5-0.4,0.8-0.7c0.2-0.2,0.3-0.4,0.5-0.6c0.2-0.2,0.3-0.4,0.4-0.6c0.2-0.4,0.4-0.7,0.9-0.6
		c0.3,0.1,0.5-0.2,0.9-0.5c0.5-0.4,1-0.8,1.5-1.1c0.4-0.2,0.8-0.3,1.2-0.3c0.4,0,0.8,0.1,1.2,0.2c0.5,0.1,0.9,0.2,1.1,0
		c0.4-0.3,0.8-0.5,1.3-0.6c0.3,0,0.5,0.2,0.5,0.5c0,0,0,0,0,0.1c0.1,0.4,0.3,0.7,0.5,0.9c0.3,0.3,0.5,0.6,0.6,1
		c0.2,0.5,1.3,0.8,1.6,0.8l0.2,0l0,0.2c0,0.1-0.3,1.3-0.8,1.5c-0.1,0.1-0.2,0.1-0.2,0.3c0,0.5,0.2,1.1,0.5,1.5
		c0.2,0.2,0.2,0.5,0.1,0.7c-0.1,0.2-0.3,0.2-0.5,0.2c-0.5,0-1-0.3-1.3-0.8c0,0,0-0.1-0.1-0.1c-0.8,0.2-1.5,0.6-2,1.2
		c-0.2,0.2-0.5,0.4-0.7,0.5c-0.7,0.5-1.3,0.8-1.3,1.7c0,0.6-0.2,1.3-0.5,1.9c-0.3,0.5-0.4,1.1-0.4,1.8c0,0.9-0.2,1.7-0.6,2.5
		c-0.2,0.4-0.4,0.8-0.4,1.2c0,0.1,0,0.2-0.1,0.3c-0.1,0.1-0.3,0.2-0.5,0.2c-0.5,0-0.9-0.1-1.4-0.2c-0.2-0.1-0.4-0.1-0.5-0.1
		c-0.1,0.3-0.1,0.6-0.1,0.9c0,0.7-0.1,1.3-0.4,1.9c-0.2,0.5-0.3,1-0.3,1.5c-0.1,0.9-0.1,1.8-0.7,1.8c-0.1,0-0.1,0-0.3,0.2l-0.3,0.3
		l-0.1-0.4c-0.1-0.8-0.3-1.7-0.4-2.5c-0.1-1.1-0.3-2.1-0.6-3.2c-0.2,0.3-0.4,0.5-0.6,0.8c-0.4,0.7-0.9,1.6-1.6,1.5
		c-0.6-0.1-0.9-1.2-0.8-2.1c0.1-0.9,0.5-1.5,1-1.5c0.9,0,2.1-2.2,2.1-2.9c0-0.5-0.8-0.5-2-0.5c-1.1,0-3.4,0.2-3.4,0.2h-0.1
		c-0.1,0-1.5-0.6-1.5-1.6c0-0.9-0.6-1.4-1.8-1.4c-0.5,0-0.9-0.2-1.3-0.4c-0.1-0.1-0.3-0.2-0.4-0.2c-0.2,0-0.4,0.2-0.7,0.6
		c-0.1,0.1-0.2,0.3-0.2,0.5c0.1,0.3,0.6,0.5,1,0.7c0.6,0.3,1.3,0.6,1.1,1.3c-0.1,0.5-0.6,0.8-1.1,0.8c-0.4,0.1-0.5,0.1-0.6,0.4
		c-0.1,1.5,0.2,3,0.7,4.4c0.7,1.8,1,3.7,1.1,5.5v0.1l-0.1,0c-0.3,0.1-0.5,0.1-0.8,0.1c-1.7,0-5,0.6-5.2,1.7c-0.1,0.3-0.1,0.7-0.1,1
		c0.1,0.8-0.3,1.7-0.9,2.2c-0.6,0.6-1.3,1-2.1,1.3c-0.9,0.4-1.8,1-2.4,1.8c-0.9,1.5-4.1,4.3-4.8,4.9c-0.4,0.3-0.9,0.7-1.3,0.9
		c-1.2,0.7-2.3,1.6-3.2,2.6c-0.7,1.1-1.8,1.8-3.1,2.1c-0.4,0-0.5,0.5-0.6,1.2c-0.1,0.4-0.2,0.8-0.3,1.2c-0.5,1.1-0.6,2.4-0.2,3.6
		c0.5,1.7,0.4,3.5-0.5,5.1c-0.7,1.1-0.9,2.4-0.8,3.7c0,1.1,0,2.1-1,2.3c-0.6,0.1-0.8,0.8-1,1.9c-0.1,0.6-0.7,1-1.4,1.5
		c-0.6,0.3-1.1,0.8-1.4,1.4C-5736.4-608.1-5737.4-607.3-5738.5-607.2z M-5753.2-651.2c0.1,0,0.2,0,0.2,0.1c0.4,0.2,0.4,0.8,0.4,1.5
		c0,0.6,0.1,1.3,0.4,1.6c0.8,0.6,0.5,1.8,0.1,3c-0.1,1.1,0,2.3,0.3,3.3c0.1,0.5,0.2,1.1,0.3,1.6c0.1,0.8,0.3,1.6,0.6,2.3
		c0.3,1,0.6,2,0.8,3c0.6,2.8,1.5,5.4,2.8,7.9c0.7,1.4,1.2,2.9,1.6,4.4c0.3,1.1,0.7,2.3,1.3,3.3c0.7,1,2.9,4.3,2.9,6.4
		c0,1.9,2.1,4.6,2.8,5.1c0.1,0.1,0.2,0.1,0.4,0.1l0,0c1-0.2,1.8-0.9,2.2-1.9c0.3-0.7,0.9-1.2,1.6-1.5c0.6-0.4,1.1-0.8,1.2-1.2
		c0.1-1,0.3-2,1.3-2.2c0.6-0.1,0.6-0.7,0.6-1.9c-0.1-1.4,0.2-2.7,0.9-3.9c0.7-1.4,0.9-3.1,0.4-4.7c-0.4-1.3-0.3-2.7,0.2-3.9
		c0.1-0.4,0.2-0.7,0.3-1.1c0.1-0.7,0.3-1.4,1-1.5c1.1-0.3,2.2-1,2.8-2c1-1,2.1-2,3.3-2.7c0.5-0.4,1-0.7,1.3-0.9
		c1.8-1.4,3.4-3,4.8-4.8c0.7-0.9,1.6-1.5,2.6-1.9c0.7-0.3,1.4-0.7,2-1.3c0.6-0.5,0.9-1.2,0.8-2c0-0.3,0-0.7,0.1-1
		c0.3-1.5,4.2-2,5.5-2c0.2,0,0.4,0,0.6,0c-0.1-1.8-0.4-3.5-1-5.2c-0.6-1.5-0.8-3-0.7-4.6c0.1-0.4,0.4-0.7,0.8-0.7
		c0.4,0,0.7-0.2,0.8-0.6c0.1-0.3-0.3-0.5-0.9-0.8c-0.6-0.3-1.1-0.5-1.2-1c-0.1-0.3,0-0.6,0.2-0.8c0.4-0.5,0.7-0.7,1-0.7
		c0.2,0,0.4,0.1,0.6,0.3c0.3,0.2,0.7,0.4,1.1,0.4c1.4,0,2.2,0.6,2.2,1.8c0,0.6,0.9,1.1,1.3,1.3c0.3,0,2.4-0.2,3.4-0.2
		c1.1,0,2.3,0,2.3,0.9c0,0.8-1.3,3.2-2.5,3.2c-0.4,0-0.6,0.6-0.6,1.1c-0.1,0.8,0.1,1.7,0.5,1.7h0.1c0.4,0,0.8-0.8,1.1-1.3
		c0.4-0.6,0.6-1.1,0.9-1.1c0.4,0,0.5,0.7,1,3.5c0.1,0.6,0.2,1.4,0.4,2.1c0.1-0.1,0.2-0.1,0.3-0.1c0.2,0,0.3-0.9,0.4-1.4
		c0-0.6,0.1-1.1,0.3-1.7c0.2-0.5,0.3-1.1,0.3-1.7c0.1-0.8,0.1-1.3,0.4-1.3c0.2,0,0.4,0.1,0.6,0.1c0.4,0.1,0.9,0.2,1.3,0.2
		c0.2,0,0.2,0,0.2,0c-0.1-0.3,0.1-0.8,0.4-1.4c0.4-0.7,0.6-1.4,0.6-2.2c-0.1-0.7,0.1-1.4,0.4-2c0.2-0.5,0.4-1.1,0.4-1.7
		c0-1.1,0.7-1.5,1.4-2c0.2-0.1,0.4-0.3,0.6-0.5c0.6-0.6,1.4-1.1,2.3-1.3c0.2,0,0.4,0.1,0.5,0.3c0.2,0.3,0.6,0.5,1,0.5
		c0,0,0.1,0,0.1,0l0,0c0,0,0-0.1-0.1-0.3c-0.4-0.5-0.6-1.1-0.6-1.8c0.1-0.2,0.2-0.4,0.4-0.5c0.3-0.3,0.5-0.7,0.6-1.1
		c-0.5-0.1-1.5-0.4-1.7-1c-0.1-0.3-0.3-0.6-0.6-0.9c-0.3-0.3-0.5-0.7-0.6-1.2c0-0.1,0-0.1-0.1-0.1c-0.4,0.1-0.8,0.2-1.1,0.5
		c-0.2,0.1-0.4,0.2-0.6,0.2c-0.3,0-0.6-0.1-0.8-0.1c-0.4-0.1-0.7-0.2-1.1-0.2c-0.4,0-0.7,0.1-1.1,0.3c-0.5,0.3-1,0.7-1.5,1.1
		c-0.4,0.4-0.8,0.7-1.2,0.6c-0.3-0.1-0.4,0-0.5,0.4c-0.1,0.3-0.3,0.5-0.5,0.7c-0.2,0.2-0.4,0.3-0.5,0.5c-0.4,0.5-0.7,0.8-1.1,0.8
		c-0.4,0.1-0.9,0.3-1.3,0.5c0.2,0.5,0.7,1.8,0.3,2.6c-0.2,0.3-0.6,0.5-0.9,0.5c-0.2,0-0.4,0-0.6-0.1c-0.5-0.1-1-0.1-1.5,0
		c-0.2,0.1-0.5,0.1-0.7,0.1c-0.4,0-0.7-0.1-1.1-0.2c-0.3-0.1-0.7-0.2-1.1-0.1c-0.1,0-0.3,0.1-0.4,0.1c-0.4,0-0.8-0.1-1.1-0.3
		c-0.2-0.1-0.4-0.2-0.5-0.2c-0.2,0.1-0.5-0.1-0.8-0.4c-0.4-0.5-0.6-1.2-0.4-1.8c0.1-0.5,0-1-0.3-1.3c0-0.1-0.1-0.1-0.2-0.1
		c-0.1,0-0.1,0.1-0.1,0.1c-0.2,0.3-0.4,0.5-0.7,0.6c-0.3,0.1-0.5,0.2-0.5,0.8c0,0.3,0.1,0.7,0.1,1c0.1,0.8,0.3,1.6-0.3,2.2
		c-0.5,0.5-2.3,0.8-3.7,0.8c-0.6,0.1-1.2-0.1-1.7-0.4c-0.6-0.3-1.2-0.5-1.9-0.7c-1.2-0.3-2-0.6-2.1-1c-0.1-0.5-1-1.5-1.5-1.5
		c-0.3,0-0.7,0.1-1,0.2c-0.5,0.2-1,0.3-1.5,0.3c-0.2,0-0.3,0-0.5-0.1l-0.1-0.1c-0.7-0.6-1.4-1-2.2-1.3c-0.8-0.1-2.2-0.7-2.4-1.3
		c0-0.1-0.7-0.4-1.1-0.5c-0.5-0.1-0.9-0.3-1.3-0.6c-0.2-0.2-0.4-0.3-0.7-0.4c-0.4-0.2-0.9-0.4-0.9-0.9c0-0.4,0.1-0.7,0.2-1.1
		c0.1-0.4,0.2-0.8,0.2-1.2c0-0.5,0.5-0.9,0.9-1.3c0.2-0.2,0.5-0.5,0.5-0.6c0-0.2-0.6-0.8-1.2-1.1l0,0l0,0c-0.2-0.4-0.9-1.4-1.6-1.4
		c-0.6,0-1.1-0.5-1.5-1c-0.3-0.4-0.7-0.7-1-0.8c-0.6-0.1-0.8-0.8-0.9-1.5c0-0.3-0.1-0.7-0.3-1c-0.3-0.4-0.3-0.9-0.1-1.4
		c0.2-0.4,0.7-0.5,1.1-0.1c0.5,0.4,1.1,0.3,1.5-0.2c0.1-0.2,0.1-0.4,0-0.6c-0.2-0.4-0.5-0.8-0.8-1.2c-0.4-0.4-0.7-0.9-0.8-1.5
		c0-0.2,0.1-0.5,0.1-0.7c0.1-0.7,0.4-1.7-0.1-2c-0.9-0.4-1.5-1.2-1.9-2.1c-0.2-0.5-0.6-1-1.1-1.3l-1,0.1c-0.2,0.5-0.8,1.9-1.2,2.1
		c-0.3,0.1-0.6,0.2-0.8,0.3c-0.7,0.2-1.4,0.5-2.1,0.9c-0.2,0.1-0.4,0.2-0.7,0.2c-0.7-0.1-1.4-0.2-2-0.5c-0.6-0.2-1.3-0.4-1.9-0.5
		c-0.7,0-1.3,0.4-1.5,1c-0.1,0.1,0,0.3,0.1,0.3c0.6,0.4,0.6,2.5,0.6,3c0.3,1.1,0.9,2.8,1.5,2.7c0.1,0,0.2,0,0.3,0
		c0.7,0,1.4,0.4,1.7,1.1c0,0.3-0.2,0.5-0.5,0.6c0,0,0,0,0,0c-0.9,0.2-1.3,1.2-1.4,2.1c0,0.3,0,0.5,0,0.8c0,0.7,0,1.5-0.7,1.6
		s-1.3,0.3-1.3,1.5c0,1-0.8,1.2-1.3,1.3c-0.2,0.1-0.5,0.1-0.5,0.2c-0.2,0.4-0.3,0.7-0.4,1.1c-0.2,0.7-0.5,1.5-0.8,2.1
		c-0.3,0.2-0.5,0.3-0.8,0.4c-0.7,0.2-1.5,0.5-1.6,1.1c-0.1,1.1-1.1,2.5-1.9,2.4c-0.1,0-0.2-0.1-0.4-0.1c-0.3-0.1-0.6-0.2-0.9-0.2
		c-0.2,0-0.4,0.1-0.6,0.3c-0.1,0.2-0.3,0.3-0.6,0.3c-0.3,0-0.7-0.1-1-0.3c-0.2-0.1-0.4-0.2-0.7-0.2h-0.1l-0.3,0.3
		c-0.6,0.5-1.9,1.7-1.9,2.5c0,0.3,0.3,0.5,0.8,0.8c0.5,0.3,1.2,0.6,1.1,1.4c0,1.1,0.5,2.2,1.3,2.9c0.6,0.6,1.6,2.1,1.1,3
		c-0.3,0.5-0.9,0.8-1.5,0.8c-0.3,0-0.6,0-0.9-0.1c-0.3-0.1-0.6-0.1-0.9,0.1c-0.3,0.1-0.6,0.2-1,0.2c-0.3,0-0.6,0-1-0.1
		c-0.2,0-0.3-0.1-0.5-0.1c-0.9,0-1.2,0.5-1.5,1.2c-0.1,0.2-0.3,0.5-0.5,0.7c0,0,0,0.1-0.1,0.1c0.3,0.3,0.5,0.5,0.7,0.8
		c0.4,0.7,1.1,1.2,1.8,1.5c0.3,0.1,0.5,0.1,0.8,0.1c0.5,0,0.9-0.1,1.3-0.3c0.2-0.1,0.5-0.1,0.7-0.2c0.2,0,0.5,0.1,0.5,0.7
		c0,1-1.7,1.2-3.1,1.3c-0.4,0-0.7,0.1-1.1,0.1c0.4,0.7,3.9,4.9,5.9,4.9c0.1,0,0.1,0,0.2,0c1.4-0.3,2.6-1.2,3.1-2.5
		c0-0.1,0-0.2,0-0.2c-0.3-0.2-0.4-0.5-0.3-0.8C-5754.2-650.6-5753.7-651.2-5753.2-651.2L-5753.2-651.2z"/>
</g>
<line id="Line_83" class="st1" x1="32.4" y1="63.4" x2="55.4" y2="63.4"/>
<g transform="matrix(1, 0, 0, 1, 5779.52, 704.38)">
	
		<image style="overflow:visible;opacity:0.85;" width="17" height="21" xlink:href="3450CEEFDB61AFDB.png"  transform="matrix(1 0 0 1 -5757.52 -653.263)">
	</image>
	<g>
		<g>
			<path id="Path_819-2_12_" class="st2" d="M-5743.6-646c0,0.8-0.2,1.5-0.5,2.2c-0.8,1.7-4.5,7-4.5,7s-3.6-5.3-4.4-6.9
				c-0.4-0.7-0.6-1.6-0.6-2.4c-0.1-2.8,2.1-5.1,4.9-5.2s5.1,2.1,5.2,4.9C-5743.6-646.2-5743.6-646.1-5743.6-646L-5743.6-646z"/>
		</g>
	</g>
</g>
<ellipse id="Ellipse_4" class="st3" cx="30.9" cy="58.2" rx="1.8" ry="1.8"/>
<g id="Group_639" transform="translate(5309.5 327)">
	<g transform="matrix(1, 0, 0, 1, 470.02, 377.38)">
		
			<image style="overflow:visible;opacity:0.75;" width="93" height="29" xlink:href="3450CEEFDB61AFD9.png"  transform="matrix(1 0 0 1 -5736.52 -655.263)">
		</image>
		<g>
			<g>
				<rect id="Rectangle_148-2_14_" x="-5730.2" y="-649.5" class="st3" width="80" height="16"/>
			</g>
		</g>
	</g>
	<g class="st4">
		<path class="st5" d="M-5253.2-269.1l1.4,7.1h0l1.4-7.1h3v10h-1.8v-8h0l-1.8,8h-1.6l-1.8-8h0v8h-1.8v-10H-5253.2z"/>
		<path class="st5" d="M-5244.1-262.1c0,0.3,0,0.5,0,0.7c0,0.2,0.1,0.4,0.2,0.5c0.1,0.2,0.2,0.3,0.4,0.4c0.2,0.1,0.3,0.1,0.6,0.1
			c0.2,0,0.4,0,0.6-0.1s0.3-0.2,0.4-0.4s0.1-0.3,0.2-0.5s0-0.4,0-0.7v-7h2v7c0,0.6-0.1,1.2-0.3,1.6c-0.2,0.4-0.4,0.7-0.7,1
			c-0.3,0.2-0.6,0.4-1,0.5c-0.4,0.1-0.8,0.1-1.2,0.1c-0.4,0-0.8,0-1.2-0.1c-0.4-0.1-0.7-0.2-1-0.5c-0.3-0.2-0.5-0.6-0.7-1
			s-0.3-1-0.3-1.6v-7h2V-262.1z"/>
		<path class="st5" d="M-5235.5-269.1l1.4,7.1h0l1.4-7.1h3v10h-1.8v-8h0l-1.8,8h-1.6l-1.8-8h0v8h-1.8v-10H-5235.5z"/>
		<path class="st5" d="M-5225-269.1c0.4,0,0.8,0,1.1,0.1c0.4,0.1,0.7,0.2,0.9,0.4s0.4,0.5,0.6,0.8c0.1,0.3,0.2,0.7,0.2,1.2
			c0,0.5-0.1,1-0.4,1.4c-0.3,0.4-0.6,0.7-1.1,0.8v0c0.6,0.1,1,0.3,1.3,0.7s0.5,0.9,0.5,1.6c0,0.4-0.1,0.8-0.2,1.1s-0.3,0.7-0.5,0.9
			c-0.2,0.3-0.6,0.5-1,0.6c-0.4,0.2-0.9,0.2-1.5,0.2h-3.4v-10H-5225z M-5225.8-265c0.6,0,1-0.1,1.2-0.3c0.3-0.2,0.4-0.5,0.4-1
			s-0.1-0.8-0.4-1c-0.2-0.2-0.6-0.3-1.1-0.3h-0.7v2.6H-5225.8z M-5225.6-260.6c0.5,0,0.9-0.1,1.2-0.3s0.4-0.6,0.4-1.2
			c0-0.3,0-0.5-0.1-0.7s-0.2-0.3-0.3-0.5c-0.1-0.1-0.3-0.2-0.5-0.2c-0.2,0-0.4-0.1-0.6-0.1h-0.9v3H-5225.6z"/>
		<path class="st5" d="M-5216.3-269.1l2.6,10h-2.1l-0.5-2.1h-2.7l-0.5,2.1h-2.1l2.6-10H-5216.3z M-5216.5-262.9l-1-4.5h0l-1,4.5
			H-5216.5z"/>
		<path class="st5" d="M-5213-269.1h2v10h-2V-269.1z"/>
		<path class="st5" d="M-5202.5-262.3h-3.9v-1.7h3.9V-262.3z"/>
		<path class="st5" d="M-5196.1-269.1v3.8h2.4v-3.8h2v10h-2v-4.4h-2.4v4.4h-2v-10H-5196.1z"/>
		<path class="st5" d="M-5186-259.1c-0.4,0.1-0.8,0.2-1.3,0.2c-0.8,0-1.4-0.1-1.8-0.4c-0.4-0.2-0.8-0.6-1-1c-0.2-0.5-0.4-1-0.5-1.6
			c-0.1-0.6-0.1-1.3-0.1-2.1c0-0.8,0-1.5,0.1-2.1c0.1-0.6,0.2-1.2,0.5-1.6c0.2-0.5,0.6-0.8,1-1.1c0.4-0.3,1.1-0.4,1.8-0.4
			s1.4,0.1,1.8,0.4c0.4,0.3,0.8,0.6,1,1.1c0.2,0.5,0.4,1,0.5,1.6s0.1,1.3,0.1,2.1c0,0.8,0,1.6-0.1,2.3c-0.1,0.7-0.3,1.3-0.6,1.8
			l1.1,1.1l-1.2,1.1L-5186-259.1z M-5188.6-262.4c0,0.5,0.1,0.9,0.2,1.1s0.2,0.5,0.4,0.6c0.2,0.1,0.4,0.2,0.7,0.2
			c0.3,0,0.5-0.1,0.7-0.2c0.2-0.1,0.3-0.3,0.4-0.6c0.1-0.3,0.2-0.7,0.2-1.1c0-0.5,0-1,0-1.7s0-1.2,0-1.7s-0.1-0.8-0.2-1.1
			c-0.1-0.3-0.2-0.5-0.4-0.7c-0.2-0.1-0.4-0.2-0.7-0.2c-0.3,0-0.5,0.1-0.7,0.2s-0.3,0.4-0.4,0.7c-0.1,0.3-0.2,0.7-0.2,1.1
			c0,0.5,0,1,0,1.7S-5188.7-262.9-5188.6-262.4z"/>
	</g>
</g>
</svg>
