<?xml version="1.0" encoding="utf-8"?>
<!-- Generator: Adobe Illustrator 21.0.2, SVG Export Plug-In . SVG Version: 6.00 Build 0)  -->
<!DOCTYPE svg PUBLIC "-//W3C//DTD SVG 1.1//EN" "http://www.w3.org/Graphics/SVG/1.1/DTD/svg11.dtd">
<svg version="1.1" id="Layer_1" xmlns="http://www.w3.org/2000/svg" xmlns:xlink="http://www.w3.org/1999/xlink" x="0px" y="0px"
	 viewBox="0 0 291 255.8" style="enable-background:new 0 0 291 255.8;" xml:space="preserve">
<style type="text/css">
	.st0{fill:#3399CC;}
	.st1{fill:#003366;}
</style>
<title>Untitled-1</title>
<g>
	<path class="st0" d="M0,1.6h29.2c20.4,0,31.2,11.1,31.2,34.7v45.4c0,23.5-10.8,34.7-31.2,34.7H0V1.6z M19.7,100.2h6.8
		c10.5,0,14.2-4,14.2-16.1V33.9c0-12.1-3.7-16.1-14.2-16.1h-6.8L19.7,100.2z"/>
	<path class="st0" d="M66.9,29.4C66.9,13.2,76.5,0,97.1,0s30.2,13.2,30.2,29.4v59.1c0,16.2-9.5,29.4-30.2,29.4s-30.2-13.2-30.2-29.4
		V29.4z M86.6,88.1c0,8.6,2.5,12.7,10.5,12.7s10.5-4.1,10.5-12.7V29.9c0-8.6-2.5-12.7-10.5-12.7s-10.5,4.1-10.5,12.7V88.1z"/>
	<path class="st0" d="M133.7,116.4V1.6H152l24,65.7h0.3V1.6h17.8v114.7h-17.2l-25.1-71.7h-0.3v71.7L133.7,116.4z"/>
	<path class="st0" d="M200.5,116.4V1.6h52.8v17.1h-33.1v29.6h25.4v17.2h-25.4v33.7h35.3v17.2H200.5z"/>
	<path class="st1" d="M1.6,121.3h34.3c23.8,0,36.5,13,36.5,40.6v53.3c0,27.6-12.7,40.6-36.5,40.6H1.6V121.3z M24.8,236.8h8
		c12.3,0,16.6-4.7,16.6-18.8v-58.9c0-14.2-4.3-18.8-16.6-18.8h-8V236.8z"/>
	<path class="st1" d="M85.5,255.8V121.3h61.9v20.1h-38.8v34.7h29.8v20.1h-29.8v39.5H150v20.1L85.5,255.8z"/>
	<path class="st1" d="M172.6,255.8h-22.4L175,121.3h28.7l24.8,134.6h-22.4L202,226h-25.3L172.6,255.8z M180,205.9h18.6l-9.1-57.8
		h-0.4L180,205.9z"/>
	<path class="st1" d="M231.6,255.8V121.3h23.1v114.4H291v20.1H231.6z"/>
</g>
</svg>
