<?xml version="1.0" encoding="utf-8"?>
<!-- Generator: Adobe Illustrator 21.0.2, SVG Export Plug-In . SVG Version: 6.00 Build 0)  -->
<!DOCTYPE svg PUBLIC "-//W3C//DTD SVG 1.1//EN" "http://www.w3.org/Graphics/SVG/1.1/DTD/svg11.dtd">
<svg version="1.1" id="Layer_1" xmlns="http://www.w3.org/2000/svg" xmlns:xlink="http://www.w3.org/1999/xlink" x="0px" y="0px"
	 viewBox="0 0 200.6 256.5" style="enable-background:new 0 0 200.6 256.5;" xml:space="preserve">
<style type="text/css">
	.st0{fill:#FFFFFF;}
	.st1{fill:#3399CC;}
	.st2{fill:#003366;}
</style>
<title>Untitled-1</title>
<g>
	<path class="st0" d="M10.2,9.2H0V0h30.9v9.2H20.7v52.1H10.2V9.2z"/>
	<path class="st0" d="M32.9,61.3V0h10.5v25h11.2V0h10.5v61.3H54.6V34.1H43.4v27.2H32.9z"/>
	<path class="st0" d="M71.1,61.3V0h28.2v9.2H81.6V25h13.6v9.2H81.6v18h18.8v9.1H71.1z"/>
	<path class="st1" d="M22.5,158.9H6.7V66.6h22.2c17.8,0,26.8,7.5,26.8,27.2c0,14.8-5.8,20.8-11.1,23.3L58,158.9H41.9l-11.2-38.2
		c-2.7,0.3-5.4,0.4-8.2,0.4L22.5,158.9z M22.5,108h5.6c8.6,0,11.8-3.2,11.8-14.2s-3.2-14.2-11.8-14.2h-5.6V108z"/>
	<path class="st1" d="M60.9,158.9V66.6h42.4v13.8H76.8v23.8h20.4V118H76.8v27.1h28.4v13.8L60.9,158.9z"/>
	<path class="st1" d="M120,158.9h-15.3l17-92.2h19.7l17,92.2h-15.3l-2.8-20.4h-17.4L120,158.9z M125.1,124.6h12.8L131.6,85h-0.3
		L125.1,124.6z"/>
	<path class="st1" d="M159.8,158.9V66.6h15.8v78.4h24.9v13.8L159.8,158.9z"/>
	<path class="st2" d="M6.7,164.2h23.5c16.4,0,25,8.9,25,27.9v36.5c0,18.9-8.7,27.9-25,27.9H6.7V164.2z M22.5,243.4H28
		c8.4,0,11.4-3.2,11.4-12.9v-40.4c0-9.7-2.9-12.9-11.4-12.9h-5.5V243.4z"/>
	<path class="st2" d="M61.1,256.5v-92.2h42.4V178H76.9v23.8h20.4v13.8H76.9v27.1h28.4v13.8L61.1,256.5z"/>
	<path class="st2" d="M117.5,256.5h-15.3l17-92.2h19.7l17,92.2h-15.4l-2.8-20.5h-17.4L117.5,256.5z M122.6,222.2h12.8l-6.3-39.6
		h-0.3L122.6,222.2z"/>
	<path class="st2" d="M154.8,256.5v-92.2h15.8v78.4h24.9v13.8L154.8,256.5z"/>
</g>
</svg>
