<svg xmlns="http://www.w3.org/2000/svg" width="75.935" height="67.603" viewBox="0 0 75.935 67.603">
  <path id="Path_48040" data-name="Path 48040" d="M2949.471,1321.372c.326-.254-.163-1.559-.454-1.36s-.29-2.049-.072-3.082c.2-1.034.072-.907-.453-.363-.544.544-1.106-1.034-1.233-1.433-.127-.417-.744-1.559-1.433-1.4-.707.163-.254-.979-.906-.87-.653.127-.78-.943-.653-1.94.127-.979-.453-.2-.743-.617s-.616-.091-1.07.073-.58-.87-.453-1.269c.127-.417-.091-.907-.707-1.36a1.285,1.285,0,0,1-.617-1.36c.036-.526-3.5-2.339-4.279-2.5s-.127-.979-.453-1.269a4,4,0,0,1-.453-2.267c0-.907-1.161-1.2-1.106-1.94.036-.744-.326-1.433-.254-2.267.091-.816-1.2-1.033-1.233-1.487s-.744-.036-1.433.036c-.707.073-.653-.907-.58-1.85a4.176,4.176,0,0,0-.87-2.956c-.58-.453-.616-2.013-.906-2.267s-1.233.816-1.2,1.36a1.824,1.824,0,0,1-.454,1.487c-.362.326.254,1.614-.253,2.049-.49.453-.037,2.266-.163,3.282a6.746,6.746,0,0,1-.58,2.847c-.49.707-.581,1.813-1.56,2.176s-2.3-.417-2.266-.943c.036-.544-1.07-.87-1.65-.78s-.907-.743-1.813-1.432c-.906-.707-1.6.163-1.886-.653s-.58-.943-1.233-1.4-.453-.453.163-.907.49-1.034.163-1.559c-.326-.544.363-.417,1.2-.87.816-.453,0-.979.617-1.233s.253-.78-.417-.907c-.653-.127-.453.653-.707.744s-.49-1.034-.707-.979c-.2.036-.979,1.106-1.4.58-.417-.544-2.72-.979-3.626-1.106s-1.2-1.269-1.723-1.07.091.58.707,1.233-2.049,1.106-2.846.87c-.78-.254.126.58-.526.526-.653-.036-.78,1.106-1.324,1.686s-.163,1-.743,1.36-.616.78.091,1.559-.326.816-.943.2-1.233-.616-1.2.091-.743.363-.616-.417-.87-.417-1.034-.87a2.18,2.18,0,0,0-1.559-1.161c-.526.036-.526.617-1.07.617s-.653.29-.58.87c.09.58-.816-.036-1.433.036-.616.091,0,.78-.326.816s-.326.616-.871.616-.453,1.2-.363,1.813c.073.616-.816-.29-1.36-.127s.127.707.29,1.4c.163.707-.29.653-.58.943s-.744-.78-.744-1.4-.707-.036-1.433.744c-.743.78.254,1.977-.091,2.176a21.324,21.324,0,0,0-2.666,2.629c-.87,1.034-2.72.417-3.282.907-.58.49-1.2.127-1.777.58s-1.651,1.324-1.777.78-1.614-.127-2.23.544a4.1,4.1,0,0,1-2.3,1.269c-.707.036-.707,1.106-.979,1.36-.29.254-.2-.87-.2-1.161s-.653.49-.943,1.36.707,1.2.091,2.1-1.2,1.813-.326,2.956c.871,1.161,1.36,1.886,1.07,2.466s-.907-1.161-1.106-.943c-.2.2.78.943.544,1.324-.254.363-1.124-1.4-1.324-.979-.163.363,1.849,3.173,1.885,4.189.037,1.034,1.65,2.013,1.56,3.5s1.4,3.862,1.65,4.243c.254.363-.581,1.36-.417,2.466s-.363,1.523-1.07,1.523-.29,1.161.49,1.233c.78.091.49.616,1.36,1.2s2.92.363,3.627.363.906-1.07,1.849-1.106.871-.326,1.324-.906,2.593-.417,4.769-.29,3.119-.544,3.463-1.433c.29-.78,1.85-.816,2.466-1.4s1.161-.616,2.756-.544c1.614.091,3.083-.78,4.116-1.2s2.92-.254,3.917-.49c.979-.254,1.16,1.233,2.267,1.106s1.614.327,2.176.29c.58-.036.49.417,1.07.526.58.127.49.616.127,1.161-.363.526.87.49,1.65,1.559s.036,1.233.453,2.049.707.616,1.523-.544,1.723-.417,1.85-1.4,1-2.14,1.559-1.65c.58.49-.417.744-.78,2.629s-1.034.907-1.161,1.432c-.127.544,1.723.816,1.723-.163s.327-1.433,1.034-.544c.707.906-.417,1.65-.254,2.049.163.417.943-.127,1.36-.091.725.073,1.723,1.686,1.56,2.557s-.417,1.687.979,2.394.87.816,1.886.816a8.328,8.328,0,0,1,3.735,1.323c.58.49,2.049-.363,2.339-1.36.29-.979,1.36-.036.78.29s.29,1.106.326.58c.037-.544.291-.979.49-.363s.943.616,1.233,1.106.617.87.617.453.163-.78.816-1.034a7.244,7.244,0,0,0,1.777-1.269c.707-.58,3.573-.707,3.862-.707s.453-2.466.616-3.735,1.233-1.487,1.4-2.847a8.971,8.971,0,0,1,1.976-3.989,1.509,1.509,0,0,0,1.106-1.269c.036-.78.979-1.65.979-2.593s.544-2.049.453-2.339a1.814,1.814,0,0,1,.2-1.849C2950.015,1322.406,2949.145,1321.626,2949.471,1321.372Zm-41.216-32.222c-.09-.49-3.01.073-2.393.58C2906.279,1290.057,2908.328,1289.658,2908.255,1289.15Zm9.248,48.723c.453.417,1.976.29,2.23-.29S2917.1,1337.492,2917.5,1337.873Zm18.6,11.424c-1.106.127-2.774-1.015-3.173-.907-.454.127,1.432,2.956.87,3.7-.58.743,1.687,2.756,2.466,2.883s.49-.78,1.034-.743.326-.526.417-.943.616.453,1.069.2-.127-2.013.544-2.013c.653,0,.127-2.14-.091-2.829S2937.213,1349.188,2936.107,1349.3Z" transform="translate(-2873.757 -1287.479)" fill="#002b49" stroke="#002b49" stroke-width="0.2"/>
</svg>
