<svg id="Layer_1" data-name="Layer 1" xmlns="http://www.w3.org/2000/svg" viewBox="0 0 79.29 90"><defs><style>.cls-1{fill:#002b49;fill-rule:evenodd;}</style></defs><title>gm-ico-4</title><path class="cls-1" d="M24.65,7.33A.74.74,0,0,0,24,7.8l-1.07,2.67a.77.77,0,0,0,0,.54l2,5.17a.74.74,0,0,0,1.42-.35l-.63-4.93.23-.08.73,3.64a.63.63,0,0,0,.15.32l3.59,4.41-.61,1a.74.74,0,0,0,.24,1l.05,0,5.17,2.68a.84.84,0,0,0,.31.08l3.74.17,3.94,2.4a.71.71,0,0,0,.31.1l3.32.32,1.07,2.46a.86.86,0,0,0,.26.31l3.93,2.68a.79.79,0,0,0,.39.13l4.13.15.15,4.2-3.92,4.6a.74.74,0,0,0-.14.71L53.31,44l-.9,1.49a.76.76,0,0,0-.09.55l.54,2.32a.72.72,0,0,0,.53.55l1.64.45,3.15,6.12L58,57.26a.72.72,0,0,0,.4.72l6.19,3.18-.17,5.73L62.49,78.6l-.89,3.91v0l-.72,4.11s0,0,0,.07l-.53,7a.71.71,0,0,0,.38.7l5.17,2.86a.74.74,0,0,0,1-.29.73.73,0,0,0,0-.7l-1.52-2.89,2.27-2.12a.73.73,0,0,0,.15-.87l-.72-1.46,1.26-.57a.7.7,0,0,0,.41-.49l.75-3h1.75a.74.74,0,0,0,.73-.66l.1-.92,3.24.15a.75.75,0,0,0,.58-.24l1.78-2a.73.73,0,0,0,.12-.83l-.52-1,1.81.47a.71.71,0,0,0,.67-.15L85.12,75a.72.72,0,0,0,.21-.33l1.34-4,4-2.31,2.58-.69a.71.71,0,0,0,.36-.22l3-3.39a.87.87,0,0,0,.17-.33L98.33,57l2.49-2.16a.63.63,0,0,0,.21-.3l1.07-2.85a.8.8,0,0,0,.05-.26V48.23a.74.74,0,0,0-.27-.57l-1.07-.89a.1.1,0,0,0,0,0l-3.57-2.5a.7.7,0,0,0-.28-.12l-2.58-.52L91,42,91,42l-2.55-1-.58-1.47-1.25-3.72a.75.75,0,0,0-.45-.47l-2.5-.89a.73.73,0,0,0-.94.45.38.38,0,0,0,0,.1l-.46,2.29L79,38.67l-.47-.24-.63-2.35a.64.64,0,0,0-.12-.25l-1.15-1.58,1.56-2.8a.73.73,0,0,0-.29-1,.31.31,0,0,0-.1-.05l-4.82-1.79-.1,0-4.29-.89h-.11l-3.21-.18a.73.73,0,0,0-.68.36l-.11-.26a.73.73,0,0,0-.84-.44l-4.1.89a.74.74,0,0,0-.57.59l-.22,1.2-3-.71a.58.58,0,0,0-.19,0l-1.87,0L52.18,27.9V23.6a.74.74,0,0,0-.7-.74l-5.25-.32-.09-1.24,1.25-.83a.9.9,0,0,0,.19-.2l1.25-1.78a.75.75,0,0,0-.18-1,.83.83,0,0,0-.34-.13l-4.46-.53a.73.73,0,0,0-.81.59l-.43,2.16-2.73.39-1.41-2.53.66-3.3a.73.73,0,0,0-.29-.75l-1.78-1.3-1-2.64a.75.75,0,0,0-1-.44L35,9l-1.12.62L32,7.73a.73.73,0,0,0-.73-.19l-2.83.83-3.54-1a.83.83,0,0,0-.22,0Z" transform="translate(-22.86 -7.33)"/><path class="cls-1" d="M25.11,9l.9.26-1.16.39Z" transform="translate(-22.86 -7.33)"/><path class="cls-1" d="M55.81,14.43h-.07l-3.16.3-.13,0L50,15.41a.74.74,0,0,0,.36,1.43l2-.45,4,1.84L58.67,20a.73.73,0,0,0,.74.09l2.38-1a.74.74,0,0,0,.38-1,.76.76,0,0,0-.3-.34l-2.52-1.47h0l-3.16-1.76A.74.74,0,0,0,55.81,14.43Z" transform="translate(-22.86 -7.33)"/><path class="cls-1" d="M63.45,18.17a.75.75,0,0,0-.75.73V19l.07.54L61.71,20a.75.75,0,0,0-.44.83l.07.36a.75.75,0,0,0,.73.6h2.48l1.14.58a.73.73,0,0,0,1-.32.54.54,0,0,0,0-.11l.18-.54,1.93.17a.75.75,0,0,0,.67-.32,1.65,1.65,0,0,0,.23-.43.91.91,0,0,0,0-.67.87.87,0,0,0-.38-.45.89.89,0,0,0-.47-.12c.18,0,.13,0,.08,0l-.24-.12c-.21-.11-.47-.27-.73-.43-.52-.32-1-.64-1-.64a.73.73,0,0,0-.4-.13l-3.17-.07Z" transform="translate(-22.86 -7.33)"/></svg>