<svg xmlns="http://www.w3.org/2000/svg" width="172.108" height="13.761" viewBox="0 0 172.108 13.761"><defs><style>.a{fill:#fff;}</style></defs><g transform="translate(0 0)"><path class="a" d="M465.332,392.927h2.63l6.089,13.443h-2.491l-1.767-4.058h-6.564l-1.836,4.058h-2.4Zm3.826,7.928-2.581-5.938-2.691,5.938Z" transform="translate(-458.991 -392.927)"/><path class="a" d="M464.678,394.123h1.709v8.794h6.245V404.1h-7.954Z" transform="translate(-448.205 -390.659)"/><path class="a" d="M468.707,394.123l3.577,8.5,3.554-8.5h1.891l-4.559,9.979h-1.8l-4.536-9.979Z" transform="translate(-444.107 -390.659)"/><path class="a" d="M474.545,394.123h1.906l4.53,9.979h-1.854l-1.312-3.007h-4.881l-1.361,3.007h-1.732ZM477.337,400l-1.917-4.4-1.99,4.4Z" transform="translate(-438.413 -390.659)"/><path class="a" d="M474.154,394.123h5.657a6.676,6.676,0,0,1,2.3.333,2.362,2.362,0,0,1,1.721,2.363,2.222,2.222,0,0,1-.463,1.46,3.236,3.236,0,0,1-1.306.921,2.617,2.617,0,0,1,1.106.623,1.913,1.913,0,0,1,.414,1.257l.069,1.335a3.382,3.382,0,0,0,.119.849.869.869,0,0,0,.542.608v.229h-2.088a.966.966,0,0,1-.133-.333,4.966,4.966,0,0,1-.078-.779l-.093-1.671a1.375,1.375,0,0,0-.878-1.312,4.162,4.162,0,0,0-1.468-.188h-3.714V404.1h-1.709Zm5.472,4.579a3.632,3.632,0,0,0,1.81-.382,1.648,1.648,0,0,0-.267-2.812,3.627,3.627,0,0,0-1.329-.2h-3.977V398.7Z" transform="translate(-430.233 -390.659)"/><path class="a" d="M478.108,394.123h7.934v1.208H479.53v3.027h6.016v1.185H479.53v3.375h6.587V404.1h-8.009Z" transform="translate(-422.734 -390.659)"/><path class="a" d="M481.417,402.987l7.65-7.679h-7.079v-1.185h9.226v1.159l-7.67,7.635h7.67V404.1h-9.8Z" transform="translate(-416.458 -390.659)"/><path class="a" d="M489.294,397.27a2.729,2.729,0,0,1-.365-1.3,2.643,2.643,0,0,1,1.1-2.164,4.616,4.616,0,0,1,2.937-.866,4.216,4.216,0,0,1,2.731.8,2.4,2.4,0,0,1,.985,1.915,3.058,3.058,0,0,1-1.017,2.271,9.539,9.539,0,0,1-1.987,1.312l3.065,2.923q.283-.734.391-1.095a8.239,8.239,0,0,0,.229-1.019h2a8.242,8.242,0,0,1-.776,2.479c-.388.791-.579,1.107-.579.956l2.937,2.856h-2.61l-1.576-1.495a7.922,7.922,0,0,1-1.715,1.164,7.156,7.156,0,0,1-3.128.649,5.391,5.391,0,0,1-3.806-1.127A3.424,3.424,0,0,1,486.928,403a3.224,3.224,0,0,1,1.153-2.535,13.193,13.193,0,0,1,2.636-1.549A7.031,7.031,0,0,1,489.294,397.27Zm4.959,7.514a4.422,4.422,0,0,0,1.4-1.04l-3.791-3.7a11.225,11.225,0,0,0-2.086,1.312,2.173,2.173,0,0,0-.75,1.674,1.807,1.807,0,0,0,.973,1.645,4.053,4.053,0,0,0,2.08.57A4.729,4.729,0,0,0,494.253,404.783Zm-.162-7.592a1.863,1.863,0,0,0,.672-1.382,1.3,1.3,0,0,0-.49-1.022,1.939,1.939,0,0,0-1.326-.432,2.031,2.031,0,0,0-1.758.675,1.249,1.249,0,0,0-.252.756,1.743,1.743,0,0,0,.382,1.066,10.933,10.933,0,0,0,1.283,1.338A8.9,8.9,0,0,0,494.091,397.191Z" transform="translate(-406.006 -392.899)"/><path class="a" d="M493.719,392.927h3.227l4.817,11.366,4.826-11.366H509.8V406.37h-2.14V398.43c0-.269.017-.73.049-1.364s.04-1.315.04-2.039l-4.872,11.343h-2.259l-4.852-11.343v.414c0,.327.017.831.046,1.506s.046,1.167.046,1.483v7.939h-2.141Z" transform="translate(-393.127 -392.927)"/><path class="a" d="M504.43,394.123h1.906l4.53,9.979h-1.854L507.7,401.1h-4.887l-1.359,3.007h-1.735Zm2.8,5.877-1.92-4.4-1.993,4.4Z" transform="translate(-381.74 -390.659)"/><path class="a" d="M504.076,394.123h5.66a6.682,6.682,0,0,1,2.306.333,2.362,2.362,0,0,1,1.721,2.363,2.208,2.208,0,0,1-.466,1.46,3.224,3.224,0,0,1-1.3.921,2.622,2.622,0,0,1,1.1.623,1.912,1.912,0,0,1,.414,1.257l.069,1.335a3.559,3.559,0,0,0,.116.849.879.879,0,0,0,.544.608v.229h-2.091a1.028,1.028,0,0,1-.13-.333,5.832,5.832,0,0,1-.078-.779l-.093-1.671a1.375,1.375,0,0,0-.878-1.312,4.163,4.163,0,0,0-1.468-.188h-3.716V404.1h-1.709Zm5.474,4.579a3.645,3.645,0,0,0,1.813-.382,1.651,1.651,0,0,0-.267-2.812,3.639,3.639,0,0,0-1.33-.2h-3.983V398.7Z" transform="translate(-373.484 -390.659)"/><path class="a" d="M509.534,401.036a2.363,2.363,0,0,0,.478,1.379,3.492,3.492,0,0,0,2.847.994,5.763,5.763,0,0,0,1.665-.223q1.456-.408,1.454-1.5a1.223,1.223,0,0,0-.62-1.161,6.915,6.915,0,0,0-1.955-.588l-1.64-.307a8.479,8.479,0,0,1-2.268-.655,2.007,2.007,0,0,1-1.15-1.865,2.659,2.659,0,0,1,1.13-2.2,5.2,5.2,0,0,1,3.2-.86,6.487,6.487,0,0,1,3.241.756,2.559,2.559,0,0,1,1.332,2.41h-1.6a2.238,2.238,0,0,0-.521-1.225,3.364,3.364,0,0,0-2.512-.779,3.316,3.316,0,0,0-2.056.5,1.481,1.481,0,0,0-.629,1.17,1.113,1.113,0,0,0,.739,1.066,11.637,11.637,0,0,0,2.2.547l1.695.31a6.211,6.211,0,0,1,1.9.64,2.231,2.231,0,0,1,1.153,2.022,2.445,2.445,0,0,1-1.469,2.37,7.783,7.783,0,0,1-3.412.712,5.842,5.842,0,0,1-3.548-.953,2.938,2.938,0,0,1-1.257-2.558Z" transform="translate(-366.166 -390.809)"/><path class="a" d="M516.169,394.123h1.909l4.527,9.979h-1.854l-1.309-3.007h-4.883L513.2,404.1h-1.732Zm2.8,5.877-1.917-4.4-2,4.4Z" transform="translate(-359.47 -390.659)"/><path class="a" d="M515.663,394.123h1.712v8.794h6.242V404.1h-7.954Z" transform="translate(-351.508 -390.659)"/></g></svg>