<?xml version="1.0" encoding="utf-8"?>
<!-- Generator: Adobe Illustrator 23.0.1, SVG Export Plug-In . SVG Version: 6.00 Build 0)  -->
<svg version="1.1" id="Layer_1" xmlns="http://www.w3.org/2000/svg" xmlns:xlink="http://www.w3.org/1999/xlink" x="0px" y="0px"
	 viewBox="0 0 129 106" style="enable-background:new 0 0 129 106;" xml:space="preserve">
<style type="text/css">
	.st0{fill:#002B49;}
</style>
<path class="st0" d="M106.32,30.02c0.75-0.22,1.26,0.21,1.02,0.82c-0.13,0.34-0.44,0.6-0.47,1.13c0.71-0.31,1.38-0.11,2.05-0.05
	c0.77,0.07,1.14,0.83,0.61,1.34c-0.86,0.82-0.87,1.58,0.07,2.5c-0.3-0.04-0.44-0.02-0.5-0.08c-0.85-0.89-1.55-0.29-2.27,0.19
	c-0.95,0.64-1.61,1.59-2.53,2.26c-0.3,0.22-0.23,0.51-0.19,0.79c0.14,1.2,0.18,2.38-0.75,3.34c-0.18,0.19-0.21,0.46-0.15,0.65
	c0.47,1.46-0.64,2.56-0.85,3.86c-0.05,0.32-0.3,0.42-0.58,0.4c-0.6-0.03-1.19-0.08-1.85-0.13c0.42,1.03,0.7,2.29,0.26,3.05
	c-0.67,1.14-0.29,2.17-0.37,3.25c-0.01,0.12-0.02,0.23-0.05,0.34c-0.08,0.33-0.1,0.84-0.47,0.82c-0.38-0.02-0.78-0.26-0.87-0.81
	c-0.24-1.53-0.65-3.02-1.13-4.49c-0.11-0.32-0.07-0.86-0.56-0.84c-0.43,0.02-0.48,0.51-0.61,0.86c-0.16,0.43-0.27,0.88-0.25,1.35
	c0.01,0.22-0.11,0.4-0.33,0.44c-0.21,0.04-0.29-0.12-0.36-0.29c-0.2-0.53-0.86-0.63-1.03-1.28c-0.29-1.06-0.05-1.79,0.97-2.3
	c0.97-0.49,1.52-1.25,1.75-2.38c0.18-0.87-0.21-0.84-0.77-0.84c-1.36,0-2.73,0.01-4.09,0.01c-0.43,0-0.87-0.05-1.3-0.07
	c-0.72-0.03-0.97-0.37-0.93-1.1c0.03-0.47-0.14-0.96-0.26-1.43c-0.04-0.18-0.06-0.46-0.28-0.5c-0.27-0.05-0.27,0.23-0.33,0.41
	c-0.1,0.28-0.28,0.21-0.49,0.12c-0.36-0.16-0.58-0.46-0.83-0.74c-0.18-0.2-0.33-0.54-0.67-0.05c-0.19,0.27-0.54,0.06-0.8-0.21
	c-0.25-0.26-0.36-0.2-0.5,0.15c-0.02,0.05-0.07,0.09-0.11,0.14c-0.93,1.49-0.83,1.81,0.78,2.63c0.18,0.09,0.36,0.2,0.48,0.34
	c0.14,0.16,0.5,0.17,0.41,0.48c-0.07,0.24-0.35,0.15-0.53,0.21c-0.73,0.24-1.11,0.89-1.61,1.39c-0.21,0.2-0.16,0.48,0.04,0.71
	c0.26,0.32,0.58,0.56,0.96,0.73c0.93,0.41,1,0.57,0.51,1.43c-0.18,0.32-0.16,0.63,0,0.9c0.53,0.89,1.1,1.74,1.13,2.86
	c0.02,0.71,0.32,1.4,0.46,2.1c0.09,0.45,0.11,0.91-0.6,0.81c-0.24-0.03-0.44,0.05-0.64,0.2c-0.57,0.44-0.96,0.41-1.03-0.53
	c-0.43,1.39-1.73,1.49-2.73,2.03c-0.65,0.35-1,0.72-0.68,1.58c0.38,1.01-0.29,1.85-0.91,2.56c-0.64,0.73-1.55,1.11-2.46,1.41
	c-0.13,0.04-0.35,0.11-0.41,0.05c-0.81-0.86-0.98,0.15-1.19,0.49c-1.03,1.61-2.05,3.21-3.56,4.42c-0.64,0.51-1.24,1.04-1.65,1.76
	c-0.25,0.43-0.63,0.7-1.09,0.95c-0.93,0.5-1.99,0.96-1.77,2.35c0.05,0.3-0.14,0.42-0.37,0.5c-0.72,0.25-1.33,0.82-2.21,0.58
	c-0.38-0.1-0.68,0.27-0.9,0.58c-0.25,0.36-0.45,0.74-0.69,1.1c-0.11,0.17-0.21,0.44-0.52,0.22c-0.71-0.52-1.27-0.14-1.71,0.39
	c-0.46,0.56-0.83,1.21-0.72,1.97c0.19,1.24-0.17,2.56,0.47,3.71c0.33,0.59-0.67,0.42-0.38,0.83c0.21,0.29,0.72,0.37,0.63,0.84
	c-0.12,0.7-0.22,1.38-0.53,2.06c-0.58,1.26-1.47,2.46-1.13,4.03c0.16,0.75-0.02,1.58,0.11,2.34c0.14,0.79-0.1,1.02-0.85,1.02
	c-0.78,0-2.33,2.14-2.13,2.89c0.03,0.12,0.15,0.22,0.22,0.32c-0.58,0.17-1.12,0.35-1.68,0.5c-0.76,0.21-1.21,0.59-1.29,1.47
	c-0.1,1.09-1.94,1.99-2.91,1.44c-1.68-0.95-2.85-2.3-3.29-4.26c-0.67-2.95-1.7-5.75-3.54-8.22c-1-1.34-1.34-2.98-1.66-4.61
	c-0.33-1.66-1.1-3.14-1.91-4.63c-1-1.84-2.05-3.73-2.1-5.96c-0.04-1.56-0.58-3.03-0.97-4.53c-0.12-0.47-0.45-0.95,0.06-1.44
	c0.2-0.19,0.06-0.44-0.29-0.52c-0.26-0.06-0.13-0.2-0.15-0.3c-0.18-1.46-0.34-2.91,0.4-4.3c0.28-0.53-0.05-1.11-0.28-1.55
	c-0.46-0.85-0.33-1.52,0.45-2.22c-1.47-0.19-0.44-1.72-1.39-2.18c-0.31,0.64-0.33,1.33-0.4,2c-0.09,0.91-0.52,1.54-1.35,1.96
	c-0.99,0.5-2.03,0.82-3.11,1.03c-0.21,0.04-0.39,0.05-0.58-0.07c-0.36-0.24-0.79-0.4-1.09-0.71c-1.33-1.37-2.52-2.87-3.67-4.39
	c-0.16-0.21-0.44-0.5-0.2-0.76c0.22-0.24,0.36,0.2,0.57,0.21c1.19,0.1,2.29-0.11,3.24-0.9c0.33-0.28,0.65-0.57,0.98-0.85
	c-0.04-0.06-0.08-0.12-0.11-0.19c-0.67,0.17-1.34,0.34-2,0.51c-1.22,0.32-3.72-1.22-4.02-2.43c-0.13-0.51,0.35-0.6,0.55-0.97
	c-0.5-0.07-0.74,0.42-1.18,0.43c-0.15-0.66-0.12-1.15,0.78-0.99c0.19,0.03,0.45,0.06,0.57-0.13c0.75-1.21,1.87-0.55,2.82-0.51
	c0.69,0.03,1.35,0.17,2.02-0.12c0.41-0.18,0.81-0.28,1.25,0.14c0.37,0.35,0.87,0,1.3-0.18c0.5-0.21,0.05-0.48,0.06-0.72
	c0.04-1.27-0.76-2.35-0.91-3.58c-0.03-0.25-0.28-0.33-0.52-0.38c-0.91-0.18-1.14-0.78-0.99-1.62c0.05-0.26,0.09-0.51,0.14-0.77
	c0.08-0.42,0.07-0.69-0.51-0.72c-0.54-0.03-1.12-0.22-1.31-0.84c-0.19-0.61,0.16-1.05,0.57-1.45c0.54-0.53,1.06-1.06,1.52-1.66
	c0.57-0.74,1.07-0.67,1.55,0.08c0.12,0.19,0.26,0.47,0.52,0.4c1.3-0.38,2.92-0.05,3.73-1.58c0.65-1.25,1.98-1.84,2.81-2.92
	c0.42-0.55,0.84-1.09,1.04-1.77c0.12-0.41,0.37-0.7,0.79-0.86c0.63-0.24,0.98-0.66,1.21-1.33c0.21-0.59,0.67-1.2,1.19-1.56
	c0.82-0.55,0.59-1.33,0.61-2.01c0.03-1.12,0.16-1.44,1.25-1.79c0.38-0.12,0.88-0.11,0.9-0.63c0.02-0.51-0.5-0.59-0.84-0.74
	c-0.43-0.19-0.88-0.31-0.86-0.91c0-0.16-0.11-0.32-0.25-0.32c-0.82,0.03-1.34-0.65-2.06-0.82c-0.46-0.11-0.68-0.38-0.71-0.85
	c-0.09-1.27-0.07-2.55-0.28-3.81c-0.05-0.28,0.06-0.49,0.31-0.66c0.38-0.26,0.75-0.53,1.1-0.83c0.64-0.53,0.6-0.89-0.09-1.3
	c-0.07-0.04-0.23-0.06-0.23-0.1c-0.01-0.93-0.95-0.85-1.39-1.3c-0.39-0.4-0.76-0.72-1.39-0.76c-0.62-0.04-0.8-0.82-0.33-1.34
	c0.44-0.5,0.92-0.97,1.41-1.42c0.34-0.31,0.76-0.33,1.22-0.22c0.3,0.07,0.84,0.41,0.83-0.36c0.88,0.04,1.58-0.78,2.5-0.57
	c0.14,0.03,0.3,0.16,0.4,0.12c1.09-0.48,1.49,0.45,2.07,1c0.55,0.51,1.06,1.06,1.75,1.41c0.44,0.23,0.78,0.63,1,1.07
	c0.29,0.57,0.7,0.89,1.34,0.94c0.19,0.02,0.48,0.09,0.54,0.22c0.53,1.23,1.5,0.66,2.01,0.26c1.02-0.79,2.26-0.83,3.37-1.08
	c0.66-0.15,1.77,0.29,2.45,0.98c0.54,0.54,0.15,1.07,0.03,1.62c-0.21,0.98-0.74,1.72-1.58,2.25c-0.13,0.08-0.23,0.28-0.24,0.44
	c-0.07,0.64-0.26,1.03-1.04,0.86c-0.43-0.09-0.71,0.2-0.56,0.7c0.01,0.03,0.01,0.06,0.02,0.08c0.31,0.48-0.49,0.81-0.14,1.33
	c0.28,0.42,0.94,0.38,1.08,0.8c0.17,0.55,0.35,1.08,0.58,1.61c0.1,0.23-0.06,0.42-0.27,0.46c-0.27,0.06-0.49,0.18-0.68,0.36
	c-0.56,0.54-1,0.56-1.26-0.27c-0.09-0.27-0.26-0.29-0.47-0.17c-0.26,0.15-0.54,0.35-0.38,0.68c0.53,1.1,0.79,2.27,0.96,3.46
	c0.04,0.25,0.18,0.52,0.44,0.3c0.46-0.39,0.61-0.14,0.84,0.24c0.16,0.26,0.42,0.55,0.69,0.63c1.48,0.47,2.33,1.95,3.83,2.36
	c0.15,0.04,0.35,0.08,0.43,0.37c-1.46,0.87-2.04,2.35-2.47,3.96c-0.14,0.52,0.02,0.77,0.4,0.98c0.4,0.22,0.82,0.41,1.24,0.59
	c0.87,0.38,1.69,0.82,2.42,1.46c0.82,0.72,1.96,0.78,2.93,1.21c0.33,0.15,0.63,0.22,0.92,0.51c0.52,0.53,1.26,0.43,1.96,0.33
	c0.86-0.12,1.71-0.52,2.59,0.03c0.27,0.17,0.54,0.24,0.68,0.58c0.19,0.45,0.64,0.72,1.06,0.83c1.79,0.46,3.44,1.41,5.44,1.16
	c0.57-0.07,1.35,0.24,2.05,0.25c0.7,0.02,1.16-0.16,1.04-1.02c-0.18-1.31-0.09-2.64,0.04-3.94c0.06-0.57,0.82-0.65,1.29-0.71
	c0.38-0.05,0.67,0.41,0.54,0.82c-0.17,0.56,0.03,1.09,0.04,1.63c0.02,0.76,0.45,1.2,1.22,1.31c1.04,0.15,2.04,0.01,3.08-0.07
	c1.12-0.09,2.26-0.14,3.39-0.27c0.45-0.05,0.84-0.41,1.34-0.2c0.12,0.05,0.17-0.09,0.2-0.22c0.15-0.63-0.4-1.73-1-1.96
	c-0.13-0.05-0.3-0.05-0.41-0.13c-0.24-0.16-0.17-0.42-0.12-0.64c0.07-0.31,0.26-0.03,0.39-0.05c0.9-0.15,1.9-0.28,2.4-1.11
	c0.48-0.8,1.5-1.1,1.75-2.06c0.02-0.08,0.18-0.16,0.29-0.18c0.98-0.2,1.58-0.9,2.14-1.65c0.46-0.62,0.93-1.08,1.81-0.51
	c0.64,0.41,1.32,0.28,1.84-0.37c0.16-0.2,0.38-0.36,0.59-0.5c0.21-0.14,0.44-0.49,0.7-0.07c0.16,0.26,0.83,0.36,0.28,0.87
	C106.29,29.66,106.33,29.86,106.32,30.02z"/>
</svg>
