<svg id="Layer_1" data-name="Layer 1" xmlns="http://www.w3.org/2000/svg" viewBox="0 0 89.86 62.18"><defs><style>.cls-1{fill:#002b49;}</style></defs><title>gm-ico-1</title><path class="cls-1" d="M57,75.49a1.51,1.51,0,0,1-.69.05c-.14,0-.14-.33-.36-.23s-.11.31-.1.41c0,.4.82,1,1.16,1.27a2,2,0,0,1,.31.19c.09.09.12.21.21.3s.31.12.38.3-.16.26-.1.43.28.16.38.3.1.3.18.46.34.69.5.75c0,.36.57.93.88,1.19.47.39.9.76,1.32,1.18a1,1,0,0,1,.06-.26.65.65,0,0,1,.38.21,3.51,3.51,0,0,0,0-1.33c.3-.25,0-.53-.25-.58-.07.1-.19.14-.26.22-.34-.24-.06-.31-.15-.54s-.34-.19-.19-.47c-.21-.13-.44-.28-.45-.54.09,0,.17-.1.27-.11.11-.53-.66-.14-.91-.14a.74.74,0,0,1,0-.21c.11,0,.21-.06.31-.06s-.3-.13-.32-.16,0-.32-.1-.43c-.18-.29-.51-.27-.71-.49,0,.06,0,.2.08.26-.37,0-.24-.24-.37-.46a3.64,3.64,0,0,0-.53-.51c-.35-.32-.52-.79-1-.87,0-.09,0-.09,0-.13" transform="translate(-17.86 -21.94)"/><path class="cls-1" d="M64.21,80.35a1.74,1.74,0,0,1-.32-.72c.55-.18-.39-.57-.45-.8s.08-.34.07-.36-.11-.34-.12-.24c0-.16.08-.37.09-.58.27-.12.54.06.72-.09a.83.83,0,0,0,.33.26c.16-.27-.1-.49.15-.77s.34-.11.58-.18c.57-.19.71-.76,1-1.24.13,0,.25,0,.38,0,.23.54.59-.8.73-1,.24.1.89-.12.65.46a4.57,4.57,0,0,1,1.14.33.88.88,0,0,1-.78.28c.31.33.26.5-.32.46,0,.19.18.35.23.58a6.06,6.06,0,0,1,0,.73c-.05,0-.09,0-.13,0,.1.2.6.45.78.63-.19.34-.61-.12-.88.27s.06.7-.26.87a1.25,1.25,0,0,0-.09-.12,2,2,0,0,0-.2.41s-.18.34-.17.31c0,.27.1.49-.07.79-.09.15-.44.49-.63.45s-.08-.27-.18-.33a.38.38,0,0,0-.41,0c0-.12-.1-.18-.1-.31a4,4,0,0,0-.49,0,.51.51,0,0,0,0,.13,1.55,1.55,0,0,0-.53.08.67.67,0,0,1,0-.44c-.24,0-.38.23-.64.13" transform="translate(-17.86 -21.94)"/><path class="cls-1" d="M62.33,82.33c-.16.09-.69-.08-.64.31a.37.37,0,0,1,.28.6,2.26,2.26,0,0,1,1.18-.09,1.82,1.82,0,0,1,1.13.42c.44.3.75.17,1.21.13.27,0,1.13.23.79-.27-.13-.19-.78-.28-1-.4a1.48,1.48,0,0,0-1-.28,1.18,1.18,0,0,1-.94,0c-.15-.08-.24-.23-.39-.3s-.46,0-.43-.08" transform="translate(-17.86 -21.94)"/><path class="cls-1" d="M71.69,74.44a.51.51,0,0,0,.77.64.85.85,0,0,0,.1.13c.08-.19-.07-1.22.36-.82a2.08,2.08,0,0,0-.32-1c.29-.13.2-.47-.09-.58a.33.33,0,0,0-.06.48c-.22.08-.54,0-.54.32a.5.5,0,0,1-.54.23c.06-.09,0-.23.08-.31a.4.4,0,0,0-.5.31c-.52-.08-.45.52-.46.84.27-.22.16-.55.51-.68s.5.08.68.22a1.41,1.41,0,0,1,0,.35.23.23,0,0,1-.14,0" transform="translate(-17.86 -21.94)"/><path class="cls-1" d="M64,67.42c-.06-.07-1.07.15-.7-.51.18-.32.85-.28,1.16-.4-.18.3-.48.63-.4,1a.12.12,0,0,0,0-.14" transform="translate(-17.86 -21.94)"/><path class="cls-1" d="M69.9,65.08c0-.09.82-1.88.18-1.61s-.63,1.69-.09,1.65" transform="translate(-17.86 -21.94)"/><path class="cls-1" d="M70.27,69.39s.07.07,0,0c-.1-.34.35-.6.46-.86s-.15-.62,0-.88c-1.09-1.11-.79,1.1-1.1,1.38,0-.07-.15-.13-.2-.22-.39.59.82.9.33,1.27.17.09.41.14.6.23a3.91,3.91,0,0,1,0-.91" transform="translate(-17.86 -21.94)"/><path class="cls-1" d="M80.91,80.35c-.37,0-.66-.42-1-.64s-1.3-.16-1,.28c-.58.19-1,1-1.53.27-.22-.28.13-1.7-.79-1.23-.35-.33-.85.1-1.12.32a.77.77,0,0,0,.52.09A.86.86,0,0,1,76,80c.34.16.7-.15,1.09-.09a3.42,3.42,0,0,1,0,.45,5.59,5.59,0,0,1-1.08,0c0,.31.8.1.36.64.27.15.44-.12.51-.37.15.28.46.2.67.37s.08.26.24.36a1.45,1.45,0,0,0,.41.1,1.13,1.13,0,0,1,.82.36c.21.19.33.4.64.38a4,4,0,0,1,.16.49.28.28,0,0,1,.12.47c-.13.11-.34-.11-.56,0-.62.39.17,1,.39.24.21.17,1.19.48,1.14.69Z" transform="translate(-17.86 -21.94)"/><path class="cls-1" d="M74.9,58.06c.81,0-.26,1.23.5,1.14,0-.05,0-.09,0-.13s.23,0,.27.08a7.18,7.18,0,0,0,.22-1c0-.47-.43-.32-.55-.61-.16.17-.57.39-.5.63A.39.39,0,0,0,75,58.1" transform="translate(-17.86 -21.94)"/><path class="cls-1" d="M75.54,57.23s-.06.1,0,.06c.22,0,.27-.16.42-.28s.12-.2.27-.29.27,0,.31,0c.32-.06,1,0,1-.45.27.23.56.36.79.06.09-.13.1-.45.18-.61s.31-.1.22-.45c.23,0,.25.21.19.4a2.62,2.62,0,0,0,.76-.45c.14-.12.21-.28.33-.38s.32-.18.45-.36a1.52,1.52,0,0,0,.19-1c0-.28-.25-.81.32-.63.06.34.31.07.45.26s0,.39,0,.55-.22.68-.28,1c-.49,0-.15.63-.28.87-.4.07-.11.47-.13.66a1.15,1.15,0,0,1-.36.59c0-.06,0-.2.07-.28-.32-.16-.35.31-.66.28,0,.08,0,.14-.06.22-.23-.09-.38.09-.59,0s-.25-.3-.55-.22c-.12.27.2.42.06.64l-.52.18c-.11,0-.28.45-.31-.05,0-.23.34-.35.08-.55-.48-.38-1.79.45-2.33.41,0-.1,0-.14,0-.13" transform="translate(-17.86 -21.94)"/><path class="cls-1" d="M80.54,52.18c-.13,0-.48-.14-.33-.38s.69,0,.49-.45h.48c.08-.47.52-1.12.14-1.51.3-.34.43.25.6.41a1.75,1.75,0,0,0,.73.27c.27.06.78,0,.83.33.09.49-.49.28-.73.37s-.22.4-.47.58c-.42.31-.39-.14-.63-.26-.65-.33-.74.45-1.06.73" transform="translate(-17.86 -21.94)"/><path class="cls-1" d="M41.5,31.19a.51.51,0,0,1-.42.35c-.79-.88-1.67-.28-2.5.27-.38.25-.55.5-.87.69a7,7,0,0,0-1.31.6,10.53,10.53,0,0,0-.74.84c-.4.45-.66.37-1.12.64-1.18.69-1.21,2.22-.82,3.42a19.77,19.77,0,0,1,.83,1.86c.11.64-.35,1-.42,1.52a11.28,11.28,0,0,0,.42,2.68,5.65,5.65,0,0,1-.29,1.58l0,0c-.19,0-.36-.13-.55,0s-.06.19-.14.26-.13,0-.21.1a1.1,1.1,0,0,1-.6.2,4.55,4.55,0,0,0-.66.17,3,3,0,0,1-1.42.07c-.28,0-.63-.23-.82.07s0,1,0,1.34l0,0c.22.13.3.56.44.74-.08,0-.18.12-.26.14s0,.08.05.13c.63,0,1.28-1,1.75-.18.27-.23.58-.35.72.1a2.63,2.63,0,0,1-.06,1.05c-.31-.41-.65-.14-1,.09a.81.81,0,0,1,.18.55.32.32,0,0,1-.28-.31,5.07,5.07,0,0,0-.54.09c.35.29.55.75.87,1,.17.13.54.19.6.35s-.39.36,0,.5c.06-.36.39-.29.63-.17a.81.81,0,0,0,.24.49c.12.18.38.08.23.42-.23.5-.82,0-1.14.15,0,.41.49.42.49.76-.09,0-.22,0-.31,0,.12.25.38.36.5.59a2,2,0,0,1,.09.78c0,.46,0,.35-.37.46-.23.07-.57.29-.83.23s-.18-.19-.28-.22-.32,0-.37-.06S31,55.15,30.8,55l.06,0c-.15-.09-.45-.08-.58-.18s-.11-.51-.1-.64c.32-.12.14-.44.3-.69s.48-.08.36-.39c0,0-.19-.08-.23-.12s-.05-.18-.1-.25-.21-.23-.48-.18l0,.06a2.36,2.36,0,0,1-2-1.28A2.77,2.77,0,0,1,26.81,51a2.43,2.43,0,0,0-1.2-.35c0,.48.49.42.62.79A4.31,4.31,0,0,1,26,52.58a.89.89,0,0,1-.75.15l.05,0c-.95.2-1.9-.3-2.83-.4a6.5,6.5,0,0,0-3.09.35l.15-.15c-.06,0-.1.1-.15.15a1,1,0,0,1,.36.29c-.47.13-1.62-.39-1.86.27-.15.41.54.87.09,1.23.11.05.18,0,.19-.11-.62.81.62,1.36,1.17,1.64h.41c.28,0,.55-.28.83-.42,1-.14,1.79.42,2.75,0a.28.28,0,0,1-.3.09.86.86,0,0,1,.3-.09,1.58,1.58,0,0,0-.1.48l-.21.13c.25.41-.15.82.49,1.05.13.48-.3.49-.49.78s0,.77-.05,1.14a5.28,5.28,0,0,0-.14,1,2.29,2.29,0,0,1,0,.9c-.09.46-.12.46.14.88s.51.72.75,1.1a5.53,5.53,0,0,0,1.36,1.57c-.24.67-.36.8-.13,1.46a1.47,1.47,0,0,1,1.09,1,8,8,0,0,1,.78,1.47c0,.29,0,.43,0,.72s.14.56.21.83.09.7.57.69a6,6,0,0,0,1.11-.18A9,9,0,0,0,29.84,70a2.21,2.21,0,0,1,.64-.22c.09,0,.2,0,.32,0s.15-.12.22-.15a6.27,6.27,0,0,1,.92-.32s0-.09,0-.12l-.09-.1a2.76,2.76,0,0,1,1.88-.92,1,1,0,0,1,.27-.56c.13-.08.31.07.47,0s.1-.33.24-.44.32,0,.44-.11a3.31,3.31,0,0,1,.15-1c.29.58.87-.17.95-.51,0,.09,0-.35,0-.34s.13-.16.11-.26-.38-.32-.51-.43-.32-.35-.5-.48-.52,0-.7-.27-.12-.36-.17-.55a3.61,3.61,0,0,1-.2-.73l-.26.17c0,.14-.07.26-.06.4s-.19.1-.3.11c.05,1.15-1.17.56-1.84.77a4.41,4.41,0,0,0-.14-1.28c-.43-.72-.28.67-.31.77,0-.26-.37-.59-.51-.74.06-.32.1-.34-.1-.6-.08-.1-.26,0-.34-.11s0-.27-.09-.38c-.23-.52-.24-.88-.81-1.06a.6.6,0,0,1,.13-.09.69.69,0,0,1,.05-.4c.08.05.28,0,.36.08s.06-.16.07-.22c.16.13.32.06.5.13s.23,0,.44.33a1,1,0,0,1,.15,1,7.06,7.06,0,0,1,1.05.1,1.32,1.32,0,0,1,.66.37c.22.18.49.38.74.31s.46-.45.81-.48c.9-.1.24.83.63,1.19S36,63,36.32,63c.49,0,.94.46,1.46.35a5.39,5.39,0,0,1,.6-.21c.18,0,.44,0,.64,0,.48,0,.93-.31,1.24.05s.25.65.82.88c-.55.71.8.37,1,.36.06.55-.5.39-.77.58.18.28.32.78.68.91s.41-.29.72-.12a.6.6,0,0,1,.47-.19,1.49,1.49,0,0,1,0-.52.4.4,0,0,0,.41.31.73.73,0,0,1-.13.09,2,2,0,0,1,0,.55c0,.13-.28.14-.29.31s.29.36.36.52a1.63,1.63,0,0,1,.07.45c0,.38,0,.79,0,1.18a2.14,2.14,0,0,0,.55,1.14,4.25,4.25,0,0,1,.37,1.07c.15.39.45.65.59,1a6.56,6.56,0,0,0,.62,1.74c.5.67.77-.41,1.13-.77s.46-.27.42-.73c.35-.11.31-1.73.31-2.07a1.57,1.57,0,0,1,.38-1c.19-.18.78-.24.62-.56.4-.34.79-.72,1.2-1.06a7.27,7.27,0,0,0,.74-.92c.39.61.61-.42.65-.56.11-.33.15-.16.36-.41a1.46,1.46,0,0,0,.19-.44c.06.1.2.22.27.32,0-.06.14-.15.17-.22.26.2.54.15.56-.23a1.37,1.37,0,0,0,.56.15c-.06-.18-.4-1.13.06-.89a1.68,1.68,0,0,0-.06.45,2.34,2.34,0,0,1,.26,0c0,.28.32.58.42.91.14.51.22.46.6.75a3.36,3.36,0,0,1,1,2.39c.3.07.46.22.65-.15a.32.32,0,0,0,.44,0,1.69,1.69,0,0,1,.1-.64,3.36,3.36,0,0,0,.28.65,2.45,2.45,0,0,1,.22.5,11.07,11.07,0,0,0,.25,1.11,4.77,4.77,0,0,1,.32,1.1c0,.25-.16.83.12,1,0,.49-.62.88-.41,1.47.3-.2.48.16.61.4s.13.38.22.51.19.06.23.13.1.53.23.78.34.46.47.73c.24.49.58,1.4,1.18,1.56s.51-.71,0-.78c-.12-.68.16-1.42-.38-1.94s-1-.58-1.47-1c.12-.11.11-.21.14-.36-.36-.07-.19-.56-.59-.52a6,6,0,0,1,.18-1.32,9.88,9.88,0,0,1,.24-1.51c.47-.15.25.29.41.49s.4.17.59.32.54,1.07.95.75c.13.39.39.26.55.5s.08.55.16.77a1.29,1.29,0,0,0,.72-.35l-.09,0a1.51,1.51,0,0,1,.13-.34c.18-.15.21,0,.42,0a1.4,1.4,0,0,0,.8-.36,2.25,2.25,0,0,0,.35-1.35c0-.44.16-1.14-.14-1.5-.11-.14-.32-.16-.47-.36s-.24-.38-.38-.55a9.15,9.15,0,0,1-.8-1,1.42,1.42,0,0,1,.15-1.19c.26-.58,1.17-1.17,1.68-.69,0-.06,0-.12,0-.18s.1.08.1.08c.54-.13.1.38.22.55l.18.18a.7.7,0,0,0,.14-.58,3.07,3.07,0,0,0,1.55-.51.58.58,0,0,1,.27-.64c.07.69.71.27,1.07.14s.74-.22.88-.68c0,0,.1,0,.12,0,.15-.23.52-.12.43-.54.32-.06,0-.4.22-.61.08.11.22.13.31.18s0-.18,0-.26c.3,0,.36-.35.37-.59.48.1.21-.36.52-.42,0-.17,0-.13.1-.28-.09-.25.05-.48.1-.72a.76.76,0,0,1,.06.16c.2-.24.08-.45.12-.72a1.24,1.24,0,0,1-.58.08c0-.31.6-.52.86-.63-.18-.58-1.07-.25-1.32-.73.38,0,.74.18,1.13.17-.06-.25-.33-.14-.49-.32a4.9,4.9,0,0,1-.18-.69,4,4,0,0,0-.25-.56c-.08-.14,0-.19-.12-.3s-.25,0-.33-.14.49-.71.74-.91.93-.32.91-.71c-.11,0-.38.11-.5.06s0-.2-.18-.33a.59.59,0,0,0-.64-.22c-.05.29-.25.68-.6.58,0-.25.06-.53-.13-.71,0,0,0,.06,0,.08s-.59-.46-.59-.6a.29.29,0,0,1,.48-.23,9.59,9.59,0,0,1,1.26-.77c.22-.14.43-.61.76-.32s-.25.56-.21.86h.12c-.47.39.37.1.54,0a1.43,1.43,0,0,1,.89-.24c.29,0,.46,0,.59.24a3.58,3.58,0,0,1-.14.73c-.18,0-.24,0-.31.18a.63.63,0,0,1,.65.28c.26,0,.36.23.63.2-.07.07-.11.22-.18.3s.12.05.18.06a.35.35,0,0,1-.08.26c-.06-.21-.12-.12-.23-.21a5.61,5.61,0,0,0,0,.58c.6,0-.55,1,.26,1,0-.29.56-.3.79-.36.46-.12.5,0,.5-.45a3.61,3.61,0,0,0-.12-.89c-.1-.36-.24-.42-.46-.72a2.17,2.17,0,0,1-.38-.74c0-.39.46-.55.74-.76.47-.36.39-1,.94-1.22-.35-.57.29-.54.38-.95,0,0,0,0,0,0l.58.11c.1.11.38.52.52.39,1.23-.55,1.92-1.65,2.89-2.76a3.81,3.81,0,0,0,1.1-2.89c0-.27.27-.55.38-.81.24-.47.11-.66-.23-1,.46.25-.16-.67-.26-.77-.26-.27-.59-.46-.89-.14s-.24.54-.61.56a.53.53,0,0,0,0-.33l-.35.19a4.41,4.41,0,0,0,0-.71c-.14-.28-.69-.14-.55-.28a8.81,8.81,0,0,1,3.58-3.17c1-.55,2.2-.13,3.3-.27.14,0,.28-.28.42-.41.41-.14.41.13.44.22.12-.13.08-.12,0,0,.42-.08.79.32,1.21.19a.68.68,0,0,1-.48.27l.12,0-.12,0c.62.42,1.17-.27,1.85-.13a.68.68,0,0,0-.27-.55c.89-.77,2.08-2.62,3.4-1.52a1.08,1.08,0,0,0,.08-.19,2.75,2.75,0,0,1-.24.68.23.23,0,0,1,.23.23c.25-.58,1.07-.44,1.21-.85s.41-.69.69-.83.69,0,.69.27-.55.14-.55.42a1.15,1.15,0,0,1-1.11,1.2.4.4,0,0,0,0,.18c.07-.08,0-.08,0-.18-.82.73-1.51,2-2.61,2.1-1.52,1.38-1,3.58-.41,5.23.68-.14,1-.69,1.1-1.37,0-.14.55-.14.55-.28.13-.83.55-1,1.24-1.1.13-.41,0-1.1.44-1.38a1.22,1.22,0,0,1,.07.38c.5,0,0-.63,0-.83s.66-.81.14-.81c-.18,0-.51.64-.58.06s.43-1,.67-1.28c-.41-.21.49-.29.62-.29.47,0,.55-.43,1-.49,0,.13,0,.27-.05.4.4-.13.72-.49,1.16-.48l-.12.08c.24,0,.54-.17.77,0s.18.35.32.5c.09-.5.68-.69,1.08-.86.66-.28,1.28-.64,1.92-.94a4.55,4.55,0,0,1,1-.43c.35-.07.53.22.83.21.57,0,.21-.93-.28-.87.49-.47-.58-.45-.52-.86a1.51,1.51,0,0,1-.89-.32,4.08,4.08,0,0,1,1.21,0c.2,0,1.3,0,1-.38a.31.31,0,0,0,.41-.1c-.11-.08-.23-.15-.35-.22a.25.25,0,0,0,.12-.36l.31-.07c0-.06,0-.14-.08-.21.21,0,.63,0,.68.25s-.33.34-.26.61a1.73,1.73,0,0,1,1.34-.06c.37.14.36.48.64.71a1.06,1.06,0,0,0,1.59-.27.34.34,0,0,1-.36-.14c.32.09.11-.2,0-.29s-.45-.22-.1-.3.9.73,1-.05a.43.43,0,0,1,0,.16c0-.29.23-.1.38-.08.14-1.06-1.16-.85-1.81-1.06a.3.3,0,0,0,.22.16.89.89,0,0,0-.22-.16c.29.23.33.82-.13.75s-.6-.74-.8-1.09c-.49-.9-1.63-.9-2.51-1.17-.51-.16-.92-.48-1.42-.67A6.12,6.12,0,0,0,99.51,30,11.19,11.19,0,0,1,98,29.83c-.23-.06-.3-.11-.49,0s-.12.19-.23.3c.72.48-.11,1.34-.69.83-.12-.11-.2-.3-.33-.42s-.17-.09-.22-.15,0-.17-.06-.2c-.33-.17-.15.33,0,0-.33.19-.15.33,0,0-.36.22-.77.08-1.18.22a26.26,26.26,0,0,1-3.31-.14.3.3,0,0,1-.27-.27,1.47,1.47,0,0,0-1.38-1.24,28.15,28.15,0,0,1-2.88.31.61.61,0,0,1,.44,0,1.61,1.61,0,0,1-.44,0,.26.26,0,0,0-.13-.45c-.18,0-.21.15-.36.17s-.19-.16-.37-.3a.9.9,0,0,0-.7-.11.63.63,0,0,1,.31-.27,1.45,1.45,0,0,0-1.35-.37c-.44.12-.71.6-1.22.5a2,2,0,0,0,.42-.35c-.31,0-.61.05-.92,0,.34-.5,1.13-.17,1.47-.68-1-.35-2,.2-3,0,.14.42-.8.25-1,.31a.69.69,0,0,1,0,.13c.21-.14.61-.27.72.05a4.83,4.83,0,0,1-.58.25c.1.2.29.36.06.53s-.66,0-.89-.08a1.38,1.38,0,0,1-.06.54c-.18-.31-.45-.59-.73-.59a7,7,0,0,1-2.32-.26c-.19.07-.16.35-.38.41.38.66-.58.42-.86.29s-1.1-.57-1.16-1c.17,0,.62.14.67-.12s-.27-.13-.42-.21c-.39-.21,0-.11.09-.22s-.21-.35.11-.34c-.41-.46-1.06-.2-1.57-.42-.26-.12-.42-.39-.73-.37s-.45.28-.72.3c.28.46-.5.65-.78.41h.17a.75.75,0,0,1,.2.1l-.23,0,.23,0c-.8-.21-1.64-.1-2.44-.32l.13.09a.63.63,0,0,1,.24-.55,9.5,9.5,0,0,0-2.82.44c-.13-.06-.35-.38-.27-.49-.44.41-.83-.25-1.28-.17s-.06.31.19.31a11.58,11.58,0,0,0-1.83.52c-.43.19-.94.62-1.44.39.66-.82,1.79-.82,2.58-1.43a1.19,1.19,0,0,0-.23-.16c.61-.27,1.27-.43,1.86-.74.15-.08.43-.18.44-.39s-.41-.38-.6-.44a3,3,0,0,0,.78.12,4.11,4.11,0,0,0-3.94-.73h.17c-.24-.13.18-.53-.2-.62s-.49.42-.81.39a2.35,2.35,0,0,0,.23-.32c-.21,0-.7.05-.8-.2-.17-.4.48-.42.71-.4-.28-.65-1.91-.12-2.2.34s.33.36.31.68-1.16.18-1.4.18c.46-.15,0,.35-.2.42a4,4,0,0,1-1.83,0,.53.53,0,0,1,.44-.31,6.66,6.66,0,0,0-1.47.14.32.32,0,0,1,.44.09c-.87.7-1.84.42-2.66.56-1.11.14-1.38,1.24-2.07,1.79s-1.51,0-2.34.14a.9.9,0,0,0-.59,1.21,1.78,1.78,0,0,0-.21-.54q.09.27.21.54a1,1,0,0,0,0-.25c-.09.43.65.32.88.37s.43.16.2.26c-.06,0-.14-.2,0-.19s.16.07.13.19c-.07.33-.85.22-1.07.18-.57-.1-1.16-.58-1.75-.31a.13.13,0,0,0,.23,0c-.15,0-.24,0-.14.17l-.16,0,.16,0c-.3,0-1.41-.07-1,.41s1.26.18,1.38.83c-.52-.06-.08-.27,0,0-.69-.27-1.65-.14-2.2-.83,0-.13.41-.55.27-.82l-.27-.14c-1.11.69-.69,2.2-.42,3.17.69,0,1.65-.28,2.07.55a1.62,1.62,0,0,0,0,.34c.07.51.32.57.8.48-.52.55-1.12,0-1.41-.45s-.65-.74-1.25-.42c.26.57.35,0,0,0,.19.32.32.46.19.74-.56,1-1.79,2.2-3,1.37,0-.14-.14-.14-.14-.27a.49.49,0,0,1,.14-.28,2.15,2.15,0,0,0,2.47-1.51.5.5,0,0,0-.13-.28,2.07,2.07,0,0,1-.75-.1l.12.05a2.93,2.93,0,0,0-.34-2.29c-.13-.27.14-.55.14-.82s-.27-.42-.41-.56c-1.24-.41-1.65,1.11-2.59,1.7,0,.15.15.15.25.09,0,.44-.14.87.15,1.24s.57.4.44.8a.89.89,0,0,1,.55-.16,2,2,0,0,0,0,.46l-.28.14" transform="translate(-17.86 -21.94)"/></svg>