<svg id="Layer_1" data-name="Layer 1" xmlns="http://www.w3.org/2000/svg" viewBox="0 0 89.97 92.16"><defs><style>.cls-1{fill:#002b49;}</style></defs><title>gm-ico-2</title><polygon class="cls-1" points="81.01 90.8 80 90.77 79.81 91.18 79.7 91.19 79.04 91.25 79.37 91.94 80.05 92.16 81.48 91.47 81.44 91.33 81.34 91.02 82.28 90.29 81.01 90.8"/><polygon class="cls-1" points="49.21 49.52 49.41 50.54 50.87 51.91 51.7 49.94 51.26 48.69 49.21 49.52"/><polygon class="cls-1" points="26.19 50.66 26.94 49.49 27.4 50.18 26.89 51.27 27.22 51.93 28.92 52.35 28.94 52.39 29.87 53.86 29.67 55.22 27.59 55.01 27.33 56.54 28.09 57.77 26.64 58.48 27.03 59.37 29.21 59.75 29.22 59.75 27.97 60.23 25.92 62.54 26.66 62.98 27.65 62.14 28.94 62.39 29.86 61.37 30.51 61.8 32.89 61.2 34.76 61.22 36.01 60.05 35.45 58.89 36.17 58.23 36.34 56.77 34.64 56.33 34.24 55.42 33.38 52.72 32.42 52.34 31.18 49.45 31.07 49.19 29.62 49.03 30.88 46.78 31.24 44.67 29.71 44.66 28.29 45.02 29.78 42.16 28.11 42.37 26.99 42.16 25.91 44.31 25.4 46.98 26.11 48.27 26.19 50.66"/><polygon class="cls-1" points="69.97 90.83 68.93 90.71 67.85 90.81 67.08 90.23 66.83 90.96 68.53 91.29 68.52 91.57 70.53 91.43 70.7 90.92 69.94 91.13 69.97 90.83"/><path class="cls-1" d="M61,49.44l1.94,1.35,1.86-.62,2.76-3.12.93,1.66h0l1.06,3.73,1.17,2.9.44,2.35,1.62-.12.79-2,1.7.25.79-2.37.53-4.41,1.46-.63,1.28-3.1L78,43.79l-1-2,1-4.19,2.69-2.66,2.23-2.56-.22-2L84.07,28l2.4-1,2,1.6.15,1.41-.94.7-3.19,3.49-1.27,2L82.5,38l.68,2.7-.31,2.85,1.35.93L85,46l2.28-.59,2.45-1,2.54-.23,3-3.69,1.29-1.72.53-1.54L95,35.09,95.62,33,94.35,30.6l1-2.87-1.63-4L95,21l-2.14-2.49,1.34-3.05,2.37-1.59L95,11.37l1.8-1.11L92.43,7.15,89.93,8l-2.55-.19-2.13,3.49L83,11.09l-3.07,1.79L76.05,17.8l-2.34,2.83-3.36,6.85L67.8,32.12,65,35.4,61.35,38l-1.29,1.93.45,6.61ZM76.52,19.87h0Z" transform="translate(-19.1 -7.15)"/><polygon class="cls-1" points="46.87 80.12 47.34 78.68 47.1 77.06 46.2 77.78 45.92 78.48 46.24 79.75 46.87 80.12"/><polygon class="cls-1" points="22.02 59.21 24.5 57.87 25.55 55.82 25.32 54.15 26.07 52.51 24.58 51.02 23.41 51.12 23.4 51.11 22.34 52.24 20.45 54.11 21.17 56.49 20.04 58.87 22.02 59.21"/><polygon class="cls-1" points="54.6 85.97 53.17 86.17 51.54 86.01 51.35 86.91 53.29 87.81 54.01 88 55.07 88.65 55.37 87.76 55.16 87.21 55.66 85.83 54.6 85.97"/><polygon class="cls-1" points="46.16 81.02 45.39 80.92 45.71 81.97 45.76 84.15 46.29 84.62 46.86 84.03 47.49 84.14 47.68 81.74 46.85 80.44 46.16 81.02"/><polygon class="cls-1" points="13.71 18.34 11.39 18.09 9.12 19.94 7.36 18.97 5.24 20.84 3.06 18.5 0.94 19.02 0 21.24 2.93 22.03 2.99 23.01 0.52 23.64 3.56 25.24 2.18 26.66 6.08 27.66 7.92 28.12 9.12 27.55 13.15 25.36 14.97 22.87 13.39 20.58 13.71 18.34"/><polygon class="cls-1" points="89.97 64.39 89.95 63.75 87.9 63.05 87.08 63.07 86.22 62.06 85.15 62.4 83.37 61.63 83.4 61.2 82.9 60.24 81.79 60.13 81.67 59.44 82.02 58.98 81.13 57.7 79.68 57.92 79.26 57.81 78.9 58.33 78.39 58.23 78.04 56.77 77.71 56.01 77.98 55.79 79.11 55.87 79.65 55.36 79.25 54.73 78.31 54.32 78.39 53.89 77.82 53.46 76.94 51.89 77.24 51.23 77.11 50.08 75.74 49.49 75.01 49.79 74.81 49.17 73.34 48.55 72.89 47.06 72.78 45.82 72.1 45.22 72.7 44.4 72.29 41.92 73.28 40.36 73.07 39.88 71.62 39.97 70.11 39.51 68.35 39.91 66.58 40.67 66.71 42.22 67.59 43.17 68.11 42.84 67.94 44.39 67.67 46.38 66.55 46.43 65.45 44.5 64.13 45.38 63.44 47 63.39 48.9 63.69 50.97 65.15 51.4 65.77 51.78 65.62 52.44 65.73 53.05 63.16 53.09 61.45 52.82 60.09 52.79 59.99 52.2 58.6 51.79 56.84 52.61 54.66 53.71 53.7 54.41 53.05 53.65 51.47 52.71 50.68 53.36 49.26 53.81 49.28 52.97 47.86 52.41 47.84 51.47 47.46 50.28 48.47 48.49 48.88 48.77 49.22 47.82 48.47 47.44 48.3 46.73 48.71 45.89 48.76 44.56 47.63 45.29 47.15 46 45.92 46.16 45.52 46.93 45.28 47.62 45.32 50.17 45.89 51.52 45.96 52.89 46.27 53.78 45.32 54.94 45.06 54.42 43.9 54.55 43.62 55.05 42.46 54.99 40.55 55.96 39.33 59.32 38.61 59.94 37.49 60.37 37.49 60.36 36.27 60.81 35.85 62.61 32.6 64.29 31.28 63.37 31.72 65.78 29.38 65.24 27.56 65.69 27.7 67.22 29.84 68.02 30.87 69.06 32.31 71.19 32.05 75.11 31.32 76.27 31.32 76.27 29.07 76.21 27.91 76.31 26.42 75.98 24.54 76 22.83 75.65 20.86 77.03 21.43 77.86 21.36 79.19 21.42 79.82 21.7 80.49 21.73 81.27 21.44 82.37 21.34 83.1 20.79 83.76 20.67 84.93 21 85.6 21.63 85.77 21.76 86.85 21.55 88.22 22.27 88.03 23.01 88.27 23.57 87.82 24.87 88.09 25.27 89.09 25.78 89.67 26.47 89.81 27 89.16 27.88 88.55 29.21 88.58 30.98 88.56 31.97 87.22 33.03 86.87 33.33 85.72 34.13 84.93 33.59 83.91 34.13 82.43 34.99 81.42 35.11 80.8 36.9 80.41 38.23 79.17 38.31 76.94 40.34 76.32 43.1 76.83 44.95 75.63 45.76 74.73 46.4 74.46 47.54 75.11 48.24 75.33 48.67 77.22 49.62 78.31 50.9 79.54 51.99 80.37 53.02 80.49 53.62 81.23 54.52 81.57 54.93 82.36 55.51 82.58 55.94 83.5 56.48 84.54 56.18 84.92 55.9 85.87 55.89 86.41 56.47 86.28 57.22 84.75 57.8 84.65 57.97 83.71 56.96 83.04 57.54 81.87 58.76 82.17 59.54 83.01 59.8 82.36 59.65 82.02 58.46 81.06 57.43 80.51 56.18 79.83 56.57 79.47 56.23 79.05 55.14 79.06 53.58 77.54 52.88 75.96 51.57 74.99 51.11 74 51.28 73.44 51.2 72.46 52.34 71.75 53.45 72.04 53.14 72.22 53.09 72.25 53.05 72.94 53.47 73.6 53.9 72.75 54.79 73.06 54.82 73.73 55.46 74.54 55.18 74.69 56.35 76.11 57.63 76.68 58.44 77.37 59.75 78.07 60.36 78.44 60.75 79.05 61.04 79.2 61.28 79.49 61.09 80.07 60.97 81.33 61.09 82.2 61.86 82.81 61.89 83.21 62.22 83.88 62.92 84.45 62.84 84.77 62.93 84.89 63.47 85.71 64.08 85.68 64.7 85.54 64.98 85.64 65.45 85.68 65.26 85.99 64.98 85.9 64.64 85.67 64.35 85.75 64.22 85.96 63.95 85.91 63.77 86.15 63.48 86.41 63.72 86.87 63.93 86.92 64.14 87.11 64.31 87.48 64.06 87.76 64.25 88.26 64.55 88.53 64.68 88.4 64.62 87.98 64.94 87.98 65.22 88.5 65.17 88.87 65.39 89.02 65.52 88.36 65.81 88.37 66.03 88.99 66.32 88.99 65.72 87.02 66.22 87.37 66.68 87.27 66.26 86.38 66.88 86.27 67.56 86.84 67.54 85.85 66.85 85.33 66.07 84.51 66.6 84.12 65.9 83.27 65.58 82.19 65.85 81.79 66.59 82.72 67.36 82.72 68.07 82.43 67.11 81.4 68.8 80.93 69.53 81.1 70.36 81.53 70.8 82.39 71.97 81.4 72.56 80.83 74.22 80.73 74.48 80.27 73.26 79.67 73.09 78.96 73.09 78.96 72.64 77.88 73.15 76.52 73.88 75.73 74.26 73.38 74.69 73.56 75.37 73.14 75.34 72.63 76.42 71.16 76.94 70.05 78.23 69.8 78.33 70.55 80.5 71.06 80.72 71.17 80.94 70.97 81.14 71.37 79.56 72.18 79.32 72.57 80.84 73.14 80.54 74.06 81.31 74.46 83.21 73.33 84.74 72.99 85.01 72.28 83.59 72.4 82.9 71.92 82.16 71.19 82.82 70.68 84.03 69.92 85.33 69.81 86.26 69.16 87.38 68.99 87.42 68.08 88.14 67.5 89.49 67.35 89.71 66.66 89.41 65.5 89.97 64.39"/></svg>