<svg xmlns="http://www.w3.org/2000/svg" xmlns:xlink="http://www.w3.org/1999/xlink" width="193.955" height="104.892" viewBox="0 0 193.955 104.892"><defs><style>.a,.g{fill:#acacac;}.a,.b{stroke:#002b49;stroke-width:0.2px;}.b{fill:#5184b1;}.c{fill:none;stroke:#fff;}.d,.e{fill:#fff;}.d,.f{font-size:11px;font-family:HelveticaNeue-CondensedBold, Helvetica Neue;font-weight:700;letter-spacing:-0.01em;}.f{fill:#002b49;}.h{filter:url(#g);}.i{filter:url(#e);}.j{filter:url(#c);}.k{filter:url(#a);}</style><filter id="a" x="18.146" y="82.892" width="63" height="22" filterUnits="userSpaceOnUse"><feOffset dy="2" input="SourceAlpha"/><feGaussianBlur stdDeviation="1.5" result="b"/><feFlood/><feComposite operator="in" in2="b"/><feComposite in="SourceGraphic"/></filter><filter id="c" x="120.955" y="62.427" width="73" height="23" filterUnits="userSpaceOnUse"><feOffset dy="2" input="SourceAlpha"/><feGaussianBlur stdDeviation="1.5" result="d"/><feFlood/><feComposite operator="in" in2="d"/><feComposite in="SourceGraphic"/></filter><filter id="e" x="77.58" y="64.291" width="18.131" height="22.136" filterUnits="userSpaceOnUse"><feOffset dy="2" input="SourceAlpha"/><feGaussianBlur stdDeviation="1.5" result="f"/><feFlood flood-color="#002b49"/><feComposite operator="in" in2="f"/><feComposite in="SourceGraphic"/></filter><filter id="g" x="90.568" y="60.873" width="18.131" height="22.136" filterUnits="userSpaceOnUse"><feOffset dy="2" input="SourceAlpha"/><feGaussianBlur stdDeviation="1.5" result="h"/><feFlood flood-color="#002b49"/><feComposite operator="in" in2="h"/><feComposite in="SourceGraphic"/></filter></defs><g transform="translate(0.082 0.1)"><g transform="translate(-103.417 -192.421)"><path class="a" d="M2984.782,1337.147c.479-.373-.239-2.288-.665-2s-.426-3.006-.106-4.522c.293-1.516.106-1.33-.665-.532-.8.8-1.623-1.516-1.809-2.1-.186-.612-1.091-2.287-2.1-2.048-1.037.24-.372-1.436-1.33-1.277-.958.186-1.144-1.383-.958-2.846.186-1.436-.665-.292-1.091-.9s-.9-.133-1.569.107-.851-1.277-.665-1.862c.186-.612-.133-1.33-1.038-1.995a1.887,1.887,0,0,1-.9-1.995c.053-.771-5.134-3.431-6.278-3.671s-.186-1.436-.665-1.862-.665-1.995-.665-3.325-1.7-1.755-1.623-2.846c.053-1.091-.479-2.1-.372-3.325.133-1.2-1.756-1.516-1.809-2.181s-1.091-.053-2.1.053c-1.037.106-.958-1.33-.851-2.713.133-1.383-.426-3.671-1.277-4.336s-.9-2.953-1.33-3.325-1.809,1.2-1.756,1.995a2.676,2.676,0,0,1-.665,2.181c-.532.479.373,2.367-.372,3.006-.718.665-.053,3.325-.239,4.814-.186,1.516-.133,3.139-.851,4.176s-.851,2.66-2.288,3.192-3.378-.612-3.325-1.383c.053-.8-1.569-1.277-2.42-1.144s-1.33-1.091-2.66-2.1c-1.33-1.037-2.341.24-2.766-.958s-.851-1.383-1.809-2.048-.665-.665.239-1.33.718-1.516.24-2.287c-.479-.8.532-.612,1.755-1.277,1.2-.665,0-1.436.9-1.809s.372-1.144-.612-1.33c-.958-.186-.665.958-1.037,1.091s-.718-1.516-1.037-1.436c-.293.053-1.437,1.623-2.048.851-.612-.8-3.99-1.436-5.32-1.622s-1.756-1.862-2.527-1.569.133.851,1.037,1.809-3.006,1.623-4.176,1.277c-1.144-.372.186.851-.771.771-.958-.053-1.144,1.623-1.942,2.474s-.239,1.463-1.091,1.995-.9,1.144.133,2.287-.479,1.2-1.383.293-1.809-.9-1.756.133-1.09.532-.9-.612-1.277-.612-1.516-1.277a3.2,3.2,0,0,0-2.288-1.7c-.771.053-.771.9-1.569.9s-.958.426-.851,1.277c.133.851-1.2-.053-2.1.053-.9.133,0,1.144-.479,1.2s-.479.9-1.277.9-.665,1.756-.532,2.66c.106.9-1.2-.426-1.995-.186s.186,1.037.426,2.048c.239,1.037-.426.958-.851,1.383s-1.091-1.144-1.091-2.048-1.037-.053-2.1,1.091c-1.091,1.144.372,2.9-.133,3.192a31.253,31.253,0,0,0-3.91,3.857c-1.277,1.516-3.99.612-4.815,1.33-.851.718-1.755.186-2.606.851s-2.421,1.942-2.607,1.144-2.367-.186-3.272.8a6.016,6.016,0,0,1-3.378,1.862c-1.037.053-1.037,1.623-1.436,1.995-.426.372-.293-1.277-.293-1.7s-.958.718-1.383,1.995,1.037,1.756.133,3.086-1.756,2.66-.479,4.336c1.277,1.7,2,2.766,1.57,3.618s-1.33-1.7-1.623-1.383c-.293.293,1.144,1.383.8,1.942-.372.532-1.649-2.048-1.942-1.436-.239.532,2.713,4.655,2.766,6.145.053,1.516,2.421,2.953,2.288,5.134s2.048,5.666,2.421,6.224c.372.532-.851,1.995-.612,3.618s-.532,2.234-1.569,2.234-.426,1.7.718,1.809c1.144.133.718.9,1.995,1.756s4.283.532,5.32.532,1.33-1.569,2.713-1.623,1.277-.479,1.942-1.33,3.8-.612,7-.426,4.575-.8,5.08-2.1c.426-1.144,2.713-1.2,3.618-2.048s1.7-.9,4.043-.8c2.367.133,4.522-1.144,6.038-1.756s4.283-.372,5.746-.718c1.436-.372,1.7,1.809,3.325,1.623s2.367.479,3.192.426c.851-.053.718.612,1.569.771.851.186.719.9.186,1.7-.532.771,1.277.718,2.421,2.287s.053,1.809.665,3.006,1.037.9,2.234-.8,2.527-.612,2.713-2.048,1.463-3.139,2.288-2.421c.851.718-.612,1.091-1.144,3.857s-1.516,1.33-1.7,2.1c-.186.8,2.527,1.2,2.527-.239s.479-2.1,1.516-.8c1.037,1.33-.612,2.421-.373,3.006.239.612,1.383-.186,1.995-.133,1.064.106,2.527,2.474,2.288,3.75s-.612,2.474,1.436,3.511,1.277,1.2,2.767,1.2a12.216,12.216,0,0,1,5.479,1.942c.851.718,3.006-.532,3.431-1.995.426-1.437,2-.053,1.144.426s.426,1.623.479.851c.053-.8.426-1.437.718-.532s1.383.9,1.809,1.623.9,1.277.9.665.239-1.144,1.2-1.516a10.637,10.637,0,0,0,2.607-1.862c1.038-.851,5.24-1.037,5.666-1.037s.665-3.618.9-5.479,1.809-2.181,2.048-4.176,2.367-5.666,2.9-5.852a2.213,2.213,0,0,0,1.623-1.862c.053-1.144,1.436-2.42,1.436-3.8s.8-3.006.665-3.431a2.662,2.662,0,0,1,.293-2.713C2985.58,1338.663,2984.3,1337.519,2984.782,1337.147Zm-60.461-47.267c-.133-.718-4.416.106-3.511.851C2921.422,1291.209,2924.427,1290.624,2924.321,1289.879Zm13.566,71.473c.665.612,2.9.426,3.272-.426S2937.3,1360.794,2937.887,1361.352Zm27.291,16.758c-1.623.186-4.07-1.49-4.655-1.33-.665.186,2.1,4.336,1.277,5.426-.851,1.09,2.474,4.043,3.618,4.229s.718-1.144,1.516-1.091.479-.771.612-1.383.9.665,1.569.293-.186-2.953.8-2.953c.958,0,.186-3.139-.133-4.149S2966.8,1377.95,2965.178,1378.11Z" transform="translate(-2770.361 -1095.091)"/><path class="b" d="M2965.442,1386.436a.819.819,0,0,1-.239-.027,7.545,7.545,0,0,1-3.777-3.4,1.041,1.041,0,0,1,.053-1.091c.426-.532-.292-2.181-.8-3.378-.479-1.09-.692-1.676-.559-1.942a.282.282,0,0,1,.187-.159,3.264,3.264,0,0,1,1.543.479,7.041,7.041,0,0,0,3.138.851,8.948,8.948,0,0,0,2.128-.692,6.239,6.239,0,0,1,1.968-.585.607.607,0,0,1,.665.426c.16.558.958,3.4.4,4.15a.555.555,0,0,1-.426.213.226.226,0,0,0-.16.053c-.186.186-.186.771-.16,1.3,0,.692.027,1.356-.372,1.569a.734.734,0,0,1-.346.08h0a1.647,1.647,0,0,1-.851-.372,1.587,1.587,0,0,0-.292-.159v.026a3.027,3.027,0,0,0-.027.505c0,.452,0,1.064-.745,1.011-.213,0-.266.08-.4.4C2966.187,1386.011,2966,1386.436,2965.442,1386.436Zm-5.027-9.682a5.883,5.883,0,0,0,.585,1.649c.612,1.41,1.3,3.032.771,3.724-.133.159-.133.426,0,.771a7.209,7.209,0,0,0,3.511,3.192c.479.08.585-.133.745-.479.133-.292.266-.638.745-.585.346.026.373-.107.4-.692a3.891,3.891,0,0,1,.027-.559.315.315,0,0,1,.319-.293c.16,0,.293.107.506.239a1.463,1.463,0,0,0,.665.293h0a.492.492,0,0,0,.186-.053c.213-.106.213-.745.186-1.277,0-.638-.026-1.25.266-1.543a.541.541,0,0,1,.4-.16.19.19,0,0,0,.16-.08c.372-.479-.053-2.58-.452-3.857-.027-.106-.08-.186-.346-.186a6.209,6.209,0,0,0-1.835.558,9.4,9.4,0,0,1-2.234.718,7.644,7.644,0,0,1-3.3-.878,3.973,3.973,0,0,0-1.3-.505Zm4.575-5.16c-.239,0-.532-.346-.931-1.011a1.623,1.623,0,0,0-.771-.612,1.887,1.887,0,0,1-1.038-1.037c-.106-.293-.159-.319-.159-.319a1.522,1.522,0,0,0-.213.825c-.026.319-.212.426-.372.426a.869.869,0,0,1-.718-.665.664.664,0,0,1,.345-.771.285.285,0,0,0,.16-.319.605.605,0,0,0-.558-.426c-.293,0-.426.292-.479.532a3.572,3.572,0,0,1-2.953,2.314,1.138,1.138,0,0,1-.745-.239,12.545,12.545,0,0,0-5.373-1.889c-.931,0-1.038-.08-1.436-.372a6.954,6.954,0,0,0-1.41-.851c-2.048-1.038-1.808-2.288-1.569-3.485l.027-.213a3.762,3.762,0,0,0-.9-2.58,2.21,2.21,0,0,0-1.25-.958,2.48,2.48,0,0,0-.771.16,3.6,3.6,0,0,1-.825.186.5.5,0,0,1-.532-.346c-.107-.293.053-.612.266-.984.319-.585.691-1.224.106-1.995-.426-.559-.691-.638-.8-.638-.239,0-.4.532-.4,1.33,0,.692-.558,1.117-1.436,1.117a1.748,1.748,0,0,1-1.33-.479.476.476,0,0,1-.106-.452c.08-.4.372-.4.585-.4.319,0,.771-.026,1.117-1.7a7.54,7.54,0,0,1,1.091-2.713c.372-.585.426-.718.106-.984a.559.559,0,0,0-.345-.133c-.665,0-1.543,1.277-1.676,2.447-.106.851-.585.958-1.091,1.091a2.578,2.578,0,0,0-1.649,1.037c-.771,1.064-1.224,1.6-1.649,1.6-.4,0-.665-.426-.851-.824a1.835,1.835,0,0,1-.16-1.3,1.829,1.829,0,0,0-.479-1.676,4.489,4.489,0,0,0-1.729-1.357c-.426-.213-.718-.372-.8-.665a.6.6,0,0,1,.106-.452,1.537,1.537,0,0,0,.372-1.144.593.593,0,0,0-.452-.292,1.56,1.56,0,0,1-.824-.479.746.746,0,0,0-.692-.293,3.137,3.137,0,0,1-1.091-.186,4.92,4.92,0,0,0-1.569-.266,3.748,3.748,0,0,0-.532.027,2.123,2.123,0,0,1-1.862-.931c-.372-.4-.691-.745-1.144-.745a.9.9,0,0,0-.266.027,12.1,12.1,0,0,1-2.394.239,10.986,10.986,0,0,0-3.325.479c-.293.106-.639.266-.984.426a11.2,11.2,0,0,1-5.134,1.33c-.638-.026-1.064-.053-1.437-.053a3.063,3.063,0,0,0-2.5.8,4.837,4.837,0,0,1-1.7.825c-.825.293-1.649.585-1.862,1.144-.585,1.649-2.367,2.394-5.24,2.234l-.612-.026c-1.25-.08-2.447-.133-3.484-.133-.585,0-2.367,0-2.766.532a4.252,4.252,0,0,0-.346.505c-.373.559-.585.851-1.7.9a2.181,2.181,0,0,0-1.463.851,1.81,1.81,0,0,1-1.277.771c-.186,0-.4,0-.691.027-.4.026-.878.026-1.357.026a6.648,6.648,0,0,1-3.352-.612,2.968,2.968,0,0,1-1.037-1.117.979.979,0,0,0-.878-.612,1.629,1.629,0,0,1-1.41-1.516.639.639,0,0,1,.691-.612,1.49,1.49,0,0,0,1.117-.426,2,2,0,0,0,.292-1.623,4.862,4.862,0,0,1,.426-2.474c.159-.452.319-.9.212-1.064-.027-.027-2.58-3.937-2.447-6.331a4.909,4.909,0,0,0-1.25-3.006,4.325,4.325,0,0,1-1.037-2.1,12.461,12.461,0,0,0-1.676-3.7c-.9-1.6-1.224-2.234-1.091-2.527a.277.277,0,0,1,.266-.186c.239,0,.505.293.931.825.213.266.612.771.745.771.106-.186-.213-.638-.452-.958-.293-.4-.559-.745-.319-.984a.242.242,0,0,1,.186-.08c.213,0,.4.266.692.771.16.266.505.824.665.824a.326.326,0,0,0,.053-.08c.372-.771-.373-1.862-1.543-3.431-1.384-1.835-.4-3.272.479-4.548a1.321,1.321,0,0,0,.053-1.543,1.847,1.847,0,0,1-.186-1.49c.319-.931,1.117-2.208,1.49-2.208.106,0,.213.08.213.266v.266a6.65,6.65,0,0,0,.053,1.277,2.219,2.219,0,0,0,.266-.612c.186-.558.479-1.356,1.25-1.383a5.991,5.991,0,0,0,3.271-1.809,4.31,4.31,0,0,1,2.713-1.2c.639,0,.8.319.851.479.027.106.053.106.133.106.452,0,1.516-.851,2.1-1.277l.08-.08a2.266,2.266,0,0,1,1.357-.426,1.929,1.929,0,0,0,1.224-.4,3.246,3.246,0,0,1,1.835-.4c1.064-.027,2.261-.08,2.953-.931a32.36,32.36,0,0,1,3.963-3.91c.08-.053-.053-.426-.133-.692a2.343,2.343,0,0,1,.213-2.474c1.3-1.356,1.756-1.516,2-1.516.133,0,.4.053.4.558a3.642,3.642,0,0,0,.293,1.3c.213.505.4.665.452.665l.027-.027a2.033,2.033,0,0,1,.426-.293c.319-.186.532-.319.373-.931a4.086,4.086,0,0,0-.426-.984c-.213-.4-.372-.692-.266-.958a.537.537,0,0,1,.4-.293.824.824,0,0,1,.266-.026,2.89,2.89,0,0,1,1.09.346,1.588,1.588,0,0,0,.532.186h0v-.133c-.133-.931-.187-2.155.239-2.633a.668.668,0,0,1,.479-.213c.372,0,.505-.213.665-.452a.855.855,0,0,1,.585-.452c.027-.027-.027-.16-.027-.24a.855.855,0,0,1,.053-.718.693.693,0,0,1,.479-.239,3.406,3.406,0,0,1,1.25.186,4.357,4.357,0,0,0,.612.133c.053,0,.106,0,.106-.026a.248.248,0,0,0,0-.16,1.408,1.408,0,0,1,.186-1.17,1.014,1.014,0,0,1,.825-.293.784.784,0,0,0,.665-.4,1.286,1.286,0,0,1,.878-.532h.08a3.327,3.327,0,0,1,2.394,1.809c.053.186.266.24.611.293.452.107,1.038.213.9,1.037a.937.937,0,0,0,.186.825c.133.16.266.186.319.106.027-.026.08-.106.08-.346a1,1,0,0,1,.213-.771.681.681,0,0,1,.505-.213,2.082,2.082,0,0,1,1.33.718,1.915,1.915,0,0,0,1.2.585c.133,0,.213-.027.239-.08.027-.08-.027-.266-.292-.559-.612-.692-.852-1.2-.8-1.623a1.28,1.28,0,0,1,.718-.9,1.078,1.078,0,0,0,.505-.824,2.053,2.053,0,0,1,.559-1.144,4.843,4.843,0,0,0,.692-1.144c.346-.718.665-1.41,1.383-1.383a.458.458,0,0,0,.186-.027c.027-.027-.026-.186-.026-.239a.536.536,0,0,1,0-.452c.106-.133.293-.16.665-.053a3.4,3.4,0,0,0,.851.08c1.41,0,3.032-.426,3.219-.851,0-.027.053-.106-.08-.239l-.612-.612c-.479-.479-.824-.771-.745-1.091.027-.16.16-.293.4-.372a.777.777,0,0,1,.24-.053c.372,0,.665.319.984.665a2.4,2.4,0,0,0,1.384.931c1.2.16,4.761.825,5.426,1.7a.334.334,0,0,0,.293.159c.319,0,.8-.426,1.091-.692a1.332,1.332,0,0,1,.505-.372h.053c.239,0,.4.319.585.771a2.8,2.8,0,0,0,.372.665,2.123,2.123,0,0,0,.08-.293c.08-.319.186-.8.771-.8a.588.588,0,0,1,.213.026c.665.133,1.17.505,1.2.931.027.186-.027.506-.559.718-.293.106-.293.239-.24.532a1.051,1.051,0,0,1-.638,1.25,7.265,7.265,0,0,1-1.17.479,1.479,1.479,0,0,0-.612.266.573.573,0,0,0,.08.266c.639,1.064.559,1.915-.292,2.527a3.9,3.9,0,0,0-.346.239c-.186.133-.425.293-.425.372,0,.053.08.16.532.452.106.08.186.133.266.186a3.228,3.228,0,0,1,1.6,1.942c.133.372.319.452.585.452a1.294,1.294,0,0,0,.319-.027c.133,0,.266-.027.426-.027a2.194,2.194,0,0,1,1.384.479,9.513,9.513,0,0,1,1.277,1.224c.505.532.824.931,1.25.851a3.115,3.115,0,0,1,2.367.718.728.728,0,0,1,.24.612.861.861,0,0,0,.239.506,3.121,3.121,0,0,0,2.1.851,2.184,2.184,0,0,0,.745-.133,3.168,3.168,0,0,0,1.623-1.969,7.939,7.939,0,0,1,.585-1.17,6.38,6.38,0,0,0,.718-3.032c.027-.346.053-.718.106-1.064a10.356,10.356,0,0,0-.027-2.022c-.08-1.25-.186-2.447.319-2.926.319-.293.24-.958.186-1.569-.08-.612-.133-1.17.186-1.463a2.537,2.537,0,0,0,.612-2.022,2.678,2.678,0,0,1,.8-1.623c.213-.213.612-.612.958-.612a.341.341,0,0,1,.266.106,3.012,3.012,0,0,1,.479,1.277,4.151,4.151,0,0,0,.851,2.048c.9.692,1.463,3.032,1.33,4.5-.08.958-.133,2.021.212,2.394a.5.5,0,0,0,.452.133,5.265,5.265,0,0,0,.931-.213,4.011,4.011,0,0,1,.824-.16.485.485,0,0,1,.532.452c.027.186.319.4.638.585.559.346,1.25.8,1.17,1.6a5.485,5.485,0,0,0,.186,1.756,5.986,5.986,0,0,1,.186,1.543c-.027.452.319.771.691,1.144a2.366,2.366,0,0,1,.931,1.676c0,1.6.239,2.873.612,3.192a.968.968,0,0,1,.16.931c-.08.505-.08.8.426.9.984.213,6.49,2.873,6.411,3.857a1.719,1.719,0,0,0,.824,1.835c.9.665,1.3,1.463,1.091,2.181a2.264,2.264,0,0,0,.186,1.569.219.219,0,0,0,.186.106.1.1,0,0,0,.08-.027c.16-.053.292-.133.426-.186a1.534,1.534,0,0,1,.718-.24.684.684,0,0,1,.612.372.259.259,0,0,0,.239.107c.08,0,.16-.027.239-.027a.735.735,0,0,1,.24-.027.343.343,0,0,1,.292.133c.133.133.16.4.106.851a3.819,3.819,0,0,0,.292,2.5.514.514,0,0,0,.479.16c.638-.106.745.4.825.771.106.452.186.585.479.505a.737.737,0,0,1,.239-.027c1.064,0,1.916,1.622,2.075,2.208.266.878.851,2.155,1.3,2.155a.274.274,0,0,0,.213-.106c.452-.452.638-.638.825-.638a.241.241,0,0,1,.186.08c.107.133.107.426-.053,1.25a13.943,13.943,0,0,0-.08,4.309.16.16,0,0,1,.107-.027c.4,0,.692.718.745.958.16.505.239,1.144-.08,1.383-.08.08-.027.266.08.585a1.633,1.633,0,0,1-.186,1.862,2.484,2.484,0,0,0-.292,2.447l.027.106a3,3,0,0,1-.213,1.224,8.955,8.955,0,0,0-.426,2.261,4.542,4.542,0,0,1-.8,2.208,4.078,4.078,0,0,0-.638,1.6,2.41,2.41,0,0,1-1.756,2.022c-.426.133-2.527,3.7-2.793,5.719a3.934,3.934,0,0,1-1.09,2.234,3.546,3.546,0,0,0-.958,1.915c-.053.452-.106,1.011-.186,1.6-.319,3.112-.479,4.043-.9,4.043-.532,0-4.628.213-5.559.984a6.794,6.794,0,0,0-.638.559,6.816,6.816,0,0,1-2,1.357c-.957.372-1.09.878-1.09,1.357a.668.668,0,0,1-.053.266C2965.176,1371.514,2965.1,1371.594,2964.99,1371.594Zm-2.926-3.352c.293,0,.426.426.479.559a1.585,1.585,0,0,0,.9.851,2.049,2.049,0,0,1,.9.745,3.274,3.274,0,0,0,.585.8v-.053a1.725,1.725,0,0,1,1.3-1.676,6.4,6.4,0,0,0,1.888-1.277c.213-.186.426-.372.665-.559,1.09-.878,5.32-1.037,5.746-1.064a16.3,16.3,0,0,0,.585-3.724c.053-.585.133-1.144.186-1.623a4.022,4.022,0,0,1,1.037-2.1,3.735,3.735,0,0,0,1.011-2.075c.239-1.968,2.367-5.772,3.005-5.985a2.024,2.024,0,0,0,1.516-1.729,4.309,4.309,0,0,1,.691-1.755,4.475,4.475,0,0,0,.745-2.048,8.493,8.493,0,0,1,.452-2.367,3,3,0,0,0,.213-1.037l-.027-.107a2.792,2.792,0,0,1,.372-2.793,1.378,1.378,0,0,0,.106-1.516c-.133-.372-.266-.745.027-.958.106-.08.133-.426,0-.9-.16-.532-.4-.825-.479-.825a.378.378,0,0,1-.159.053h0a.179.179,0,0,1-.187-.106c-.373-.452-.292-3.352-.027-4.655a4.789,4.789,0,0,0,.133-.878c-.106.106-.319.293-.506.505a.656.656,0,0,1-.452.213c-.9,0-1.6-2.288-1.623-2.394-.16-.559-.931-1.968-1.756-1.968a.337.337,0,0,0-.16.027.66.66,0,0,1-.213.027c-.505,0-.585-.452-.665-.8-.106-.452-.186-.558-.452-.505a.816.816,0,0,1-.8-.266c-.585-.665-.452-2.288-.373-2.766.053-.452,0-.559-.027-.585h-.053a.518.518,0,0,0-.186.027,1,1,0,0,1-.293.026.548.548,0,0,1-.506-.266c-.133-.186-.239-.213-.345-.213a1.314,1.314,0,0,0-.585.213c-.133.08-.292.133-.452.213a.453.453,0,0,1-.186.027.589.589,0,0,1-.452-.239,2.513,2.513,0,0,1-.239-1.862c.159-.585-.187-1.224-.958-1.809a2.066,2.066,0,0,1-.984-2.155c.053-.559-4.814-3.219-6.144-3.511-.852-.186-.745-.851-.692-1.277.027-.266.08-.532-.053-.638-.665-.585-.719-2.793-.719-3.458a2.107,2.107,0,0,0-.824-1.437,1.978,1.978,0,0,1-.8-1.41,5.668,5.668,0,0,0-.186-1.463,6.079,6.079,0,0,1-.186-1.862c.053-.612-.479-.958-1.011-1.277-.4-.266-.771-.505-.8-.851,0-.107-.027-.16-.186-.16a3.428,3.428,0,0,0-.744.16,5.354,5.354,0,0,1-.985.213.88.88,0,0,1-.745-.239c-.452-.479-.4-1.516-.293-2.66.106-1.33-.426-3.591-1.2-4.2a4.127,4.127,0,0,1-.957-2.234,3.121,3.121,0,0,0-.373-1.091h-.053c-.133,0-.4.16-.718.505a2.414,2.414,0,0,0-.719,1.357,2.964,2.964,0,0,1-.718,2.314c-.187.16-.134.665-.08,1.171.08.665.16,1.436-.293,1.862-.4.346-.292,1.516-.213,2.633a10.906,10.906,0,0,1,.027,2.075c-.053.346-.08.692-.106,1.064a6.507,6.507,0,0,1-.771,3.192,6,6,0,0,0-.559,1.09,3.382,3.382,0,0,1-1.809,2.155,2.344,2.344,0,0,1-.878.16,3.47,3.47,0,0,1-2.341-.958.933.933,0,0,1-.319-.745.573.573,0,0,0-.16-.372,2.876,2.876,0,0,0-2.075-.612c-.612.08-1.011-.372-1.569-.958a8.664,8.664,0,0,0-1.224-1.17,1.856,1.856,0,0,0-1.17-.4,2,2,0,0,0-.4.027c-.133,0-.24.027-.346.027a.837.837,0,0,1-.9-.692,2.941,2.941,0,0,0-1.463-1.782,2.82,2.82,0,0,0-.292-.186c-.452-.319-.665-.505-.665-.718,0-.239.213-.4.585-.638a2.5,2.5,0,0,0,.319-.239c.692-.505.745-1.17.186-2.075a.8.8,0,0,1-.133-.559c.106-.266.4-.346.825-.479a7.013,7.013,0,0,0,1.117-.452.761.761,0,0,0,.479-.931c-.027-.293-.08-.692.452-.9.133-.053.372-.186.346-.372-.026-.239-.372-.532-.931-.638-.4-.08-.505.106-.612.532-.053.239-.107.479-.346.559-.027,0-.053.027-.08.027-.293,0-.479-.4-.692-.878a2.375,2.375,0,0,0-.293-.585,1.43,1.43,0,0,0-.319.293,2.317,2.317,0,0,1-1.3.771.733.733,0,0,1-.558-.293c-.559-.718-3.8-1.383-5.214-1.569a2.767,2.767,0,0,1-1.6-1.037c-.319-.346-.585-.638-.851-.532-.133.053-.186.106-.186.133-.027.133.346.479.665.8l.612.612a.491.491,0,0,1,.133.585c-.292.691-2.288,1.064-3.538,1.064a3.166,3.166,0,0,1-.958-.106.805.805,0,0,0-.266-.053c0,.053.027.106.027.159a.544.544,0,0,1-.027.532c-.08.133-.239.16-.479.16h-.027c-.452,0-.718.559-1.01,1.17a4.877,4.877,0,0,1-.745,1.25,1.961,1.961,0,0,0-.479.984,1.448,1.448,0,0,1-.638,1.037c-.346.213-.532.426-.559.665-.053.346.186.771.719,1.356.346.372.452.692.346.931a.558.558,0,0,1-.559.293,2.313,2.313,0,0,1-1.436-.665c-.532-.532-1.117-.745-1.33-.532a.82.82,0,0,0-.133.505.8.8,0,0,1-.16.612.56.56,0,0,1-.824-.133,1.359,1.359,0,0,1-.266-1.091c.08-.479-.159-.559-.638-.665-.346-.08-.718-.16-.851-.532a3.03,3.03,0,0,0-2.128-1.569,1.012,1.012,0,0,0-.665.4,1.165,1.165,0,0,1-.931.505.7.7,0,0,0-.585.186c-.133.16-.159.426-.106.9a.541.541,0,0,1-.08.426c-.186.213-.559.133-1.064,0a2.78,2.78,0,0,0-1.117-.16c-.133.027-.213.053-.24.106a.863.863,0,0,0,0,.452.616.616,0,0,1-.027.532.332.332,0,0,1-.239.133c-.133.026-.213.133-.346.319a1.152,1.152,0,0,1-.958.585.242.242,0,0,0-.213.106,3.68,3.68,0,0,0-.16,2.367.446.446,0,0,1-.08.4.355.355,0,0,1-.266.106,1.688,1.688,0,0,1-.665-.24,2.126,2.126,0,0,0-1.117-.292c-.08.027-.16.053-.186.106-.053.106.107.4.266.665a4.272,4.272,0,0,1,.452,1.064.988.988,0,0,1-.532,1.3,1.616,1.616,0,0,0-.346.239.4.4,0,0,1-.266.133c-.346,0-.612-.479-.771-.878a3.706,3.706,0,0,1-.319-1.437c0-.133-.027-.213-.08-.213-.133,0-.532.133-1.755,1.41a2.092,2.092,0,0,0-.133,2.155c.16.479.266.9-.027,1.091a32.576,32.576,0,0,0-3.884,3.83c-.8.958-2.128,1.011-3.219,1.037a3.074,3.074,0,0,0-1.649.319,2.222,2.222,0,0,1-1.436.479,1.915,1.915,0,0,0-1.17.372l-.08.08a5.442,5.442,0,0,1-2.314,1.357.461.461,0,0,1-.478-.372c-.053-.186-.293-.239-.506-.239a3.992,3.992,0,0,0-2.447,1.09,6.063,6.063,0,0,1-3.485,1.915c-.505.027-.718.505-.957,1.17a1.724,1.724,0,0,1-.4.8.249.249,0,0,1-.4,0c-.186-.186-.213-.692-.186-1.569v-.08a5.787,5.787,0,0,0-1.064,1.862,1.646,1.646,0,0,0,.16,1.25,1.648,1.648,0,0,1-.08,1.862c-.851,1.224-1.7,2.5-.479,4.15,1.3,1.729,2.048,2.846,1.6,3.8a.421.421,0,0,1-.372.266.592.592,0,0,1-.452-.292.645.645,0,0,1-.027.585.292.292,0,0,1-.266.16c-.266,0-.559-.346-1.011-.9a3.3,3.3,0,0,0-.638-.692,10.113,10.113,0,0,0,1.064,2.181,13,13,0,0,1,1.729,3.857,4.056,4.056,0,0,0,.958,1.915,5.166,5.166,0,0,1,1.33,3.219c-.133,2.287,2.367,6.065,2.394,6.118.213.319.053.771-.159,1.357a4.681,4.681,0,0,0-.4,2.314,2.237,2.237,0,0,1-.372,1.889,1.8,1.8,0,0,1-1.383.559c-.239,0-.345.106-.345.293a1.28,1.28,0,0,0,1.09,1.17,1.322,1.322,0,0,1,1.144.771,3.1,3.1,0,0,0,.931,1.011,6.23,6.23,0,0,0,3.166.559c.505,0,.957-.026,1.357-.026.292,0,.532-.027.691-.027.4,0,.691-.319,1.037-.665a2.377,2.377,0,0,1,1.676-.958c.984-.053,1.117-.239,1.436-.745.106-.16.213-.319.372-.532.373-.452,1.3-.665,3.033-.665,1.037,0,2.234.08,3.484.133l.612.026c2.713.16,4.362-.532,4.894-1.995.266-.718,1.2-1.037,2.075-1.357a4.691,4.691,0,0,0,1.6-.771,3.427,3.427,0,0,1,2.713-.878c.373,0,.8.027,1.437.053a10.934,10.934,0,0,0,4.974-1.3c.346-.16.692-.319.984-.426a11.864,11.864,0,0,1,3.431-.479,13.526,13.526,0,0,0,2.341-.239,1.836,1.836,0,0,1,.346-.053,1.994,1.994,0,0,1,1.41.851c.452.479.851.9,1.6.825a3.928,3.928,0,0,1,.559-.027,5.4,5.4,0,0,1,1.649.293,3.543,3.543,0,0,0,.984.186,1.056,1.056,0,0,1,.958.4,1.238,1.238,0,0,0,.665.4.889.889,0,0,1,.692.505,1.667,1.667,0,0,1-.4,1.436.355.355,0,0,0-.08.186c.027.133.319.292.612.452a5.13,5.13,0,0,1,1.862,1.463,2.2,2.2,0,0,1,.532,1.942,1.49,1.49,0,0,0,.133,1.091q.319.638.559.638c.319,0,.851-.718,1.383-1.437a2.655,2.655,0,0,1,1.835-1.17c.505-.106.771-.186.851-.8.16-1.25,1.091-2.74,2.021-2.74a.859.859,0,0,1,.559.213c.532.452.292.878-.053,1.41a6.739,6.739,0,0,0-1.037,2.607c-.346,1.809-.9,1.968-1.436,1.968-.213,0-.24,0-.266.16a.264.264,0,0,0,.053.16,1.453,1.453,0,0,0,1.064.346c.266,0,1.091-.053,1.091-.8,0-1.383.4-1.676.745-1.676.319,0,.665.266,1.064.771a1.931,1.931,0,0,1-.08,2.367c-.16.293-.319.559-.239.692.027.053.053.133.239.133a2.957,2.957,0,0,0,.718-.16,2.493,2.493,0,0,1,.9-.186,2.629,2.629,0,0,1,1.49,1.09,4.242,4.242,0,0,1,.958,2.846l-.027.213c-.24,1.17-.426,2.208,1.41,3.112a8.179,8.179,0,0,1,1.463.878c.346.266.4.293,1.25.293a12.709,12.709,0,0,1,5.613,1.968.844.844,0,0,0,.532.16,3.3,3.3,0,0,0,2.633-2.075c.213-.692.638-.771.825-.771a.942.942,0,0,1,.878.692.592.592,0,0,1-.319.692c-.16.107-.239.24-.186.4.053.213.266.4.373.4.027,0,.027-.026.053-.106C2961.532,1368.854,2961.718,1368.242,2962.064,1368.242Zm-23.035-6.6h0a2.154,2.154,0,0,1-1.436-.4.348.348,0,0,1-.106-.346c.186-.479,1.835-.771,2.66-.771.505,0,.825.08.931.266a.39.39,0,0,1,.026.346C2940.864,1361.38,2939.88,1361.646,2939.029,1361.646Zm-1.2-.639a2.027,2.027,0,0,0,1.2.293h0c.851,0,1.623-.293,1.782-.665v-.026h0s-.08-.107-.639-.107A5.237,5.237,0,0,0,2937.832,1361.007Zm-16.385-70.143h0a1.592,1.592,0,0,1-.931-.213c-.24-.186-.213-.372-.16-.479.212-.585,2.021-.958,2.952-.958.612,0,.958.133,1.011.426a.451.451,0,0,1-.133.4A4.536,4.536,0,0,1,2921.446,1290.864Zm1.862-1.3c-1.117,0-2.527.426-2.633.718,0,.027,0,.053.053.08.053.053.213.133.718.133h0a4.354,4.354,0,0,0,2.474-.692.147.147,0,0,0,.053-.133A1.469,1.469,0,0,0,2923.308,1289.561Z" transform="translate(-2770.174 -1094.879)"/><path class="c" d="M0,6.192H16.826V0" transform="translate(188.402 275.022) rotate(180)"/><line class="c" x1="30" transform="translate(203.393 264.83)"/><g class="k" transform="matrix(1, 0, 0, 1, 103.34, 192.32)"><text class="d" transform="translate(49.65 96.39)"><tspan x="-26.757" y="0">MELBOURNE</tspan></text></g><g transform="translate(91 172)"><g class="j" transform="matrix(1, 0, 0, 1, 12.34, 20.32)"><rect class="e" width="64" height="14" transform="translate(125.46 64.93)"/></g><text class="f" transform="translate(170.791 96.248)"><tspan x="-27.775" y="0">SYDNEY - HQ</tspan></text></g><g transform="translate(10 1.864)"><g class="i" transform="matrix(1, 0, 0, 1, 93.34, 190.46)"><path class="g" d="M471.373,108.037a4.772,4.772,0,0,1-.457,2.046c-.74,1.564-4.108,6.4-4.108,6.4s-3.288-4.783-4.05-6.282a4.771,4.771,0,0,1-.515-2.166,4.567,4.567,0,1,1,9.13,0Z" transform="translate(-380.16 -36.56)"/></g><ellipse class="e" cx="1.624" cy="1.624" rx="1.624" ry="1.624" transform="translate(178.357 260.568)"/></g><g transform="translate(87 172.367)"><g class="h" transform="matrix(1, 0, 0, 1, 16.34, 19.95)"><path class="g" d="M471.373,108.037a4.772,4.772,0,0,1-.457,2.046c-.74,1.564-4.108,6.4-4.108,6.4s-3.288-4.783-4.05-6.282a4.771,4.771,0,0,1-.515-2.166,4.567,4.567,0,1,1,9.13,0Z" transform="translate(-367.17 -39.98)"/></g><ellipse class="e" cx="1.624" cy="1.624" rx="1.624" ry="1.624" transform="translate(114.346 86.276)"/></g></g></g></svg>