<svg xmlns="http://www.w3.org/2000/svg" xmlns:xlink="http://www.w3.org/1999/xlink" width="135.549" height="80.294" viewBox="0 0 135.549 80.294"><defs><style>.a,.e{fill:#acacac;}.a{stroke:#002b49;stroke-width:0.2px;}.b,.f{fill:#fff;}.c{fill:#002b49;}.c,.f{font-size:11px;font-family:HelveticaNeue-CondensedBold, Helvetica Neue;font-weight:700;letter-spacing:-0.01em;}.d{fill:none;stroke:#fff;}.g{filter:url(#g);}.h{filter:url(#e);}.i{filter:url(#c);}.j{filter:url(#a);}</style><filter id="a" x="0" y="53.124" width="75" height="24" filterUnits="userSpaceOnUse"><feOffset dy="2" input="SourceAlpha"/><feGaussianBlur stdDeviation="1.5" result="b"/><feFlood/><feComposite operator="in" in2="b"/><feComposite in="SourceGraphic"/></filter><filter id="c" x="72.746" y="9.491" width="18.131" height="22.136" filterUnits="userSpaceOnUse"><feOffset dy="2" input="SourceAlpha"/><feGaussianBlur stdDeviation="1.5" result="d"/><feFlood flood-color="#002b49"/><feComposite operator="in" in2="d"/><feComposite in="SourceGraphic"/></filter><filter id="e" x="12.047" y="8.627" width="57" height="22" filterUnits="userSpaceOnUse"><feOffset dy="2" input="SourceAlpha"/><feGaussianBlur stdDeviation="1.5" result="f"/><feFlood/><feComposite operator="in" in2="f"/><feComposite in="SourceGraphic"/></filter><filter id="g" x="69.807" y="37.506" width="18.131" height="22.136" filterUnits="userSpaceOnUse"><feOffset dy="2" input="SourceAlpha"/><feGaussianBlur stdDeviation="1.5" result="h"/><feFlood flood-color="#002b49"/><feComposite operator="in" in2="h"/><feComposite in="SourceGraphic"/></filter></defs><g transform="translate(4.5 0.103)"><path class="a" d="M2482.937,829.022a9.914,9.914,0,0,1-.665-4.07c.16-.825,1.144-.16,1.463-1.144s-2.766-.984-1.782-2.288.984,0,2.287,0,1.782.665,1.782,1.463c0,.825,1.3,1.3,1.3,1.3s2.128-.16,3.085-.16c.984,0,1.968,0,1.968.638,0,.665-1.144,2.766-2.128,2.766s-.984,2.766-.16,2.926,1.463-2.128,1.942-2.128c.346,0,.612,2.58,1.091,5.267a.59.59,0,0,1,.4-.266c.638,0,.319-2.261.745-2.9s.213-2.687.532-2.687,2.261.638,2.155.106,1.17-2.367.958-3.325.745-2.155.745-3.325,1.064-1.516,1.835-2.155c.745-.638,2.048-1.516,2.261-.958.213.532,1.835.958,1.17,0-.638-.958-.638-1.622-.213-1.835s.638-1.3.638-1.3-1.41-.213-1.623-.851-1.064-1.277-1.064-1.835c0-.532-.745-.319-1.383.213s-1.836-.638-3.219.106-1.729,1.623-2.367,1.516-.532.532-1.064,1.064-.958,1.17-1.277,1.17a6.588,6.588,0,0,0-1.41.532s.745,1.623.319,2.367-1.516,0-2.687.319-1.729-.426-2.58-.213-1.383-.532-1.835-.426c-.426.106-1.064-.958-.851-1.835.213-.851-.426-2.048-.851-1.383-.426.638-1.064.319-1.064,1.3,0,.958.532,2.155-.106,2.793s-4.1.958-4.735.426-3.431-.851-3.538-1.41c-.107-.532-.958-1.516-1.516-1.516-.532,0-2.155.745-2.58.426a6.616,6.616,0,0,0-2.261-1.277c-.745-.106-1.942-.638-2.048-1.064s-1.835-.638-2.155-1.064-1.383-.532-1.383-1.064.426-1.41.426-2.048,1.277-1.277,1.277-1.729c0-.426-1.17-1.17-1.17-1.17s-.745-1.41-1.623-1.41c-.852,0-1.516-1.516-2.261-1.623s-.532-1.623-.957-2.155-.107-1.835.638-1.17c.745.638,2.155,0,1.623-.958s-1.516-1.835-1.516-2.367.638-2.155-.106-2.58a3.3,3.3,0,0,1-1.623-1.835,2.842,2.842,0,0,0-1.064-1.3l-1.064.106s-.638,1.729-1.064,1.942a15.4,15.4,0,0,0-2.687,1.064c-.745.532-2.9-.745-4.07-.745s-1.942,1.17-1.41,1.516c.532.319.426,2.58.426,2.58s.639,2.793,1.623,2.58c.958-.213,2.155.958,1.277,1.17a2.24,2.24,0,0,0-1.383,2.048c-.106.851.106,1.942-.532,2.048a1.322,1.322,0,0,0-1.3,1.516c0,1.17-1.383.851-1.623,1.277a23.3,23.3,0,0,1-1.064,2.9c-.319.319-2.155.426-2.261,1.41-.106.958-.958,2.155-1.516,2.048-.532-.106-1.516-.532-1.835.106s-1.729-.532-2.048-.213-2.048,1.729-2.048,2.58,1.835.851,1.729,1.942a3.985,3.985,0,0,0,1.17,2.793c.532.532,1.383,1.835.958,2.474s-1.064.745-2.048.532c-.958-.213-.851.426-2.58.106s-1.835.958-2.474,1.729a1.224,1.224,0,0,1-.186.186c.824.638,1.144,1.782,2.5,2.314,1.569.612,2.979-1.011,2.979.16s-3.7.931-3.777,1.277c-.08.372,3.83,5.081,5.8,4.708s3.431-2.5,2.846-2.82c-.559-.319.319-1.649.851-1.41s.08,2.341.691,2.82.4,1.357,0,2.5c-.4,1.117.4,3.325.532,4.575s.958,3.059,1.25,4.894a28.708,28.708,0,0,0,2.527,7.288c1.091,2.048,1.942,6.065,2.66,7.049.718.958,2.58,3.91,2.58,5.719s1.968,4.336,2.66,4.841c.692.479,2.181-.559,2.527-1.7.372-1.117,2.42-1.569,2.527-2.527.133-.958.319-1.729,1.037-1.862s.718-.878.718-1.942a5.935,5.935,0,0,1,.8-3.458,5.817,5.817,0,0,0,.4-4.415,4.661,4.661,0,0,1,.213-3.431c.4-1.011.239-2.181,1.011-2.261a4.442,4.442,0,0,0,2.687-1.862c.8-1.091,3.272-2.58,4.15-3.3a26.515,26.515,0,0,0,4.389-4.416c.8-1.33,3.086-1.756,4.15-2.846,1.037-1.091.639-1.649.851-2.82s3.591-1.649,4.867-1.649a4.478,4.478,0,0,0,.665-.053A13.709,13.709,0,0,0,2482.937,829.022Z" transform="translate(-2373.654 -792.714)"/><path class="a" d="M2452.911,872.291h0a.819.819,0,0,1-.505-.159c-.665-.479-2.74-3.032-2.74-4.974,0-1.676-1.7-4.5-2.553-5.613a13.014,13.014,0,0,1-1.2-3.112,26.7,26.7,0,0,0-1.463-3.937,29.481,29.481,0,0,1-2.554-7.341,16.858,16.858,0,0,0-.692-2.713,14.946,14.946,0,0,1-.559-2.208,14.634,14.634,0,0,0-.266-1.463,6.883,6.883,0,0,1-.24-3.219c.426-1.17.559-1.915.054-2.314-.373-.293-.4-1.011-.426-1.676-.027-.452-.053-1.037-.213-1.117-.213-.106-.665.346-.771.745-.027.133-.053.293.08.346.106.053.266.186.186.532a4.2,4.2,0,0,1-3.112,2.607.821.821,0,0,1-.266.027c-1.6,0-4.017-2.474-5.054-3.777-.718-.9-.691-1.064-.665-1.144.053-.239.372-.292,1.277-.372.931-.106,2.5-.266,2.5-.878,0-.266-.08-.266-.133-.266a2.034,2.034,0,0,0-.558.133,3.936,3.936,0,0,1-1.33.266,2.168,2.168,0,0,1-.825-.16,4.014,4.014,0,0,1-1.809-1.516,3.746,3.746,0,0,0-.745-.825l-.133-.106.213-.239.08-.08a4.8,4.8,0,0,0,.4-.612,1.823,1.823,0,0,1,1.7-1.224,3.992,3.992,0,0,1,.532.053,5.044,5.044,0,0,0,.825.08,2.533,2.533,0,0,0,.771-.133,1.91,1.91,0,0,1,.585-.106,2.054,2.054,0,0,1,.4.053c.984.213,1.49.08,1.862-.452.346-.505-.346-1.649-.931-2.261a4.029,4.029,0,0,1-1.224-2.926c.053-.426-.292-.638-.824-.931-.452-.239-.9-.479-.9-.984,0-.692.878-1.6,1.862-2.474.106-.106.186-.16.239-.213a.363.363,0,0,1,.293-.106,1.859,1.859,0,0,1,.745.24,2.774,2.774,0,0,0,.771.239c.133,0,.16-.053.186-.106a.821.821,0,0,1,.8-.452,3.2,3.2,0,0,1,.878.16c.106.027.239.053.319.08h.027c.425,0,1.17-1.011,1.277-1.889.08-.771,1.01-1.037,1.676-1.25a2.051,2.051,0,0,0,.612-.239,9.265,9.265,0,0,0,.692-1.809,8.805,8.805,0,0,1,.372-1.064c.106-.213.4-.293.691-.372.559-.133.9-.266.9-.851a1.486,1.486,0,0,1,1.436-1.676c.319-.053.346-.479.346-1.144a3.51,3.51,0,0,1,.053-.745,2.383,2.383,0,0,1,1.516-2.181c.186-.053.16-.106.16-.16-.026-.266-.612-.718-1.17-.718a.584.584,0,0,0-.213.027,1.146,1.146,0,0,0-.133.026c-1.011,0-1.6-2.447-1.676-2.713v-.053c.053-.9-.027-2.234-.346-2.42a.6.6,0,0,1-.239-.692,1.8,1.8,0,0,1,1.7-1.144,6.97,6.97,0,0,1,1.862.452,6.257,6.257,0,0,0,1.729.426.552.552,0,0,0,.4-.106,8.845,8.845,0,0,1,2-.851c.319-.106.585-.186.718-.239a4.94,4.94,0,0,0,.984-1.835l.026-.106,1.224-.133.053.027a2.891,2.891,0,0,1,1.144,1.383,3.173,3.173,0,0,0,1.543,1.729c.665.372.452,1.41.293,2.155a3.475,3.475,0,0,0-.106.585c0,.266.319.665.665,1.117a7.556,7.556,0,0,1,.8,1.17.9.9,0,0,1,.027.931,1.321,1.321,0,0,1-1.889.24.5.5,0,0,0-.266-.133c-.106,0-.16.106-.213.16a1,1,0,0,0,.08.9,2.639,2.639,0,0,1,.346,1.037c.107.612.213,1.011.505,1.037a2.221,2.221,0,0,1,1.117.825c.373.4.745.8,1.117.8.878,0,1.6,1.2,1.729,1.436.319.213,1.224.825,1.224,1.3,0,.266-.266.532-.612.825-.319.293-.692.612-.692.9a4.821,4.821,0,0,1-.239,1.17,3.258,3.258,0,0,0-.186.878c0,.213.319.346.638.505a1.9,1.9,0,0,1,.745.479,3.026,3.026,0,0,0,1.011.452c.585.186,1.091.372,1.17.692s1.144.851,1.888.958a6.2,6.2,0,0,1,2.208,1.224l.133.106c.027.026.08.053.213.053a5.7,5.7,0,0,0,1.277-.292,3.683,3.683,0,0,1,.984-.24c.665,0,1.57,1.064,1.676,1.649.027.186,1.09.479,1.649.612a5.4,5.4,0,0,1,1.835.692,2.824,2.824,0,0,0,1.357.239,5.9,5.9,0,0,0,3.139-.665c.372-.372.266-1.011.16-1.7a6.155,6.155,0,0,1-.107-.984.9.9,0,0,1,.612-.984,1.158,1.158,0,0,0,.505-.4.488.488,0,0,1,.426-.266.555.555,0,0,1,.452.266,1.89,1.89,0,0,1,.292,1.516,1.758,1.758,0,0,0,.319,1.383q.2.24.319.24c.053,0,.106-.027.16-.027a1.309,1.309,0,0,1,.585.213,1.682,1.682,0,0,0,.824.266.9.9,0,0,0,.266-.027,2.187,2.187,0,0,1,1.17.106,3.028,3.028,0,0,0,.878.186,1.844,1.844,0,0,0,.532-.08,2.974,2.974,0,0,1,.718-.08,7.021,7.021,0,0,1,.771.053,4.011,4.011,0,0,0,.532.053.556.556,0,0,0,.559-.266c.319-.558-.133-1.782-.319-2.208l-.08-.16.16-.08a6.223,6.223,0,0,1,1.463-.559c.16,0,.452-.346.691-.638.16-.16.293-.346.479-.505a2.039,2.039,0,0,0,.373-.558c.16-.319.319-.638.851-.559.266.053.479-.16.851-.479a6.953,6.953,0,0,1,1.41-1.011,2.31,2.31,0,0,1,1.117-.266,4.435,4.435,0,0,1,1.091.186c.452.106.8.186.984.027a2.178,2.178,0,0,1,1.2-.559.447.447,0,0,1,.479.479,1.751,1.751,0,0,0,.479.851,3.084,3.084,0,0,1,.585.9c.16.452,1.144.692,1.49.745l.186.026-.027.186c-.027.106-.239,1.17-.745,1.41a.338.338,0,0,0-.186.24,1.921,1.921,0,0,0,.479,1.357.622.622,0,0,1,.133.638.462.462,0,0,1-.426.213,1.386,1.386,0,0,1-1.2-.692c0-.027-.027-.053-.133-.053a4.533,4.533,0,0,0-1.862,1.091,5.51,5.51,0,0,1-.639.452c-.612.426-1.144.771-1.144,1.569a4.864,4.864,0,0,1-.426,1.7,3.106,3.106,0,0,0-.319,1.6,4.254,4.254,0,0,1-.585,2.234,3.116,3.116,0,0,0-.372,1.117.363.363,0,0,1-.053.266.6.6,0,0,1-.452.16,7.969,7.969,0,0,1-1.277-.213c-.186-.053-.373-.08-.479-.106a5.247,5.247,0,0,0-.107.851,4.556,4.556,0,0,1-.345,1.755,3.437,3.437,0,0,0-.239,1.357c-.053.825-.133,1.623-.639,1.623-.053,0-.133.027-.266.186l-.239.266-.053-.346c-.133-.771-.266-1.543-.373-2.234a15.8,15.8,0,0,0-.585-2.873,3.443,3.443,0,0,0-.532.771c-.4.665-.851,1.436-1.436,1.33s-.8-1.091-.718-1.942c.08-.825.426-1.33.9-1.33.852,0,1.942-2.022,1.942-2.607,0-.452-.745-.479-1.782-.479-.958,0-3.059.16-3.086.16h-.053c-.053-.027-1.41-.532-1.41-1.463,0-.851-.558-1.3-1.623-1.3a2.011,2.011,0,0,1-1.17-.4.8.8,0,0,0-.372-.186c-.16,0-.346.16-.612.505a.588.588,0,0,0-.16.452c.08.266.532.479.931.665.586.266,1.224.559,1.037,1.144a1.043,1.043,0,0,1-.957.745c-.319.053-.452.106-.506.372a9.691,9.691,0,0,0,.638,3.963,16.116,16.116,0,0,1,.984,5.054v.133l-.133.027a3.3,3.3,0,0,1-.718.08c-1.569,0-4.549.585-4.708,1.516-.053.319-.053.612-.08.878a2.551,2.551,0,0,1-.825,2.048,7.177,7.177,0,0,1-1.915,1.224,5.455,5.455,0,0,0-2.208,1.6,27.047,27.047,0,0,1-4.416,4.469,9.645,9.645,0,0,1-1.2.851,15,15,0,0,0-2.926,2.394,4.594,4.594,0,0,1-2.82,1.915c-.373.027-.452.426-.585,1.091a3.955,3.955,0,0,1-.293,1.064,4.715,4.715,0,0,0-.212,3.3,6.037,6.037,0,0,1-.426,4.6,5.735,5.735,0,0,0-.771,3.352c0,1.037,0,1.942-.878,2.1-.585.106-.771.718-.9,1.7-.08.559-.638.931-1.25,1.33a3.125,3.125,0,0,0-1.3,1.25A2.7,2.7,0,0,1,2452.911,872.291ZM2439.5,832.153a.626.626,0,0,1,.213.053c.346.16.372.745.4,1.41.027.585.053,1.224.319,1.436.718.585.426,1.649.053,2.687a6.96,6.96,0,0,0,.266,3.032,9.338,9.338,0,0,1,.266,1.49,12.373,12.373,0,0,0,.532,2.128,20.961,20.961,0,0,1,.718,2.766,28.691,28.691,0,0,0,2.527,7.235,25.636,25.636,0,0,1,1.49,3.99,13.975,13.975,0,0,0,1.144,3.006c.665.9,2.606,3.91,2.606,5.825,0,1.729,1.915,4.229,2.58,4.682a.567.567,0,0,0,.319.08h0a2.579,2.579,0,0,0,1.969-1.7,3.076,3.076,0,0,1,1.436-1.41c.532-.346,1.037-.692,1.091-1.091.106-.878.293-1.862,1.2-1.995.559-.106.585-.665.585-1.755a5.919,5.919,0,0,1,.851-3.564,5.633,5.633,0,0,0,.372-4.256,5,5,0,0,1,.186-3.564,6.239,6.239,0,0,0,.266-1.011c.133-.665.266-1.277.878-1.357a4.5,4.5,0,0,0,2.58-1.782,14.773,14.773,0,0,1,3.006-2.474c.479-.346.9-.638,1.17-.851a27.172,27.172,0,0,0,4.362-4.389,5.41,5.41,0,0,1,2.341-1.729,6.221,6.221,0,0,0,1.809-1.144,2.144,2.144,0,0,0,.718-1.809,5.981,5.981,0,0,1,.08-.9c.24-1.357,3.83-1.782,5.027-1.782a3.232,3.232,0,0,0,.505-.026,15.951,15.951,0,0,0-.931-4.761,9.427,9.427,0,0,1-.665-4.176.8.8,0,0,1,.771-.638.717.717,0,0,0,.692-.532c.08-.266-.266-.452-.851-.718-.505-.239-1.011-.452-1.117-.878a.8.8,0,0,1,.213-.718c.346-.452.612-.638.878-.638a.951.951,0,0,1,.559.239,1.663,1.663,0,0,0,.984.346c1.25,0,1.968.585,1.968,1.649,0,.558.8.984,1.17,1.144.293-.027,2.155-.16,3.086-.16,1.037,0,2.128,0,2.128.825,0,.745-1.2,2.953-2.288,2.953-.346,0-.532.559-.559,1.037-.08.771.133,1.516.452,1.569h.053c.346,0,.719-.692,1.011-1.17.319-.558.559-.958.851-.958.346,0,.479.612.9,3.165.106.585.186,1.25.319,1.915a.558.558,0,0,1,.293-.106c.213,0,.266-.8.319-1.3a3.736,3.736,0,0,1,.292-1.516,4.11,4.11,0,0,0,.293-1.569c.053-.745.08-1.17.4-1.17a5.86,5.86,0,0,1,.585.106,7.606,7.606,0,0,0,1.2.213c.16,0,.186-.026.186-.026-.08-.266.133-.718.4-1.3a4.314,4.314,0,0,0,.558-2.021,3.151,3.151,0,0,1,.346-1.782,4.879,4.879,0,0,0,.4-1.569c0-.984.665-1.41,1.277-1.835a5.54,5.54,0,0,0,.585-.426,4.838,4.838,0,0,1,2.075-1.17.421.421,0,0,1,.426.266,1.156,1.156,0,0,0,.878.479.156.156,0,0,0,.106-.027h0s.027-.08-.133-.292a2.138,2.138,0,0,1-.505-1.623.7.7,0,0,1,.373-.452,1.723,1.723,0,0,0,.505-1.011c-.426-.08-1.357-.346-1.569-.931a3.3,3.3,0,0,0-.532-.825,1.979,1.979,0,0,1-.558-1.064c0-.106-.027-.133-.133-.133a1.843,1.843,0,0,0-.984.479.79.79,0,0,1-.559.186,2.594,2.594,0,0,1-.745-.133,3.831,3.831,0,0,0-1.011-.16,2.044,2.044,0,0,0-.958.239,6.88,6.88,0,0,0-1.33.984c-.4.372-.692.612-1.117.559-.239-.053-.319.027-.479.372a2.675,2.675,0,0,1-.452.665c-.159.16-.319.319-.452.479-.373.426-.665.745-.958.745a4.55,4.55,0,0,0-1.17.452c.186.426.639,1.676.239,2.367a.857.857,0,0,1-.851.426,4.76,4.76,0,0,1-.585-.053,3.85,3.85,0,0,0-1.357.027,2.619,2.619,0,0,1-.638.08,3.6,3.6,0,0,1-.984-.186,1.824,1.824,0,0,0-.984-.106,1.555,1.555,0,0,1-.346.053,1.88,1.88,0,0,1-.984-.319c-.213-.106-.372-.186-.479-.16-.212.053-.452-.08-.691-.346a2.187,2.187,0,0,1-.4-1.676,1.52,1.52,0,0,0-.24-1.224.275.275,0,0,0-.186-.133c-.053,0-.106.08-.133.106a1.228,1.228,0,0,1-.638.505c-.266.133-.426.213-.426.692a5.845,5.845,0,0,0,.106.931c.106.718.239,1.49-.266,2a6.482,6.482,0,0,1-3.378.745,2.76,2.76,0,0,1-1.57-.319,6.7,6.7,0,0,0-1.7-.612c-1.117-.293-1.809-.505-1.889-.878-.106-.479-.9-1.357-1.33-1.357a4.057,4.057,0,0,0-.878.213,5.674,5.674,0,0,1-1.356.293.674.674,0,0,1-.426-.106l-.133-.106a5.739,5.739,0,0,0-2.048-1.144c-.691-.106-2.048-.638-2.181-1.2-.027-.133-.612-.319-.958-.452a2.4,2.4,0,0,1-1.17-.585,1.5,1.5,0,0,0-.612-.372c-.4-.186-.825-.372-.825-.8a3.861,3.861,0,0,1,.213-.984,4.2,4.2,0,0,0,.213-1.064c0-.426.426-.825.8-1.144.213-.186.479-.452.479-.559,0-.213-.559-.692-1.091-1.037l-.027-.027-.027-.026c-.186-.372-.851-1.3-1.463-1.3-.532,0-.958-.452-1.356-.9-.292-.319-.612-.665-.9-.718-.558-.08-.692-.745-.8-1.33a2.142,2.142,0,0,0-.266-.878,1.236,1.236,0,0,1-.107-1.277c.186-.4.612-.479,1.011-.133a.985.985,0,0,0,1.383-.16.581.581,0,0,0-.027-.585,8.3,8.3,0,0,0-.771-1.117,2.62,2.62,0,0,1-.745-1.33,4.138,4.138,0,0,1,.106-.665c.133-.638.319-1.516-.133-1.782a3.527,3.527,0,0,1-1.7-1.915,2.476,2.476,0,0,0-.958-1.17l-.9.08c-.16.452-.692,1.7-1.117,1.915a6.054,6.054,0,0,1-.771.266,7.263,7.263,0,0,0-1.915.8,1.044,1.044,0,0,1-.612.16,7.054,7.054,0,0,1-1.835-.452,6.413,6.413,0,0,0-1.756-.426,1.459,1.459,0,0,0-1.383.878c-.053.133-.027.24.08.293.585.346.532,2.261.506,2.713.239.984.824,2.554,1.41,2.421a1,1,0,0,1,.292-.026,1.578,1.578,0,0,1,1.516,1.011.467.467,0,0,1-.426.505c-.8.186-1.17,1.117-1.277,1.889a6.3,6.3,0,0,0-.026.718c-.027.665-.027,1.383-.638,1.49s-1.144.266-1.144,1.33c0,.878-.692,1.064-1.17,1.171-.186.053-.425.106-.452.186a8.14,8.14,0,0,0-.346,1.011,6.9,6.9,0,0,1-.771,1.942,1.957,1.957,0,0,1-.771.319c-.612.186-1.383.426-1.437.958-.106.984-1.011,2.314-1.7,2.181-.106-.027-.213-.053-.346-.08a3.03,3.03,0,0,0-.8-.16.5.5,0,0,0-.505.266.514.514,0,0,1-.505.292,2.638,2.638,0,0,1-.9-.266,2.093,2.093,0,0,0-.612-.213H2434l-.24.239c-.532.479-1.729,1.569-1.729,2.234,0,.293.266.452.718.692.479.266,1.064.585,1.011,1.277a3.693,3.693,0,0,0,1.144,2.66c.532.559,1.49,1.915.984,2.687a1.551,1.551,0,0,1-1.383.718,3.335,3.335,0,0,1-.825-.106,1.3,1.3,0,0,0-.8.053,2.237,2.237,0,0,1-.878.16,3.584,3.584,0,0,1-.878-.106,2.929,2.929,0,0,0-.479-.053c-.8,0-1.091.479-1.41,1.064-.133.213-.266.452-.426.665-.026.027-.026.053-.053.08a4.774,4.774,0,0,1,.665.771,3.956,3.956,0,0,0,1.649,1.41,2.029,2.029,0,0,0,.718.133,3.446,3.446,0,0,0,1.224-.266,2.626,2.626,0,0,1,.665-.16c.213,0,.479.106.479.612,0,.9-1.542,1.064-2.793,1.2a5.907,5.907,0,0,0-.958.133c.319.638,3.511,4.5,5.373,4.5a.4.4,0,0,0,.186-.027,3.872,3.872,0,0,0,2.82-2.314c0-.053.027-.16-.027-.186a.618.618,0,0,1-.24-.745C2438.6,832.685,2439.052,832.153,2439.5,832.153Z" transform="translate(-2373.285 -792.2)"/><g class="j" transform="matrix(1, 0, 0, 1, -4.5, -0.1)"><rect class="b" width="66" height="15" transform="translate(4.5 55.62)"/></g><text class="c" transform="translate(33 67.521)"><tspan x="-28.875" y="0">MUMBAI - HQ</tspan></text><line class="d" x2="15.088" transform="translate(61.91 19.006)"/><g class="i" transform="matrix(1, 0, 0, 1, -4.5, -0.1)"><path class="e" d="M471.373,108.037a4.772,4.772,0,0,1-.457,2.046c-.74,1.564-4.108,6.4-4.108,6.4s-3.288-4.783-4.05-6.282a4.771,4.771,0,0,1-.515-2.166,4.567,4.567,0,1,1,9.13,0Z" transform="translate(-385 -91.36)"/></g><ellipse class="b" cx="1.624" cy="1.624" rx="1.624" ry="1.624" transform="translate(75.689 14.836)"/><g class="h" transform="matrix(1, 0, 0, 1, -4.5, -0.1)"><text class="f" transform="translate(16.55 22.13)"><tspan x="0" y="0">NEW DELHI</tspan></text></g><path class="d" d="M0,11.2H31.9V0" transform="translate(74.371 57.296) rotate(180)"/><g class="g" transform="matrix(1, 0, 0, 1, -4.5, -0.1)"><path class="e" d="M471.373,108.037a4.772,4.772,0,0,1-.457,2.046c-.74,1.564-4.108,6.4-4.108,6.4s-3.288-4.783-4.05-6.282a4.771,4.771,0,0,1-.515-2.166,4.567,4.567,0,1,1,9.13,0Z" transform="translate(-387.94 -63.34)"/></g><ellipse class="b" cx="1.624" cy="1.624" rx="1.624" ry="1.624" transform="translate(72.75 42.852)"/></g></svg>