<svg xmlns="http://www.w3.org/2000/svg" xmlns:xlink="http://www.w3.org/1999/xlink" width="63.318" height="66.682" viewBox="0 0 63.318 66.682"><defs><clipPath id="a"><rect width="63.318" height="66.682" fill="none" stroke="#4e8abe" stroke-width="2.6"/></clipPath></defs><g transform="translate(0 0)"><line y1="10.604" transform="translate(3.7 35.588)" fill="none" stroke="#4e8abe" stroke-linecap="round" stroke-linejoin="round" stroke-width="2.6"/><line y1="17.145" transform="translate(10.195 29.047)" fill="none" stroke="#4e8abe" stroke-linecap="round" stroke-linejoin="round" stroke-width="2.6"/><line y1="23.644" transform="translate(16.69 22.548)" fill="none" stroke="#4e8abe" stroke-linecap="round" stroke-linejoin="round" stroke-width="2.6"/><line y1="30.17" transform="translate(23.185 16.022)" fill="none" stroke="#4e8abe" stroke-linecap="round" stroke-linejoin="round" stroke-width="2.6"/><line y1="23.632" transform="translate(29.68 22.56)" fill="none" stroke="#4e8abe" stroke-linecap="round" stroke-linejoin="round" stroke-width="2.6"/><line y1="30.224" transform="translate(36.175 15.968)" fill="none" stroke="#4e8abe" stroke-linecap="round" stroke-linejoin="round" stroke-width="2.6"/><line y2="36.722" transform="translate(42.67 9.47)" fill="none" stroke="#4e8abe" stroke-linecap="round" stroke-linejoin="round" stroke-width="2.6"/><g transform="translate(0 0)"><g clip-path="url(#a)"><path d="M4,35.93,23.553,16.363l6.456,6.456L48.821,4" transform="translate(-0.342 -0.342)" fill="none" stroke="#4e8abe" stroke-linecap="round" stroke-linejoin="round" stroke-width="2.6"/></g></g><path d="M4,36.262,23.553,16.7l6.456,6.456L45.263,7.891" transform="translate(-0.342 -0.674)" fill="none" stroke="#4e8abe" stroke-linecap="round" stroke-linejoin="round" stroke-width="2.6"/><g transform="translate(0 0)"><g clip-path="url(#a)"><path d="M44.838,3.878h7.47v7.47" transform="translate(-3.83 -0.331)" fill="none" stroke="#4e8abe" stroke-linecap="round" stroke-linejoin="round" stroke-width="2.6"/><path d="M58.649,48.328A13.448,13.448,0,1,1,45.206,34.551,13.613,13.613,0,0,1,58.649,48.328" transform="translate(-2.713 -2.951)" fill="#fff" stroke="#4e8abe" stroke-width="2.6"/><ellipse cx="13.444" cy="13.777" rx="13.444" ry="13.777" transform="translate(29.05 31.6)" fill="none" stroke="#4e8abe" stroke-linecap="round" stroke-linejoin="round" stroke-width="2.6"/><ellipse cx="13.444" cy="13.777" rx="13.444" ry="13.777" transform="translate(29.05 31.6)" fill="none" stroke="#4e8abe" stroke-linecap="round" stroke-linejoin="round" stroke-width="2.6"/><path d="M36.818,48.771a8.931,8.931,0,0,1,8.82-9.039" transform="translate(-3.145 -3.394)" fill="none" stroke="#4e8abe" stroke-linecap="round" stroke-linejoin="round" stroke-width="2.6"/><path d="M54.468,62.022l7.619,7.808a2.857,2.857,0,0,0,4.115,0,3.029,3.029,0,0,0,0-4.216L58.583,57.8" transform="translate(-4.652 -4.937)" fill="none" stroke="#4e8abe" stroke-linecap="round" stroke-linejoin="round" stroke-width="2.6"/></g></g></g></svg>