<svg xmlns="http://www.w3.org/2000/svg" xmlns:xlink="http://www.w3.org/1999/xlink" width="63.318" height="63.317" viewBox="0 0 63.318 63.317"><defs><clipPath id="a"><rect width="63.318" height="63.317" fill="none" stroke="#4e8abe" stroke-width="2.6"/></clipPath></defs><g transform="translate(0 0)"><line x1="6.589" y2="6.589" transform="translate(40.837 44.339)" fill="none" stroke="#4e8abe" stroke-linecap="round" stroke-linejoin="round" stroke-width="2.6"/><line x1="6.589" y2="6.589" transform="translate(12.44 15.942)" fill="none" stroke="#4e8abe" stroke-linecap="round" stroke-linejoin="round" stroke-width="2.6"/><line x1="4.799" y2="4.799" transform="translate(45.57 50.862)" fill="none" stroke="#4e8abe" stroke-linecap="round" stroke-linejoin="round" stroke-width="2.6"/><line x1="4.799" y2="4.799" transform="translate(36.104 41.396)" fill="none" stroke="#4e8abe" stroke-linecap="round" stroke-linejoin="round" stroke-width="2.6"/><line x1="4.289" y2="4.289" transform="translate(26.639 32.44)" fill="none" stroke="#4e8abe" stroke-linecap="round" stroke-linejoin="round" stroke-width="2.6"/><line x1="4.799" y2="4.799" transform="translate(17.173 22.465)" fill="none" stroke="#4e8abe" stroke-linecap="round" stroke-linejoin="round" stroke-width="2.6"/><line x1="4.799" y2="4.799" transform="translate(7.707 12.999)" fill="none" stroke="#4e8abe" stroke-linecap="round" stroke-linejoin="round" stroke-width="2.6"/><g transform="translate(0 0)"><g clip-path="url(#a)"><line x1="47.328" y1="47.328" transform="translate(2.975 13.065)" fill="none" stroke="#4e8abe" stroke-linecap="round" stroke-linejoin="round" stroke-width="2.6"/><rect width="14.197" height="66.932" transform="translate(2.975 13.065) rotate(-45)" fill="none" stroke="#4e8abe" stroke-linecap="round" stroke-linejoin="round" stroke-width="2.6"/></g></g><path d="M54.48,3.217,7.817,49.879l-4.6,10.808,10.807-4.6L60.688,9.425Z" transform="translate(-0.293 -0.294)" fill="#fff" stroke="#4e8abe" stroke-width="2.6"/><g transform="translate(0 0)"><g clip-path="url(#a)"><path d="M54.48,3.217,7.817,49.879l-4.6,10.808,10.807-4.6L60.688,9.425Z" transform="translate(-0.293 -0.293)" fill="none" stroke="#4e8abe" stroke-linecap="round" stroke-linejoin="round" stroke-width="2.6"/><path d="M54.48,3.217,7.817,49.879h0l-4.6,10.807,10.807-4.6L60.688,9.425Z" transform="translate(-0.293 -0.293)" fill="none" stroke="#4e8abe" stroke-linecap="round" stroke-linejoin="round" stroke-width="2.6"/><path d="M54.5,8.34l8.474,8.474a1.437,1.437,0,0,1,0,2.03l-8.332,8.332" transform="translate(-4.973 -0.761)" fill="none" stroke="#4e8abe" stroke-linecap="round" stroke-linejoin="round" stroke-width="2.6"/><line x2="3.565" y2="3.565" transform="translate(10.166 52.228)" fill="none" stroke="#4e8abe" stroke-linecap="round" stroke-linejoin="round" stroke-width="2.6"/></g></g></g></svg>