<svg xmlns="http://www.w3.org/2000/svg" width="123.637" height="123.621" viewBox="0 0 123.637 123.621">
  <g id="Eliminate_Barriers_icon_" data-name="Eliminate Barriers icon " transform="translate(-3.56)">
    <path id="Path_48052" data-name="Path 48052" d="M76.039,57.159a1.449,1.449,0,0,1-.15,2.044L62.025,71.188a1.467,1.467,0,0,1-.95.353.813.813,0,0,1-.153-.01,1.449,1.449,0,0,1-1-.565l-6.311-8.34a1.449,1.449,0,1,1,2.312-1.748l5.376,7.1L73.993,57.009a1.454,1.454,0,0,1,2.047.15Zm49.855,4.1a1.45,1.45,0,0,0-2.28-1.787l-3.6,4.57A55.62,55.62,0,0,0,74.406,9.66a1.449,1.449,0,0,0-.52,2.851,52.722,52.722,0,0,1,43.235,51.914c0,.192,0,.388-.008.58l-4.885-4.674a1.45,1.45,0,1,0-2.006,2.087l7.263,6.951a1.454,1.454,0,0,0,1,.4h.1a1.441,1.441,0,0,0,1.036-.55l6.268-7.973ZM60.326,16.463l4.6-4.8c-.194,0-.389-.007-.583-.007a52.747,52.747,0,0,0-51.885,43.1,1.45,1.45,0,0,1-1.424,1.185,1.585,1.585,0,0,1-.265-.023,1.452,1.452,0,0,1-1.162-1.692A55.647,55.647,0,0,1,64.144,8.754L59.47,5.077A1.452,1.452,0,0,1,61.257,2.8L69.23,9.064a1.449,1.449,0,0,1,.15,2.14l-6.957,7.263a1.45,1.45,0,0,1-2.1-2ZM55.84,118.007a1.454,1.454,0,0,0-1.163-1.692,52.744,52.744,0,0,1-43.1-51.889c0-.246,0-.493.012-.74l4.88,4.674a1.45,1.45,0,1,0,2.006-2.092l-7.263-6.955a1.447,1.447,0,0,0-2.14.151L2.8,67.436a1.45,1.45,0,0,0,2.282,1.787l3.595-4.573A55.643,55.643,0,0,0,54.15,119.165a1.31,1.31,0,0,0,.264.025,1.452,1.452,0,0,0,1.425-1.184Zm63.275-43.525a55.616,55.616,0,0,1-54.355,45.612l4.473,3.516a1.45,1.45,0,0,1-1.787,2.28l-7.973-6.268a1.447,1.447,0,0,1-.148-2.14l6.947-7.263a1.45,1.45,0,1,1,2.095,2.006l-4.753,4.964c.246,0,.493.011.737.011a52.718,52.718,0,0,0,51.911-43.234,1.45,1.45,0,1,1,2.854.52ZM64.347,85.909A21.482,21.482,0,1,0,42.864,64.426,21.482,21.482,0,0,0,64.347,85.909ZM88.73,64.425A24.382,24.382,0,1,0,64.346,88.81,24.382,24.382,0,0,0,88.73,64.425ZM58.588,104.093h11.52l1.228-6.938A1.447,1.447,0,0,1,72.4,96a32.319,32.319,0,0,0,8.575-3.555,1.449,1.449,0,0,1,1.573.058l5.773,4.04L96.468,88.4l-4.04-5.773a1.457,1.457,0,0,1-.058-1.574,32.373,32.373,0,0,0,3.555-8.568,1.445,1.445,0,0,1,1.153-1.069l6.936-1.228V58.666l-6.936-1.229a1.446,1.446,0,0,1-1.153-1.068A32.39,32.39,0,0,0,92.371,47.8a1.449,1.449,0,0,1,.058-1.573l4.04-5.773-8.144-8.144-5.773,4.04a1.449,1.449,0,0,1-1.573.058,32.355,32.355,0,0,0-8.569-3.555A1.446,1.446,0,0,1,71.34,31.7l-1.232-6.946H58.588L57.36,31.694a1.447,1.447,0,0,1-1.071,1.151A32.365,32.365,0,0,0,47.715,36.4a1.447,1.447,0,0,1-1.571-.058L40.37,32.3l-8.144,8.144,4.04,5.773a1.449,1.449,0,0,1,.058,1.573,32.264,32.264,0,0,0-3.552,8.576A1.452,1.452,0,0,1,31.62,57.44l-6.94,1.229v11.52l6.938,1.228a1.443,1.443,0,0,1,1.152,1.069,32.429,32.429,0,0,0,3.555,8.571,1.447,1.447,0,0,1-.058,1.571L32.226,88.4l8.144,8.144,5.773-4.04a1.457,1.457,0,0,1,1.574-.058A32.328,32.328,0,0,0,56.285,96a1.449,1.449,0,0,1,1.071,1.152l1.228,6.938Zm14.158,1.7,1.277-7.228a35.221,35.221,0,0,0,7.612-3.162l6.018,4.209a1.452,1.452,0,0,0,1.857-.162l9.863-9.865a1.447,1.447,0,0,0,.164-1.856l-4.2-6.015a35.273,35.273,0,0,0,3.162-7.61l7.226-1.278a1.453,1.453,0,0,0,1.2-1.428V57.449a1.45,1.45,0,0,0-1.2-1.427l-7.229-1.28a35.164,35.164,0,0,0-3.162-7.611l4.206-6.019a1.447,1.447,0,0,0-.164-1.856l-9.857-9.863a1.45,1.45,0,0,0-1.857-.164l-6.018,4.209a35.2,35.2,0,0,0-7.612-3.162l-1.277-7.229a1.452,1.452,0,0,0-1.428-1.2H57.371a1.452,1.452,0,0,0-1.428,1.2l-1.278,7.229a35.126,35.126,0,0,0-7.61,3.162L41.035,29.23a1.447,1.447,0,0,0-1.856.164l-9.864,9.864a1.447,1.447,0,0,0-.158,1.854l4.209,6.018a35.165,35.165,0,0,0-3.162,7.611l-7.229,1.28a1.449,1.449,0,0,0-1.2,1.427V71.4a1.452,1.452,0,0,0,1.2,1.428l7.229,1.278a35.126,35.126,0,0,0,3.162,7.61l-4.209,6.021a1.447,1.447,0,0,0,.164,1.856l9.864,9.865a1.449,1.449,0,0,0,1.856.162l6.014-4.212a35.257,35.257,0,0,0,7.61,3.162l1.278,7.228a1.452,1.452,0,0,0,1.428,1.2H71.323a1.452,1.452,0,0,0,1.428-1.2Z" transform="translate(1.035 -2.537)" fill="#0084c7" fill-rule="evenodd"/>
  </g>
</svg>
