<svg xmlns="http://www.w3.org/2000/svg" width="114.864" height="114.862" viewBox="0 0 114.864 114.862">
  <g id="Unlock_Sustainability_icon" data-name="Unlock Sustainability icon" transform="translate(-4.405)">
    <path id="Path_48054" data-name="Path 48054" d="M92.844,73.986c-.756-1.2-1.536-2.436-2.273-3.642a.2.2,0,0,1-.024-.034.879.879,0,0,0-.081-.105.657.657,0,0,0-.077-.086c-.029-.029-.057-.053-.086-.077s-.072-.057-.105-.081a.086.086,0,0,0-.034-.024.361.361,0,0,0-.062-.029.681.681,0,0,0-.12-.057,1,1,0,0,0-.11-.038.877.877,0,0,0-.12-.029.511.511,0,0,0-.12-.014,1,1,0,0,0-.12,0c-.038,0-.077,0-.115,0a1.117,1.117,0,0,0-.124.019l-.115.029a1.076,1.076,0,0,0-.115.038.551.551,0,0,0-.12.057c-.024.01-.043.019-.062.029a.145.145,0,0,1-.034.024.881.881,0,0,0-.105.081c-.029.024-.062.048-.091.077s-.053.057-.077.086-.057.072-.081.105a.086.086,0,0,0-.024.034c-.742,1.211-1.522,2.446-2.273,3.642-3.747,5.939-7.619,12.085-8.816,17.976-1.4,6.9,1.048,12.486,7.495,17.077h0a1.319,1.319,0,0,0,.139.081,1.22,1.22,0,0,0,.335.12l.053.014c.038,0,.072,0,.11.01s.053,0,.081,0h.01a.991.991,0,0,0,.168-.014c.019,0,.034,0,.053-.01a1.434,1.434,0,0,0,.153-.038.043.043,0,0,1,.024,0,0,0,0,0,0,0,0,1.283,1.283,0,0,0,.2-.091.208.208,0,0,0,.033-.019,1.127,1.127,0,0,0,.172-.124l.029-.029a1.165,1.165,0,0,0,.124-.139c.01-.01.014-.019.024-.029s.01-.01.01-.014a.617.617,0,0,0,.043-.077c.024-.043.048-.081.072-.124a1.119,1.119,0,0,0,.043-.115.807.807,0,0,0,.038-.115,1.117,1.117,0,0,0,.019-.124.94.94,0,0,0,.014-.115,1.041,1.041,0,0,0,0-.124c0-.038,0-.077-.01-.115s-.024-.1-.033-.144c-.01-.029-.01-.053-.019-.081-1.422-4.1.641-9.089,2.762-13.956,2.12,4.872,4.183,9.864,2.762,13.956-.01.024-.01.053-.019.081a.778.778,0,0,0-.034.144c0,.038,0,.077-.01.115a1.124,1.124,0,0,0,0,.124.942.942,0,0,0,.014.115,1.117,1.117,0,0,0,.019.124,1.082,1.082,0,0,0,.038.115,1.121,1.121,0,0,0,.043.115c.019.043.048.081.072.124a.617.617,0,0,0,.043.077s.01.01.01.014.014.019.024.029a1.717,1.717,0,0,0,.124.139l.029.029a.876.876,0,0,0,.172.124.12.12,0,0,0,.034.019,1.911,1.911,0,0,0,.2.1s0,0,0,0a.029.029,0,0,0,.019,0c.053.014.1.029.153.038.019,0,.034,0,.053.01a.99.99,0,0,0,.168.014h.01c.029,0,.053,0,.077,0s.072,0,.11-.01a.17.17,0,0,1,.048-.01,1.325,1.325,0,0,0,.349-.124c.043-.024.086-.048.129-.077h0c6.442-4.59,8.9-10.175,7.495-17.077-1.182-5.911-5.054-12.051-8.8-17.991Zm2.388,30.97c.1-4.169-1.814-8.553-3.676-12.822-.3-.7-.608-1.393-.9-2.087a.617.617,0,0,0-.043-.077c-.024-.043-.043-.086-.072-.129s-.048-.062-.072-.091-.053-.067-.081-.1-.062-.053-.091-.081-.062-.053-.1-.077a1.028,1.028,0,0,0-.124-.067A.667.667,0,0,0,90,89.387a.017.017,0,0,1-.01,0,1.179,1.179,0,0,0-.139-.043.726.726,0,0,0-.1-.029.273.273,0,0,0-.062,0,1.346,1.346,0,0,0-.416,0,.148.148,0,0,1-.038.01,1.034,1.034,0,0,0-.2.062s0,0-.01,0c-.024.01-.043.024-.062.034a.851.851,0,0,0-.144.081,1.052,1.052,0,0,0-.086.067.867.867,0,0,0-.1.086c-.029.029-.053.062-.081.091s-.053.062-.072.091-.048.086-.072.129c-.014.024-.029.048-.043.077-.292.694-.6,1.388-.9,2.087-1.862,4.269-3.771,8.653-3.676,12.822-8.849-8.486-2.36-18.785,4.489-29.644q.61-.969,1.23-1.962c.412.66.828,1.316,1.23,1.962,6.844,10.859,13.339,21.159,4.489,29.649ZM92.375,61.174v-31.7a1.492,1.492,0,0,0-1.493-1.493l-21.566,0a1.492,1.492,0,0,0-1.493,1.493V52.449H49.238l0-8.792a1.492,1.492,0,0,0-1.493-1.493l-21.566,0a1.492,1.492,0,0,0-1.493,1.493v24.61l-20.073,0A1.492,1.492,0,0,0,3.124,69.76v33.277a1.492,1.492,0,0,0,1.493,1.493H65.328A28.474,28.474,0,1,0,92.373,61.174ZM70.809,30.97H89.393V61.031a28.378,28.378,0,0,0-18.584,7.016ZM27.678,45.151H46.262v56.393H27.678Zm-2.986,26.1v30.3H6.107v-30.3Zm24.552,30.3V55.432H67.827V71.073a28.426,28.426,0,0,0-4.116,30.478Zm40.264,13.458a25.5,25.5,0,1,1,25.5-25.5A25.526,25.526,0,0,1,89.507,115.008ZM3.456,45.836a1.49,1.49,0,0,1,.225-2.1l32.348-26.1a1.5,1.5,0,0,1,1.579-.187l20.748,9.888L85.986,6.446l-6.045.416a1.492,1.492,0,0,1-.2-2.977L90.781,3.13h0a1.094,1.094,0,0,1,.177,0,.061.061,0,0,1,.029,0l.144.014c.014,0,.029,0,.043.01a1.369,1.369,0,0,1,.134.034c.01,0,.024,0,.034.01a1.339,1.339,0,0,1,.316.144l.029.014c.038.024.077.053.115.081.01.01.024.019.034.029.034.029.067.057.1.086a.22.22,0,0,1,.034.034l.115.129c.034.048.067.1.1.144.01.014.014.029.024.043l.057.115a.5.5,0,0,1,.019.048c.014.043.029.081.043.124a.113.113,0,0,1,.01.038,1.577,1.577,0,0,1,.053.335v.048a1.082,1.082,0,0,1,0,.124c0,.019,0,.038,0,.053a1.2,1.2,0,0,1-.019.129c0,.014,0,.024-.01.038-.014.053-.029.11-.048.163,0,0,0,0,0,.01L88.556,15.549a1.5,1.5,0,0,1-1.4.986,1.541,1.541,0,0,1-.5-.086,1.494,1.494,0,0,1-.9-1.91l2.044-5.7L59.434,30.266a1.494,1.494,0,0,1-1.541.158L37.174,20.546,5.553,46.06a1.483,1.483,0,0,1-.933.33,1.5,1.5,0,0,1-1.163-.555Z" transform="translate(1.281 -3.126)" fill="#0084c7"/>
  </g>
</svg>
