<svg xmlns="http://www.w3.org/2000/svg" width="82.845" height="103.293" viewBox="0 0 82.845 103.293">
  <g id="risk" transform="translate(-13.953)">
    <path id="Path_48055" data-name="Path 48055" d="M20.361,72.115a1.378,1.378,0,0,1-1.19-.686L10.08,55.681a1.373,1.373,0,0,1,.3-1.735l8.312-7.041a33.227,33.227,0,0,1,0-9.066L10.382,30.8a1.374,1.374,0,0,1-.3-1.735L19.17,13.315a1.37,1.37,0,0,1,1.654-.605l10.261,3.68a32.672,32.672,0,0,1,7.852-4.539L40.878,1.134A1.372,1.372,0,0,1,42.23,0H60.411a1.372,1.372,0,0,1,1.352,1.13L63.7,11.85a32.947,32.947,0,0,1,7.852,4.539l10.257-3.68a1.381,1.381,0,0,1,1.654.605l9.091,15.748a1.373,1.373,0,0,1-.3,1.735l-8.312,7.041a33.256,33.256,0,0,1,0,9.07l8.312,7.041a1.375,1.375,0,0,1,.3,1.735L83.467,71.433a1.373,1.373,0,0,1-1.654.605l-10.257-3.68A32.982,32.982,0,0,1,65.919,71.9a1.372,1.372,0,0,1-1.824-.585L51.317,47.239,38.539,71.316a1.37,1.37,0,0,1-1.824.585,32.949,32.949,0,0,1-5.633-3.543l-10.261,3.68a1.339,1.339,0,0,1-.464.081ZM13.033,55.3l7.945,13.759,9.9-3.551a1.368,1.368,0,0,1,1.336.23,30.216,30.216,0,0,0,4.539,3.075L50.106,43.661a1.375,1.375,0,0,1,2.429,0L65.887,68.818a30.553,30.553,0,0,0,4.543-3.075,1.378,1.378,0,0,1,1.336-.23l9.9,3.551L89.6,55.305,81.582,48.51a1.373,1.373,0,0,1-.468-1.267,30.5,30.5,0,0,0,0-9.74,1.373,1.373,0,0,1,.468-1.267L89.6,29.442,81.663,15.683l-9.9,3.551A1.37,1.37,0,0,1,70.426,19,30.189,30.189,0,0,0,62,14.129a1.377,1.377,0,0,1-.867-1.041L59.261,2.751H43.376L41.5,13.088a1.369,1.369,0,0,1-.867,1.041A30.145,30.145,0,0,0,32.211,19a1.38,1.38,0,0,1-1.336.23l-9.9-3.551L13.03,29.442l8.021,6.795a1.373,1.373,0,0,1,.468,1.267,30.41,30.41,0,0,0-.391,4.87,30.845,30.845,0,0,0,.391,4.87,1.373,1.373,0,0,1-.468,1.267L13.03,55.305Z" transform="translate(4.057 -0.004)" fill="#0084c7" fill-rule="evenodd"/>
    <path id="Path_48056" data-name="Path 48056" d="M32.1,59.175a1.373,1.373,0,0,1-1.041-.476,26.146,26.146,0,0,1,.077-34.316,1.375,1.375,0,1,1,2.07,1.812A23.4,23.4,0,0,0,33.141,56.9,1.376,1.376,0,0,1,32.1,59.179Zm38.779-1.658a1.357,1.357,0,0,1-.807-.262,1.375,1.375,0,0,1-.3-1.921,23.406,23.406,0,0,0-.327-27.945,1.374,1.374,0,1,1,2.183-1.67A26.158,26.158,0,0,1,72,56.944a1.366,1.366,0,0,1-1.114.569Z" transform="translate(4.544 0.784)" fill="#0084c7" fill-rule="evenodd"/>
    <path id="Path_48057" data-name="Path 48057" d="M58.105,59.055a1.37,1.37,0,0,1-1.215-.73l-6.278-11.83-6.278,11.83a1.375,1.375,0,0,1-1.8.6,19.081,19.081,0,1,1,16.149,0,1.371,1.371,0,0,1-.581.133ZM50.613,42.189a1.378,1.378,0,0,1,1.215.73l6.855,12.916a16.337,16.337,0,1,0-16.139,0L49.4,42.92a1.378,1.378,0,0,1,1.215-.73Z" transform="translate(4.769 0.739)" fill="#0084c7" fill-rule="evenodd"/>
    <path id="Path_48058" data-name="Path 48058" d="M81.615,101.924H20.442a1.383,1.383,0,0,1-1.178-.666,1.369,1.369,0,0,1-.036-1.352l30.58-57.614a1.375,1.375,0,0,1,2.429,0L82.725,99.738a1.351,1.351,0,0,1,.266.815,1.378,1.378,0,0,1-1.376,1.376ZM22.726,99.177H79.311L51.018,45.868Z" transform="translate(4.359 1.365)" fill="#0084c7" fill-rule="evenodd"/>
    <path id="Path_48059" data-name="Path 48059" d="M50.044,82.129a1.378,1.378,0,0,1-1.376-1.376V62.806a1.376,1.376,0,1,1,2.752,0V80.757a1.378,1.378,0,0,1-1.376,1.376Z" transform="translate(5.334 2.019)" fill="#0084c7" fill-rule="evenodd"/>
    <path id="Path_48060" data-name="Path 48060" d="M50.044,94.093a1.378,1.378,0,0,1-1.376-1.376v-4.6a1.376,1.376,0,0,1,2.752,0v4.6A1.378,1.378,0,0,1,50.044,94.093Z" transform="translate(5.334 2.853)" fill="#0084c7" fill-rule="evenodd"/>
  </g>
</svg>
