<svg xmlns="http://www.w3.org/2000/svg" width="112.302" height="112.286" viewBox="0 0 112.302 112.286">
  <g id="Environmental_Technical" data-name="Environmental Technical" transform="translate(-14.111)">
    <path id="Path_48061" data-name="Path 48061" d="M106.827,12.775a10.516,10.516,0,0,0-10.99,9.053l4.485-4.485a1.37,1.37,0,1,1,1.937,1.937l-4.485,4.486a10.516,10.516,0,0,0,9.054-10.99ZM65.184,88.724a1.368,1.368,0,1,1,.706-2.643l16.1,4.314a5.5,5.5,0,1,0,2.85-10.626L52.643,71.142a5.473,5.473,0,0,0-4.175.554L26.974,84.106l13.985,24.221,5.841-3.505a8.1,8.1,0,0,1,6.264-.828L70.256,108.6a12.187,12.187,0,0,0,4.26.507,8.979,8.979,0,0,0,3.733-1.272l38.436-24.949c2.193-1.423,3-3.15,2.876-4.655-.232-2.839-3.564-4.777-7.069-2.754v0l0,0c-6.294,3.633-14.892,9.34-21.317,12.368a8.267,8.267,0,0,1-9.889,5.193l-16.1-4.314Zm-45.5-4.466A3.682,3.682,0,1,1,16,87.94a3.686,3.686,0,0,1,3.682-3.682Zm.667,3.015a.943.943,0,0,0-1.334,1.334.943.943,0,0,0,1.334-1.334Zm-8.363-4.092L19.406,78.9v0A3.951,3.951,0,0,1,24.8,80.336l.813,1.408,21.5-12.412a8.222,8.222,0,0,1,6.24-.832l32.193,8.626a8.269,8.269,0,0,1,6.072,7.253l19.51-11.264v0c5.335-3.08,10.777.142,11.167,4.9.2,2.42-.951,5.1-4.118,7.158L79.687,110.157l-.059.037h0c-3.375,1.949-6.315,2.058-10.079,1.05l-17.192-4.607a5.336,5.336,0,0,0-4.156.528l-5.877,3.527c.86,1.49,1.706,2.589,1.216,4.419a3.923,3.923,0,0,1-1.912,2.438l-7.243,4.182a3.957,3.957,0,0,1-5.562-1.491L10.537,88.568a3.943,3.943,0,0,1,1.447-5.387Zm8.785-1.923,0,0v0a1.226,1.226,0,0,1,1.658.447l18.3,31.693a1.352,1.352,0,0,0,.081.144,1.237,1.237,0,0,1-.42,1.566l-7.48,4.324a1.23,1.23,0,0,1-1.663-.448L12.9,87.209a1.235,1.235,0,0,1,.442-1.664l7.426-4.287Zm97.195-39.79a30.238,30.238,0,0,1-60.476,0,1.37,1.37,0,0,1,1.37-1.37h27.5V32.444l-5.907-5.908a13.262,13.262,0,0,1-14.424-15.21,1.37,1.37,0,0,1,1.18-1.155A13.253,13.253,0,0,1,82.385,24.6l5.341,5.341L93.067,24.6a13.253,13.253,0,0,1,15.18-14.428,1.37,1.37,0,0,1,1.18,1.155A13.262,13.262,0,0,1,95,26.536l-5.908,5.908V40.1l27.5-.012a1.37,1.37,0,0,1,1.37,1.381Zm-9.721,18.309c-1.448-1.41-3.013-3.184-2.963-5.811.118-6.268-3.9-7.984-5.436-11.129h-11.9a9.319,9.319,0,0,1-.618,3.663,7.441,7.441,0,0,1-3.108,3.691,1.568,1.568,0,0,0-.7,1.375c.134.942,1.2,2.014,1.971,2.8,2.188,2.226,5.638,5.735,3.224,8.763-3.106,3.9-6.411-3.033-11.375-2.948a4.186,4.186,0,0,1-2.871-.9c-1.5-1.32-1.2-2.488-.824-3.991.348-1.376.822-3.243-2.159-6.354-2.8-2.922-6.514-1.291-9.686.1l-.461.2a27.506,27.506,0,0,0,46.9,10.537ZM103.1,42.838c.252.317.533.642.824.98,1.9,2.2,4.185,4.85,4.085,10.192a5.338,5.338,0,0,0,1.96,3.631,27.358,27.358,0,0,0,5.222-14.8Zm-42.4,3.7.016-.007c3.974-1.745,8.63-3.789,12.746.508,4.034,4.211,3.349,6.918,2.844,8.911-.26,1.027-.349,1.523,1,1.5,3.044-.052,5.345,1.546,7.2,2.832,1.1.762,1.927,1.338,2.082,1.143,1.127-1.414-2.766-4.74-4.044-6.209-1.96-2.252-2.72-4.905.005-7.188h0a1.38,1.38,0,0,1,.192-.134,5.346,5.346,0,0,0,2.485-5.062H60.261a27.43,27.43,0,0,0,.434,3.7ZM77.677,23.766,73.192,19.28a1.369,1.369,0,1,1,1.937-1.937l4.485,4.486a10.516,10.516,0,0,0-10.99-9.054,10.516,10.516,0,0,0,9.053,10.99Z" transform="translate(4.103 -10.035)" fill="#0084c7" fill-rule="evenodd"/>
  </g>
</svg>
