<svg xmlns="http://www.w3.org/2000/svg" width="112.306" height="112.286" viewBox="0 0 112.306 112.286">
  <path id="negotiation" d="M100.135,64.866a13.52,13.52,0,1,0-13.52-13.52A13.534,13.534,0,0,0,100.135,64.866Zm0-24.752A11.227,11.227,0,1,1,88.908,51.341,11.237,11.237,0,0,1,100.135,40.114Zm5.344,28.095H97.57c-5.7,0-9.835,1.721-11.642,4.858L75.506,91.116H61.714a9.462,9.462,0,0,0-1.573.148,8.624,8.624,0,0,0-1.573-.148H44.775L34.354,73.067c-1.807-3.137-5.945-4.858-11.642-4.858H14.8A10.812,10.812,0,0,0,4,79.012v33.843a3.437,3.437,0,0,0,3.442,3.428h23.8a3.447,3.447,0,0,0,3.442-3.442v-5.564A8.83,8.83,0,0,0,39.7,108.85H58.577a9.758,9.758,0,0,0,1.573-.148,8.625,8.625,0,0,0,1.573.148H80.6a8.83,8.83,0,0,0,5.015-1.573v5.564a3.447,3.447,0,0,0,3.442,3.442h23.8a3.447,3.447,0,0,0,3.442-3.442l0-33.83a10.848,10.848,0,0,0-10.827-10.8ZM39.685,106.567a6.573,6.573,0,0,1-5.211-2.589l-6.689-11.47a1.144,1.144,0,1,0-1.978,1.149l6.565,11.265v7.919a1.15,1.15,0,0,1-1.149,1.149H7.443a1.15,1.15,0,0,1-1.149-1.149V79.012A8.519,8.519,0,0,1,14.8,70.507h7.909c2.808,0,7.8.477,9.668,3.709l10.75,18.627a1.157,1.157,0,0,0,.987.572H55.78a8.828,8.828,0,0,0,0,13.158Zm74.3,6.274a1.15,1.15,0,0,1-1.149,1.149h-23.8a1.15,1.15,0,0,1-1.149-1.149v-7.919l6.565-11.265a1.144,1.144,0,1,0-1.978-1.149l-6.689,11.47a6.581,6.581,0,0,1-5.211,2.589H61.715a6.579,6.579,0,1,1,0-13.158h14.45a1.122,1.122,0,0,0,.987-.572L87.9,74.211c1.869-3.232,6.86-3.709,9.668-3.709h7.909a8.519,8.519,0,0,1,8.505,8.505ZM20.148,64.867A13.52,13.52,0,1,0,6.623,51.342,13.534,13.534,0,0,0,20.148,64.867Zm0-24.752A11.227,11.227,0,1,1,8.921,51.342,11.237,11.237,0,0,1,20.148,40.115ZM33.62,35.138h1.43V40.7a2.9,2.9,0,0,0,1.831,2.732,2.993,2.993,0,0,0,1.158.234,2.915,2.915,0,0,0,2.074-.877l7.652-7.652H49.3v.987A5.1,5.1,0,0,0,54.4,41.216H70.334l6.445,6.445a2.645,2.645,0,0,0,1.878.791,2.8,2.8,0,0,0,1.049-.21,2.653,2.653,0,0,0,1.659-2.489V41.2h1.049a5.1,5.1,0,0,0,5.092-5.092v-16.6a5.1,5.1,0,0,0-5.092-5.092H72.408V9.779A5.785,5.785,0,0,0,66.625,4l-33,0a5.785,5.785,0,0,0-5.783,5.783V29.336a5.8,5.8,0,0,0,5.783,5.8Zm38.8-5.8V16.721H82.424a2.8,2.8,0,0,1,2.794,2.794v16.6a2.8,2.8,0,0,1-2.794,2.794H80.24a1.15,1.15,0,0,0-1.149,1.149v5.7a.373.373,0,0,1-.243.367.391.391,0,0,1-.439-.086l-6.784-6.784a1.1,1.1,0,0,0-.806-.348H54.406a2.8,2.8,0,0,1-2.794-2.794v-.987H66.635a5.786,5.786,0,0,0,5.783-5.788ZM30.131,9.785a3.513,3.513,0,0,1,3.5-3.5H66.649a3.513,3.513,0,0,1,3.5,3.5V29.337a3.513,3.513,0,0,1-3.5,3.5H47.3a1.114,1.114,0,0,0-.806.343L38.5,41.179a.672.672,0,0,1-1.149-.477V33.99A1.15,1.15,0,0,0,36.2,32.841H33.63a3.513,3.513,0,0,1-3.5-3.5Zm6.26,5.788a1.15,1.15,0,0,1,1.149-1.149H62.716a1.149,1.149,0,1,1,0,2.3H37.54A1.15,1.15,0,0,1,36.391,15.573Zm0,7.981A1.15,1.15,0,0,1,37.54,22.4h12.6a1.149,1.149,0,0,1,0,2.3H37.54a1.15,1.15,0,0,1-1.149-1.149ZM44.3,66.159A15.841,15.841,0,1,0,60.141,50.318,15.855,15.855,0,0,0,44.3,66.159Zm29.391,0A13.549,13.549,0,1,1,60.141,52.61,13.565,13.565,0,0,1,73.691,66.159ZM56.442,69.015l9.826-8.238a1.144,1.144,0,1,1,1.464,1.759l-10.75,9.006a1.149,1.149,0,0,1-.734.267.368.368,0,0,1-.124-.014,1.174,1.174,0,0,1-.782-.439l-4.257-5.578a1.15,1.15,0,1,1,1.831-1.392Z" transform="translate(-4 -3.996)" fill="#0084c7"/>
</svg>
