<svg xmlns="http://www.w3.org/2000/svg" width="118.817" height="118.844" viewBox="0 0 118.817 118.844">
  <path id="post-deal" d="M39.421,36.98a4.475,4.475,0,0,1,3.537,2.392,4.485,4.485,0,0,1-.827,4.2,3.409,3.409,0,0,0,.156,4.042,26.839,26.839,0,0,0,4.4,4.42,3.417,3.417,0,0,0,4.042.156,4.527,4.527,0,0,1,4.2-.827c1.2.489,2.038,1.756,2.392,3.567a3.4,3.4,0,0,0,2.972,2.75,26.771,26.771,0,0,0,6.226,0,3.4,3.4,0,0,0,2.972-2.75,4.516,4.516,0,0,1,2.392-3.567,4.485,4.485,0,0,1,4.2.827,3.409,3.409,0,0,0,4.042-.156,26.646,26.646,0,0,0,4.4-4.42,3.417,3.417,0,0,0,.156-4.042,4.527,4.527,0,0,1-.827-4.2A4.511,4.511,0,0,1,87.4,36.98a3.424,3.424,0,0,0,2.75-2.972,27.342,27.342,0,0,0,0-6.161,3.417,3.417,0,0,0-2.75-2.972,4.475,4.475,0,0,1-3.537-2.392,4.485,4.485,0,0,1,.827-4.2,3.409,3.409,0,0,0-.156-4.042,26.84,26.84,0,0,0-4.4-4.42,3.417,3.417,0,0,0-4.042-.156,4.527,4.527,0,0,1-4.2.827c-1.2-.489-2.038-1.756-2.392-3.567a3.4,3.4,0,0,0-2.972-2.75,26.31,26.31,0,0,0-6.236,0,3.4,3.4,0,0,0-2.972,2.75A4.516,4.516,0,0,1,54.922,10.5a4.485,4.485,0,0,1-4.2-.827,3.409,3.409,0,0,0-4.042.156,26.646,26.646,0,0,0-4.4,4.42,3.417,3.417,0,0,0-.156,4.042,4.527,4.527,0,0,1,.827,4.2,4.494,4.494,0,0,1-3.537,2.392,3.424,3.424,0,0,0-2.75,2.972,27.341,27.341,0,0,0,0,6.161,3.423,3.423,0,0,0,2.76,2.972Zm-.338-8.86a.975.975,0,0,1,.8-.868,6.825,6.825,0,0,0,5.323-3.835,6.808,6.808,0,0,0-1.06-6.484.969.969,0,0,1,.04-1.176,24.789,24.789,0,0,1,4.016-4.016.955.955,0,0,1,1.176-.04,6.836,6.836,0,0,0,6.5,1.06c1.978-.812,3.345-2.715,3.85-5.348a.935.935,0,0,1,.848-.827,24.314,24.314,0,0,1,5.681,0,.975.975,0,0,1,.868.8c.5,2.634,1.872,4.536,3.85,5.348s4.274.439,6.5-1.06a.969.969,0,0,1,1.176.04,24.79,24.79,0,0,1,4.016,4.016.955.955,0,0,1,.04,1.176,6.813,6.813,0,0,0-1.06,6.484,6.792,6.792,0,0,0,5.323,3.835.981.981,0,0,1,.8.868,23.8,23.8,0,0,1,0,5.621.975.975,0,0,1-.8.868,6.825,6.825,0,0,0-5.323,3.835,6.807,6.807,0,0,0,1.06,6.484.969.969,0,0,1-.04,1.176,24.789,24.789,0,0,1-4.016,4.016.955.955,0,0,1-1.176.04,6.836,6.836,0,0,0-6.5-1.06c-1.978.812-3.345,2.715-3.85,5.348a.981.981,0,0,1-.868.8,24.314,24.314,0,0,1-5.681,0,.975.975,0,0,1-.868-.8c-.5-2.634-1.872-4.536-3.85-5.348a5.6,5.6,0,0,0-2.144-.424,7.823,7.823,0,0,0-4.339,1.483.969.969,0,0,1-1.176-.04,24.789,24.789,0,0,1-4.016-4.016.955.955,0,0,1-.04-1.176,6.813,6.813,0,0,0,1.06-6.484,6.792,6.792,0,0,0-5.323-3.835.981.981,0,0,1-.8-.868,23.859,23.859,0,0,1,.005-5.6ZM63.419,45.205A14.285,14.285,0,1,0,49.134,30.92,14.3,14.3,0,0,0,63.419,45.205Zm0-26.127A11.857,11.857,0,1,1,51.561,30.935,11.876,11.876,0,0,1,63.419,19.078Zm-7.735,11.66a1.217,1.217,0,0,1,1.938-1.473l2.866,3.774,8.229-6.882a1.211,1.211,0,1,1,1.549,1.862l-9.2,7.7A1.216,1.216,0,0,1,60.29,36a.389.389,0,0,1-.131-.015,1.243,1.243,0,0,1-.827-.464Zm66.492,50.325L104.753,50.9A4.943,4.943,0,0,0,98,49.094L89.46,54.029a4.943,4.943,0,0,0-1.806,6.756l1.034,1.781-2.7,1.266a7.858,7.858,0,0,1-4.264.58c-2.286-.257-4.364-.671-6.574-1.1a74.093,74.093,0,0,0-8.472-1.307h-.04c-3.719-.3-5.182-.232-8.512,3.1l-2.286,2.3A55.148,55.148,0,0,1,38.12,62.662l1.085-1.872a4.863,4.863,0,0,0,.489-3.744,4.938,4.938,0,0,0-2.3-3.007L28.857,49.1A4.948,4.948,0,0,0,22.1,50.911L4.663,81.064A4.948,4.948,0,0,0,6.469,87.82l8.537,4.935a4.871,4.871,0,0,0,2.467.661,4.973,4.973,0,0,0,4.289-2.467l.9-1.564a25.778,25.778,0,0,0,5.878,7.79L26.505,100.7a6.044,6.044,0,0,0,7.568,8.6,6.031,6.031,0,0,0,8.356,4.869A6.032,6.032,0,0,0,50,119.3a6.151,6.151,0,0,0,2.3-1.176,6.027,6.027,0,0,0,5.707,4.132,6.139,6.139,0,0,0,1.589-.207,5.979,5.979,0,0,0,3.668-2.815l.3-.515,5.762,3.33a6.349,6.349,0,0,0,3.038.782,6.026,6.026,0,0,0,5.979-6.912,6.047,6.047,0,0,0,7.942-6.59,6.009,6.009,0,0,0,7.9-6.59,6.063,6.063,0,0,0,7.205-2.7,6.056,6.056,0,0,0-.066-6.151,32.87,32.87,0,0,0,3.164-3.941l.555.969a4.941,4.941,0,0,0,4.289,2.467,4.871,4.871,0,0,0,2.467-.661l8.537-4.935a4.933,4.933,0,0,0,2.3-3.007,4.829,4.829,0,0,0-.459-3.724ZM19.669,89.732a2.53,2.53,0,0,1-3.451.918L7.68,85.716a2.53,2.53,0,0,1-.918-3.451L24.174,52.1a2.517,2.517,0,0,1,2.185-1.266,2.383,2.383,0,0,1,1.251.338l8.537,4.935a2.534,2.534,0,0,1,1.176,1.539,2.464,2.464,0,0,1-.247,1.912Zm10.268,17.125a3.626,3.626,0,0,1-1.332-4.945L33.463,93.5a3.573,3.573,0,0,1,2.195-1.68,3.52,3.52,0,0,1,2.75.363A3.636,3.636,0,0,1,39.75,97.1l-4.894,8.472a3.639,3.639,0,0,1-4.92,1.282Zm8.345,4.884A3.626,3.626,0,0,1,36.95,106.8L43.6,95.288a3.619,3.619,0,0,1,6.287,3.588l-6.68,11.575A3.639,3.639,0,0,1,38.282,111.742Zm13.306,3.537a3.621,3.621,0,0,1-4.945,1.317,3.626,3.626,0,0,1-1.332-4.945l7.543-13.058a3.618,3.618,0,0,1,6.262,3.628Zm9.587,2.73a3.621,3.621,0,0,1-4.945,1.317,3.624,3.624,0,0,1-1.342-4.909l4.894-8.472a3.62,3.62,0,0,1,6.615.9,3.564,3.564,0,0,1-.363,2.75ZM99.314,98.85a3.621,3.621,0,0,1-4.945,1.317L91.463,98.5a1.216,1.216,0,0,0-1.64.424,1.233,1.233,0,0,0,.373,1.655,3.663,3.663,0,0,1,1.176,4.859,3.621,3.621,0,0,1-4.945,1.317l-3.1-1.781h-.015a1.211,1.211,0,0,0-1.216,2.094,3.625,3.625,0,0,1-3.628,6.277l-3.048-1.756a1.215,1.215,0,0,0-1.231,2.094,3.624,3.624,0,0,1-3.668,6.252l-5.762-3.33,3.345-5.787a6.035,6.035,0,0,0-6.262-8.966A6.039,6.039,0,0,0,54.4,94.591a6.126,6.126,0,0,0-1.887.868,5.973,5.973,0,0,0-2.79-3.577,6.076,6.076,0,0,0-7.558,1.226A6.054,6.054,0,0,0,39.584,90.1a6.054,6.054,0,0,0-8.255,2.22l-1.589,2.75a24.589,24.589,0,0,1-5.606-8.255l12.71-22.025A55.206,55.206,0,0,0,53.61,69.6l-5.051,5.051a3.654,3.654,0,0,0,.57,5.621c4.122,2.715,8.32,2.6,11.227-.323l4.238-4.238c2.276,2.921,7.1,8.562,15.808,8.1L97.941,93.93a3.565,3.565,0,0,1,1.372,4.92Zm.389-6.716c-.167-.116-.338-.222-.5-.323L81.347,81.5a1.193,1.193,0,0,0-.7-.156c-8.164.58-12.412-4.96-14.466-7.619-.182-.247-.348-.454-.489-.631a1.244,1.244,0,0,0-.878-.454,1.194,1.194,0,0,0-.918.348L58.692,78.2c-2.947,2.931-6.706.984-8.174.015a1.174,1.174,0,0,1-.545-.893,1.151,1.151,0,0,1,.348-.984l9.506-9.521c2.7-2.715,3.451-2.649,6.6-2.4h.04a70.414,70.414,0,0,1,8.2,1.266c2.16.424,4.39.868,6.766,1.125a10.216,10.216,0,0,0,5.555-.8l2.891-1.357L103.15,87.623A32.716,32.716,0,0,1,99.7,92.134Zm20.617-7.947a2.577,2.577,0,0,1-1.176,1.539l-8.537,4.935a2.535,2.535,0,0,1-3.451-.918L89.757,59.56a2.535,2.535,0,0,1,.918-3.451l8.537-4.935a2.47,2.47,0,0,1,1.251-.338,2.523,2.523,0,0,1,2.185,1.266L120.071,82.28a2.452,2.452,0,0,1,.247,1.907ZM18.725,81.5A2.906,2.906,0,1,1,15.819,78.6,2.914,2.914,0,0,1,18.725,81.5Zm95.2,0A2.906,2.906,0,1,1,111.02,78.6a2.914,2.914,0,0,1,2.906,2.906Z" transform="translate(-3.998 -3.993)" fill="#0084c7"/>
</svg>
