<svg xmlns="http://www.w3.org/2000/svg" width="127.421" height="104.632" viewBox="0 0 127.421 104.632">
  <path id="pre-deal" d="M126.983,79.1c-1.761-1.856-6.387-4.346-17.587-.166a227.821,227.821,0,0,1-24.823,7.655,9.343,9.343,0,0,0,.051-1.654c-.151-2.662-1.723-7.163-10.558-7.4-9.624-.256-18.241-1.127-29.023-2.448-5.043-.617-9.569.552-14.358,1.792a66.436,66.436,0,0,1-15.136,2.56,3.6,3.6,0,0,0-3.372-2.359H4.791a3.6,3.6,0,0,0-3.6,3.6v30.287a3.6,3.6,0,0,0,3.6,3.6h7.385a3.6,3.6,0,0,0,3.579-3.278c10.077-2.454,20.358-.726,30.305.948,3.492.587,6.791,1.144,10,1.5a57.869,57.869,0,0,0,6.31.487c3.607,0,7.088-.765,13.212-3.393l42.834-18.6.033-.014a60.5,60.5,0,0,0,9.047-5.057,1.274,1.274,0,0,0,.388-.5C129.117,83.815,128.78,80.99,126.983,79.1ZM13.223,110.961a1.049,1.049,0,0,1-1.047,1.047H4.791a1.049,1.049,0,0,1-1.047-1.047V80.674a1.049,1.049,0,0,1,1.047-1.047h7.385a1.049,1.049,0,0,1,1.047,1.047ZM125.669,85.334a61.7,61.7,0,0,1-8.284,4.559L74.573,108.481c-8.772,3.764-11.541,3.455-18.232,2.711-3.137-.349-6.4-.9-9.859-1.48-9.537-1.606-20.31-3.419-30.711-1.059V81.978a68.936,68.936,0,0,0,15.55-2.634c4.747-1.228,8.847-2.29,13.411-1.73C55.589,78.944,64.271,79.82,74,80.08c3.564.1,7.859,1.039,8.082,4.995a5.2,5.2,0,0,1-1.522,4.21c-4.518,4.5-17.879,3.69-24.3,3.3-1.051-.064-1.958-.119-2.7-.148a1.274,1.274,0,0,0-.1,2.547c.718.027,1.614.082,2.649.145,7.313.443,20.926,1.268,26.253-4.039a7.827,7.827,0,0,0,1.307-1.7,213.574,213.574,0,0,0,26.625-8.069c7.07-2.64,12.62-2.814,14.845-.467a4.131,4.131,0,0,1,.535,4.485ZM53.5,57.418h9.347V69.053a1.274,1.274,0,0,0,2.175.9L77.563,57.417h16.1a8.934,8.934,0,0,0,8.924-8.924V18.849a8.935,8.935,0,0,0-8.924-8.925H53.5a8.935,8.935,0,0,0-8.925,8.925V48.494A8.934,8.934,0,0,0,53.5,57.418ZM47.129,18.849A6.383,6.383,0,0,1,53.5,12.473H93.668a6.383,6.383,0,0,1,6.376,6.376V48.494a6.383,6.383,0,0,1-6.376,6.376H77.036a1.274,1.274,0,0,0-.9.373L65.4,65.978V56.144a1.274,1.274,0,0,0-1.274-1.274H53.506a6.383,6.383,0,0,1-6.376-6.376V18.849ZM58.172,33.671A15.414,15.414,0,0,1,83.188,21.614,1.275,1.275,0,1,1,81.6,23.607a12.73,12.73,0,0,0-8.014-2.8,12.878,12.878,0,1,0,11.663,7.445L74.181,39.319a1.275,1.275,0,0,1-.9.373,1.412,1.412,0,0,1-.166-.01,1.276,1.276,0,0,1-.937-.627l-4.543-7.868a1.274,1.274,0,0,1,2.206-1.274l3.713,6.431L90.617,19.28a1.274,1.274,0,0,1,1.8,1.8L87.15,26.35a15.414,15.414,0,1,1-28.978,7.323Z" transform="translate(-1.196 -9.924)" fill="#0084c7"/>
</svg>
