<svg xmlns="http://www.w3.org/2000/svg" width="697.558" height="83.371" viewBox="0 0 697.558 83.371"><defs><style>.a{fill:#fff;}</style></defs><g transform="translate(-13.763 -99.832)"><g transform="translate(13.763 100.395)"><path class="a" d="M41.045,110.494H43.6l5.9,13.053H47.09l-1.71-3.941H39.007l-1.784,3.941H34.892Zm3.718,7.7-2.509-5.759-2.61,5.759Z" transform="translate(43.656 -71.42)"/><g transform="translate(78.05 53.863)"><path class="a" d="M37.324,118.669a2.693,2.693,0,0,1-.349-1.257,2.563,2.563,0,0,1,1.071-2.1,4.468,4.468,0,0,1,2.848-.836,4.091,4.091,0,0,1,2.654.777,2.343,2.343,0,0,1,.948,1.859,2.991,2.991,0,0,1-.981,2.2,9.447,9.447,0,0,1-1.926,1.275l2.97,2.833q.273-.714.379-1.06a7.643,7.643,0,0,0,.223-.993H47.1a7.949,7.949,0,0,1-.751,2.413c-.375.762-.565,1.074-.565.918l2.851,2.777H46.1l-1.528-1.454a7.875,7.875,0,0,1-1.662,1.134,7.043,7.043,0,0,1-3.041.625,5.276,5.276,0,0,1-3.7-1.086,3.351,3.351,0,0,1-1.152-2.457,3.146,3.146,0,0,1,1.123-2.465,13.092,13.092,0,0,1,2.561-1.506,6.966,6.966,0,0,1-1.387-1.6m4.818,7.294a4.341,4.341,0,0,0,1.361-1.011l-3.688-3.588a10.843,10.843,0,0,0-2.022,1.275,2.106,2.106,0,0,0-.729,1.625,1.756,1.756,0,0,0,.944,1.595,3.917,3.917,0,0,0,2.022.554,4.576,4.576,0,0,0,2.112-.45m-.156-7.368a1.8,1.8,0,0,0,.647-1.346,1.264,1.264,0,0,0-.472-.993,1.916,1.916,0,0,0-1.286-.416,1.966,1.966,0,0,0-1.7.654,1.18,1.18,0,0,0-.249.732,1.7,1.7,0,0,0,.372,1.041,10.875,10.875,0,0,0,1.245,1.294,8.628,8.628,0,0,0,1.446-.967" transform="translate(-34.03 -114.472)"/><path class="a" d="M34.758,118.716H37.9l4.673,11.038,4.684-11.038h3.123v13.053H48.29v-7.71c0-.264.019-.7.048-1.323s.041-1.279.041-1.978l-4.729,11.012H41.457l-4.707-11.012v.4c0,.323.019.814.041,1.468s.045,1.134.045,1.435v7.71H34.758Z" transform="translate(-34.758 -102.938)"/></g><path class="a" d="M62.839,99.983,13.763,182.792H25.111l39.915-70.237v70.237h8.9V99.983Z" transform="translate(-13.763 -99.983)"/><path class="a" d="M33.183,106.426l-8.954,15.739v43.118h8.954Z" transform="translate(14.679 -82.474)"/><path class="a" d="M30.732,106.426l8.951,15.739v43.118H30.732Z" transform="translate(32.352 -82.474)"/></g><rect class="a" width="2.75" height="82.808" transform="translate(130.619 100.395)"/><g transform="translate(156.508 99.832)"><path class="a" d="M58.777,99.923v30.109H52.16V99.923Z" transform="translate(-52.16 -99.585)"/><path class="a" d="M62.083,99.923l12.569,20.2h.086v-20.2h6.2v30.109H74.314L61.789,109.879H61.7v20.153h-6.2V99.923Z" transform="translate(-43.067 -99.585)"/><path class="a" d="M66.43,105.492V99.923H91.1v5.569H82.078v24.54H75.456v-24.54Z" transform="translate(-13.379 -99.585)"/><path class="a" d="M80.614,99.923v11.554H92.8V99.923h6.621v30.109H92.8V117.043H80.614v12.989H74V99.923Z" transform="translate(7.185 -99.585)"/><path class="a" d="M104.924,99.923v5.569h-15.9v6.45h14.592v5.145H89.023v7.38h16.239v5.565H82.4V99.923Z" transform="translate(30.027 -99.585)"/><path class="a" d="M107.078,99.923A18.773,18.773,0,0,1,111,100.3a8.513,8.513,0,0,1,3.034,1.245,5.75,5.75,0,0,1,1.963,2.3,8.04,8.04,0,0,1,.7,3.539,6.6,6.6,0,0,1-1.034,3.8,7.471,7.471,0,0,1-3.056,2.487,7.238,7.238,0,0,1,4.153,2.807,9.2,9.2,0,0,1,.487,8.77,7.739,7.739,0,0,1-2.383,2.721,10.6,10.6,0,0,1-3.417,1.561,15.362,15.362,0,0,1-3.944.5H92.906V99.923Zm-.844,12.186a4.753,4.753,0,0,0,2.907-.84,3.184,3.184,0,0,0,1.141-2.744,3.521,3.521,0,0,0-.379-1.729,2.846,2.846,0,0,0-1.011-1.056,4.324,4.324,0,0,0-1.457-.524,9.435,9.435,0,0,0-1.706-.145h-6.2v7.037Zm.379,12.781a8.841,8.841,0,0,0,1.855-.19,4.58,4.58,0,0,0,1.561-.632,3.231,3.231,0,0,0,1.074-1.2,4.112,4.112,0,0,0,.4-1.944,3.881,3.881,0,0,0-1.309-3.309,5.565,5.565,0,0,0-3.457-.993H99.527v8.268Z" transform="translate(58.573 -99.585)"/><path class="a" d="M123.124,127.735q-3.413,2.978-9.447,2.974-6.117,0-9.469-2.952t-3.35-9.108V99.923h6.617v18.726a13.866,13.866,0,0,0,.212,2.4,4.67,4.67,0,0,0,2.762,3.565,7.643,7.643,0,0,0,3.227.569q3.541,0,4.892-1.58a7.538,7.538,0,0,0,1.349-4.956V99.923h6.621v18.726Q126.54,124.766,123.124,127.735Z" transform="translate(80.186 -99.585)"/><path class="a" d="M115.876,99.923l12.566,20.2h.086v-20.2h6.2v30.109H128.1l-12.525-20.153H115.5v20.153h-6.2V99.923Z" transform="translate(103.123 -99.585)"/><path class="a" d="M124.322,99.923v12.484l11.766-12.484h8.268L132.59,111.816,145.5,130.032h-8.313L128.122,116.5l-3.8,3.84v9.7h-6.617V99.923Z" transform="translate(125.968 -99.585)"/><path class="a" d="M148.413,99.923v5.569h-15.9v6.45H147.1v5.145H132.512v7.38h16.235v5.565H125.9V99.923Z" transform="translate(148.225 -99.585)"/><path class="a" d="M149.481,99.923a9.629,9.629,0,0,1,3.647.654,8.426,8.426,0,0,1,2.785,1.792,7.713,7.713,0,0,1,1.77,2.636,8.435,8.435,0,0,1,.61,3.227,9.07,9.07,0,0,1-1.112,4.6,7.064,7.064,0,0,1-3.651,2.948v.086a5.056,5.056,0,0,1,2.022,1.034,5.77,5.77,0,0,1,1.312,1.647,7.916,7.916,0,0,1,.736,2.086,19.129,19.129,0,0,1,.316,2.275c.03.48.052,1.045.082,1.691s.078,1.3.149,1.982a13.064,13.064,0,0,0,.338,1.915,4.378,4.378,0,0,0,.7,1.539h-6.621a11.593,11.593,0,0,1-.673-3.413q-.128-1.985-.383-3.8a5.955,5.955,0,0,0-1.435-3.461,4.923,4.923,0,0,0-3.58-1.1h-6.625v11.766h-6.617V99.923Zm-2.361,13.621a5.01,5.01,0,0,0,3.413-1.011,4.183,4.183,0,0,0,1.141-3.286,4.019,4.019,0,0,0-1.141-3.19,5.088,5.088,0,0,0-3.413-.985h-7.257v8.473Z" transform="translate(168.203 -99.585)"/><path class="a" d="M168.719,130.032l-5.1-20.492h-.082l-5.023,20.492h-6.707l-7.967-30.109h6.621l4.762,20.5h.085l5.231-20.5h6.2l5.149,20.748h.082L176.9,99.923H183.4l-8.1,30.109Z" transform="translate(196.996 -99.585)"/><path class="a" d="M161.915,99.923v30.109H155.3V99.923Z" transform="translate(228.132 -99.585)"/><path class="a" d="M158.009,105.492V99.923h24.67v5.569h-9.023v24.54h-6.621v-24.54Z" transform="translate(235.499 -99.585)"/><path class="a" d="M172.192,99.923v11.554h12.19V99.923H191v30.109h-6.621V117.043h-12.19v12.989h-6.617V99.923Z" transform="translate(256.061 -99.585)"/><path class="a" d="M194.462,99.923l11.257,30.109h-6.87l-2.279-6.7H185.309l-2.361,6.7h-6.666l11.391-30.109Zm.375,18.473-3.792-11.049h-.086L187.038,118.4Z" transform="translate(285.162 -99.585)"/><path class="a" d="M198.846,129.945a11.537,11.537,0,0,1-4.621.885,12.2,12.2,0,0,1-3.814-.587,8.784,8.784,0,0,1-3.1-1.751,8.38,8.38,0,0,1-2.067-2.829,9.109,9.109,0,0,1-.758-3.814,7.56,7.56,0,0,1,.55-2.929,8.444,8.444,0,0,1,1.495-2.405,11.818,11.818,0,0,1,2.171-1.918,19.535,19.535,0,0,1,2.532-1.48,19.014,19.014,0,0,1-2.045-2.952,6.991,6.991,0,0,1-.825-3.454,6.051,6.051,0,0,1,.654-2.825,6.865,6.865,0,0,1,1.755-2.175,7.94,7.94,0,0,1,2.509-1.39,8.937,8.937,0,0,1,2.93-.487,10.9,10.9,0,0,1,3.227.465,7.794,7.794,0,0,1,2.613,1.372,6.527,6.527,0,0,1,1.773,2.257,7.088,7.088,0,0,1,.651,3.119,6.678,6.678,0,0,1-1.539,4.472,13.006,13.006,0,0,1-3.814,3.034L203,119.316a8.272,8.272,0,0,0,.718-1.747,14.253,14.253,0,0,0,.379-1.837h5.186a15.586,15.586,0,0,1-.929,3.922,12.891,12.891,0,0,1-1.982,3.5l6.119,7.127h-7.339l-2.446-2.989A12.868,12.868,0,0,1,198.846,129.945ZM192.835,117.8a6.455,6.455,0,0,0-1.35,1.1,5.362,5.362,0,0,0-.948,1.39,3.934,3.934,0,0,0-.357,1.688,3.5,3.5,0,0,0,.357,1.539,4.008,4.008,0,0,0,.948,1.264,4.678,4.678,0,0,0,1.372.848,4.325,4.325,0,0,0,1.625.312,5.264,5.264,0,0,0,2.8-.736,10.173,10.173,0,0,0,2.257-1.918L194.393,117A12.119,12.119,0,0,0,192.835,117.8Zm5.588-13.116a2.583,2.583,0,0,0-1.918-.844,2.723,2.723,0,0,0-1.9.736,2.482,2.482,0,0,0-.8,1.922,3.984,3.984,0,0,0,.758,2.446q.758,1.009,1.6,2.067a12,12,0,0,0,2.175-1.732,3.52,3.52,0,0,0,.9-2.569A2.789,2.789,0,0,0,198.422,104.684Z" transform="translate(307.452 -99.832)"/><path class="a" d="M202,99.923l7.041,20.707h.086l6.662-20.707H225.1v30.109h-6.2V108.7h-.086l-7.376,21.336h-5.1l-7.383-21.124h-.082v21.124h-6.2V99.923Z" transform="translate(329.712 -99.585)"/></g><g transform="translate(158.11 145.815)"><path class="a" d="M74.793,118.844a8.437,8.437,0,0,0-2.108-2.3,9.453,9.453,0,0,0-2.74-1.416,10.149,10.149,0,0,0-3.141-.483,10.861,10.861,0,0,0-5.145,1.138,10.216,10.216,0,0,0-3.521,3.019,12.868,12.868,0,0,0-2.026,4.234,18.231,18.231,0,0,0,0,9.681,12.893,12.893,0,0,0,2.026,4.26,10.167,10.167,0,0,0,3.521,3.015,10.862,10.862,0,0,0,5.145,1.138,9.166,9.166,0,0,0,3.8-.758,8.948,8.948,0,0,0,2.907-2.067,10.479,10.479,0,0,0,1.982-3.06,12.53,12.53,0,0,0,.97-3.77h2.87a16.267,16.267,0,0,1-1.309,5.015,12.226,12.226,0,0,1-2.613,3.8,11.1,11.1,0,0,1-3.777,2.405,13.241,13.241,0,0,1-4.825.844,14.207,14.207,0,0,1-6.223-1.286,12.942,12.942,0,0,1-4.45-3.439,14.649,14.649,0,0,1-2.654-4.974,20.437,20.437,0,0,1,0-11.9,14.878,14.878,0,0,1,2.654-4.993,12.822,12.822,0,0,1,4.45-3.461A15.079,15.079,0,0,1,71,112.833a12.224,12.224,0,0,1,3.714,1.877,11.047,11.047,0,0,1,2.781,3.056,10.261,10.261,0,0,1,1.413,4.175H76.038A9.618,9.618,0,0,0,74.793,118.844Z" transform="translate(-52.591 -112.201)"/><path class="a" d="M61.42,121.941a14.811,14.811,0,0,1,2.654-4.993,12.822,12.822,0,0,1,4.45-3.461,14.191,14.191,0,0,1,6.22-1.286,14.046,14.046,0,0,1,6.2,1.286,12.856,12.856,0,0,1,4.431,3.461,14.812,14.812,0,0,1,2.654,4.993,20.355,20.355,0,0,1,0,11.9,14.585,14.585,0,0,1-2.654,4.974,12.977,12.977,0,0,1-4.431,3.439,14.045,14.045,0,0,1-6.2,1.286,14.19,14.19,0,0,1-6.22-1.286,12.941,12.941,0,0,1-4.45-3.439,14.585,14.585,0,0,1-2.654-4.974,20.354,20.354,0,0,1,0-11.9Zm2.636,10.777a12.96,12.96,0,0,0,2.022,4.26,10.2,10.2,0,0,0,3.521,3.015,10.872,10.872,0,0,0,5.145,1.138,10.728,10.728,0,0,0,5.123-1.138,10.273,10.273,0,0,0,3.5-3.015,13.035,13.035,0,0,0,2.022-4.26,18.231,18.231,0,0,0,0-9.681,13.01,13.01,0,0,0-2.022-4.234,10.324,10.324,0,0,0-3.5-3.019,10.727,10.727,0,0,0-5.123-1.138,10.871,10.871,0,0,0-5.145,1.138,10.25,10.25,0,0,0-3.521,3.019,12.935,12.935,0,0,0-2.022,4.234,18.231,18.231,0,0,0,0,9.681Z" transform="translate(-31.013 -112.201)"/><path class="a" d="M71.52,112.371l9.785,26.949h.086l9.7-26.949h3.037L82.948,142.484H79.617L68.483,112.371Z" transform="translate(-9.402 -111.739)"/><path class="a" d="M79.018,112.371v30.113H76.152V112.371Z" transform="translate(11.439 -111.739)"/><path class="a" d="M89.03,112.371q6.87.167,10.354,3.859t3.48,11.2q0,7.512-3.48,11.2T89.03,142.484H78.613V112.371Zm-1.435,27.667a19.7,19.7,0,0,0,5.588-.7,8.917,8.917,0,0,0,3.859-2.216,9.061,9.061,0,0,0,2.234-3.918,23.632,23.632,0,0,0,0-11.558,9.017,9.017,0,0,0-2.234-3.918,8.918,8.918,0,0,0-3.859-2.216,19.69,19.69,0,0,0-5.588-.7H81.483v25.22Z" transform="translate(18.127 -111.739)"/><path class="a" d="M89.128,142.237a10.332,10.332,0,0,1,.762-3.877,11.247,11.247,0,0,1,1.9-3.041,17.675,17.675,0,0,1,2.658-2.465q1.478-1.115,3.037-2.152c1.037-.684,2.071-1.39,3.1-2.108a20.809,20.809,0,0,0,2.766-2.3,9.151,9.151,0,0,0,1.833-2.509,7.048,7.048,0,0,0,.61-3.056,5.962,5.962,0,0,0-.524-2.554,5.669,5.669,0,0,0-1.435-1.9,6.237,6.237,0,0,0-2.108-1.182,8.124,8.124,0,0,0-2.55-.4,6.585,6.585,0,0,0-3.1.677,5.808,5.808,0,0,0-2.089,1.811,7.779,7.779,0,0,0-1.16,2.617,11.851,11.851,0,0,0-.316,3.119H89.846a13.9,13.9,0,0,1,.528-4.2,9.023,9.023,0,0,1,1.751-3.309,8.1,8.1,0,0,1,2.974-2.171,10.422,10.422,0,0,1,4.193-.781,11.984,11.984,0,0,1,3.61.528,8.576,8.576,0,0,1,2.907,1.558,7.06,7.06,0,0,1,1.941,2.6,8.794,8.794,0,0,1,.7,3.625,8.987,8.987,0,0,1-.61,3.372,10.812,10.812,0,0,1-1.647,2.788,16.128,16.128,0,0,1-2.361,2.335,28.108,28.108,0,0,1-2.8,2c-.7.48-1.535,1.007-2.491,1.584a26.184,26.184,0,0,0-2.762,1.918,15.049,15.049,0,0,0-2.338,2.3,5.86,5.86,0,0,0-1.268,2.721h16.406v2.446Z" transform="translate(46.703 -111.492)"/><path class="a" d="M110.953,113.875a9.824,9.824,0,0,1,3.123,3.61,15.737,15.737,0,0,1,1.517,4.889,35.1,35.1,0,0,1,0,10.588,15.768,15.768,0,0,1-1.517,4.889,9.639,9.639,0,0,1-3.123,3.587,10.569,10.569,0,0,1-10.48,0,9.526,9.526,0,0,1-3.141-3.587,15.866,15.866,0,0,1-1.517-4.889,35.1,35.1,0,0,1,0-10.588,15.835,15.835,0,0,1,1.517-4.889,9.706,9.706,0,0,1,3.141-3.61,10.424,10.424,0,0,1,10.48,0Zm-9.3,2.13a8.286,8.286,0,0,0-2.3,3.246,15.84,15.84,0,0,0-1.033,4.219,34.783,34.783,0,0,0,0,8.372,16.063,16.063,0,0,0,1.033,4.216,8.257,8.257,0,0,0,2.3,3.268,6.917,6.917,0,0,0,8.1,0,8.257,8.257,0,0,0,2.3-3.268,16.21,16.21,0,0,0,1.034-4.216,34.785,34.785,0,0,0,0-8.372,15.982,15.982,0,0,0-1.034-4.219,8.286,8.286,0,0,0-2.3-3.246,6.917,6.917,0,0,0-8.1,0Z" transform="translate(63.784 -111.492)"/><path class="a" d="M101.743,142.237a10.333,10.333,0,0,1,.758-3.877,11.352,11.352,0,0,1,1.9-3.041,17.674,17.674,0,0,1,2.658-2.465c.981-.743,2-1.461,3.034-2.152s2.074-1.39,3.1-2.108a20.307,20.307,0,0,0,2.762-2.3,9.167,9.167,0,0,0,1.836-2.509,7.1,7.1,0,0,0,.613-3.056,5.909,5.909,0,0,0-.532-2.554,5.669,5.669,0,0,0-1.435-1.9,6.184,6.184,0,0,0-2.1-1.182,8.113,8.113,0,0,0-2.554-.4,6.606,6.606,0,0,0-3.1.677,5.8,5.8,0,0,0-2.086,1.811,7.637,7.637,0,0,0-1.16,2.617,12.172,12.172,0,0,0-.32,3.119h-2.651a13.782,13.782,0,0,1,.524-4.2,9.022,9.022,0,0,1,1.751-3.309,8.1,8.1,0,0,1,2.974-2.171,10.428,10.428,0,0,1,4.2-.781,11.952,11.952,0,0,1,3.6.528,8.507,8.507,0,0,1,2.907,1.558,7.028,7.028,0,0,1,1.944,2.6,9.74,9.74,0,0,1,.082,7,10.593,10.593,0,0,1-1.643,2.788,16.156,16.156,0,0,1-2.364,2.335,27.691,27.691,0,0,1-2.8,2q-1.054.719-2.487,1.584a26.571,26.571,0,0,0-2.762,1.918,15.243,15.243,0,0,0-2.342,2.3,5.811,5.811,0,0,0-1.26,2.721h16.4v2.446Z" transform="translate(80.986 -111.492)"/><path class="a" d="M123.567,113.875a9.79,9.79,0,0,1,3.123,3.61,15.737,15.737,0,0,1,1.517,4.889,35.1,35.1,0,0,1,0,10.588,15.768,15.768,0,0,1-1.517,4.889,9.606,9.606,0,0,1-3.123,3.587,10.562,10.562,0,0,1-10.476,0,9.536,9.536,0,0,1-3.145-3.587,15.868,15.868,0,0,1-1.517-4.889,35.1,35.1,0,0,1,0-10.588,15.836,15.836,0,0,1,1.517-4.889,9.716,9.716,0,0,1,3.145-3.61,10.418,10.418,0,0,1,10.476,0Zm-9.3,2.13a8.287,8.287,0,0,0-2.3,3.246,15.984,15.984,0,0,0-1.033,4.219,34.782,34.782,0,0,0,0,8.372,16.212,16.212,0,0,0,1.033,4.216,8.257,8.257,0,0,0,2.3,3.268,6.917,6.917,0,0,0,8.1,0,8.257,8.257,0,0,0,2.3-3.268,16.062,16.062,0,0,0,1.034-4.216,34.284,34.284,0,0,0,0-8.372,15.839,15.839,0,0,0-1.034-4.219,8.287,8.287,0,0,0-2.3-3.246,6.917,6.917,0,0,0-8.1,0Z" transform="translate(98.064 -111.492)"/></g></g></svg>