<svg xmlns="http://www.w3.org/2000/svg" xmlns:xlink="http://www.w3.org/1999/xlink" width="314.485" height="114.093" viewBox="0 0 314.485 114.093"><defs><style>.a{isolation:isolate;}.b{fill:#fff;}.c{filter:url(#cm);}.d{filter:url(#ck);}.e{filter:url(#ci);}.f{filter:url(#cg);}.g{filter:url(#ce);}.h{filter:url(#cc);}.i{filter:url(#ca);}.j{filter:url(#by);}.k{filter:url(#bw);}.l{filter:url(#bu);}.m{filter:url(#bs);}.n{filter:url(#bq);}.o{filter:url(#bo);}.p{filter:url(#bm);}.q{filter:url(#bk);}.r{filter:url(#bi);}.s{filter:url(#bg);}.t{filter:url(#be);}.u{filter:url(#bc);}.v{filter:url(#ba);}.w{filter:url(#ay);}.x{filter:url(#aw);}.y{filter:url(#au);}.z{filter:url(#as);}.aa{filter:url(#aq);}.ab{filter:url(#ao);}.ac{filter:url(#am);}.ad{filter:url(#ak);}.ae{filter:url(#ai);}.af{filter:url(#ag);}.ag{filter:url(#ae);}.ah{filter:url(#ac);}.ai{filter:url(#aa);}.aj{filter:url(#y);}.ak{filter:url(#w);}.al{filter:url(#u);}.am{filter:url(#s);}.an{filter:url(#q);}.ao{filter:url(#o);}.ap{filter:url(#m);}.aq{filter:url(#k);}.ar{filter:url(#i);}.as{filter:url(#g);}.at{filter:url(#e);}.au{filter:url(#c);}.av{filter:url(#a);}</style><filter id="a" x="0" y="98.111" width="15.024" height="15.874" filterUnits="userSpaceOnUse"><feOffset dx="4" dy="4" input="SourceAlpha"/><feGaussianBlur stdDeviation="1" result="b"/><feFlood/><feComposite operator="in" in2="b"/><feComposite in="SourceGraphic"/></filter><filter id="c" x="12.042" y="98.112" width="16.028" height="15.874" filterUnits="userSpaceOnUse"><feOffset dx="4" dy="4" input="SourceAlpha"/><feGaussianBlur stdDeviation="1" result="d"/><feFlood/><feComposite operator="in" in2="d"/><feComposite in="SourceGraphic"/></filter><filter id="e" x="25.17" y="98.112" width="14.388" height="15.874" filterUnits="userSpaceOnUse"><feOffset dx="4" dy="4" input="SourceAlpha"/><feGaussianBlur stdDeviation="1" result="f"/><feFlood/><feComposite operator="in" in2="f"/><feComposite in="SourceGraphic"/></filter><filter id="g" x="36.658" y="98.112" width="16.029" height="15.874" filterUnits="userSpaceOnUse"><feOffset dx="4" dy="4" input="SourceAlpha"/><feGaussianBlur stdDeviation="1" result="h"/><feFlood/><feComposite operator="in" in2="h"/><feComposite in="SourceGraphic"/></filter><filter id="i" x="59.129" y="98.112" width="8.031" height="15.874" filterUnits="userSpaceOnUse"><feOffset dx="4" dy="4" input="SourceAlpha"/><feGaussianBlur stdDeviation="1" result="j"/><feFlood/><feComposite operator="in" in2="j"/><feComposite in="SourceGraphic"/></filter><filter id="k" x="67.068" y="98.112" width="14.859" height="15.874" filterUnits="userSpaceOnUse"><feOffset dx="4" dy="4" input="SourceAlpha"/><feGaussianBlur stdDeviation="1" result="l"/><feFlood/><feComposite operator="in" in2="l"/><feComposite in="SourceGraphic"/></filter><filter id="m" x="80.912" y="98.112" width="14.388" height="15.874" filterUnits="userSpaceOnUse"><feOffset dx="4" dy="4" input="SourceAlpha"/><feGaussianBlur stdDeviation="1" result="n"/><feFlood/><feComposite operator="in" in2="n"/><feComposite in="SourceGraphic"/></filter><filter id="o" x="94.286" y="98.112" width="13.701" height="15.874" filterUnits="userSpaceOnUse"><feOffset dx="4" dy="4" input="SourceAlpha"/><feGaussianBlur stdDeviation="1" result="p"/><feFlood/><feComposite operator="in" in2="p"/><feComposite in="SourceGraphic"/></filter><filter id="q" x="107.33" y="98.112" width="13.001" height="15.874" filterUnits="userSpaceOnUse"><feOffset dx="4" dy="4" input="SourceAlpha"/><feGaussianBlur stdDeviation="1" result="r"/><feFlood/><feComposite operator="in" in2="r"/><feComposite in="SourceGraphic"/></filter><filter id="s" x="119.343" y="98.112" width="13.001" height="15.874" filterUnits="userSpaceOnUse"><feOffset dx="4" dy="4" input="SourceAlpha"/><feGaussianBlur stdDeviation="1" result="t"/><feFlood/><feComposite operator="in" in2="t"/><feComposite in="SourceGraphic"/></filter><filter id="u" x="131.357" y="98.112" width="8.033" height="15.874" filterUnits="userSpaceOnUse"><feOffset dx="4" dy="4" input="SourceAlpha"/><feGaussianBlur stdDeviation="1" result="v"/><feFlood/><feComposite operator="in" in2="v"/><feComposite in="SourceGraphic"/></filter><filter id="w" x="138.718" y="98.004" width="15.71" height="16.089" filterUnits="userSpaceOnUse"><feOffset dx="4" dy="4" input="SourceAlpha"/><feGaussianBlur stdDeviation="1" result="x"/><feFlood/><feComposite operator="in" in2="x"/><feComposite in="SourceGraphic"/></filter><filter id="y" x="153.923" y="98.112" width="13.702" height="15.874" filterUnits="userSpaceOnUse"><feOffset dx="4" dy="4" input="SourceAlpha"/><feGaussianBlur stdDeviation="1" result="z"/><feFlood/><feComposite operator="in" in2="z"/><feComposite in="SourceGraphic"/></filter><filter id="aa" x="166.965" y="98.112" width="14.858" height="15.874" filterUnits="userSpaceOnUse"><feOffset dx="4" dy="4" input="SourceAlpha"/><feGaussianBlur stdDeviation="1" result="ab"/><feFlood/><feComposite operator="in" in2="ab"/><feComposite in="SourceGraphic"/></filter><filter id="ac" x="181.156" y="98.004" width="15.53" height="16.089" filterUnits="userSpaceOnUse"><feOffset dx="4" dy="4" input="SourceAlpha"/><feGaussianBlur stdDeviation="1" result="ad"/><feFlood/><feComposite operator="in" in2="ad"/><feComposite in="SourceGraphic"/></filter><filter id="ae" x="195.906" y="98.112" width="13.701" height="15.874" filterUnits="userSpaceOnUse"><feOffset dx="4" dy="4" input="SourceAlpha"/><feGaussianBlur stdDeviation="1" result="af"/><feFlood/><feComposite operator="in" in2="af"/><feComposite in="SourceGraphic"/></filter><filter id="ag" x="215.983" y="98.004" width="15.709" height="16.089" filterUnits="userSpaceOnUse"><feOffset dx="4" dy="4" input="SourceAlpha"/><feGaussianBlur stdDeviation="1" result="ah"/><feFlood/><feComposite operator="in" in2="ah"/><feComposite in="SourceGraphic"/></filter><filter id="ai" x="230.113" y="98.112" width="16.029" height="15.874" filterUnits="userSpaceOnUse"><feOffset dx="4" dy="4" input="SourceAlpha"/><feGaussianBlur stdDeviation="1" result="aj"/><feFlood/><feComposite operator="in" in2="aj"/><feComposite in="SourceGraphic"/></filter><filter id="ak" x="243.24" y="98.112" width="14.388" height="15.874" filterUnits="userSpaceOnUse"><feOffset dx="4" dy="4" input="SourceAlpha"/><feGaussianBlur stdDeviation="1" result="al"/><feFlood/><feComposite operator="in" in2="al"/><feComposite in="SourceGraphic"/></filter><filter id="am" x="256.614" y="98.112" width="13.702" height="15.874" filterUnits="userSpaceOnUse"><feOffset dx="4" dy="4" input="SourceAlpha"/><feGaussianBlur stdDeviation="1" result="an"/><feFlood/><feComposite operator="in" in2="an"/><feComposite in="SourceGraphic"/></filter><filter id="ao" x="268.668" y="98.112" width="19.936" height="15.874" filterUnits="userSpaceOnUse"><feOffset dx="4" dy="4" input="SourceAlpha"/><feGaussianBlur stdDeviation="1" result="ap"/><feFlood/><feComposite operator="in" in2="ap"/><feComposite in="SourceGraphic"/></filter><filter id="aq" x="285.993" y="98.112" width="16.028" height="15.874" filterUnits="userSpaceOnUse"><feOffset dx="4" dy="4" input="SourceAlpha"/><feGaussianBlur stdDeviation="1" result="ar"/><feFlood/><feComposite operator="in" in2="ar"/><feComposite in="SourceGraphic"/></filter><filter id="as" x="298.817" y="98.112" width="15.669" height="15.874" filterUnits="userSpaceOnUse"><feOffset dx="4" dy="4" input="SourceAlpha"/><feGaussianBlur stdDeviation="1" result="at"/><feFlood/><feComposite operator="in" in2="at"/><feComposite in="SourceGraphic"/></filter><filter id="au" x="0" y="98.111" width="15.024" height="15.874" filterUnits="userSpaceOnUse"><feOffset dx="4" dy="4" input="SourceAlpha"/><feGaussianBlur stdDeviation="1" result="av"/><feFlood/><feComposite operator="in" in2="av"/><feComposite in="SourceGraphic"/></filter><filter id="aw" x="12.042" y="98.112" width="16.028" height="15.874" filterUnits="userSpaceOnUse"><feOffset dx="4" dy="4" input="SourceAlpha"/><feGaussianBlur stdDeviation="1" result="ax"/><feFlood/><feComposite operator="in" in2="ax"/><feComposite in="SourceGraphic"/></filter><filter id="ay" x="25.17" y="98.112" width="14.388" height="15.874" filterUnits="userSpaceOnUse"><feOffset dx="4" dy="4" input="SourceAlpha"/><feGaussianBlur stdDeviation="1" result="az"/><feFlood/><feComposite operator="in" in2="az"/><feComposite in="SourceGraphic"/></filter><filter id="ba" x="36.658" y="98.112" width="16.029" height="15.874" filterUnits="userSpaceOnUse"><feOffset dx="4" dy="4" input="SourceAlpha"/><feGaussianBlur stdDeviation="1" result="bb"/><feFlood/><feComposite operator="in" in2="bb"/><feComposite in="SourceGraphic"/></filter><filter id="bc" x="59.129" y="98.112" width="8.031" height="15.874" filterUnits="userSpaceOnUse"><feOffset dx="4" dy="4" input="SourceAlpha"/><feGaussianBlur stdDeviation="1" result="bd"/><feFlood/><feComposite operator="in" in2="bd"/><feComposite in="SourceGraphic"/></filter><filter id="be" x="67.068" y="98.112" width="14.859" height="15.874" filterUnits="userSpaceOnUse"><feOffset dx="4" dy="4" input="SourceAlpha"/><feGaussianBlur stdDeviation="1" result="bf"/><feFlood/><feComposite operator="in" in2="bf"/><feComposite in="SourceGraphic"/></filter><filter id="bg" x="80.912" y="98.112" width="14.388" height="15.874" filterUnits="userSpaceOnUse"><feOffset dx="4" dy="4" input="SourceAlpha"/><feGaussianBlur stdDeviation="1" result="bh"/><feFlood/><feComposite operator="in" in2="bh"/><feComposite in="SourceGraphic"/></filter><filter id="bi" x="94.286" y="98.112" width="13.701" height="15.874" filterUnits="userSpaceOnUse"><feOffset dx="4" dy="4" input="SourceAlpha"/><feGaussianBlur stdDeviation="1" result="bj"/><feFlood/><feComposite operator="in" in2="bj"/><feComposite in="SourceGraphic"/></filter><filter id="bk" x="107.33" y="98.112" width="13.001" height="15.874" filterUnits="userSpaceOnUse"><feOffset dx="4" dy="4" input="SourceAlpha"/><feGaussianBlur stdDeviation="1" result="bl"/><feFlood/><feComposite operator="in" in2="bl"/><feComposite in="SourceGraphic"/></filter><filter id="bm" x="119.343" y="98.112" width="13.001" height="15.874" filterUnits="userSpaceOnUse"><feOffset dx="4" dy="4" input="SourceAlpha"/><feGaussianBlur stdDeviation="1" result="bn"/><feFlood/><feComposite operator="in" in2="bn"/><feComposite in="SourceGraphic"/></filter><filter id="bo" x="131.357" y="98.112" width="8.033" height="15.874" filterUnits="userSpaceOnUse"><feOffset dx="4" dy="4" input="SourceAlpha"/><feGaussianBlur stdDeviation="1" result="bp"/><feFlood/><feComposite operator="in" in2="bp"/><feComposite in="SourceGraphic"/></filter><filter id="bq" x="138.718" y="98.004" width="15.71" height="16.089" filterUnits="userSpaceOnUse"><feOffset dx="4" dy="4" input="SourceAlpha"/><feGaussianBlur stdDeviation="1" result="br"/><feFlood/><feComposite operator="in" in2="br"/><feComposite in="SourceGraphic"/></filter><filter id="bs" x="153.923" y="98.112" width="13.702" height="15.874" filterUnits="userSpaceOnUse"><feOffset dx="4" dy="4" input="SourceAlpha"/><feGaussianBlur stdDeviation="1" result="bt"/><feFlood/><feComposite operator="in" in2="bt"/><feComposite in="SourceGraphic"/></filter><filter id="bu" x="166.965" y="98.112" width="14.858" height="15.874" filterUnits="userSpaceOnUse"><feOffset dx="4" dy="4" input="SourceAlpha"/><feGaussianBlur stdDeviation="1" result="bv"/><feFlood/><feComposite operator="in" in2="bv"/><feComposite in="SourceGraphic"/></filter><filter id="bw" x="181.156" y="98.004" width="15.53" height="16.089" filterUnits="userSpaceOnUse"><feOffset dx="4" dy="4" input="SourceAlpha"/><feGaussianBlur stdDeviation="1" result="bx"/><feFlood/><feComposite operator="in" in2="bx"/><feComposite in="SourceGraphic"/></filter><filter id="by" x="195.906" y="98.112" width="13.701" height="15.874" filterUnits="userSpaceOnUse"><feOffset dx="4" dy="4" input="SourceAlpha"/><feGaussianBlur stdDeviation="1" result="bz"/><feFlood/><feComposite operator="in" in2="bz"/><feComposite in="SourceGraphic"/></filter><filter id="ca" x="215.983" y="98.004" width="15.709" height="16.089" filterUnits="userSpaceOnUse"><feOffset dx="4" dy="4" input="SourceAlpha"/><feGaussianBlur stdDeviation="1" result="cb"/><feFlood/><feComposite operator="in" in2="cb"/><feComposite in="SourceGraphic"/></filter><filter id="cc" x="230.113" y="98.112" width="16.029" height="15.874" filterUnits="userSpaceOnUse"><feOffset dx="4" dy="4" input="SourceAlpha"/><feGaussianBlur stdDeviation="1" result="cd"/><feFlood/><feComposite operator="in" in2="cd"/><feComposite in="SourceGraphic"/></filter><filter id="ce" x="243.24" y="98.112" width="14.388" height="15.874" filterUnits="userSpaceOnUse"><feOffset dx="4" dy="4" input="SourceAlpha"/><feGaussianBlur stdDeviation="1" result="cf"/><feFlood/><feComposite operator="in" in2="cf"/><feComposite in="SourceGraphic"/></filter><filter id="cg" x="256.614" y="98.112" width="13.702" height="15.874" filterUnits="userSpaceOnUse"><feOffset dx="4" dy="4" input="SourceAlpha"/><feGaussianBlur stdDeviation="1" result="ch"/><feFlood/><feComposite operator="in" in2="ch"/><feComposite in="SourceGraphic"/></filter><filter id="ci" x="268.668" y="98.112" width="19.936" height="15.874" filterUnits="userSpaceOnUse"><feOffset dx="4" dy="4" input="SourceAlpha"/><feGaussianBlur stdDeviation="1" result="cj"/><feFlood/><feComposite operator="in" in2="cj"/><feComposite in="SourceGraphic"/></filter><filter id="ck" x="285.993" y="98.112" width="16.028" height="15.874" filterUnits="userSpaceOnUse"><feOffset dx="4" dy="4" input="SourceAlpha"/><feGaussianBlur stdDeviation="1" result="cl"/><feFlood/><feComposite operator="in" in2="cl"/><feComposite in="SourceGraphic"/></filter><filter id="cm" x="298.817" y="98.112" width="15.669" height="15.874" filterUnits="userSpaceOnUse"><feOffset dx="4" dy="4" input="SourceAlpha"/><feGaussianBlur stdDeviation="1" result="cn"/><feFlood/><feComposite operator="in" in2="cn"/><feComposite in="SourceGraphic"/></filter></defs><g class="a" transform="translate(0)"><g class="a" transform="translate(0 98.004)"><g class="av" transform="matrix(1, 0, 0, 1, 0, -98)"><path class="b" d="M1.81,128.6H4.575a2.958,2.958,0,0,0,1.693-.482,3.238,3.238,0,0,0,1.107-1.273,3.836,3.836,0,0,0,.392-1.729,3.88,3.88,0,0,0-.392-1.744A3.2,3.2,0,0,0,6.268,122.1a2.994,2.994,0,0,0-1.693-.476H1.81Zm-1.034.953v-8.874h3.84a4.125,4.125,0,0,1,1.56.3,4.056,4.056,0,0,1,1.344.878,4.174,4.174,0,0,1,.935,1.393,5.212,5.212,0,0,1,0,3.727,4.2,4.2,0,0,1-.935,1.394,4.153,4.153,0,0,1-2.9,1.179Z" transform="translate(-0.78 -22.56)"/></g><g class="au" transform="matrix(1, 0, 0, 1, 0, -98)"><path class="b" d="M19.445,121.72l1.857,4.33H17.587Zm-.647-1.045-3.866,8.874h1.142l1.115-2.573H21.7l1.115,2.573h1.142l-3.866-8.874Z" transform="translate(-2.89 -22.56)"/></g><g class="at" transform="matrix(1, 0, 0, 1, 0, -98)"><path class="b" d="M30.363,120.675v.951h3.179v7.923h1.031v-7.923h3.179v-.951Z" transform="translate(-5.19 -22.56)"/></g><g class="as" transform="matrix(1, 0, 0, 1, 0, -98)"><path class="b" d="M48.383,121.72l1.857,4.33H46.523Zm-.648-1.045-3.867,8.874h1.143l1.116-2.573h4.51l1.117,2.573H52.9l-3.868-8.874Z" transform="translate(-7.21 -22.56)"/></g><g class="ar" transform="matrix(1, 0, 0, 1, 0, -98)"><rect class="b" width="1.031" height="8.874" transform="translate(59.13 98.11)"/></g><g class="aq" transform="matrix(1, 0, 0, 1, 0, -98)"><path class="b" d="M86.44,120.675v7.467l-5.627-7.467h-1.2v8.874h1.033v-7.492l5.628,7.492h1.2v-8.874Z" transform="translate(-12.55 -22.56)"/></g><g class="ap" transform="matrix(1, 0, 0, 1, 0, -98)"><path class="b" d="M95.889,120.675v.951h3.179v7.923H100.1v-7.923h3.179v-.951Z" transform="translate(-14.98 -22.56)"/></g><g class="ao" transform="matrix(1, 0, 0, 1, 0, -98)"><path class="b" d="M111.61,120.675v8.874h6.7v-.964h-5.668v-2.991h5.063v-.979h-5.063v-2.977h5.668v-.964Z" transform="translate(-17.32 -22.56)"/></g><g class="an" transform="matrix(1, 0, 0, 1, 0, -98)"><path class="b" d="M126.944,120.675v8.874h6v-.964h-4.968v-7.91Z" transform="translate(-19.61 -22.56)"/></g><g class="am" transform="matrix(1, 0, 0, 1, 0, -98)"><path class="b" d="M141.066,120.675v8.874h6v-.964H142.1v-7.91Z" transform="translate(-21.72 -22.56)"/></g><g class="al" transform="matrix(1, 0, 0, 1, 0, -98)"><rect class="b" width="1.033" height="8.874" transform="translate(131.36 98.11)"/></g><g class="ak" transform="matrix(1, 0, 0, 1, 0, -98)"><path class="b" d="M168.3,129.637a4.5,4.5,0,0,1-2.388-.609,4.14,4.14,0,0,1-1.534-1.642,4.907,4.907,0,0,1-.536-2.293,4.8,4.8,0,0,1,.55-2.292,4.2,4.2,0,0,1,1.562-1.644,4.514,4.514,0,0,1,2.375-.609,4.568,4.568,0,0,1,2.551.7,4.261,4.261,0,0,1,1.59,1.816H171.34a3.028,3.028,0,0,0-1.148-1.125,3.583,3.583,0,0,0-1.782-.416,3.65,3.65,0,0,0-1.9.476,3.185,3.185,0,0,0-1.216,1.279,3.841,3.841,0,0,0-.421,1.81,3.914,3.914,0,0,0,.414,1.8,3.124,3.124,0,0,0,1.2,1.287,3.845,3.845,0,0,0,3.456.127,3.011,3.011,0,0,0,1.2-1.006,2.675,2.675,0,0,0,.461-1.581h-3.33v-.911h4.281v4.718h-.95v-1.57a3.9,3.9,0,0,1-.743.812,3.707,3.707,0,0,1-1.095.623,4.1,4.1,0,0,1-1.465.242" transform="translate(-25.12 -22.54)"/></g><g class="aj" transform="matrix(1, 0, 0, 1, 0, -98)"><path class="b" d="M181.714,120.675v8.874h6.7v-.964h-5.669v-2.991h5.063v-.979h-5.063v-2.977h5.669v-.964Z" transform="translate(-27.79 -22.56)"/></g><g class="ai" transform="matrix(1, 0, 0, 1, 0, -98)"><path class="b" d="M203.872,120.675v7.467l-5.628-7.467h-1.2v8.874h1.033v-7.492l5.628,7.492h1.2v-8.874Z" transform="translate(-30.08 -22.56)"/></g><g class="ah" transform="matrix(1, 0, 0, 1, 0, -98)"><path class="b" d="M218.129,129.637a4.409,4.409,0,0,1-2.353-.609,4.1,4.1,0,0,1-1.52-1.642,5.239,5.239,0,0,1,0-4.585,4.1,4.1,0,0,1,1.52-1.644,4.409,4.409,0,0,1,2.353-.609,4.658,4.658,0,0,1,1.859.356,4.135,4.135,0,0,1,1.4.971,4.033,4.033,0,0,1,.869,1.435h-1.086a2.827,2.827,0,0,0-1.088-1.3,3.361,3.361,0,0,0-1.871-.482,3.527,3.527,0,0,0-1.878.476,3.07,3.07,0,0,0-1.177,1.279,4.283,4.283,0,0,0,0,3.614,3.057,3.057,0,0,0,1.177,1.287,3.527,3.527,0,0,0,1.878.476,3.361,3.361,0,0,0,1.871-.484,2.825,2.825,0,0,0,1.088-1.3h1.086a4.114,4.114,0,0,1-2.27,2.407,4.672,4.672,0,0,1-1.859.354" transform="translate(-32.57 -22.54)"/></g><g class="ag" transform="matrix(1, 0, 0, 1, 0, -98)"><path class="b" d="M231.065,120.675v8.874h6.7v-.964H232.1v-2.991h5.065v-.979H232.1v-2.977h5.669v-.964Z" transform="translate(-35.16 -22.56)"/></g><g class="af" transform="matrix(1, 0, 0, 1, 0, -98)"><path class="b" d="M259.123,129.637a4.5,4.5,0,0,1-2.387-.609,4.124,4.124,0,0,1-1.535-1.642,4.907,4.907,0,0,1-.535-2.293,4.784,4.784,0,0,1,.55-2.292,4.189,4.189,0,0,1,1.561-1.644,4.517,4.517,0,0,1,2.374-.609,4.572,4.572,0,0,1,2.553.7,4.249,4.249,0,0,1,1.587,1.816h-1.126a3.03,3.03,0,0,0-1.149-1.125,3.59,3.59,0,0,0-1.784-.416,3.638,3.638,0,0,0-1.9.476,3.183,3.183,0,0,0-1.218,1.279,3.85,3.85,0,0,0-.419,1.81,3.913,3.913,0,0,0,.413,1.8,3.119,3.119,0,0,0,1.2,1.287,3.841,3.841,0,0,0,3.455.127,3,3,0,0,0,1.2-1.006,2.676,2.676,0,0,0,.462-1.581h-3.332v-.911h4.282v4.718h-.949v-1.57a3.947,3.947,0,0,1-.744.812,3.707,3.707,0,0,1-1.095.623,4.1,4.1,0,0,1-1.465.242" transform="translate(-38.68 -22.54)"/></g><g class="ae" transform="matrix(1, 0, 0, 1, 0, -98)"><path class="b" d="M275.79,121.72l1.857,4.33h-3.716Zm-.647-1.045-3.867,8.874h1.142l1.118-2.573h4.51l1.116,2.573h1.143l-3.868-8.874Z" transform="translate(-41.16 -22.56)"/></g><g class="ad" transform="matrix(1, 0, 0, 1, 0, -98)"><path class="b" d="M286.707,120.675v.951h3.178v7.923h1.031v-7.923H294.1v-.951Z" transform="translate(-43.47 -22.56)"/></g><g class="ac" transform="matrix(1, 0, 0, 1, 0, -98)"><path class="b" d="M302.428,120.675v8.874h6.7v-.964h-5.669v-2.991h5.063v-.979h-5.063v-2.977h5.669v-.964Z" transform="translate(-45.81 -22.56)"/></g><g class="ab" transform="matrix(1, 0, 0, 1, 0, -98)"><path class="b" d="M328.447,120.675l-2.339,7.453-2.451-7.453h-1.182l-2.449,7.453-2.339-7.453H316.6l2.835,8.874H320.6l2.462-7.452,2.463,7.452h1.17l2.836-8.874Z" transform="translate(-47.93 -22.56)"/></g><g class="aa" transform="matrix(1, 0, 0, 1, 0, -98)"><path class="b" d="M341.478,121.72l1.857,4.33h-3.716Zm-.647-1.045-3.866,8.874h1.142l1.114-2.573h4.514l1.115,2.573h1.142l-3.866-8.874Z" transform="translate(-50.97 -22.56)"/></g><g class="z" transform="matrix(1, 0, 0, 1, 0, -98)"><path class="b" d="M359.456,120.675l-3.082,4.316-3.082-4.316h-1.254l3.826,5.362v3.513H356.9v-3.513l3.81-5.362Z" transform="translate(-53.22 -22.56)"/></g></g><g transform="translate(0.296 0)"><g transform="translate(126.699)"><path class="b" d="M150.06,92.176v13.259h13.958V92.176H150.06Z" transform="translate(-150.06 -18.308)"/><path class="b" d="M210.965,20.662a39.407,39.407,0,0,0-14.56-10.3q-9.056-3.909-21.842-3.907h-24.5V72.8h13.849V19.715h14.443a32.361,32.361,0,0,1,10.062,1.657,28.243,28.243,0,0,1,9.411,5.268,26.52,26.52,0,0,1,6.985,9.351,32.59,32.59,0,0,1,2.664,13.792,32.659,32.659,0,0,1-2.31,12.726,25.481,25.481,0,0,1-6.45,9.233,28.125,28.125,0,0,1-9.886,5.683,38.91,38.91,0,0,1-11.888,1.923v.03h-6.346V92.636h8.23a46.5,46.5,0,0,0,16.337-2.9,40.748,40.748,0,0,0,13.732-8.4,40.133,40.133,0,0,0,9.353-13.2,42.277,42.277,0,0,0,3.433-17.4,50.1,50.1,0,0,0-2.6-15.8A41.8,41.8,0,0,0,210.965,20.662Z" transform="translate(-150.06 -5.509)"/><rect class="b" width="13.849" height="40.355" transform="translate(82.199 23.649)"/><path class="b" d="M331.083,49.025V69.334h-.011v7.393a21.107,21.107,0,0,1-6.51,2.249,42.389,42.389,0,0,1-7.814.709,37.764,37.764,0,0,1-12.785-2.071,27.41,27.41,0,0,1-9.884-5.979,28.489,28.489,0,0,1-6.452-9.352,30.27,30.27,0,0,1-2.367-12.193,36.745,36.745,0,0,1,1.88-12.081l25.723,13.952V62.4h11.643V49.025H315L288.525,34.664a26.026,26.026,0,0,1,5.257-7.3,27.017,27.017,0,0,1,10.063-6.1A39.948,39.948,0,0,1,317.1,19.194a33.09,33.09,0,0,1,6.748.769,71.39,71.39,0,0,1,7.161,1.893,25.477,25.477,0,0,1,5.742,2.547l4.617-12.786a49.714,49.714,0,0,0-11.541-4.5,56.415,56.415,0,0,0-14.5-1.775A48.215,48.215,0,0,0,298.458,8.3a40.316,40.316,0,0,0-14.087,8.819,41.316,41.316,0,0,0-8.052,10.923l-15.785-8.562V6.29H246.686V22.415h11.7l16.39,8.891c-.037.088-.078.171-.116.259a50.463,50.463,0,0,0-3.61,19.711,44.424,44.424,0,0,0,2.206,14.2L258.688,75.923h-12V92.47h13.849V79.03L274.6,68.937A38.589,38.589,0,0,0,283.364,81.4a42.506,42.506,0,0,0,14.264,8.819,52.486,52.486,0,0,0,18.883,3.2,41.884,41.884,0,0,0,7.931-.828,83.156,83.156,0,0,0,8.346-2.071,44.537,44.537,0,0,0,7.221-2.842,28.8,28.8,0,0,0,5.032-3.136V49.025Z" transform="translate(-164.487 -5.343)"/></g><rect class="b" width="0.693" height="86.085" transform="translate(111.694 0.486)"/><g transform="translate(0 0.964)"><path class="b" d="M103.518,54.23h2.659L112.318,67.8H109.8l-1.779-4.1H101.4l-1.855,4.1h-2.42Zm3.866,8-2.607-5.989-2.713,5.989Z" transform="translate(-15.458 -13.606)"/><g transform="translate(81.148 56.001)"><path class="b" d="M100.121,76.67a2.8,2.8,0,0,1-.366-1.309,2.675,2.675,0,0,1,1.114-2.188,4.656,4.656,0,0,1,2.962-.868,4.244,4.244,0,0,1,2.757.808,2.426,2.426,0,0,1,.988,1.931,3.1,3.1,0,0,1-1.021,2.293,9.769,9.769,0,0,1-2,1.325l3.089,2.946c.19-.5.321-.864.4-1.1a7.754,7.754,0,0,0,.231-1.03h2.023a8.311,8.311,0,0,1-.783,2.507c-.389.792-.584,1.119-.584.958l2.965,2.885h-2.635l-1.592-1.51a8.028,8.028,0,0,1-1.726,1.176,7.259,7.259,0,0,1-3.16.653,5.466,5.466,0,0,1-3.841-1.132,3.471,3.471,0,0,1-1.2-2.552A3.258,3.258,0,0,1,98.9,79.9a13.356,13.356,0,0,1,2.663-1.564,7.293,7.293,0,0,1-1.442-1.663m5.006,7.582a4.506,4.506,0,0,0,1.416-1.051l-3.832-3.731a11.473,11.473,0,0,0-2.1,1.325,2.193,2.193,0,0,0-.758,1.69,1.825,1.825,0,0,0,.979,1.658,4.066,4.066,0,0,0,2.106.577,4.767,4.767,0,0,0,2.191-.467m-.161-7.661a1.875,1.875,0,0,0,.675-1.4,1.317,1.317,0,0,0-.492-1.03,1.98,1.98,0,0,0-1.34-.435,2.044,2.044,0,0,0-1.77.681,1.235,1.235,0,0,0-.256.761,1.77,1.77,0,0,0,.385,1.081,10.976,10.976,0,0,0,1.294,1.347,9,9,0,0,0,1.5-1.006" transform="translate(-96.696 -72.305)"/><path class="b" d="M96.514,91.586h3.262l4.859,11.476L109.5,91.586h3.245v13.57h-2.166V97.143c0-.276.019-.733.05-1.377s.041-1.328.041-2.057l-4.917,11.448h-2.281L98.585,93.709v.413c0,.337.019.846.043,1.529s.048,1.177.048,1.492v8.014H96.514Z" transform="translate(-96.514 -75.184)"/></g><path class="b" d="M52.146,6.476,1.124,92.568h11.8l41.5-73.023V92.568h9.251V6.476Z" transform="translate(-1.124 -6.476)"/><path class="b" d="M57.985,35.748,48.676,52.112V96.939h9.309Z" transform="translate(-8.224 -10.846)"/><path class="b" d="M78.222,35.748l9.306,16.363V96.939H78.222Z" transform="translate(-12.635 -10.846)"/></g></g><g class="a" transform="translate(0 98.004)"><g class="y" transform="matrix(1, 0, 0, 1, 0, -98)"><path class="b" d="M1.81,128.6H4.575a2.958,2.958,0,0,0,1.693-.482,3.238,3.238,0,0,0,1.107-1.273,3.836,3.836,0,0,0,.392-1.729,3.88,3.88,0,0,0-.392-1.744A3.2,3.2,0,0,0,6.268,122.1a2.994,2.994,0,0,0-1.693-.476H1.81Zm-1.034.953v-8.874h3.84a4.125,4.125,0,0,1,1.56.3,4.056,4.056,0,0,1,1.344.878,4.174,4.174,0,0,1,.935,1.393,5.212,5.212,0,0,1,0,3.727,4.2,4.2,0,0,1-.935,1.394,4.153,4.153,0,0,1-2.9,1.179Z" transform="translate(-0.78 -22.56)"/></g><g class="x" transform="matrix(1, 0, 0, 1, 0, -98)"><path class="b" d="M19.445,121.72l1.857,4.33H17.587Zm-.647-1.045-3.866,8.874h1.142l1.115-2.573H21.7l1.115,2.573h1.142l-3.866-8.874Z" transform="translate(-2.89 -22.56)"/></g><g class="w" transform="matrix(1, 0, 0, 1, 0, -98)"><path class="b" d="M30.363,120.675v.951h3.179v7.923h1.031v-7.923h3.179v-.951Z" transform="translate(-5.19 -22.56)"/></g><g class="v" transform="matrix(1, 0, 0, 1, 0, -98)"><path class="b" d="M48.383,121.72l1.857,4.33H46.523Zm-.648-1.045-3.867,8.874h1.143l1.116-2.573h4.51l1.117,2.573H52.9l-3.868-8.874Z" transform="translate(-7.21 -22.56)"/></g><g class="u" transform="matrix(1, 0, 0, 1, 0, -98)"><rect class="b" width="1.031" height="8.874" transform="translate(59.13 98.11)"/></g><g class="t" transform="matrix(1, 0, 0, 1, 0, -98)"><path class="b" d="M86.44,120.675v7.467l-5.627-7.467h-1.2v8.874h1.033v-7.492l5.628,7.492h1.2v-8.874Z" transform="translate(-12.55 -22.56)"/></g><g class="s" transform="matrix(1, 0, 0, 1, 0, -98)"><path class="b" d="M95.889,120.675v.951h3.179v7.923H100.1v-7.923h3.179v-.951Z" transform="translate(-14.98 -22.56)"/></g><g class="r" transform="matrix(1, 0, 0, 1, 0, -98)"><path class="b" d="M111.61,120.675v8.874h6.7v-.964h-5.668v-2.991h5.063v-.979h-5.063v-2.977h5.668v-.964Z" transform="translate(-17.32 -22.56)"/></g><g class="q" transform="matrix(1, 0, 0, 1, 0, -98)"><path class="b" d="M126.944,120.675v8.874h6v-.964h-4.968v-7.91Z" transform="translate(-19.61 -22.56)"/></g><g class="p" transform="matrix(1, 0, 0, 1, 0, -98)"><path class="b" d="M141.066,120.675v8.874h6v-.964H142.1v-7.91Z" transform="translate(-21.72 -22.56)"/></g><g class="o" transform="matrix(1, 0, 0, 1, 0, -98)"><rect class="b" width="1.033" height="8.874" transform="translate(131.36 98.11)"/></g><g class="n" transform="matrix(1, 0, 0, 1, 0, -98)"><path class="b" d="M168.3,129.637a4.5,4.5,0,0,1-2.388-.609,4.14,4.14,0,0,1-1.534-1.642,4.907,4.907,0,0,1-.536-2.293,4.8,4.8,0,0,1,.55-2.292,4.2,4.2,0,0,1,1.562-1.644,4.514,4.514,0,0,1,2.375-.609,4.568,4.568,0,0,1,2.551.7,4.261,4.261,0,0,1,1.59,1.816H171.34a3.028,3.028,0,0,0-1.148-1.125,3.583,3.583,0,0,0-1.782-.416,3.65,3.65,0,0,0-1.9.476,3.185,3.185,0,0,0-1.216,1.279,3.841,3.841,0,0,0-.421,1.81,3.914,3.914,0,0,0,.414,1.8,3.124,3.124,0,0,0,1.2,1.287,3.845,3.845,0,0,0,3.456.127,3.011,3.011,0,0,0,1.2-1.006,2.675,2.675,0,0,0,.461-1.581h-3.33v-.911h4.281v4.718h-.95v-1.57a3.9,3.9,0,0,1-.743.812,3.707,3.707,0,0,1-1.095.623,4.1,4.1,0,0,1-1.465.242" transform="translate(-25.12 -22.54)"/></g><g class="m" transform="matrix(1, 0, 0, 1, 0, -98)"><path class="b" d="M181.714,120.675v8.874h6.7v-.964h-5.669v-2.991h5.063v-.979h-5.063v-2.977h5.669v-.964Z" transform="translate(-27.79 -22.56)"/></g><g class="l" transform="matrix(1, 0, 0, 1, 0, -98)"><path class="b" d="M203.872,120.675v7.467l-5.628-7.467h-1.2v8.874h1.033v-7.492l5.628,7.492h1.2v-8.874Z" transform="translate(-30.08 -22.56)"/></g><g class="k" transform="matrix(1, 0, 0, 1, 0, -98)"><path class="b" d="M218.129,129.637a4.409,4.409,0,0,1-2.353-.609,4.1,4.1,0,0,1-1.52-1.642,5.239,5.239,0,0,1,0-4.585,4.1,4.1,0,0,1,1.52-1.644,4.409,4.409,0,0,1,2.353-.609,4.658,4.658,0,0,1,1.859.356,4.135,4.135,0,0,1,1.4.971,4.033,4.033,0,0,1,.869,1.435h-1.086a2.827,2.827,0,0,0-1.088-1.3,3.361,3.361,0,0,0-1.871-.482,3.527,3.527,0,0,0-1.878.476,3.07,3.07,0,0,0-1.177,1.279,4.283,4.283,0,0,0,0,3.614,3.057,3.057,0,0,0,1.177,1.287,3.527,3.527,0,0,0,1.878.476,3.361,3.361,0,0,0,1.871-.484,2.825,2.825,0,0,0,1.088-1.3h1.086a4.114,4.114,0,0,1-2.27,2.407,4.672,4.672,0,0,1-1.859.354" transform="translate(-32.57 -22.54)"/></g><g class="j" transform="matrix(1, 0, 0, 1, 0, -98)"><path class="b" d="M231.065,120.675v8.874h6.7v-.964H232.1v-2.991h5.065v-.979H232.1v-2.977h5.669v-.964Z" transform="translate(-35.16 -22.56)"/></g><g class="i" transform="matrix(1, 0, 0, 1, 0, -98)"><path class="b" d="M259.123,129.637a4.5,4.5,0,0,1-2.387-.609,4.124,4.124,0,0,1-1.535-1.642,4.907,4.907,0,0,1-.535-2.293,4.784,4.784,0,0,1,.55-2.292,4.189,4.189,0,0,1,1.561-1.644,4.517,4.517,0,0,1,2.374-.609,4.572,4.572,0,0,1,2.553.7,4.249,4.249,0,0,1,1.587,1.816h-1.126a3.03,3.03,0,0,0-1.149-1.125,3.59,3.59,0,0,0-1.784-.416,3.638,3.638,0,0,0-1.9.476,3.183,3.183,0,0,0-1.218,1.279,3.85,3.85,0,0,0-.419,1.81,3.913,3.913,0,0,0,.413,1.8,3.119,3.119,0,0,0,1.2,1.287,3.841,3.841,0,0,0,3.455.127,3,3,0,0,0,1.2-1.006,2.676,2.676,0,0,0,.462-1.581h-3.332v-.911h4.282v4.718h-.949v-1.57a3.947,3.947,0,0,1-.744.812,3.707,3.707,0,0,1-1.095.623,4.1,4.1,0,0,1-1.465.242" transform="translate(-38.68 -22.54)"/></g><g class="h" transform="matrix(1, 0, 0, 1, 0, -98)"><path class="b" d="M275.79,121.72l1.857,4.33h-3.716Zm-.647-1.045-3.867,8.874h1.142l1.118-2.573h4.51l1.116,2.573h1.143l-3.868-8.874Z" transform="translate(-41.16 -22.56)"/></g><g class="g" transform="matrix(1, 0, 0, 1, 0, -98)"><path class="b" d="M286.707,120.675v.951h3.178v7.923h1.031v-7.923H294.1v-.951Z" transform="translate(-43.47 -22.56)"/></g><g class="f" transform="matrix(1, 0, 0, 1, 0, -98)"><path class="b" d="M302.428,120.675v8.874h6.7v-.964h-5.669v-2.991h5.063v-.979h-5.063v-2.977h5.669v-.964Z" transform="translate(-45.81 -22.56)"/></g><g class="e" transform="matrix(1, 0, 0, 1, 0, -98)"><path class="b" d="M328.447,120.675l-2.339,7.453-2.451-7.453h-1.182l-2.449,7.453-2.339-7.453H316.6l2.835,8.874H320.6l2.462-7.452,2.463,7.452h1.17l2.836-8.874Z" transform="translate(-47.93 -22.56)"/></g><g class="d" transform="matrix(1, 0, 0, 1, 0, -98)"><path class="b" d="M341.478,121.72l1.857,4.33h-3.716Zm-.647-1.045-3.866,8.874h1.142l1.114-2.573h4.514l1.115,2.573h1.142l-3.866-8.874Z" transform="translate(-50.97 -22.56)"/></g><g class="c" transform="matrix(1, 0, 0, 1, 0, -98)"><path class="b" d="M359.456,120.675l-3.082,4.316-3.082-4.316h-1.254l3.826,5.362v3.513H356.9v-3.513l3.81-5.362Z" transform="translate(-53.22 -22.56)"/></g></g></g></svg>