<svg xmlns="http://www.w3.org/2000/svg" xmlns:xlink="http://www.w3.org/1999/xlink" width="63.318" height="66.654" viewBox="0 0 63.318 66.654"><defs><clipPath id="a"><rect width="63.318" height="66.654" fill="none" stroke="#4e8abe" stroke-width="2.6"/></clipPath></defs><g transform="translate(0 0)" clip-path="url(#a)"><path d="M40.9,50.8H2.433A1.389,1.389,0,0,1,1,49.456V2.341A1.389,1.389,0,0,1,2.433,1H40.9a1.389,1.389,0,0,1,1.433,1.341V49.456A1.389,1.389,0,0,1,40.9,50.8" transform="translate(-0.043 -0.043)" fill="#fff" stroke="#4e8abe" stroke-width="2.6"/><path d="M40.9,50.8H2.433A1.389,1.389,0,0,1,1,49.456V2.341A1.389,1.389,0,0,1,2.433,1H40.9a1.389,1.389,0,0,1,1.433,1.341V49.456A1.389,1.389,0,0,1,40.9,50.8Z" transform="translate(-0.043 -0.043)" fill="none" stroke="#4e8abe" stroke-linecap="round" stroke-linejoin="round" stroke-width="2.6"/><path d="M17.105,9.312l-4.864,7.1L9.319,12.145" transform="translate(-0.398 -0.398)" fill="none" stroke="#4e8abe" stroke-linecap="round" stroke-linejoin="round" stroke-width="2.6"/><line x2="10.764" transform="translate(22.832 12.462)" fill="none" stroke="#4e8abe" stroke-linecap="round" stroke-linejoin="round" stroke-width="2.6"/><path d="M17.105,36.144l-4.864,7.1L9.319,38.976" transform="translate(-0.398 -1.545)" fill="none" stroke="#4e8abe" stroke-linecap="round" stroke-linejoin="round" stroke-width="2.6"/><path d="M17.105,22.728l-4.864,7.1L9.319,25.561" transform="translate(-0.398 -0.971)" fill="none" stroke="#4e8abe" stroke-linecap="round" stroke-linejoin="round" stroke-width="2.6"/><line x2="10.764" transform="translate(22.832 25.305)" fill="none" stroke="#4e8abe" stroke-linecap="round" stroke-linejoin="round" stroke-width="2.6"/><path d="M46.815,28.181a.832.832,0,0,0-.782-.643H40.8a.832.832,0,0,0-.782.643L39.061,32.7a1.463,1.463,0,0,1-.728.928L35.44,35.295a1.47,1.47,0,0,1-1.17.167l-4.395-1.422a.835.835,0,0,0-.949.357l-2.6,4.516a.833.833,0,0,0,.165,1L29.916,43a1.467,1.467,0,0,1,.439,1.1v3.34a1.467,1.467,0,0,1-.44,1.1l-3.43,3.089a.831.831,0,0,0-.166,1l2.609,4.523a.833.833,0,0,0,.949.357l4.392-1.426a1.475,1.475,0,0,1,1.169.167l2.894,1.667a1.467,1.467,0,0,1,.728.929l.955,4.519A.834.834,0,0,0,40.8,64h5.234a.833.833,0,0,0,.782-.643l.955-4.515a1.467,1.467,0,0,1,.728-.929l2.893-1.668a1.475,1.475,0,0,1,1.169-.167L56.955,57.5a.834.834,0,0,0,.949-.357l2.606-4.516a.834.834,0,0,0-.166-1l-3.429-3.093a1.465,1.465,0,0,1-.439-1.1V44.1a1.47,1.47,0,0,1,.439-1.1l3.432-3.089a.834.834,0,0,0,.166-1L57.9,34.391a.833.833,0,0,0-.948-.356l-4.393,1.427a1.47,1.47,0,0,1-1.169-.166L48.5,33.627a1.465,1.465,0,0,1-.728-.929Z" transform="translate(-1.121 -1.177)" fill="#fff" stroke="#4e8abe" stroke-width="2.6"/><path d="M46.815,28.181a.832.832,0,0,0-.782-.643H40.8a.832.832,0,0,0-.782.643L39.061,32.7a1.463,1.463,0,0,1-.728.928L35.44,35.295a1.47,1.47,0,0,1-1.17.167l-4.395-1.422a.835.835,0,0,0-.949.357l-2.6,4.516a.833.833,0,0,0,.165,1L29.916,43a1.467,1.467,0,0,1,.439,1.1v3.34a1.467,1.467,0,0,1-.44,1.1l-3.43,3.089a.831.831,0,0,0-.166,1l2.609,4.523a.833.833,0,0,0,.949.357l4.392-1.426a1.475,1.475,0,0,1,1.169.167l2.894,1.667a1.467,1.467,0,0,1,.728.929l.955,4.519A.834.834,0,0,0,40.8,64h5.234a.833.833,0,0,0,.782-.643l.955-4.515a1.467,1.467,0,0,1,.728-.929l2.893-1.668a1.475,1.475,0,0,1,1.169-.167L56.955,57.5a.834.834,0,0,0,.949-.357l2.606-4.516a.834.834,0,0,0-.166-1l-3.429-3.093a1.465,1.465,0,0,1-.439-1.1V44.1a1.47,1.47,0,0,1,.439-1.1l3.432-3.089a.834.834,0,0,0,.166-1L57.9,34.391a.833.833,0,0,0-.948-.356l-4.393,1.427a1.47,1.47,0,0,1-1.169-.166L48.5,33.627a1.465,1.465,0,0,1-.728-.929Z" transform="translate(-1.121 -1.177)" fill="none" stroke="#4e8abe" stroke-linecap="round" stroke-linejoin="round" stroke-width="2.6"/><path d="M46.815,28.181a.832.832,0,0,0-.782-.643H40.8a.832.832,0,0,0-.782.643L39.061,32.7a1.463,1.463,0,0,1-.728.928L35.44,35.295a1.47,1.47,0,0,1-1.17.167l-4.395-1.422a.835.835,0,0,0-.949.357l-2.6,4.516a.833.833,0,0,0,.165,1L29.916,43a1.467,1.467,0,0,1,.439,1.1v3.34a1.467,1.467,0,0,1-.44,1.1l-3.43,3.089a.831.831,0,0,0-.166,1l2.609,4.523a.833.833,0,0,0,.949.357l4.392-1.426a1.475,1.475,0,0,1,1.169.167l2.894,1.667a1.467,1.467,0,0,1,.728.929l.955,4.519A.834.834,0,0,0,40.8,64h5.234a.833.833,0,0,0,.782-.643l.955-4.515a1.467,1.467,0,0,1,.728-.929l2.893-1.668a1.475,1.475,0,0,1,1.169-.167L56.955,57.5a.834.834,0,0,0,.949-.357l2.606-4.516a.834.834,0,0,0-.166-1l-3.429-3.093a1.465,1.465,0,0,1-.439-1.1V44.1a1.47,1.47,0,0,1,.439-1.1l3.432-3.089a.834.834,0,0,0,.166-1L57.9,34.391a.833.833,0,0,0-.948-.356l-4.393,1.427a1.47,1.47,0,0,1-1.169-.166L48.5,33.627a1.465,1.465,0,0,1-.728-.929Z" transform="translate(-1.121 -1.177)" fill="none" stroke="#4e8abe" stroke-linecap="round" stroke-linejoin="round" stroke-width="2.6"/><path d="M50.24,46.3a6.34,6.34,0,1,1-6.34-6.34" transform="translate(-1.605 -1.708)" fill="none" stroke="#4e8abe" stroke-linecap="round" stroke-linejoin="round" stroke-width="2.6"/></g></svg>