<svg xmlns="http://www.w3.org/2000/svg" xmlns:xlink="http://www.w3.org/1999/xlink" width="63.318" height="64.828" viewBox="0 0 63.318 64.828"><defs><clipPath id="a"><rect width="63.318" height="64.828" fill="none" stroke="#4e8abe" stroke-width="2.6"/></clipPath></defs><g transform="translate(0 0)"><g transform="translate(0 0)" clip-path="url(#a)"><path d="M15.1,12.952a4.868,4.868,0,1,1,4.868-4.868A4.873,4.873,0,0,1,15.1,12.952" transform="translate(-0.922 -0.29)" fill="#fff" stroke="#4e8abe" stroke-width="2.6"/><path d="M15.1,12.952a4.868,4.868,0,1,1,4.868-4.868A4.873,4.873,0,0,1,15.1,12.952Z" transform="translate(-0.922 -0.29)" fill="none" stroke="#4e8abe" stroke-linecap="round" stroke-linejoin="round" stroke-width="2.6"/><path d="M15.1,12.952a4.868,4.868,0,1,1,4.868-4.868A4.873,4.873,0,0,1,15.1,12.952Z" transform="translate(-0.922 -0.29)" fill="none" stroke="#4e8abe" stroke-linecap="round" stroke-linejoin="round" stroke-width="2.6"/><path d="M9.1,62.576,7.6,42.389l-.041-.036c-2.72.107-5.2-1.246-5.462-3.6L1,24.033c-.006-.123,0-.207,0-.255a5.4,5.4,0,0,1,5.149-5.441H40.312c0,2.621-2.159,5.22-4.78,5.22H22.341L19.433,62.577" transform="translate(-0.09 -1.653)" fill="#fff" stroke="#4e8abe" stroke-width="2.6"/><path d="M9.1,62.576,7.6,42.389l-.041-.036c-2.72.107-5.2-1.246-5.462-3.6L1,24.033c-.006-.123,0-.207,0-.255a5.4,5.4,0,0,1,5.149-5.441H40.312c0,2.621-2.159,5.22-4.78,5.22H22.341L19.433,62.577" transform="translate(-0.09 -1.653)" fill="none" stroke="#4e8abe" stroke-linejoin="round" stroke-width="2.6"/><line x1="1.23" y1="16.626" transform="translate(6.282 24.109)" fill="none" stroke="#4e8abe" stroke-linecap="round" stroke-linejoin="round" stroke-width="2.6"/><path d="M32.268,65.65V49.471h7.378" transform="translate(-2.91 -4.461)" fill="none" stroke="#4e8abe" stroke-linejoin="round" stroke-width="2.6"/><path d="M43.376,64.246V33.9h7.378" transform="translate(-3.912 -3.057)" fill="none" stroke="#4e8abe" stroke-linejoin="round" stroke-width="2.6"/><path d="M54.485,62.842v-44.5H64.592v44.5" transform="translate(-4.914 -1.653)" fill="none" stroke="#4e8abe" stroke-linejoin="round" stroke-width="2.6"/><line x2="61.021" transform="translate(1.387 63.918)" fill="none" stroke="#4e8abe" stroke-linecap="round" stroke-linejoin="round" stroke-width="2.6"/></g></g></svg>