<svg xmlns="http://www.w3.org/2000/svg" xmlns:xlink="http://www.w3.org/1999/xlink" version="1.1" id="Layer_1" x="0px" y="0px" viewBox="0 0 669 338" style="enable-background:new 0 0 669 338;" xml:space="preserve">
<style type="text/css">
	.st0{enable-background:new    ;}
	.st1{fill:#00244A;}
	.st2{fill:#00254A;}
	.st3{fill:#3A84B6;}
	.st4{fill:#3486B7;}
</style>
<g>
	<g class="st0">
		<path class="st1" d="M44.7,251.3H47v26.3h-2.4C44.7,277.5,44.7,251.3,44.7,251.3z"/>
		<path class="st1" d="M58.7,253.2h-6.8v-2h15.9v2H61v24.3h-2.4L58.7,253.2L58.7,253.2z"/>
		<path class="st1" d="M73.9,251.3h2.5v3.8c0,2.2-0.5,4.2-2.8,5.1v-1.5c0.9-0.6,1.3-1.7,1.3-3.6h-1.1L73.9,251.3L73.9,251.3z"/>
		<path class="st1" d="M95.6,258c0-3.2-1.5-5.1-4.7-5.1s-5,2.1-5,4.7c0,7.8,12.7,3.5,12.7,12.8c0,5.1-3.1,7.7-7.9,7.7    c-5,0-7.6-2.7-7.6-7.8v-0.7h2.4v1c0,3.3,1.7,5.6,5.2,5.6c3.3,0,5.7-1.7,5.7-5.3c0-7.8-12.7-3.3-12.7-12.9c0-4.1,2.7-7,7.3-7    c4.9,0,7.2,2.5,7.2,7.2L95.6,258L95.6,258z"/>
		<path class="st1" d="M128.3,264.4h-10.2v13h-2.4v-26.3h2.4v11.2h10.3v-11.2h2.4v26.3h-2.4L128.3,264.4L128.3,264.4z"/>
		<path class="st1" d="M145.6,250.8c5.3,0,8.4,4.1,8.4,13.6c0,9.4-3,13.6-8.4,13.6c-5.3,0-8.4-4.1-8.4-13.6    C137.1,254.9,140.1,250.8,145.6,250.8z M145.6,275.9c3.8,0,6.1-3.1,6.1-11.6c0-8.5-2.3-11.6-6.1-11.6c-3.8,0-6.1,3.1-6.1,11.6    C139.5,272.9,141.8,275.9,145.6,275.9z"/>
		<path class="st1" d="M158.7,251.3h2.4l4.6,23.1h0.1l4.5-23.1h2.8l4.5,23.1h0.1l4.6-23.1h2.4l-5.5,26.3h-2.9l-4.3-23.1h-0.1    l-4.3,23.1h-3.1L158.7,251.3z"/>
		<path class="st1" d="M197.8,251.3h2.4l4.6,23.1h0.1l4.5-23.1h2.8l4.5,23.1h0.1l4.6-23.1h2.4l-5.5,26.3h-2.9l-4.3-23.1h-0.1    l-4.3,23.1h-2.9L197.8,251.3z"/>
		<path class="st1" d="M228.6,251.3h13v2H231v9.6h9.9v2H231v10.8h11v2h-13.4V251.3z"/>
		<path class="st1" d="M271.5,264.4h-10.3v13H259v-26.3h2.4v11.2h10.3v-11.2h2.4v26.3h-2.4L271.5,264.4L271.5,264.4z"/>
		<path class="st1" d="M280.7,251.3h2.4v26.3h-2.4V251.3z"/>
		<path class="st1" d="M289.9,251.3h7.8c4.4,0,6.8,2.5,6.8,6.6c0,3.1-1.3,6-4.8,6.6v0.1c3.3,0.3,4.4,2.2,4.5,6.2l0.1,2.8    c0,1.5,0.2,2.8,1.1,3.9h-2.8c-0.6-0.9-0.6-2.3-0.7-3.7l-0.1-2.2c-0.2-4.6-1-6.1-5.2-6.1h-4.4v11.9h-2.4L289.9,251.3L289.9,251.3z     M292.2,263.5h4c3.7,0,5.9-1.7,5.9-5.1c0-3.2-1.4-5.1-5.6-5.1h-4.3L292.2,263.5L292.2,263.5z"/>
		<path class="st1" d="M310.9,251.3h13v2h-10.8v9.6h9.9v2h-9.9v10.8h11v2h-13.3V251.3z"/>
		<path class="st1" d="M345.4,251.3h2.9l7.7,26.3h-2.5l-2.1-7.6h-9.2l-2.1,7.6h-2.5L345.4,251.3z M351,267.8l-4-14.8h-0.1l-4,14.8    H351z"/>
		<path class="st1" d="M360.8,251.3h3.1l10,22.9h0.1v-22.9h2.4v26.3h-3.1l-10-22.9h-0.1v22.9h-2.4V251.3z"/>
		<path class="st1" d="M383,251.3h6.3c7.6,0,9.6,4.6,9.6,13.1c0,8.5-1.8,13.1-9.6,13.1H383V251.3z M385.4,275.4h3.9    c5.1,0,7.4-2.6,7.4-11.1c0-8.6-2.2-11.2-7.4-11.2h-3.9V275.4z"/>
		<path class="st1" d="M413.7,251.3h2.4l4.6,23.1h0.1l4.5-23.1h2.8l4.5,23.1h0.1l4.6-23.1h2.4l-5.5,26.3h-2.9l-4.3-23.1h-0.1    l-4.3,23.1h-2.9L413.7,251.3z"/>
		<path class="st1" d="M457.1,264.4h-10.3v13h-2.4v-26.3h2.4v11.2h10.3v-11.2h2.4v26.3h-2.4V264.4z"/>
		<path class="st1" d="M474.4,250.8c5.3,0,8.4,4.1,8.4,13.6c0,9.4-3,13.6-8.4,13.6c-5.3,0-8.4-4.1-8.4-13.6    C465.9,254.9,468.9,250.8,474.4,250.8z M474.4,275.9c3.8,0,6.1-3.1,6.1-11.6c0-8.5-2.3-11.6-6.1-11.6s-6.1,3.1-6.1,11.6    C468.3,272.9,470.6,275.9,474.4,275.9z"/>
		<path class="st1" d="M497.5,251.3h2.4l4.6,23.1h0.1l4.5-23.1h2.8l4.5,23.1h0.1l4.6-23.1h2.4l-5.5,26.3H515l-4.3-23.1h-0.1    l-4.3,23.1h-2.9L497.5,251.3z"/>
		<path class="st1" d="M528.3,251.3h13v2h-10.7v9.6h9.9v2h-9.9v10.8h11v2h-13.3L528.3,251.3L528.3,251.3z"/>
		<path class="st1" d="M571.2,264.4h-10.3v13h-2.4v-26.3h2.4v11.2h10.3v-11.2h2.4v26.3h-2.4V264.4z"/>
		<path class="st1" d="M580.4,251.3h2.4v26.3h-2.4V251.3z"/>
		<path class="st1" d="M589.6,251.3h7.8c4.4,0,6.8,2.5,6.8,6.6c0,3.1-1.3,6-4.8,6.6v0.1c3.3,0.3,4.4,2.2,4.5,6.2l0.1,2.8    c0,1.5,0.2,2.8,1.1,3.9h-2.8c-0.6-0.9-0.6-2.3-0.7-3.7l-0.1-2.2c-0.2-4.6-1-6.1-5.2-6.1h-4.4v11.9h-2.4L589.6,251.3L589.6,251.3z     M592,263.5h4c3.7,0,5.9-1.7,5.9-5.1c0-3.2-1.4-5.1-5.6-5.1H592L592,263.5L592,263.5z"/>
		<path class="st1" d="M610.6,251.3h13v2h-10.7v9.6h9.9v2h-9.9v10.8h11v2h-13.3L610.6,251.3L610.6,251.3z"/>
		<path class="st1" d="M149.3,299.8h-6.8v-2h15.9v2h-6.8V324h-2.4L149.3,299.8L149.3,299.8z"/>
		<path class="st1" d="M175.9,311h-10.3v13h-2.4v-26.3h2.4V309h10.3v-11.2h2.4V324h-2.4V311z"/>
		<path class="st1" d="M190.6,297.9h2.9l7.7,26.3h-2.5l-2.1-7.6h-9.2l-2.1,7.6h-2.5L190.6,297.9z M196.1,314.5l-4-14.8H192l-4,14.8    H196.1z"/>
		<path class="st1" d="M208.8,299.8H202v-2h15.9v2h-6.8V324h-2.4L208.8,299.8L208.8,299.8z"/>
		<path class="st1" d="M234.1,297.9h6.3c7.6,0,9.6,4.6,9.6,13.1s-1.8,13.1-9.6,13.1h-6.3V297.9z M236.4,322.1h3.9    c5.1,0,7.4-2.6,7.4-11.1c0-8.6-2.2-11.2-7.4-11.2h-3.9V322.1z"/>
		<path class="st1" d="M256.5,297.9h13v2h-10.7v9.5h9.9v2h-9.9v10.8h11v2h-13.3L256.5,297.9L256.5,297.9z"/>
		<path class="st1" d="M275.3,297.9h2.4v24.3h10.8v2h-13.2V297.9z"/>
		<path class="st1" d="M293.7,297.9h2.4V324h-2.4V297.9z"/>
		<path class="st1" d="M301,297.9h2.5l5.9,23.7h0.1l5.9-23.7h2.5l-6.9,26.3h-2.9L301,297.9z"/>
		<path class="st1" d="M322.5,297.9h13v2h-10.7v9.5h9.9v2h-9.9v10.8h11v2h-13.3L322.5,297.9L322.5,297.9z"/>
		<path class="st1" d="M341.4,297.9h7.8c4.4,0,6.8,2.5,6.8,6.6c0,3.1-1.3,6-4.8,6.6v0.1c3.3,0.3,4.4,2.2,4.5,6.2l0.1,2.8    c0,1.5,0.2,2.8,1.1,3.9h-2.8c-0.6-0.9-0.6-2.3-0.7-3.7l-0.1-2.2c-0.2-4.6-1-6.1-5.2-6.1h-4.4v11.9h-2.4L341.4,297.9L341.4,297.9z     M343.7,310.1h4c3.7,0,5.9-1.7,5.9-5.1c0-3.2-1.4-5.1-5.6-5.1h-4.3L343.7,310.1L343.7,310.1z"/>
		<path class="st1" d="M373.8,304.6c0-3.2-1.5-5.1-4.7-5.1s-5,2.1-5,4.7c0,7.8,12.7,3.5,12.7,12.8c0,5.1-3.1,7.7-7.9,7.7    c-5,0-7.6-2.7-7.6-7.8V316h2.4v1c0,3.3,1.7,5.6,5.2,5.6c3.3,0,5.7-1.7,5.7-5.3c0-7.8-12.7-3.3-12.7-12.9c0-4.1,2.7-7,7.3-7    c4.9,0,7.2,2.5,7.2,7.2L373.8,304.6L373.8,304.6z"/>
		<path class="st1" d="M394,297.9h7.8c4.4,0,6.8,2.5,6.8,6.6c0,3.1-1.3,6-4.8,6.6v0.1c3.3,0.3,4.4,2.2,4.5,6.2l0.1,2.8    c0,1.5,0.2,2.8,1.1,3.9h-2.8c-0.6-0.9-0.6-2.3-0.7-3.7l-0.1-2.2c-0.2-4.6-1-6.1-5.2-6.1h-4.4v11.9h-2.4L394,297.9L394,297.9z     M396.3,310.1h4c3.7,0,5.9-1.7,5.9-5.1c0-3.2-1.4-5.1-5.6-5.1h-4.3L396.3,310.1L396.3,310.1z"/>
		<path class="st1" d="M414.9,297.9h13v2h-10.7v9.5h9.9v2h-9.9v10.8h11v2H415L414.9,297.9L414.9,297.9z"/>
		<path class="st1" d="M445.2,304.6c0-3.2-1.5-5.1-4.7-5.1s-5,2.1-5,4.7c0,7.8,12.7,3.5,12.7,12.8c0,5.1-3.1,7.7-7.9,7.7    c-5,0-7.6-2.7-7.6-7.8V316h2.4v1c0,3.3,1.7,5.6,5.2,5.6c3.3,0,5.7-1.7,5.7-5.3c0-7.8-12.7-3.3-12.7-12.9c0-4.1,2.7-7,7.3-7    c4.9,0,7.2,2.5,7.2,7.2L445.2,304.6L445.2,304.6z"/>
		<path class="st1" d="M453.6,297.9h2.4v18.8c0,4,1.7,5.9,5.1,5.9s5.1-1.9,5.1-5.9v-18.8h2.4v18.8c0,5.5-2.7,7.8-7.5,7.8    c-4.8,0-7.5-2.3-7.5-7.8V297.9z"/>
		<path class="st1" d="M474.9,297.9h2.4v24.3h10.8v2h-13.2V297.9z"/>
		<path class="st1" d="M495.4,299.8h-6.8v-2h15.9v2h-6.8V324h-2.4L495.4,299.8L495.4,299.8z"/>
		<path class="st1" d="M520.9,304.6c0-3.2-1.5-5.1-4.7-5.1c-3.2,0-5,2.1-5,4.7c0,7.8,12.7,3.5,12.7,12.8c0,5.1-3.1,7.7-7.9,7.7    c-5,0-7.6-2.7-7.6-7.8V316h2.4v1c0,3.3,1.7,5.6,5.2,5.6c3.3,0,5.7-1.7,5.7-5.3c0-7.8-12.7-3.3-12.7-12.9c0-4.1,2.7-7,7.3-7    c4.9,0,7.2,2.5,7.2,7.2L520.9,304.6L520.9,304.6z"/>
	</g>
	<g>
		<path class="st2" d="M263.8,56.9h3l7,15.4h-2.9l-2-4.7h-7.5l-2.1,4.7h-2.8L263.8,56.9z M268.2,66l-3-6.8l-3.1,6.8H268.2z"/>
		<g>
			<path class="st2" d="M259.8,79.3c-0.3-0.5-0.4-1-0.4-1.5c0-1,0.4-1.8,1.3-2.5c0.8-0.7,2-1,3.4-1c1.3,0,2.4,0.3,3.1,0.9     c0.8,0.6,1.1,1.3,1.1,2.2c0,1-0.4,1.9-1.2,2.6c-0.5,0.4-1.2,0.9-2.3,1.5l3.5,3.4c0.2-0.6,0.4-1,0.4-1.3c0.1-0.3,0.2-0.7,0.3-1.2     h2.3c-0.1,1-0.4,1.9-0.9,2.9c-0.4,0.9-0.7,1.3-0.7,1.1l3.4,3.3h-3l-1.7-1.7c-0.7,0.6-1.4,1.1-2,1.3c-1,0.5-2.2,0.7-3.6,0.7     c-2,0-3.5-0.4-4.4-1.3s-1.4-1.8-1.4-2.9c0-1.2,0.4-2.1,1.3-2.9c0.5-0.5,1.5-1.1,3-1.8C260.7,80.5,260.1,79.8,259.8,79.3      M265.5,87.9c0.7-0.4,1.2-0.8,1.6-1.2l-4.4-4.2c-1.2,0.7-2,1.2-2.4,1.5c-0.6,0.5-0.9,1.2-0.9,1.9c0,0.8,0.4,1.4,1.1,1.9     c0.7,0.4,1.5,0.7,2.4,0.7C264,88.5,264.8,88.3,265.5,87.9 M265.4,79.2c0.5-0.5,0.8-1,0.8-1.6c0-0.4-0.2-0.8-0.6-1.2     c-0.4-0.3-0.9-0.5-1.5-0.5c-1,0-1.6,0.3-2,0.8c-0.2,0.3-0.3,0.6-0.3,0.9c0,0.4,0.1,0.8,0.4,1.2c0.3,0.4,0.8,0.9,1.5,1.5     C264.5,79.9,265,79.5,265.4,79.2"/>
			<path class="st2" d="M255.9,93h3.7l5.5,13.1l5.5-13.1h3.7v15.4h-2.5v-9.1c0-0.3,0-0.8,0.1-1.6c0-0.7,0-1.5,0-2.3l-5.6,13h-2.6     l-5.6-13v0.5c0,0.4,0,1,0,1.7c0,0.8,0.1,1.3,0.1,1.7v9.1h-2.5V93H255.9z"/>
		</g>
		<polygon class="st2" points="221.7,10.7 163.7,108.6 177.1,108.6 224.3,25.5 224.3,108.6 234.8,108.6 234.8,10.7   "/>
		<polygon class="st3" points="220.2,39 209.7,57.6 209.7,108.6 220.2,108.6   "/>
		<polygon class="st3" points="238.2,39 248.8,57.6 248.8,108.6 238.2,108.6   "/>
		<polygon class="st3" points="143.2,143 140.5,147.6 528.2,147.6 528.2,143   "/>
		<polygon class="st3" points="325.9,24.3 325,28.9 523.7,28.9 523.6,147.6 528.2,147.6 528.2,24.3   "/>
		<g>
			<path class="st2" d="M368.6,53h8.8l5.1,33.7L401.1,53h8.8l-13,65.1h-9.7l8-40.4l-13.5,25.9h-5.4l-2.9-26.1l-8.1,40.6h-9.7     L368.6,53z"/>
			<path class="st2" d="M423,82.5c-2.7-6.3-4.1-10.8-4.1-14.4c0-9,5.1-15.7,14.4-15.7c7.7,0,11.6,5.2,11.6,12     c0,8-4.1,12.9-10.6,18.7l-1.2,1.1l5,12.2c2-3.2,3.7-8,4.8-12.3h7.9c-1.7,7.4-5.4,15.8-9.1,21.1l5.3,13.1h-9.5l-2.4-5.6     c-4,4.1-8.5,6.3-13.4,6.3c-8.5,0-12.3-6-12.3-13.3C409.5,95.8,414.8,89.1,423,82.5z M423.6,110.2c2.7,0,5.3-1.6,8.5-5.3l-6-14.5     c-3.9,3.6-7.6,8-7.6,13.4C418.5,107.9,420.4,110.2,423.6,110.2z M431.2,75.4c2.9-2.7,5.2-6.1,5.2-10.1c0-3.2-1.4-4.6-3.7-4.6     c-3,0-4.9,3.3-4.9,7c0,3,0.9,5.7,2.2,8.7L431.2,75.4z"/>
			<path class="st2" d="M479.4,118.1l0.1-13.2h-14.4l-5.3,13.2h-10.3L477.6,53h9.5l2,65.1H479.4z M479.6,67.9l-11,28.3h10.8     L479.6,67.9z"/>
		</g>
		<g>
			<path class="st3" d="M317.1,67.8h6l-8.1,40.5h-6L317.1,67.8z"/>
			<path class="st3" d="M329.6,97.3c-0.2,1.2-0.3,2.1-0.3,2.8c0,1,0.2,1.7,0.7,2.2c0.5,0.6,1.3,1,2.4,1c1.3,0,2.3-0.4,3.1-1.1     c1.1-1,1.4-2,2-4.6c0.3-1.3,0.4-2.6,0.4-3.6c0-1.6-0.9-2.7-2.7-3.5l-3.8-1.8c-3.1-1.5-4.2-3.5-4.2-6.4c0-1.5,0.1-2.8,0.5-4.4     c0.7-3.4,1.8-6,3.6-7.7c1.8-1.8,3.9-2.8,7.3-2.8s5.2,0.9,6.8,2.4c0.9,0.9,1.6,2.7,1.6,4.9c0,1.1-0.1,2.4-0.4,4.1h-6     c0.3-1.3,0.3-2.2,0.3-3c0-1-0.2-1.7-0.6-2.2c-0.3-0.5-1-0.9-2-0.9c-1.1,0-1.9,0.3-2.7,1c-1,0.9-1.5,2.3-1.8,4.1     c-0.2,0.9-0.3,1.9-0.3,2.7c0,1.7,0.8,2.6,2.2,3.2l3.2,1.5c3.9,1.9,5.2,3.7,5.2,6.9c0,1.5-0.2,3.4-0.6,5.4     c-0.9,4.6-1.9,6.7-3.6,8.4c-1.9,1.8-4.2,2.7-8,2.7c-3.5,0-5.5-0.8-6.9-2.4c-1.1-1.2-1.8-2.9-1.8-5c0-1.3,0.2-2.4,0.5-4.1h5.9     V97.3z"/>
		</g>
	</g>
	<g>
		<path class="st4" d="M25.8,202.5c-0.2-3.5-1.5-6.6-5.6-6.6c-5.7,0-6.5,6.3-6.5,14c0,7.7,0.8,14,6.5,14s6.2-6.8,6.2-11.3h-6.7v-3.3    h10.3v17.4H27v-4.5h-0.1c-0.9,2.9-3.6,5.2-7.2,5.2c-8.7,0-10.2-8.4-10.2-17.4c0-8.4,1.5-17.4,10.8-17.4c9.6,0,9.8,8.2,9.9,9.9    L25.8,202.5L25.8,202.5z"/>
		<path class="st4" d="M37.7,193.3h4.1v29.8h13.6v3.7H37.7V193.3z"/>
		<path class="st4" d="M82.1,210c0,8.4-1.5,17.4-10.8,17.4s-10.8-9-10.8-17.4c0-8.4,1.5-17.4,10.8-17.4    C80.6,192.6,82.1,201.6,82.1,210z M64.9,210c0,7.7,0.8,14,6.5,14c5.7,0,6.5-6.3,6.5-14c0-7.7-0.8-14-6.5-14    C65.6,196,64.9,202.2,64.9,210z"/>
		<path class="st4" d="M89.7,193.3h10.2c4.3,0,8.6,2,8.6,8.6c0,3.1-1.8,6.1-4.9,6.9v0.1c4.1,1,6,4.1,6,8.3c0,6.8-3.9,9.5-10.8,9.5    h-9.1V193.3z M93.8,207.7h4.7c1.7,0,5.7-0.4,5.7-5.6c0-3.5-1.7-5.5-5.8-5.5h-4.6L93.8,207.7L93.8,207.7z M93.8,223.4h5.6    c4.3,0,5.9-3,5.9-6.2c0-4.6-3-6.4-6.6-6.4h-4.9V223.4z"/>
		<path class="st4" d="M123.1,193.3h5.5l9,33.5h-4.3l-2.4-9.2h-10.7l-2.5,9.2h-4.3L123.1,193.3z M121.1,214.2h9l-4.2-16.2h-0.1    L121.1,214.2z"/>
		<path class="st4" d="M142.6,193.3h4.1v29.8h13.6v3.7h-17.7V193.3z"/>
		<path class="st4" d="M188.2,226.7h-4.1v-29.8h-8.4v-3.7h20.9v3.7h-8.4V226.7z"/>
		<path class="st4" d="M202.3,193.3h10.8c5.2,0,8.6,3.1,8.6,8.4c0,3.7-1.3,7.5-5.1,8.4v0.1c2.9,0.3,4.5,2.7,4.7,5.6l0.3,5.7    c0.2,3.7,0.8,4.6,1.7,5.2h-4.9c-0.7-0.7-1.1-3.2-1.2-4.8l-0.3-5.2c-0.3-4.6-2.9-4.9-4.9-4.9h-5.6v15h-4.1L202.3,193.3L202.3,193.3    z M206.4,208.4h4.1c2.4,0,6.8,0,6.8-6.5c0-3.3-2.2-5.3-6.1-5.3h-4.9L206.4,208.4L206.4,208.4z"/>
		<path class="st4" d="M235.8,193.3h5.5l9,33.5h-4.3l-2.4-9.2h-10.7l-2.5,9.2h-4.3L235.8,193.3z M233.7,214.2h9l-4.2-16.2h-0.1    L233.7,214.2z"/>
		<path class="st4" d="M255.1,193.3h5.3l11.1,28h0.1v-28h4.1v33.5h-5.7l-10.7-27.1h-0.1v27.1h-4.1V193.3z"/>
		<path class="st4" d="M298.1,202c0-3.5-1.3-6-5.2-6c-3.5,0-5.5,1.8-5.5,5.4c0,9.5,15.8,3.8,15.8,16c0,7.7-5.7,9.9-10.4,9.9    c-7.8,0-10.1-4.1-10.1-11.2h4.1c0,3.8,0.2,7.8,6.3,7.8c3.3,0,5.8-2.3,5.8-5.9c0-9.5-15.8-4-15.8-16.3c0-3.1,1.4-9.3,9.8-9.3    c6.4,0,9.3,3.2,9.4,9.4L298.1,202L298.1,202z"/>
		<path class="st4" d="M316.4,193.3h5.5l9,33.5h-4.3l-2.4-9.2h-10.7l-2.5,9.2h-4.3L316.4,193.3z M314.4,214.2h9l-4.2-16.2H319    L314.4,214.2z"/>
		<path class="st4" d="M356.3,215.3c-0.4,6.4-2.9,12.2-10.1,12.2c-9.5,0-10.8-9-10.8-17.4c0-8.4,1.5-17.4,10.8-17.4    c6.8,0,9.7,3.9,9.9,10.4h-4.3c-0.1-3.8-1.4-7-5.6-7c-5.7,0-6.5,6.3-6.5,14c0,7.7,0.8,14,6.5,14c5,0,5.7-4.7,5.9-8.8H356.3z"/>
		<path class="st4" d="M372.9,226.7h-4.1v-29.8h-8.4v-3.7h20.9v3.7h-8.4V226.7z"/>
		<path class="st4" d="M387,193.3h4.1v33.5H387V193.3z"/>
		<path class="st4" d="M420.1,210c0,8.4-1.5,17.4-10.8,17.4c-9.3,0-10.8-9-10.8-17.4c0-8.4,1.5-17.4,10.8-17.4    C418.6,192.6,420.1,201.6,420.1,210z M403,210c0,7.7,0.8,14,6.5,14s6.5-6.3,6.5-14c0-7.7-0.8-14-6.5-14    C403.7,196,403,202.2,403,210z"/>
		<path class="st4" d="M427.8,193.3h5.3l11.1,28h0.1v-28h4.1v33.5h-5.7l-10.8-27.1h-0.1v27.1h-4.1L427.8,193.3L427.8,193.3z"/>
		<path class="st4" d="M475,193.3h5.5l9,33.5h-4.3l-2.4-9.2H472l-2.5,9.2h-4.3L475,193.3z M473,214.2h9l-4.2-16.2h-0.1L473,214.2z"/>
		<path class="st4" d="M494.9,193.3h9c10.4,0,11.7,7.5,11.7,16.7c0,8.4-2.1,16.7-11.3,16.7h-9.4L494.9,193.3L494.9,193.3z     M498.9,223.4h4.3c7.1,0,7.9-7.3,7.9-13.3c0-6.5-0.4-13.4-7.9-13.4h-4.3V223.4z"/>
		<path class="st4" d="M520.2,193.3h4.3l6.6,28.7h0.1l6.6-28.7h4.3l-8.5,33.5h-5.2L520.2,193.3z"/>
		<path class="st4" d="M547.2,193.3h4.1v33.5h-4.1V193.3z"/>
		<path class="st4" d="M573.6,202c0-3.5-1.3-6-5.2-6c-3.5,0-5.5,1.8-5.5,5.4c0,9.5,15.8,3.8,15.8,16c0,7.7-5.7,9.9-10.4,9.9    c-7.8,0-10.1-4.1-10.1-11.2h4.1c0,3.8,0.2,7.8,6.3,7.8c3.3,0,5.8-2.3,5.8-5.9c0-9.5-15.8-4-15.8-16.3c0-3.1,1.4-9.3,9.8-9.3    c6.4,0,9.3,3.2,9.4,9.4L573.6,202L573.6,202z"/>
		<path class="st4" d="M606.5,210c0,8.4-1.5,17.4-10.8,17.4c-9.3,0-10.8-9-10.8-17.4c0-8.4,1.5-17.4,10.8-17.4    C604.9,192.6,606.5,201.6,606.5,210z M589.3,210c0,7.7,0.8,14,6.5,14c5.7,0,6.5-6.3,6.5-14c0-7.7-0.8-14-6.5-14    C590,196,589.3,202.2,589.3,210z"/>
		<path class="st4" d="M614.1,193.3h10.8c5.2,0,8.6,3.1,8.6,8.4c0,3.7-1.3,7.5-5.1,8.4v0.1c2.9,0.3,4.5,2.7,4.7,5.6l0.3,5.7    c0.2,3.7,0.8,4.6,1.7,5.2h-4.9c-0.7-0.7-1.1-3.2-1.2-4.8l-0.3-5.2c-0.3-4.6-2.9-4.9-4.9-4.9h-5.6v15h-4.1V193.3z M618.1,208.4h4.1    c2.4,0,6.8,0,6.8-6.5c0-3.3-2.2-5.3-6.1-5.3H618L618.1,208.4L618.1,208.4z"/>
		<path class="st4" d="M637.3,193.3h4.5l6.4,15.6l6.7-15.6h4.3l-8.9,20.3v13.1h-4.1v-13.1L637.3,193.3z"/>
	</g>
</g>
</svg>