<?xml version="1.0" encoding="utf-8"?>
<!-- Generator: Adobe Illustrator 23.0.0, SVG Export Plug-In . SVG Version: 6.00 Build 0)  -->
<svg version="1.1" id="Layer_1" xmlns="http://www.w3.org/2000/svg" xmlns:xlink="http://www.w3.org/1999/xlink" x="0px" y="0px"
	 viewBox="0 0 1123 137" style="enable-background:new 0 0 1123 137;" xml:space="preserve">
<style type="text/css">
	.st0{fill:#00254A;}
	.st1{fill:#3A84B6;}
	.st2{fill:#3486B7;}
</style>
<path class="st0" d="M125.6,46.5h3l7,15.4h-2.8l-2-4.6h-7.5l-2.1,4.6h-2.7L125.6,46.5z M130,55.5l-3-6.8l-3.1,6.8H130z"/>
<g>
	<path class="st0" d="M121.7,68.8c-0.3-0.5-0.4-1-0.4-1.5c0-1,0.4-1.8,1.3-2.5c0.8-0.7,1.9-1,3.4-1c1.3,0,2.4,0.3,3.1,0.9
		c0.7,0.6,1.1,1.3,1.1,2.2c0,1-0.4,1.9-1.2,2.6c-0.5,0.4-1.2,0.9-2.3,1.5l3.5,3.3c0.2-0.6,0.4-1,0.4-1.2c0.1-0.3,0.2-0.7,0.3-1.2
		h2.3c-0.1,1-0.4,1.9-0.9,2.8c-0.4,0.9-0.7,1.3-0.7,1.1l3.4,3.3h-3l-1.8-1.7c-0.7,0.6-1.4,1.1-2,1.3c-1,0.5-2.2,0.7-3.6,0.7
		c-2,0-3.4-0.4-4.3-1.3s-1.4-1.8-1.4-2.9c0-1.2,0.4-2.1,1.3-2.9c0.5-0.5,1.5-1.1,3-1.8C122.5,70,122,69.3,121.7,68.8 M127.4,77.4
		c0.7-0.4,1.2-0.8,1.6-1.2l-4.3-4.2c-1.2,0.7-2,1.2-2.4,1.5c-0.6,0.5-0.9,1.2-0.9,1.9c0,0.8,0.4,1.4,1.1,1.9
		c0.7,0.4,1.5,0.7,2.4,0.7C125.8,77.9,126.7,77.8,127.4,77.4 M127.2,68.7c0.5-0.5,0.8-1,0.8-1.6c0-0.4-0.2-0.8-0.6-1.2
		c-0.4-0.3-0.9-0.5-1.5-0.5c-1,0-1.6,0.3-2,0.8c-0.2,0.3-0.3,0.5-0.3,0.9s0.1,0.8,0.4,1.2c0.3,0.4,0.8,0.9,1.5,1.5
		C126.3,69.4,126.9,69,127.2,68.7"/>
	<path class="st0" d="M117.8,82.5h3.7l5.5,13l5.5-13h3.7v15.4h-2.5v-9.1c0-0.3,0-0.8,0.1-1.6c0-0.7,0-1.5,0-2.3l-5.6,13h-2.6
		l-5.5-13v0.5c0,0.4,0,1,0,1.7c0,0.8,0.1,1.3,0.1,1.7v9.1h-2.4C117.8,97.9,117.8,82.5,117.8,82.5z"/>
</g>
<polygon class="st0" points="83.7,0.5 25.9,98 39.3,98 86.3,15.3 86.3,98 96.7,98 96.7,0.5 "/>
<polygon class="st1" points="82.3,28.7 71.7,47.2 71.7,98 82.3,98 "/>
<polygon class="st1" points="100.2,28.7 110.7,47.2 110.7,98 100.2,98 "/>
<polygon class="st1" points="5.5,132.3 2.8,136.8 388.9,136.8 388.9,132.3 "/>
<polygon class="st1" points="187.5,14.1 186.6,18.6 384.4,18.6 384.4,136.8 388.9,136.8 388.9,14.1 "/>
<g>
	<path class="st0" d="M229.9,42.6h8.7l5.1,33.5l18.6-33.5h8.7l-12.9,64.8h-9.7l8-40.2L243,93h-5.4l-2.9-26l-8.1,40.4H217L229.9,42.6
		z"/>
	<path class="st0" d="M284.1,72c-2.6-6.3-4.1-10.7-4.1-14.4c0-8.9,5.1-15.7,14.4-15.7c7.6,0,11.6,5.2,11.6,11.9
		c0,7.9-4.1,12.8-10.6,18.6l-1.2,1.1l5,12.1c2-3.2,3.7-7.9,4.8-12.3h7.8c-1.7,7.4-5.4,15.8-9.1,21l5.3,13h-9.5l-2.4-5.6
		c-4,4.1-8.5,6.3-13.3,6.3c-8.5,0-12.2-6-12.2-13.2C270.7,85.2,276,78.6,284.1,72z M284.8,99.5c2.6,0,5.3-1.5,8.5-5.3l-6-14.5
		c-3.9,3.5-7.6,7.9-7.6,13.3C279.7,97.3,281.6,99.5,284.8,99.5z M292.3,64.9c2.9-2.6,5.2-6.1,5.2-10c0-3.2-1.4-4.6-3.6-4.6
		c-3,0-4.9,3.3-4.9,6.9c0,3,0.9,5.6,2.2,8.7L292.3,64.9z"/>
	<path class="st0" d="M340.3,107.5l0.1-13.1h-14.3l-5.3,13.1h-10.3l28-64.8h9.5l2,64.8H340.3z M340.5,57.5l-10.9,28.2h10.7
		L340.5,57.5z"/>
</g>
<g>
	<path class="st1" d="M178.7,57.4h6l-8,40.3h-6L178.7,57.4z"/>
	<path class="st1" d="M191.2,86.8c-0.2,1.2-0.3,2-0.3,2.8c0,1,0.2,1.7,0.7,2.2c0.5,0.6,1.3,1,2.4,1c1.2,0,2.3-0.4,3.1-1.1
		c1.1-1,1.4-2,2-4.6c0.3-1.3,0.4-2.5,0.4-3.6c0-1.6-0.8-2.7-2.7-3.5l-3.7-1.8c-3.1-1.5-4.2-3.5-4.2-6.3c0-1.5,0.1-2.8,0.5-4.4
		c0.7-3.4,1.8-5.9,3.6-7.7s3.9-2.8,7.3-2.8c3.4,0,5.2,0.8,6.7,2.4c0.9,0.9,1.6,2.7,1.6,4.9c0,1.1-0.1,2.4-0.4,4.1h-6
		c0.3-1.3,0.3-2.2,0.3-2.9c0-1-0.2-1.6-0.6-2.2c-0.3-0.5-1-0.8-2-0.8c-1.1,0-1.9,0.3-2.7,1c-1,0.9-1.5,2.3-1.8,4.1
		c-0.2,0.9-0.3,1.9-0.3,2.7c0,1.6,0.8,2.5,2.2,3.2l3.2,1.5c3.9,1.9,5.2,3.7,5.2,6.9c0,1.5-0.2,3.3-0.6,5.3c-0.9,4.6-1.9,6.6-3.6,8.3
		c-1.9,1.8-4.2,2.7-7.9,2.7c-3.5,0-5.4-0.8-6.9-2.4c-1.1-1.2-1.8-2.9-1.8-4.9c0-1.2,0.2-2.4,0.5-4.1
		C185.4,86.8,191.2,86.8,191.2,86.8z"/>
</g>
<g>
	<path class="st2" d="M464.9,42.9c-0.2-3.6-1.6-6.8-5.8-6.8c-5.9,0-6.7,6.5-6.7,14.5s0.8,14.5,6.7,14.5s6.4-7.1,6.4-11.7h-6.9V50
		h10.7v18h-3.2v-4.7H466c-0.9,3-3.7,5.4-7.5,5.4c-9,0-10.6-8.7-10.6-18c0-8.7,1.6-18,11.2-18c10,0,10.2,8.5,10.3,10.3L464.9,42.9
		L464.9,42.9z"/>
	<path class="st2" d="M477.2,33.3h4.3v30.9h14.1V68h-18.4V33.3z"/>
	<path class="st2" d="M523.3,50.6c0,8.7-1.6,18-11.2,18s-11.2-9.3-11.2-18s1.6-18,11.2-18C521.7,32.6,523.3,41.9,523.3,50.6z
		 M505.4,50.6c0,8,0.8,14.5,6.7,14.5c5.9,0,6.7-6.5,6.7-14.5s-0.8-14.5-6.7-14.5S505.4,42.6,505.4,50.6z"/>
	<path class="st2" d="M531.1,33.3h10.6c4.5,0,8.9,2.1,8.9,8.9c0,3.2-1.9,6.3-5.1,7.2v0.1c4.3,1,6.2,4.3,6.2,8.6c0,7-4,9.9-11.2,9.9
		h-9.4V33.3z M535.4,48.3h4.9c1.8,0,5.9-0.4,5.9-5.8c0-3.6-1.8-5.7-6-5.7h-4.8L535.4,48.3L535.4,48.3z M535.4,64.5h5.8
		c4.5,0,6.1-3.1,6.1-6.4c0-4.8-3.1-6.6-6.8-6.6h-5.1V64.5z"/>
	<path class="st2" d="M565.8,33.3h5.7l9.3,34.7h-4.5l-2.5-9.5h-11.1l-2.6,9.5h-4.5L565.8,33.3z M563.7,55h9.3l-4.4-16.8h-0.1
		L563.7,55z"/>
	<path class="st2" d="M586,33.3h4.3v30.9h14.1V68H586V33.3z"/>
	<path class="st2" d="M633.3,68H629V37.1h-8.7v-3.8H642v3.8h-8.7V68z"/>
	<path class="st2" d="M647.9,33.3h11.2c5.4,0,8.9,3.2,8.9,8.7c0,3.8-1.3,7.8-5.3,8.7v0.1c3,0.3,4.7,2.8,4.9,5.8l0.3,5.9
		c0.2,3.8,0.8,4.8,1.8,5.4h-5.1c-0.7-0.7-1.1-3.3-1.2-5l-0.3-5.4c-0.3-4.8-3-5.1-5.1-5.1h-5.8V68h-4.3L647.9,33.3L647.9,33.3z
		 M652.2,49h4.2c2.5,0,7.1,0,7.1-6.7c0-3.4-2.3-5.5-6.3-5.5h-5.1L652.2,49L652.2,49z"/>
	<path class="st2" d="M682.6,33.3h5.7l9.3,34.7h-4.5l-2.5-9.5h-11.1l-2.6,9.5h-4.5L682.6,33.3z M680.5,55h9.3l-4.4-16.8h-0.1
		L680.5,55z"/>
	<path class="st2" d="M702.7,33.3h5.5l11.5,29h0.1v-29h4.3V68h-5.9l-11.1-28.1H707V68h-4.3V33.3z"/>
	<path class="st2" d="M747.2,42.3c0-3.6-1.3-6.2-5.4-6.2c-3.6,0-5.7,1.9-5.7,5.6c0,9.8,16.4,3.9,16.4,16.6c0,8-5.9,10.3-10.8,10.3
		c-8.1,0-10.5-4.2-10.5-11.6h4.3c0,3.9,0.2,8.1,6.5,8.1c3.4,0,6-2.4,6-6.1c0-9.8-16.4-4.1-16.4-16.9c0-3.2,1.4-9.6,10.2-9.6
		c6.6,0,9.6,3.3,9.7,9.7L747.2,42.3L747.2,42.3z"/>
	<path class="st2" d="M766.2,33.3h5.7l9.3,34.7h-4.5l-2.5-9.5h-11.1l-2.6,9.5H756L766.2,33.3z M764.1,55h9.3L769,38.2h-0.1L764.1,55
		z"/>
	<path class="st2" d="M807.6,56.1c-0.4,6.6-3,12.6-10.5,12.6c-9.9,0-11.2-9.3-11.2-18s1.6-18,11.2-18c7.1,0,10.1,4,10.3,10.8h-4.5
		c-0.1-3.9-1.4-7.3-5.8-7.3c-5.9,0-6.7,6.5-6.7,14.5s0.8,14.5,6.7,14.5c5.2,0,5.9-4.9,6.1-9.1H807.6z"/>
	<path class="st2" d="M824.8,68h-4.3V37.1h-8.7v-3.8h21.7v3.8h-8.7V68z"/>
	<path class="st2" d="M839.4,33.3h4.3V68h-4.3V33.3z"/>
	<path class="st2" d="M873.8,50.6c0,8.7-1.6,18-11.2,18c-9.6,0-11.2-9.3-11.2-18s1.6-18,11.2-18S873.8,41.9,873.8,50.6z M856,50.6
		c0,8,0.8,14.5,6.7,14.5s6.7-6.5,6.7-14.5s-0.8-14.5-6.7-14.5C856.7,36.1,856,42.6,856,50.6z"/>
	<path class="st2" d="M881.7,33.3h5.5l11.5,29h0.1v-29h4.3V68h-5.9L886,39.9h-0.1V68h-4.3L881.7,33.3L881.7,33.3z"/>
	<path class="st2" d="M930.7,33.3h5.7l9.3,34.7h-4.5l-2.5-9.5h-11.1L925,68h-4.5L930.7,33.3z M928.6,55h9.3l-4.4-16.8h-0.1L928.6,55
		z"/>
	<path class="st2" d="M951.3,33.3h9.3c10.8,0,12.1,7.8,12.1,17.3c0,8.7-2.2,17.3-11.7,17.3h-9.7L951.3,33.3L951.3,33.3z M955.5,64.5
		h4.5c7.4,0,8.2-7.6,8.2-13.8c0-6.7-0.4-13.9-8.2-13.9h-4.5V64.5z"/>
	<path class="st2" d="M977.6,33.3h4.5l6.8,29.8h0.1l6.8-29.8h4.5L991.5,68h-5.4L977.6,33.3z"/>
	<path class="st2" d="M1005.6,33.3h4.3V68h-4.3V33.3z"/>
	<path class="st2" d="M1032.9,42.3c0-3.6-1.3-6.2-5.4-6.2c-3.6,0-5.7,1.9-5.7,5.6c0,9.8,16.4,3.9,16.4,16.6c0,8-5.9,10.3-10.8,10.3
		c-8.1,0-10.5-4.2-10.5-11.6h4.3c0,3.9,0.2,8.1,6.5,8.1c3.4,0,6-2.4,6-6.1c0-9.8-16.4-4.1-16.4-16.9c0-3.2,1.4-9.6,10.2-9.6
		c6.6,0,9.6,3.3,9.7,9.7L1032.9,42.3L1032.9,42.3z"/>
	<path class="st2" d="M1067,50.6c0,8.7-1.6,18-11.2,18s-11.2-9.3-11.2-18s1.6-18,11.2-18S1067,41.9,1067,50.6z M1049.2,50.6
		c0,8,0.8,14.5,6.7,14.5c5.9,0,6.7-6.5,6.7-14.5s-0.8-14.5-6.7-14.5C1049.9,36.1,1049.2,42.6,1049.2,50.6z"/>
	<path class="st2" d="M1074.9,33.3h11.2c5.4,0,8.9,3.2,8.9,8.7c0,3.8-1.3,7.8-5.3,8.7v0.1c3,0.3,4.7,2.8,4.9,5.8l0.3,5.9
		c0.2,3.8,0.8,4.8,1.8,5.4h-5.1c-0.7-0.7-1.1-3.3-1.2-5l-0.3-5.4c-0.3-4.8-3-5.1-5.1-5.1h-5.8V68h-4.3V33.3z M1079.1,49h4.2
		c2.5,0,7.1,0,7.1-6.7c0-3.4-2.3-5.5-6.3-5.5h-5.1V49H1079.1z"/>
	<path class="st2" d="M1099,33.3h4.7l6.6,16.2l6.9-16.2h4.5l-9.2,21.1V68h-4.3V54.4L1099,33.3z"/>
</g>
<g>
	<path class="st0" d="M464.8,110.4L464.8,110.4c-1,4.1-3.7,6.5-7.9,6.5c-6.5,0-9.1-5.7-9.1-15.4c0-9.4,2.6-15.5,9.6-15.5
		c7,0,8.4,6.1,8.4,9.1h-1.8c0-4-2.1-7.6-6.5-7.6c-5.9,0-7.9,5.6-7.9,14c0,8,1.6,14,7.6,14c5.6,0,7.4-5.5,7.4-10.7v-1.8h-8.2v-1.4
		h9.9v14.9h-1.4V110.4z"/>
	<path class="st0" d="M475.6,86.5h1.8v28.2h12.5v1.6h-14.2V86.5z"/>
	<path class="st0" d="M516.9,101.5c0,13.1-5.4,15.4-9.6,15.4c-5.7,0-9.7-3.8-9.7-15.4c0-11.6,4.2-15.4,9.7-15.4
		C513.2,86,516.9,89.9,516.9,101.5z M499.4,101.5c0,8.2,1.7,14,7.9,14c5.5,0,7.9-4.5,7.9-14c0-8.1-1.8-14-7.9-14
		C501.4,87.5,499.4,93.3,499.4,101.5z"/>
	<path class="st0" d="M526.2,86.5h8c5.8,0,7.8,3,7.8,7.4c0,4-2.2,6.3-5.5,6.7v0.1c4.3,0.3,6.5,3.4,6.5,7.5c0,5-3.3,8.1-8.5,8.1h-8.3
		V86.5z M533.7,100c3.8,0,6.6-1.8,6.6-6.1c0-4.1-2-6-5.8-6H528V100H533.7z M533.9,115c4.8,0,7.4-1.8,7.4-6.7c0-5.3-3.2-6.8-7.5-6.8
		H528V115H533.9z"/>
	<path class="st0" d="M565.5,107.1h-11.2l-2.8,9.3h-1.8l9.3-29.8h2.2l8.9,29.8h-1.8L565.5,107.1z M560,88.3L560,88.3l-5.3,17.4h10.5
		L560,88.3z"/>
	<path class="st0" d="M577.7,86.5h1.8v28.2h12.5v1.6h-14.2V86.5z"/>
	<path class="st0" d="M615.9,86.5h8.7c4.1,0,7.4,2.4,7.4,7.8c0,3.9-2.1,7-6,7.4v0.1c4.9,0.3,5.8,3.3,5.8,7.4v3.1c0,1.7,0.3,2.8,1,4
		h-2c-0.5-0.9-0.8-2.3-0.8-4.1v-3c0-4.3-1.2-6.7-6-6.7h-6.4v13.8h-1.8V86.5z M623.3,101.1c3.3,0,7-1.1,7-6.8c0-4-2.3-6.4-5.9-6.4
		h-6.7v13.2H623.3z"/>
	<path class="st0" d="M642,86.5h14.2v1.6h-12.5V100h11.7v1.6h-11.7v13.2h12.9v1.6H642V86.5z"/>
	<path class="st0" d="M678.2,107.1h-11.2l-2.8,9.3h-1.8l9.3-29.8h2.2l8.9,29.8H681L678.2,107.1z M672.7,88.3L672.7,88.3l-5.3,17.4
		h10.5L672.7,88.3z"/>
	<path class="st0" d="M705.6,95.1c0-4-2.1-7.6-6.5-7.6c-5.9,0-7.9,5.6-7.9,14c0,8,1.6,14,7.6,14c5.8,0,7.1-6.8,7.1-9.1h1.8
		c0,3.5-1.8,10.5-9.2,10.5c-6.5,0-9.1-5.7-9.1-15.4c0-9.4,2.6-15.5,9.6-15.5c7,0,8.4,6.1,8.4,9.1H705.6z"/>
	<path class="st0" d="M716.5,86.5h1.8v13.1h13.1V86.5h1.8v29.8h-1.8v-15.2h-13.1v15.2h-1.8V86.5z"/>
	<path class="st0" d="M745,112.1h1.8v4.3H745V112.1z"/>
	<path class="st0" d="M772.3,86.5h1.8v28.2h12.5v1.6h-14.2V86.5z"/>
	<path class="st0" d="M813.6,101.5c0,13.1-5.4,15.4-9.6,15.4c-5.7,0-9.7-3.8-9.7-15.4c0-11.6,4.2-15.4,9.7-15.4
		C810,86,813.6,89.9,813.6,101.5z M796.1,101.5c0,8.2,1.7,14,7.9,14c5.5,0,7.9-4.5,7.9-14c0-8.1-1.8-14-7.9-14
		C798.2,87.5,796.1,93.3,796.1,101.5z"/>
	<path class="st0" d="M838.2,95.1c0-4-2.1-7.6-6.5-7.6c-5.9,0-7.9,5.6-7.9,14c0,8,1.6,14,7.6,14c5.8,0,7.1-6.8,7.1-9.1h1.8
		c0,3.5-1.8,10.5-9.2,10.5c-6.5,0-9.1-5.7-9.1-15.4c0-9.4,2.6-15.5,9.6-15.5c7,0,8.4,6.1,8.4,9.1H838.2z"/>
	<path class="st0" d="M862.2,107.1H851l-2.8,9.3h-1.8l9.3-29.8h2.2l8.9,29.8h-1.8L862.2,107.1z M856.7,88.3L856.7,88.3l-5.3,17.4
		h10.5L856.7,88.3z"/>
	<path class="st0" d="M874.4,86.5h1.8v28.2h12.5v1.6h-14.2V86.5z"/>
	<path class="st0" d="M924.2,107.1H913l-2.8,9.3h-1.8l9.3-29.8h2.2l8.9,29.8h-1.8L924.2,107.1z M918.8,88.3L918.8,88.3l-5.3,17.4
		h10.5L918.8,88.3z"/>
	<path class="st0" d="M936.4,86.5h7.7c7,0.1,8.1,5.1,8.1,8.3c0,5.1-3.1,8.3-8.5,8.3h-5.6v13.3h-1.8V86.5z M944,101.7
		c3.6,0,6.6-1.9,6.6-6.9c0-4.3-2.3-6.9-6.3-6.9h-6v13.7H944z"/>
	<path class="st0" d="M961,86.5h7.7c7,0.1,8.1,5.1,8.1,8.3c0,5.1-3.1,8.3-8.5,8.3h-5.6v13.3H961V86.5z M968.5,101.7
		c3.6,0,6.6-1.9,6.6-6.9c0-4.3-2.3-6.9-6.3-6.9h-6v13.7H968.5z"/>
	<path class="st0" d="M985.6,86.5h8.7c4.1,0,7.4,2.4,7.4,7.8c0,3.9-2.1,7-6,7.4v0.1c4.9,0.3,5.8,3.3,5.8,7.4v3.1c0,1.7,0.3,2.8,1,4
		h-2c-0.5-0.9-0.8-2.3-0.8-4.1v-3c0-4.3-1.2-6.7-6-6.7h-6.4v13.8h-1.8V86.5z M992.9,101.1c3.3,0,7-1.1,7-6.8c0-4-2.3-6.4-5.9-6.4
		h-6.7v13.2H992.9z"/>
	<path class="st0" d="M1030,101.5c0,13.1-5.4,15.4-9.6,15.4c-5.7,0-9.7-3.8-9.7-15.4c0-11.6,4.2-15.4,9.7-15.4
		C1026.3,86,1030,89.9,1030,101.5z M1012.5,101.5c0,8.2,1.7,14,7.9,14c5.5,0,7.9-4.5,7.9-14c0-8.1-1.8-14-7.9-14
		C1014.5,87.5,1012.5,93.3,1012.5,101.5z"/>
	<path class="st0" d="M1052.4,107.1h-11.2l-2.8,9.3h-1.8l9.3-29.8h2.2l8.9,29.8h-1.8L1052.4,107.1z M1047,88.3L1047,88.3l-5.3,17.4
		h10.5L1047,88.3z"/>
	<path class="st0" d="M1079.8,95.1c0-4-2.1-7.6-6.5-7.6c-5.9,0-7.9,5.6-7.9,14c0,8,1.6,14,7.6,14c5.8,0,7.1-6.8,7.1-9.1h1.8
		c0,3.5-1.8,10.5-9.2,10.5c-6.5,0-9.1-5.7-9.1-15.4c0-9.4,2.6-15.5,9.6-15.5c7,0,8.4,6.1,8.4,9.1H1079.8z"/>
	<path class="st0" d="M1090.8,86.5h1.8v13.1h13.1V86.5h1.8v29.8h-1.8v-15.2h-13.1v15.2h-1.8V86.5z"/>
	<path class="st0" d="M1119.2,112.1h1.8v4.3h-1.8V112.1z"/>
</g>
</svg>
