<?xml version="1.0" encoding="utf-8"?>
<!-- Generator: Adobe Illustrator 23.0.0, SVG Export Plug-In . SVG Version: 6.00 Build 0)  -->
<svg version="1.1" id="Layer_1" xmlns="http://www.w3.org/2000/svg" xmlns:xlink="http://www.w3.org/1999/xlink" x="0px" y="0px"
	 viewBox="0 0 669 285.9" style="enable-background:new 0 0 669 285.9;" xml:space="preserve">
<style type="text/css">
	.st0{fill:#00254A;}
	.st1{fill:#3A84B6;}
</style>
<g>
	<path class="st0" d="M259,64.6h3l7,15.4h-2.9l-2-4.7h-7.5l-2.1,4.7h-2.8L259,64.6z M263.4,73.7l-3-6.8l-3.1,6.8H263.4z"/>
	<g>
		<path class="st0" d="M255,87c-0.3-0.5-0.4-1-0.4-1.5c0-1,0.4-1.8,1.3-2.5c0.8-0.7,2-1,3.4-1c1.3,0,2.4,0.3,3.1,0.9
			c0.8,0.6,1.1,1.3,1.1,2.2c0,1-0.4,1.9-1.2,2.6c-0.5,0.4-1.2,0.9-2.3,1.5l3.5,3.4c0.2-0.6,0.4-1,0.4-1.3c0.1-0.3,0.2-0.7,0.3-1.2
			h2.3c-0.1,1-0.4,1.9-0.9,2.9c-0.4,0.9-0.7,1.3-0.7,1.1l3.4,3.3h-3l-1.7-1.7c-0.7,0.6-1.4,1.1-2,1.3c-1,0.5-2.2,0.7-3.6,0.7
			c-2,0-3.5-0.4-4.4-1.3s-1.4-1.8-1.4-2.9c0-1.2,0.4-2.1,1.3-2.9c0.5-0.5,1.5-1.1,3-1.8C255.9,88.2,255.3,87.5,255,87 M260.7,95.6
			c0.7-0.4,1.2-0.8,1.6-1.2l-4.4-4.2c-1.2,0.7-2,1.2-2.4,1.5c-0.6,0.5-0.9,1.2-0.9,1.9c0,0.8,0.4,1.4,1.1,1.9
			c0.7,0.4,1.5,0.7,2.4,0.7C259.2,96.2,260,96,260.7,95.6 M260.6,86.9c0.5-0.5,0.8-1,0.8-1.6c0-0.4-0.2-0.8-0.6-1.2
			c-0.4-0.3-0.9-0.5-1.5-0.5c-1,0-1.6,0.3-2,0.8c-0.2,0.3-0.3,0.6-0.3,0.9c0,0.4,0.1,0.8,0.4,1.2c0.3,0.4,0.8,0.9,1.5,1.5
			C259.7,87.6,260.2,87.2,260.6,86.9"/>
		<path class="st0" d="M251.1,100.7h3.7l5.5,13.1l5.5-13.1h3.7v15.4H267V107c0-0.3,0-0.8,0.1-1.6c0-0.7,0-1.5,0-2.3l-5.6,13h-2.6
			l-5.6-13v0.5c0,0.4,0,1,0,1.7c0,0.8,0.1,1.3,0.1,1.7v9.1h-2.5v-15.4H251.1z"/>
	</g>
	<polygon class="st0" points="216.9,18.4 158.9,116.3 172.3,116.3 219.5,33.2 219.5,116.3 230,116.3 230,18.4 	"/>
	<polygon class="st1" points="215.4,46.7 204.9,65.3 204.9,116.3 215.4,116.3 	"/>
	<polygon class="st1" points="233.4,46.7 244,65.3 244,116.3 233.4,116.3 	"/>
	<polygon class="st1" points="138.4,150.7 135.7,155.3 523.4,155.3 523.4,150.7 	"/>
	<polygon class="st1" points="321.1,32 320.2,36.6 518.9,36.6 518.8,155.3 523.4,155.3 523.4,32 	"/>
	<g>
		<path class="st0" d="M363.8,60.7h8.8l5.1,33.7l18.6-33.7h8.8l-13,65.1h-9.7l8-40.4l-13.5,25.9h-5.4l-2.9-26.1l-8.1,40.6h-9.7
			L363.8,60.7z"/>
		<path class="st0" d="M418.2,90.2c-2.7-6.3-4.1-10.8-4.1-14.4c0-9,5.1-15.7,14.4-15.7c7.7,0,11.6,5.2,11.6,12
			c0,8-4.1,12.9-10.6,18.7l-1.2,1.1l5,12.2c2-3.2,3.7-8,4.8-12.3h7.9c-1.7,7.4-5.4,15.8-9.1,21.1l5.3,13.1h-9.5l-2.4-5.6
			c-4,4.1-8.5,6.3-13.4,6.3c-8.5,0-12.3-6-12.3-13.3C404.7,103.5,410,96.8,418.2,90.2z M418.8,117.9c2.7,0,5.3-1.6,8.5-5.3l-6-14.5
			c-3.9,3.6-7.6,8-7.6,13.4C413.7,115.6,415.6,117.9,418.8,117.9z M426.4,83.1c2.9-2.7,5.2-6.1,5.2-10.1c0-3.2-1.4-4.6-3.7-4.6
			c-3,0-4.9,3.3-4.9,7c0,3,0.9,5.7,2.2,8.7L426.4,83.1z"/>
		<path class="st0" d="M474.6,125.8l0.1-13.2h-14.4l-5.3,13.2h-10.3l28.1-65.1h9.5l2,65.1H474.6z M474.8,75.6l-11,28.3h10.8
			L474.8,75.6z"/>
	</g>
	<g>
		<path class="st1" d="M312.3,75.5h6l-8.1,40.5h-6L312.3,75.5z"/>
		<path class="st1" d="M324.8,105c-0.2,1.2-0.3,2.1-0.3,2.8c0,1,0.2,1.7,0.7,2.2c0.5,0.6,1.3,1,2.4,1c1.3,0,2.3-0.4,3.1-1.1
			c1.1-1,1.4-2,2-4.6c0.3-1.3,0.4-2.6,0.4-3.6c0-1.6-0.9-2.7-2.7-3.5l-3.8-1.8c-3.1-1.5-4.2-3.5-4.2-6.4c0-1.5,0.1-2.8,0.5-4.4
			c0.7-3.4,1.8-6,3.6-7.7c1.8-1.8,3.9-2.8,7.3-2.8s5.2,0.9,6.8,2.4c0.9,0.9,1.6,2.7,1.6,4.9c0,1.1-0.1,2.4-0.4,4.1h-6
			c0.3-1.3,0.3-2.2,0.3-3c0-1-0.2-1.7-0.6-2.2c-0.3-0.5-1-0.9-2-0.9c-1.1,0-1.9,0.3-2.7,1c-1,0.9-1.5,2.3-1.8,4.1
			c-0.2,0.9-0.3,1.9-0.3,2.7c0,1.7,0.8,2.6,2.2,3.2l3.2,1.5c3.9,1.9,5.2,3.7,5.2,6.9c0,1.5-0.2,3.4-0.6,5.4
			c-0.9,4.6-1.9,6.7-3.6,8.4c-1.9,1.8-4.2,2.7-8,2.7c-3.5,0-5.5-0.8-6.9-2.4c-1.1-1.2-1.8-2.9-1.8-5c0-1.3,0.2-2.4,0.5-4.1h5.9
			L324.8,105L324.8,105z"/>
	</g>
</g>
<g>
	<path class="st1" d="M32.1,196.5c-0.2-3.3-1.5-6.3-5.4-6.3c-5.5,0-6.2,6-6.2,13.5c0,7.4,0.7,13.5,6.2,13.5s5.9-6.6,5.9-10.9h-6.4
		v-3.2h9.9v16.7h-3v-4.4h-0.1c-0.8,2.8-3.4,5-7,5c-8.4,0-9.9-8.1-9.9-16.7c0-8.1,1.5-16.7,10.4-16.7c9.3,0,9.5,7.9,9.6,9.6
		L32.1,196.5L32.1,196.5z"/>
	<path class="st1" d="M43.6,187.5h4v28.7h13.1v3.5H43.6V187.5z"/>
	<path class="st1" d="M86.4,203.6c0,8.1-1.5,16.7-10.4,16.7s-10.4-8.6-10.4-16.7s1.5-16.7,10.4-16.7
		C84.9,186.9,86.4,195.5,86.4,203.6z M69.8,203.6c0,7.4,0.7,13.5,6.2,13.5c5.5,0,6.2-6,6.2-13.5s-0.7-13.5-6.2-13.5
		C70.5,190.2,69.8,196.2,69.8,203.6z"/>
	<path class="st1" d="M93.7,187.5h9.9c4.2,0,8.3,2,8.3,8.3c0,3-1.8,5.9-4.7,6.7v0.1c4,0.9,5.8,4,5.8,8c0,6.5-3.7,9.2-10.4,9.2h-8.7
		V187.5z M97.7,201.5h4.6c1.7,0,5.5-0.4,5.5-5.4c0-3.3-1.7-5.3-5.6-5.3h-4.5L97.7,201.5L97.7,201.5z M97.7,216.6h5.4
		c4.2,0,5.7-2.9,5.7-5.9c0-4.5-2.9-6.1-6.3-6.1h-4.7V216.6z"/>
	<path class="st1" d="M125.9,187.5h5.3l8.6,32.3h-4.2l-2.3-8.8h-10.3l-2.4,8.8h-4.2L125.9,187.5z M124,207.7h8.6l-4.1-15.6h-0.1
		L124,207.7z"/>
	<path class="st1" d="M144.7,187.5h4v28.7h13.1v3.5h-17.1V187.5z"/>
	<path class="st1" d="M188.7,219.8h-4v-28.7h-8.1v-3.5h20.2v3.5h-8.1V219.8z"/>
	<path class="st1" d="M202.3,187.5h10.4c5,0,8.3,3,8.3,8.1c0,3.5-1.2,7.3-4.9,8.1v0.1c2.8,0.3,4.4,2.6,4.6,5.4l0.3,5.5
		c0.2,3.5,0.7,4.5,1.7,5h-4.7c-0.7-0.7-1-3.1-1.1-4.6l-0.3-5c-0.3-4.5-2.8-4.7-4.7-4.7h-5.4v14.5h-4L202.3,187.5L202.3,187.5z
		 M206.3,202.1h3.9c2.3,0,6.6,0,6.6-6.2c0-3.2-2.1-5.1-5.9-5.1h-4.7L206.3,202.1L206.3,202.1z"/>
	<path class="st1" d="M234.5,187.5h5.3l8.6,32.3h-4.2L242,211h-10.3l-2.4,8.8H225L234.5,187.5z M232.6,207.7h8.6l-4.1-15.6H237
		L232.6,207.7z"/>
	<path class="st1" d="M253.2,187.5h5.1l10.7,27h0.1v-27h4v32.3h-5.5l-10.3-26.1h-0.1v26.1h-4V187.5z"/>
	<path class="st1" d="M294.6,195.9c0-3.3-1.2-5.8-5-5.8c-3.3,0-5.3,1.8-5.3,5.2c0,9.1,15.2,3.6,15.2,15.4c0,7.4-5.5,9.6-10,9.6
		c-7.5,0-9.8-3.9-9.8-10.8h4c0,3.6,0.2,7.5,6,7.5c3.2,0,5.6-2.2,5.6-5.7c0-9.1-15.2-3.8-15.2-15.7c0-3,1.3-8.9,9.5-8.9
		c6.1,0,8.9,3.1,9,9L294.6,195.9L294.6,195.9z"/>
	<path class="st1" d="M312.2,187.5h5.3l8.6,32.3H322l-2.3-8.8h-10.3l-2.4,8.8h-4.2L312.2,187.5z M310.3,207.7h8.6l-4.1-15.6h-0.1
		L310.3,207.7z"/>
	<path class="st1" d="M350.7,208.7c-0.4,6.1-2.8,11.7-9.8,11.7c-9.2,0-10.4-8.6-10.4-16.7c0-8.1,1.5-16.7,10.4-16.7
		c6.6,0,9.4,3.7,9.6,10h-4.2c-0.1-3.6-1.3-6.8-5.4-6.8c-5.5,0-6.2,6-6.2,13.5c0,7.4,0.7,13.5,6.2,13.5c4.8,0,5.5-4.6,5.7-8.5H350.7z
		"/>
	<path class="st1" d="M366.7,219.8h-4v-28.7h-8.1v-3.5h20.2v3.5h-8.1V219.8z"/>
	<path class="st1" d="M380.3,187.5h4v32.3h-4V187.5z"/>
	<path class="st1" d="M412.3,203.6c0,8.1-1.5,16.7-10.4,16.7c-8.9,0-10.4-8.6-10.4-16.7s1.5-16.7,10.4-16.7
		C410.8,186.9,412.3,195.5,412.3,203.6z M395.7,203.6c0,7.4,0.7,13.5,6.2,13.5c5.5,0,6.2-6,6.2-13.5s-0.7-13.5-6.2-13.5
		C396.4,190.2,395.7,196.2,395.7,203.6z"/>
	<path class="st1" d="M419.6,187.5h5.1l10.7,27h0.1v-27h4v32.3H434l-10.4-26.1h-0.1v26.1h-4L419.6,187.5L419.6,187.5z"/>
	<path class="st1" d="M465.2,187.5h5.3l8.6,32.3h-4.2l-2.3-8.8h-10.3l-2.4,8.8h-4.2L465.2,187.5z M463.2,207.7h8.6l-4.1-15.6h-0.1
		L463.2,207.7z"/>
	<path class="st1" d="M484.3,187.5h8.6c10,0,11.2,7.3,11.2,16.1c0,8.1-2,16.1-10.9,16.1h-9L484.3,187.5L484.3,187.5z M488.2,216.6
		h4.2c6.9,0,7.6-7.1,7.6-12.8c0-6.2-0.4-12.9-7.6-12.9h-4.2V216.6z"/>
	<path class="st1" d="M508.8,187.5h4.2l6.3,27.7h0.1l6.3-27.7h4.2l-8.2,32.3h-5L508.8,187.5z"/>
	<path class="st1" d="M534.8,187.5h4v32.3h-4V187.5z"/>
	<path class="st1" d="M560.2,195.9c0-3.3-1.2-5.8-5-5.8c-3.3,0-5.3,1.8-5.3,5.2c0,9.1,15.2,3.6,15.2,15.4c0,7.4-5.5,9.6-10,9.6
		c-7.5,0-9.8-3.9-9.8-10.8h4c0,3.6,0.2,7.5,6,7.5c3.2,0,5.6-2.2,5.6-5.7c0-9.1-15.2-3.8-15.2-15.7c0-3,1.3-8.9,9.5-8.9
		c6.1,0,8.9,3.1,9,9L560.2,195.9L560.2,195.9z"/>
	<path class="st1" d="M591.9,203.6c0,8.1-1.5,16.7-10.4,16.7c-8.9,0-10.4-8.6-10.4-16.7s1.5-16.7,10.4-16.7
		C590.4,186.9,591.9,195.5,591.9,203.6z M575.3,203.6c0,7.4,0.7,13.5,6.2,13.5c5.5,0,6.2-6,6.2-13.5s-0.7-13.5-6.2-13.5
		C576,190.2,575.3,196.2,575.3,203.6z"/>
	<path class="st1" d="M599.2,187.5h10.4c5,0,8.3,3,8.3,8.1c0,3.5-1.2,7.3-4.9,8.1v0.1c2.8,0.3,4.4,2.6,4.6,5.4l0.3,5.5
		c0.2,3.5,0.7,4.5,1.7,5h-4.7c-0.7-0.7-1-3.1-1.1-4.6l-0.3-5c-0.3-4.5-2.8-4.7-4.7-4.7h-5.4v14.5h-4V187.5z M603.1,202.1h3.9
		c2.3,0,6.6,0,6.6-6.2c0-3.2-2.1-5.1-5.9-5.1H603L603.1,202.1L603.1,202.1z"/>
	<path class="st1" d="M621.6,187.5h4.4l6.1,15.1l6.4-15.1h4.2l-8.6,19.6v12.6h-4v-12.6L621.6,187.5z"/>
</g>
<g>
	<path class="st0" d="M31.9,254.8L31.9,254.8c-0.9,3.8-3.4,6.1-7.4,6.1c-6.1,0-8.5-5.3-8.5-14.3c0-8.8,2.4-14.4,8.9-14.4
		s7.8,5.7,7.8,8.5h-1.7c0-3.7-2-7.1-6.1-7.1c-5.5,0-7.4,5.2-7.4,13c0,7.4,1.5,13,7.1,13c5.2,0,6.9-5.1,6.9-10v-1.7h-7.6v-1.3h9.2
		v13.9H32L31.9,254.8L31.9,254.8z"/>
	<path class="st0" d="M42,232.5h1.7v26.3h11.6v1.5H42.1L42,232.5L42,232.5z"/>
	<path class="st0" d="M80.4,246.5c0,12.2-5,14.3-8.9,14.3c-5.3,0-9-3.5-9-14.3s3.9-14.3,9-14.3C77,232,80.4,235.7,80.4,246.5z
		 M64.1,246.5c0,7.6,1.6,13,7.4,13c5.1,0,7.4-4.2,7.4-13c0-7.5-1.7-13-7.4-13C66,233.4,64.1,238.8,64.1,246.5z"/>
	<path class="st0" d="M89.1,232.5h7.4c5.4,0,7.3,2.8,7.3,6.9c0,3.7-2,5.9-5.1,6.2v0.1c4,0.3,6.1,3.2,6.1,7c0,4.7-3.1,7.5-7.9,7.5
		h-7.7V232.5z M96.1,245.1c3.5,0,6.1-1.7,6.1-5.7c0-3.8-1.9-5.6-5.4-5.6h-6.1v11.3H96.1z M96.3,259.1c4.5,0,6.9-1.7,6.9-6.2
		c0-4.9-3-6.3-7-6.3h-5.4v12.6H96.3z"/>
	<path class="st0" d="M125.7,251.7h-10.4l-2.6,8.7H111l8.7-27.8h2l8.3,27.8h-1.7L125.7,251.7z M120.6,234.2L120.6,234.2l-4.9,16.2
		h9.8L120.6,234.2z"/>
	<path class="st0" d="M137.1,232.5h1.7v26.3h11.6v1.5h-13.2L137.1,232.5L137.1,232.5z"/>
	<path class="st0" d="M172.6,232.5h8.1c3.8,0,6.9,2.2,6.9,7.3c0,3.6-2,6.5-5.6,6.9v0.1c4.6,0.3,5.4,3.1,5.4,6.9v2.9
		c0,1.6,0.3,2.6,0.9,3.7h-1.9c-0.5-0.8-0.7-2.1-0.7-3.8v-2.8c0-4-1.1-6.2-5.6-6.2h-6v12.9h-1.7L172.6,232.5L172.6,232.5z
		 M179.5,246.1c3.1,0,6.5-1,6.5-6.3c0-3.7-2.1-6-5.5-6h-6.2v12.3C174.3,246.1,179.5,246.1,179.5,246.1z"/>
	<path class="st0" d="M196.9,232.5h13.2v1.5h-11.6v11.1h10.9v1.5h-10.9v12.3h12v1.5h-13.6V232.5z"/>
	<path class="st0" d="M230.6,251.7h-10.4l-2.6,8.7h-1.7l8.7-27.8h2l8.3,27.8h-1.7L230.6,251.7z M225.5,234.2L225.5,234.2l-4.9,16.2
		h9.8L225.5,234.2z"/>
	<path class="st0" d="M256.2,240.5c0-3.7-2-7.1-6.1-7.1c-5.5,0-7.4,5.2-7.4,13c0,7.4,1.5,13,7.1,13c5.4,0,6.6-6.3,6.6-8.5h1.7
		c0,3.3-1.7,9.8-8.6,9.8c-6.1,0-8.5-5.3-8.5-14.3c0-8.8,2.4-14.4,8.9-14.4s7.8,5.7,7.8,8.5H256.2z"/>
	<path class="st0" d="M266.3,232.5h1.7v12.2h12.2v-12.2h1.7v27.8h-1.7v-14.2H268v14.2h-1.7V232.5z"/>
	<path class="st0" d="M292.8,256.4h1.7v4h-1.7V256.4z"/>
	<path class="st0" d="M318.3,232.5h1.7v26.3h11.6v1.5h-13.2L318.3,232.5L318.3,232.5z"/>
	<path class="st0" d="M356.7,246.5c0,12.2-5,14.3-8.9,14.3c-5.3,0-9-3.5-9-14.3s3.9-14.3,9-14.3C353.4,232,356.7,235.7,356.7,246.5z
		 M340.4,246.5c0,7.6,1.6,13,7.4,13c5.1,0,7.4-4.2,7.4-13c0-7.5-1.7-13-7.4-13C342.4,233.4,340.4,238.8,340.4,246.5z"/>
	<path class="st0" d="M379.6,240.5c0-3.7-2-7.1-6.1-7.1c-5.5,0-7.4,5.2-7.4,13c0,7.4,1.5,13,7.1,13c5.4,0,6.6-6.3,6.6-8.5h1.7
		c0,3.3-1.7,9.8-8.6,9.8c-6.1,0-8.5-5.3-8.5-14.3c0-8.8,2.4-14.4,8.9-14.4c6.5,0,7.8,5.7,7.8,8.5H379.6z"/>
	<path class="st0" d="M402,251.7h-10.4l-2.6,8.7h-1.7l8.7-27.8h2l8.3,27.8h-1.7L402,251.7z M396.9,234.2L396.9,234.2l-4.9,16.2h9.8
		L396.9,234.2z"/>
	<path class="st0" d="M413.3,232.5h1.7v26.3h11.6v1.5h-13.2L413.3,232.5L413.3,232.5z"/>
	<path class="st0" d="M459.7,251.7h-10.4l-2.6,8.7H445l8.7-27.8h2l8.3,27.8h-1.7L459.7,251.7z M454.7,234.2L454.7,234.2l-4.9,16.2
		h9.8L454.7,234.2z"/>
	<path class="st0" d="M471.1,232.5h7.2c6.5,0.1,7.5,4.7,7.5,7.7c0,4.7-2.9,7.7-7.9,7.7h-5.2v12.4H471L471.1,232.5L471.1,232.5z
		 M478.2,246.7c3.4,0,6.1-1.8,6.1-6.4c0-4-2.1-6.4-5.9-6.4h-5.6v12.8L478.2,246.7L478.2,246.7z"/>
	<path class="st0" d="M494,232.5h7.2c6.5,0.1,7.5,4.7,7.5,7.7c0,4.7-2.9,7.7-7.9,7.7h-5.2v12.4H494V232.5z M501,246.7
		c3.4,0,6.1-1.8,6.1-6.4c0-4-2.1-6.4-5.9-6.4h-5.6v12.8L501,246.7L501,246.7z"/>
	<path class="st0" d="M516.9,232.5h8.1c3.8,0,6.9,2.2,6.9,7.3c0,3.6-2,6.5-5.6,6.9v0.1c4.6,0.3,5.4,3.1,5.4,6.9v2.9
		c0,1.6,0.3,2.6,0.9,3.7h-1.9c-0.5-0.8-0.7-2.1-0.7-3.8v-2.8c0-4-1.1-6.2-5.6-6.2h-6v12.9h-1.7L516.9,232.5L516.9,232.5z
		 M523.7,246.1c3.1,0,6.5-1,6.5-6.3c0-3.7-2.1-6-5.5-6h-6.2v12.3C518.5,246.1,523.7,246.1,523.7,246.1z"/>
	<path class="st0" d="M558.2,246.5c0,12.2-5,14.3-8.9,14.3c-5.3,0-9-3.5-9-14.3s3.9-14.3,9-14.3C554.8,232,558.2,235.7,558.2,246.5z
		 M541.9,246.5c0,7.6,1.6,13,7.4,13c5.1,0,7.4-4.2,7.4-13c0-7.5-1.7-13-7.4-13C543.8,233.4,541.9,238.8,541.9,246.5z"/>
	<path class="st0" d="M579.1,251.7h-10.4l-2.6,8.7h-1.7l8.7-27.8h2l8.3,27.8h-1.7L579.1,251.7z M574.1,234.2L574.1,234.2l-4.9,16.2
		h9.8L574.1,234.2z"/>
	<path class="st0" d="M604.6,240.5c0-3.7-2-7.1-6.1-7.1c-5.5,0-7.4,5.2-7.4,13c0,7.4,1.5,13,7.1,13c5.4,0,6.6-6.3,6.6-8.5h1.7
		c0,3.3-1.7,9.8-8.6,9.8c-6.1,0-8.5-5.3-8.5-14.3c0-8.8,2.4-14.4,8.9-14.4s7.8,5.7,7.8,8.5H604.6z"/>
	<path class="st0" d="M614.9,232.5h1.7v12.2h12.2v-12.2h1.7v27.8h-1.7v-14.2h-12.2v14.2h-1.7V232.5z"/>
	<path class="st0" d="M641.3,256.4h1.7v4h-1.7V256.4z"/>
</g>
</svg>
